<svg id="Acoustic_Grand_Keyboard" data-name="Acoustic Grand Keyboard" xmlns="http://www.w3.org/2000/svg" viewBox="0 0 48 48"><defs><style>.cls-1{fill:#a66856;}.cls-2{fill:#735458;}.cls-3{fill:#ffdea9;}.cls-4{fill:#5c4346;}.cls-5{fill:#8f5040;}.cls-6{fill:#595959;}.cls-7{fill:#00ccb2;}.cls-8{fill:#00ab94;}.cls-9{fill:#fea832;}.cls-10{fill:#ff8700;}.cls-11{fill:#00eed0;}.cls-12{fill:#ffd400;}.cls-13{fill:#fdbf00;}</style></defs><polygon class="cls-1" points="8.38 10.01 10.9 7.45 8.19 4.73 5.65 7.27 8.38 10.01"/><path class="cls-2" d="M43.88,44.68a.63.63,0,0,1-.19,0,.71.71,0,0,1-.49-.87l.14-.47a4.37,4.37,0,0,0-1.46-3.9L5.27,2.81a.7.7,0,1,1,1-1l36.6,36.6a5.68,5.68,0,0,1,1.82,5.27l-.14.48A.7.7,0,0,1,43.88,44.68Z"/><path class="cls-3" d="M5.78,5.87,44.49,44.59a.37.37,0,0,1,0,.53l-1.11,1.11a.39.39,0,0,1-.53,0L4.14,7.51a.37.37,0,0,1,0-.53L5.25,5.87A.39.39,0,0,1,5.78,5.87Z"/><path class="cls-4" d="M43,11.43l-2.55-3.9L36.58,5a1.45,1.45,0,0,1,0-2h0a1.45,1.45,0,0,1,2,0l2.56,3.89L45.07,9.4a1.42,1.42,0,0,1,0,2h0A1.44,1.44,0,0,1,43,11.43Z"/><path class="cls-4" d="M39.75,14.72l-2.62-3.84L33.29,8.27a1.44,1.44,0,0,1,0-2h0a1.43,1.43,0,0,1,2,0L38,10l3.78,2.66a1.43,1.43,0,0,1,0,2h0A1.44,1.44,0,0,1,39.75,14.72Z"/><path class="cls-1" d="M4,43.78c-6.7-6.85-4.55-17.62,4-19.67a.41.41,0,0,1,.22,0c.67.25,4.36,1.47,6.36-.52a4.91,4.91,0,0,0,1.16-4.48.36.36,0,0,1,0-.27,10,10,0,0,1,1.79-2.42c7.58-8.3,23,6.55,13.93,14.28a10.18,10.18,0,0,1-2.23,1.6.37.37,0,0,1-.27,0,4.93,4.93,0,0,0-4.5,1.16c-1.52,1.52-1.65,4-.54,6.33a.39.39,0,0,1,0,.26C21.82,48.63,10.85,50.84,4,43.78Z"/><path class="cls-5" d="M28.58,15.85c3.43,3.64,4.79,9.06.39,12.81a9.39,9.39,0,0,1-2,1.48,1,1,0,0,1-.7.13A4.87,4.87,0,0,0,22,31.47c-1.47,1.48-1.64,3.87-.64,6.12a1.05,1.05,0,0,1,.06.72c-2,7.42-10.81,9.89-17.54,5.37l.1.1c6.9,7.06,17.87,4.85,19.94-3.67a.39.39,0,0,0,0-.26c-1.11-2.31-1-4.81.54-6.33a4.93,4.93,0,0,1,4.5-1.16.37.37,0,0,0,.27,0,10.18,10.18,0,0,0,2.23-1.6C36.73,26.17,33.6,19.16,28.58,15.85Z"/><path class="cls-6" d="M8.87,47.09A14.15,14.15,0,0,1,4,43.78C-1.44,38.26-1.1,30.2,3.68,26.21h0a5.85,5.85,0,0,1,3.44,5.16c.26,4,1.17,5.37,3.58,8.21C12,41.12,10.81,43.53,8.87,47.09Z"/><path class="cls-6" d="M11.38,30h-.11a2.29,2.29,0,0,1-1.81-1,.71.71,0,0,1,1.22-.71.92.92,0,0,0,.69.28,2.06,2.06,0,0,0,1.55-1.05c1.74-2.42,3.24-1.51,3.3-1.47a.7.7,0,0,1-.71,1.21c-.16-.06-.7,0-1.45,1.08A3.3,3.3,0,0,1,11.38,30ZM15.51,28Zm0,0Zm0,0Z"/><path class="cls-6" d="M18.58,38.63a.74.74,0,0,1-.35-.1,2.27,2.27,0,0,1-1-1.8,3.28,3.28,0,0,1,1.64-2.8c1.18-.84,1.11-1.4,1.11-1.4a.7.7,0,1,1,1.18-.75c0,.06.95,1.56-1.47,3.3a2.07,2.07,0,0,0-1.06,1.54,1,1,0,0,0,.29.7.69.69,0,0,1,.25,1A.71.71,0,0,1,18.58,38.63Z"/><path class="cls-6" d="M17.42,33.71a.74.74,0,0,1-.5-.2l-2.33-2.34a.7.7,0,0,1,1-1l2.33,2.33a.7.7,0,0,1-.49,1.2Z"/><path class="cls-4" d="M5.72,42.26h0a.87.87,0,0,1,0-1.17l5.56-6.78a.38.38,0,0,1,.55,0l1.93,1.93a.38.38,0,0,1,0,.55L6.9,42.32A.88.88,0,0,1,5.72,42.26Z"/><path class="cls-2" d="M42.27,8.67l-6.38,6.38-1,1-1.84,1.84-1,1-1.84,1.84-1,1-1.84,1.84-1,1-4.12,4.12a.38.38,0,0,1-.54,0l-2.39-2.39a.37.37,0,0,1,0-.53l4.11-4.11,1-1,1.84-1.84,1-1L29.11,16l1-1,1.84-1.84,1-1,6.4-6.4a.37.37,0,0,1,.53,0l2.4,2.39A.37.37,0,0,1,42.27,8.67Z"/><path class="cls-5" d="M38.32,13.2l-3.5-3.5A.49.49,0,0,1,35,9l6.73-5.89a.47.47,0,0,1,.62-.07l2.63,2.63a.46.46,0,0,1-.07.61L39,13.06C38.8,13.29,38.48,13.36,38.32,13.2Z"/><path class="cls-1" d="M47.93,3.89,44,8.91a.42.42,0,0,1-.62,0l-2-2-2.21-2.2a.43.43,0,0,1,0-.63l5-4a.43.43,0,0,1,.57.08l1.17,1.17,2,2A.44.44,0,0,1,47.93,3.89Z"/><path class="cls-5" d="M47.93,3.89,44,8.91a.42.42,0,0,1-.62,0l-2-2h0a.42.42,0,0,0,.62,0l3.94-5a.44.44,0,0,0-.08-.56l2,2A.44.44,0,0,1,47.93,3.89Z"/><polygon class="cls-4" points="35.89 15.05 34.89 16.05 31.94 13.14 32.94 12.15 35.89 15.05"/><polygon class="cls-4" points="33.05 17.89 32.06 18.88 29.11 15.98 30.1 14.98 33.05 17.89"/><polygon class="cls-4" points="30.22 20.72 29.22 21.71 26.27 18.81 27.27 17.82 30.22 20.72"/><polygon class="cls-4" points="27.38 23.55 26.39 24.55 23.44 21.64 24.43 20.65 27.38 23.55"/><path class="cls-7" d="M25.27,10.06a.35.35,0,1,0,.69,0V6.17l-.31-.6-.38.8Z"/><path class="cls-8" d="M30.11,8.68a.34.34,0,0,0,.38.34.35.35,0,0,0,.31-.35V4.79l-.33-.6-.36.8Z"/><path class="cls-9" d="M24.58,3.84a1.73,1.73,0,0,1-1.72,1.73.35.35,0,0,1-.35-.32.33.33,0,0,1,.34-.37A1,1,0,0,0,23.47,3a8.24,8.24,0,0,1-1.68-1.53V6.94a.35.35,0,1,1-.69,0V.34A.35.35,0,0,1,21.34,0l.11,0a.36.36,0,0,1,.29.16l.39.6a7.33,7.33,0,0,0,1.74,1.69A1.73,1.73,0,0,1,24.58,3.84Z"/><path class="cls-10" d="M24.58,3.84a1.73,1.73,0,0,1-1.72,1.73.35.35,0,0,1-.35-.32.33.33,0,0,1,.34-.37A1,1,0,0,0,23.47,3a8.24,8.24,0,0,1-1.68-1.53V7a.34.34,0,0,1-.34.34V0a.36.36,0,0,1,.29.16l.39.6a7.33,7.33,0,0,0,1.74,1.69A1.73,1.73,0,0,1,24.58,3.84Z"/><path class="cls-11" d="M24.58,11.79A1.39,1.39,0,1,1,26,10.4,1.38,1.38,0,0,1,24.58,11.79Z"/><path class="cls-12" d="M21.45,6a1.36,1.36,0,0,0-1-.47,1.38,1.38,0,1,0,0,2.76,1.37,1.37,0,0,0,1-.48,1.32,1.32,0,0,0,.34-.9A1.35,1.35,0,0,0,21.45,6Z"/><path class="cls-7" d="M29.42,10.4A1.38,1.38,0,1,1,30.8,9,1.38,1.38,0,0,1,29.42,10.4Z"/><path class="cls-13" d="M21.79,7a1.32,1.32,0,0,1-.34.9V6A1.35,1.35,0,0,1,21.79,7Z"/><path class="cls-11" d="M30.66,2.87a.35.35,0,0,0-.3-.05L28,3.48l-2.51.72a.34.34,0,0,0-.25.33V6.37L26,6.18,28,5.58,30.11,5l.69-.2V3.15A.35.35,0,0,0,30.66,2.87Z"/><path class="cls-7" d="M30.8,3.15V4.79l-.69.2L28,5.58V3.48l2.33-.66a.34.34,0,0,1,.44.33Z"/><path class="cls-7" d="M41.61,26.52a.29.29,0,0,0,.32.29.31.31,0,0,0,.27-.3V23.2l-.27-.52-.32.69Z"/><path class="cls-8" d="M45.74,25.34a.29.29,0,0,0,.33.29.3.3,0,0,0,.26-.3V22l-.28-.52-.31.68Z"/><path class="cls-9" d="M41,21.2a1.48,1.48,0,0,1-1.47,1.48.3.3,0,0,1-.3-.28.3.3,0,0,1,.3-.31.89.89,0,0,0,.52-1.6,7.55,7.55,0,0,1-1.43-1.31v4.67a.29.29,0,0,1-.27.3.29.29,0,0,1-.32-.29V18.21a.29.29,0,0,1,.21-.28l.09,0a.33.33,0,0,1,.25.13l.33.52A6.21,6.21,0,0,0,40.41,20,1.49,1.49,0,0,1,41,21.2Z"/><path class="cls-10" d="M41,21.2a1.48,1.48,0,0,1-1.47,1.48.3.3,0,0,1-.3-.28.3.3,0,0,1,.3-.31.89.89,0,0,0,.52-1.6,7.55,7.55,0,0,1-1.43-1.31v4.68a.29.29,0,0,1-.29.29V17.91a.33.33,0,0,1,.25.13l.33.52A6.21,6.21,0,0,0,40.41,20,1.49,1.49,0,0,1,41,21.2Z"/><path class="cls-11" d="M41,28a1.18,1.18,0,1,1,1.18-1.18A1.18,1.18,0,0,1,41,28Z"/><path class="cls-12" d="M38.34,23.09a1.16,1.16,0,0,0-.89-.41,1.18,1.18,0,1,0,0,2.36,1.16,1.16,0,0,0,.89-.41,1.12,1.12,0,0,0,.29-.77A1.1,1.1,0,0,0,38.34,23.09Z"/><path class="cls-7" d="M45.15,26.81a1.18,1.18,0,1,1,1.18-1.18A1.18,1.18,0,0,1,45.15,26.81Z"/><path class="cls-13" d="M38.63,23.86a1.12,1.12,0,0,1-.29.77V23.09A1.1,1.1,0,0,1,38.63,23.86Z"/><path class="cls-11" d="M46.21,20.38a.27.27,0,0,0-.26-.05l-2,.56-2.15.62a.28.28,0,0,0-.21.28v1.57l.59-.16L44,22.69l1.77-.51.59-.16V20.61A.27.27,0,0,0,46.21,20.38Z"/><path class="cls-7" d="M46.33,20.61V22l-.59.16L44,22.69v-1.8l2-.56a.27.27,0,0,1,.26.05A.27.27,0,0,1,46.33,20.61Z"/></svg>