<svg id="Acoustic_Grand_Keyboard" data-name="Acoustic Grand Keyboard" xmlns="http://www.w3.org/2000/svg" viewBox="0 0 48 48"><defs><style>.cls-1{fill:#6f6571;}.cls-2{fill:#4b3f4e;}.cls-3{fill:#5d5360;}.cls-4{fill:#857e87;}.cls-5{fill:#eceaec;}.cls-6{fill:#dad8db;}.cls-7{fill:#b3e59f;}.cls-8{fill:#ccf49f;}</style></defs><path class="cls-1" d="M46.45,12.39H1.55L.66,13.94V33.51A1.54,1.54,0,0,0,2.2,35.06H46.45l1.55-1V13.94A1.54,1.54,0,0,0,46.45,12.39Z"/><path class="cls-2" d="M10.84,16.26A3.87,3.87,0,1,1,7,12.39,3.87,3.87,0,0,1,10.84,16.26Z"/><path class="cls-2" d="M44.9,16.26A3.87,3.87,0,1,1,41,12.39,3.87,3.87,0,0,1,44.9,16.26Z"/><path class="cls-3" d="M1.55,32.52V12.39A1.54,1.54,0,0,0,0,13.94V34.06a1.54,1.54,0,0,0,1.55,1.55H3.87l19-.83,21.25.83h2.32A1.54,1.54,0,0,0,48,34.06H3.1A1.54,1.54,0,0,1,1.55,32.52Z"/><path class="cls-4" d="M24.77,24H23.23a.78.78,0,1,1,0-1.55h1.54a.78.78,0,1,1,0,1.55Z"/><path class="cls-4" d="M29.42,24H27.87a.78.78,0,0,1,0-1.55h1.55a.78.78,0,0,1,0,1.55Z"/><path class="cls-4" d="M20.13,24H18.58a.78.78,0,0,1,0-1.55h1.55a.78.78,0,0,1,0,1.55Z"/><path class="cls-4" d="M13.94,24H12.39a.78.78,0,1,1,0-1.55h1.55a.78.78,0,0,1,0,1.55Z"/><path class="cls-4" d="M35.61,24H34.06a.78.78,0,0,1,0-1.55h1.55a.78.78,0,1,1,0,1.55Z"/><path class="cls-5" d="M43.35,26.91H4.65l-.78,1v6.19l20.18.77,20.08-.77V27.87Z"/><path class="cls-6" d="M43.35,26.32H4.65a.78.78,0,0,0-.78.78v.77H44.13V27.1A.78.78,0,0,0,43.35,26.32Z"/><path class="cls-7" d="M20.13,16.26v2.32a.77.77,0,0,0,.77.77h6.2a.77.77,0,0,0,.77-.77v-.77l-6.19-2.33H20.9A.78.78,0,0,0,20.13,16.26Z"/><path class="cls-3" d="M17,17.81a.77.77,0,0,1-.77-.78V15.48a.77.77,0,0,1,.77-.77.78.78,0,0,1,.78.77V17A.78.78,0,0,1,17,17.81Z"/><path class="cls-3" d="M13.94,17.81a.78.78,0,0,1-.78-.78V15.48a.78.78,0,0,1,1.55,0V17A.78.78,0,0,1,13.94,17.81Z"/><path class="cls-3" d="M31,17.81a.78.78,0,0,1-.78-.78V15.48a.78.78,0,0,1,.78-.77.77.77,0,0,1,.77.77V17A.77.77,0,0,1,31,17.81Z"/><path class="cls-3" d="M34.06,17.81a.78.78,0,0,1-.77-.78V15.48a.78.78,0,0,1,1.55,0V17A.78.78,0,0,1,34.06,17.81Z"/><path class="cls-3" d="M1.55,19.35H48V20.9H1.55Z"/><path class="cls-2" d="M0,19.35H1.55V20.9H0Z"/><path class="cls-6" d="M3.87,34.06H44.13v1.55H3.87Z"/><path class="cls-3" d="M7,32.52a.78.78,0,0,1-.78-.78V26.32H7.74v5.42A.77.77,0,0,1,7,32.52Z"/><path class="cls-2" d="M6.19,26.32H7.74v1.55H6.19Z"/><path class="cls-3" d="M10.84,32.52a.78.78,0,0,1-.78-.78V26.32h1.55v5.42A.77.77,0,0,1,10.84,32.52Z"/><path class="cls-2" d="M10.06,26.32h1.55v1.55H10.06Z"/><path class="cls-3" d="M13.94,32.52a.78.78,0,0,1-.78-.78V26.32h1.55v5.42A.78.78,0,0,1,13.94,32.52Z"/><path class="cls-2" d="M13.16,26.32h1.55v1.55H13.16Z"/><path class="cls-3" d="M17,32.52a.77.77,0,0,1-.77-.78V26.32h1.55v5.42A.78.78,0,0,1,17,32.52Z"/><path class="cls-2" d="M16.26,26.32h1.55v1.55H16.26Z"/><path class="cls-3" d="M20.9,32.52a.78.78,0,0,1-.77-.78V26.32h1.55v5.42A.78.78,0,0,1,20.9,32.52Z"/><path class="cls-2" d="M20.13,26.32h1.55v1.55H20.13Z"/><path class="cls-3" d="M24,32.52a.77.77,0,0,1-.77-.78V26.32h1.54v5.42A.77.77,0,0,1,24,32.52Z"/><path class="cls-2" d="M23.23,26.32h1.54v1.55H23.23Z"/><path class="cls-3" d="M27.87,32.52a.77.77,0,0,1-.77-.78V26.32h1.55v5.42A.78.78,0,0,1,27.87,32.52Z"/><path class="cls-2" d="M27.1,26.32h1.55v1.55H27.1Z"/><path class="cls-3" d="M31,32.52a.78.78,0,0,1-.78-.78V26.32h1.55v5.42A.77.77,0,0,1,31,32.52Z"/><path class="cls-2" d="M30.19,26.32h1.55v1.55H30.19Z"/><path class="cls-3" d="M34.06,32.52a.78.78,0,0,1-.77-.78V26.32h1.55v5.42A.78.78,0,0,1,34.06,32.52Z"/><path class="cls-2" d="M33.29,26.32h1.55v1.55H33.29Z"/><path class="cls-3" d="M37.94,32.52a.78.78,0,0,1-.78-.78V26.32h1.55v5.42A.78.78,0,0,1,37.94,32.52Z"/><path class="cls-2" d="M37.16,26.32h1.55v1.55H37.16Z"/><path class="cls-3" d="M41,32.52a.77.77,0,0,1-.77-.78V26.32h1.55v5.42A.78.78,0,0,1,41,32.52Z"/><path class="cls-2" d="M40.26,26.32h1.55v1.55H40.26Z"/><path class="cls-8" d="M27.87,17.81H23.23a1.55,1.55,0,0,1-1.55-1.55v-.78H27.1a.78.78,0,0,1,.77.78Z"/></svg>