<svg id="Acoustic_Grand_Keyboard" data-name="Acoustic Grand Keyboard" xmlns="http://www.w3.org/2000/svg" viewBox="0 0 48 48"><defs><style>.cls-1{fill:#f8c460;}.cls-2{fill:#faaf42;}.cls-3{fill:#7a838b;}.cls-4{fill:#5d6972;}.cls-5{fill:#a7d0e1;}.cls-6{fill:#80bbce;}.cls-7{fill:#fff;}</style></defs><g id="Layer_31" data-name="Layer 31"><path class="cls-1" d="M19.49,20.77l1.92-1.92A6.17,6.17,0,0,1,25.79,17h11.9a6.15,6.15,0,0,1,4.38,1.82l4.33,4.32a5.48,5.48,0,0,1-3.87,9.35H25A3.09,3.09,0,0,1,22.32,31l-2.84-4.73a3.08,3.08,0,0,0-2.65-1.51H3.1V21.68H17.3a3.1,3.1,0,0,0,2.19-.91Z"/><path class="cls-2" d="M44.07,30.19h-12A12.86,12.86,0,0,1,21,24a3.09,3.09,0,0,0-2.65-1.51H4.65v-.77H3.1v3.09H16.83a3.08,3.08,0,0,1,2.65,1.51L22.32,31A3.09,3.09,0,0,0,25,32.52H42.53a5.47,5.47,0,0,0,5.17-3.71,5.46,5.46,0,0,1-3.63,1.38Z"/><path class="cls-1" d="M1.55,21.68H6.19L3.1,13.94H0Z"/><path class="cls-2" d="M4.81,18.22a3.8,3.8,0,0,0-3.9.27l.64,3.19H6.19Z"/><path class="cls-1" d="M1.55,24.77H6.19L3.1,29.42H0Z"/><path class="cls-2" d="M.78,27.08a3.85,3.85,0,0,0,2.85,1.54l2.56-3.85H1.55Z"/><circle class="cls-3" cx="3.87" cy="23.23" r="3.87"/><path class="cls-3" d="M41.81,36.39H39.48V32.52h2.33Z"/><path class="cls-3" d="M28.65,36.39H26.32V32.52h2.33Z"/><path class="cls-4" d="M41.81,34.06H39.48V32.52h2.33Z"/><path class="cls-4" d="M28.65,34.06H26.32V32.52h2.33Z"/><path class="cls-5" d="M29.42,13.94l17.37.72A1.16,1.16,0,0,0,48,13.55V13.5a1.16,1.16,0,0,0-1.11-1.16l-17.47-.73Z"/><path class="cls-5" d="M29.42,13.94l-17.37.72a1.16,1.16,0,0,1-1.21-1.11V13.5A1.16,1.16,0,0,1,12,12.34l17.47-.73Z"/><path class="cls-6" d="M26.32,14.06l3.1-.12V11.61l-3.1.13Z"/><path class="cls-6" d="M32.52,14.06l-3.1-.12V11.61l3.1.13Z"/><path class="cls-1" d="M43.35,36.39l3.2-1.07a1.1,1.1,0,0,1,1.39.7,1,1,0,0,1,.06.35,1.1,1.1,0,0,1-.75,1l-3.9,1.3H22.84a1.16,1.16,0,1,1,0-2.32Z"/><path class="cls-2" d="M47.76,35.69a1.08,1.08,0,0,0-1.21-.37l-3.2,1.07h2.33Z"/><path class="cls-2" d="M24,37.55a1.16,1.16,0,0,1,1.16-1.16H22.84a1.16,1.16,0,1,0,0,2.32h2.32A1.16,1.16,0,0,1,24,37.55Z"/><path class="cls-5" d="M37.94,17.05v4.63A3.09,3.09,0,0,0,41,24.77H47.5a5.31,5.31,0,0,0-1.1-1.6l-4.33-4.33A6.13,6.13,0,0,0,37.94,17.05Z"/><path class="cls-7" d="M42.58,22.32a.78.78,0,0,1-.55-.23l-.77-.77a.78.78,0,0,1,0-1.1.77.77,0,0,1,1.07,0l.78.78a.77.77,0,0,1,0,1.09.76.76,0,0,1-.55.23Z"/><path class="cls-6" d="M45.68,22.45H43.35a3.09,3.09,0,0,1-3.09-3.1V17.59a6,6,0,0,0-2.32-.54v4.63A3.09,3.09,0,0,0,41,24.77H47.5a5.31,5.31,0,0,0-1.1-1.6Z"/><path class="cls-3" d="M31,17h-3.1V10.84a1.55,1.55,0,1,1,3.1,0V17Z"/><path class="cls-4" d="M31,17h-3.1V15.48H31Z"/><rect class="cls-5" x="23.23" y="19.35" width="4.65" height="5.42" rx="1.55"/><path class="cls-6" d="M27.1,22.45a1.54,1.54,0,0,1-1.55-1.55V19.35h-.78a1.55,1.55,0,0,0-1.54,1.55v2.33a1.54,1.54,0,0,0,1.54,1.54h1.55a1.54,1.54,0,0,0,1.55-1.54v-.78Z"/><rect class="cls-5" x="30.97" y="19.35" width="4.65" height="5.42" rx="1.55"/><path class="cls-6" d="M34.84,22.45a1.54,1.54,0,0,1-1.55-1.55V19.35h-.77A1.55,1.55,0,0,0,31,20.9v2.33a1.54,1.54,0,0,0,1.55,1.54h1.54a1.54,1.54,0,0,0,1.55-1.54v-.78Z"/><path class="cls-4" d="M7.74,23.23a4.11,4.11,0,0,0-.07-.78H5.74L7.1,21.09A3.94,3.94,0,0,0,6,20L4.65,21.36V19.43a4,4,0,0,0-1.55,0v1.93L1.74,20a3.94,3.94,0,0,0-1.1,1.09L2,22.45H.08A3.68,3.68,0,0,0,.08,24H2L.64,25.36a3.94,3.94,0,0,0,1.1,1.09L3.1,25.09V27a4,4,0,0,0,1.55,0V25.09L6,26.45a3.94,3.94,0,0,0,1.1-1.09L5.74,24H7.67A3.94,3.94,0,0,0,7.74,23.23Z"/></g></svg>