<?xml version="1.0" encoding="utf-8"?>
<!-- Generator: Adobe Illustrator 25.0.0, SVG Export Plug-In . SVG Version: 6.00 Build 0)  -->
<svg version="1.1" xmlns="http://www.w3.org/2000/svg" xmlns:xlink="http://www.w3.org/1999/xlink" x="0px" y="0px"
	 viewBox="0 0 48 48" style="enable-background:new 0 0 48 48;" xml:space="preserve">
<style type="text/css">
	.st0{fill:#F5DAA7;}
	.st1{fill:#EDC472;}
	.st2{fill:#BC9B5B;}
	.st3{fill:#9A6A53;}
	.st4{fill:#855B47;}
	.st5{fill:#F4E2C1;}
	.st6{fill:#F7F7F7;}
	.st7{fill:#C8C3CA;}
	.st8{fill:#B78C7A;}
	.st9{fill:#7A5341;}
	.st10{fill:#704C3B;}
	.st11{fill:#CF9875;}
	.st12{fill:#C7865B;}
	.st13{clip-path:url(#SVGID_3_);}
	.st14{clip-path:url(#SVGID_4_);fill:#FFFFFF;stroke:#231F20;stroke-miterlimit:10;}
	.st15{fill:#FFFFFF;stroke:#231F20;stroke-miterlimit:10;}
	.st16{fill:none;stroke:#000000;stroke-width:4.5;stroke-miterlimit:10;}
	.st17{fill:#463C4B;}
	.st18{fill:#555A6E;}
	.st19{fill:#F06423;}
	.st20{fill:#FAA51E;}
	.st21{fill:#D7E6F0;}
	.st22{fill:#DADADA;}
	.st23{fill:#C4C6C6;}
	.st24{fill:#EDEEEF;}
	.st25{fill:#797981;}
	.st26{fill:#5A5A63;}
	.st27{fill:#494951;}
	.st28{fill:#29BAED;}
	.st29{fill:#DD9554;}
	.st30{fill:#CC8244;}
	.st31{fill:#805333;}
	.st32{fill:#A56A43;}
	.st33{fill:#CB8252;}
	.st34{fill:#ECF0F1;}
	.st35{fill:#603E26;}
	.st36{fill:#F9EAB0;}
	.st37{fill:#F5EFCA;}
	.st38{fill:#464F5D;}
	.st39{fill:#F3D55B;}
	.st40{fill:#6F6571;}
	.st41{fill:#4B3F4E;}
	.st42{fill:#5D5360;}
	.st43{fill:#857E87;}
	.st44{fill:#ECEAEC;}
	.st45{fill:#DAD8DB;}
	.st46{fill:#B3E59F;}
	.st47{fill:#CCF49F;}
	.st48{fill:#792A47;}
	.st49{fill:#A62B38;}
	.st50{fill:#D22D28;}
	.st51{fill:#FF2F19;}
	.st52{fill:#FFFFFF;}
	.st53{fill:#202666;}
	.st54{fill:#FDE6BB;}
	.st55{fill:#FE501F;}
	.st56{fill:#FD7226;}
	.st57{fill:#FCCD76;}
	.st58{fill:#FB932C;}
	.st59{fill:#4D2857;}
	.st60{fill:#B19046;}
	.st61{fill:#F0C419;}
	.st62{fill:#24AE5F;}
	.st63{fill:#E64C3C;}
	.st64{fill:#3B97D3;}
	.st65{fill:#E74444;}
	.st66{fill:#CE3536;}
	.st67{fill:#D9DBDD;}
	.st68{fill:#E8EDF1;}
	.st69{fill:#F3DB70;}
	.st70{fill:#D5DAF3;}
	.st71{fill:#A2AEE6;}
	.st72{fill:#FFC344;}
	.st73{fill:#FFE177;}
	.st74{fill:#BEC6ED;}
	.st75{fill:#8795DE;}
	.st76{fill-rule:evenodd;clip-rule:evenodd;fill:#A46A5A;}
	.st77{fill-rule:evenodd;clip-rule:evenodd;fill:#845252;}
	.st78{fill-rule:evenodd;clip-rule:evenodd;fill:#FFD05B;}
	.st79{fill-rule:evenodd;clip-rule:evenodd;fill:#704242;}
	.st80{fill-rule:evenodd;clip-rule:evenodd;fill:#FFC244;}
	.st81{fill-rule:evenodd;clip-rule:evenodd;fill:#596C76;}
	.st82{fill-rule:evenodd;clip-rule:evenodd;fill:#465A61;}
	.st83{fill:#A46A5A;}
	.st84{fill:#607D8B;}
	.st85{fill:#9C27B0;}
	.st86{fill:#03A9F4;}
	.st87{fill:#8BC34A;}
	.st88{fill:#FFC107;}
	.st89{fill:#FF9800;}
	.st90{fill:#F44336;}
	.st91{fill:#D7CCC8;}
	.st92{fill:#F57C00;}
	.st93{fill:#F9BB4B;}
	.st94{fill:#FCF05A;}
	.st95{fill:#66342E;}
	.st96{fill:#D3843D;}
	.st97{fill:#704C55;}
	.st98{fill:#5A344B;}
	.st99{fill:#E63950;}
	.st100{fill:#EFE2DD;}
	.st101{fill:#FF435B;}
	.st102{fill:#FFF5F5;}
	.st103{fill:#9B786F;}
	.st104{fill:#925CB4;}
	.st105{fill:#814BA2;}
	.st106{fill:#6F3F8A;}
	.st107{fill:#FFD185;}
	.st108{fill:#FFBA48;}
	.st109{fill:#FF5A35;}
	.st110{fill:#FF7A3C;}
	.st111{fill:#FFE8C2;}
	.st112{fill:#4F4F4F;}
	.st113{fill:#FF3A2F;}
	.st114{fill:#353535;}
	.st115{fill:#FB4A59;}
	.st116{fill:#F82F40;}
	.st117{fill:#3F5959;}
	.st118{fill:#384848;}
	.st119{fill:#EFF5F6;}
	.st120{fill:#CBE5E7;}
	.st121{fill:#FCC16D;}
	.st122{fill:#FCB44D;}
	.st123{fill:#A66856;}
	.st124{fill:#735458;}
	.st125{fill:#FFDEA9;}
	.st126{fill:#5C4346;}
	.st127{fill:#8F5040;}
	.st128{fill:#595959;}
	.st129{fill:#7F221C;}
	.st130{fill:#913122;}
	.st131{fill:#FFEFB0;}
	.st132{fill:#DB2116;}
	.st133{fill:#883F2E;}
	.st134{fill:#A44F3E;}
	.st135{fill:#D8AA5E;}
	.st136{fill:#E9B665;}
	.st137{fill:#E19974;}
	.st138{fill:#FFEFD2;}
	.st139{fill:#D7D0D6;}
	.st140{fill:#E8AD8C;}
	.st141{fill:#6D3326;}
	.st142{fill:#BA5D4F;}
	.st143{fill:#F5A871;}
	.st144{fill:#E89A5E;}
	.st145{fill:#A34F41;}
	.st146{fill:#D68A5A;}
	.st147{fill:#FFE5C4;}
	.st148{fill:#FDD1A7;}
	.st149{fill:#873F30;}
	.st150{fill:#C86F5C;}
	.st151{fill:#6C3328;}
	.st152{fill:#54231D;}
	.st153{fill:#B5B1B3;}
	.st154{fill:#FEC93E;}
	.st155{fill:#EFB533;}
	.st156{fill:#F7A738;}
	.st157{fill:#EA952F;}
	.st158{fill:#FD6E2E;}
	.st159{fill:#EA551B;}
	.st160{fill:#F5A257;}
	.st161{fill:#DB8F52;}
	.st162{fill:#75360D;}
	.st163{fill:#FFBF7B;}
	.st164{fill:#00CCB2;}
	.st165{fill:#00AB94;}
	.st166{fill:#FEA832;}
	.st167{fill:#FF8700;}
	.st168{fill:#00EED0;}
	.st169{fill:#FFD400;}
	.st170{fill:#FDBF00;}
	.st171{fill:#08B865;}
	.st172{fill:#E41F2D;}
	.st173{fill:#FD4755;}
	.st174{fill:#FB2B3A;}
	.st175{fill:#FED2A4;}
	.st176{fill:#FFE5C2;}
	.st177{fill:#FFBD86;}
	.st178{fill:#FE99A0;}
	.st179{fill:#FD8087;}
	.st180{fill:#C57A44;}
	.st181{fill:#09A755;}
	.st182{fill:#FEDF30;}
	.st183{fill:#FED402;}
	.st184{fill:#FAC600;}
	.st185{fill:#46CC8D;}
	.st186{fill:#00C27A;}
	.st187{fill:#FE7701;}
	.st188{fill:#FE860A;}
	.st189{fill:#C41926;}
	.st190{fill:#E89C5D;}
	.st191{fill:#F4B37D;}
	.st192{fill:#E8626C;}
	.st193{fill:#40C6C2;}
	.st194{fill:#FFC999;}
	.st195{fill:#4A4A68;}
	.st196{fill:#333356;}
	.st197{fill:#EDEDED;}
	.st198{fill:#C9C9C9;}
	.st199{fill:#FF9900;}
	.st200{fill:#FFCE00;}
	.st201{fill:#FBBD00;}
	.st202{fill:#ED8100;}
	.st203{fill:#FFE431;}
	.st204{fill:#FF9F00;}
	.st205{fill:#FFE666;}
	.st206{fill:#FFBF00;}
	.st207{fill:#FCCD31;}
	.st208{fill:#F2B016;}
	.st209{fill:#4A4D4F;}
	.st210{fill:#D3CBC2;}
	.st211{fill:#6D7072;}
	.st212{fill:#BAAFA6;}
	.st213{fill:#888C8E;}
	.st214{fill:#B4B4B4;}
	.st215{fill:#FFE999;}
	.st216{fill:#FFCF3B;}
	.st217{fill:#C1C1C1;}
	.st218{fill:#FFBC19;}
	.st219{fill:#94E6FF;}
	.st220{fill:#315F83;}
	.st221{fill:#267EA8;}
	.st222{fill:#3B3F5F;}
	.st223{fill:#D8F2FB;}
	.st224{fill:#35495E;}
	.st225{fill:#556080;}
	.st226{fill:#E4C05C;}
	.st227{fill:#E4C05C;stroke:#E4C05C;stroke-width:2;stroke-linecap:round;stroke-linejoin:round;stroke-miterlimit:10;}
	.st228{fill:#B57F5F;}
	.st229{fill:#966A5B;}
	.st230{fill:#FFD15B;}
	.st231{fill:#A5C3DC;}
	.st232{fill:#8697CB;}
	.st233{fill:#E0E0E0;}
	.st234{fill:#CCCCCC;}
	.st235{fill:#8E8E8E;}
	.st236{fill:#A0A0A0;}
	.st237{fill:#E13732;}
	.st238{fill:#F05055;}
	.st239{fill:#D24605;}
	.st240{fill:#FFCE53;}
	.st241{fill:#FFB833;}
	.st242{fill:#4999D1;}
	.st243{fill:#43AAF0;}
	.st244{fill:#FF2E23;}
	.st245{fill:#FF4A26;}
	.st246{fill:#C6805D;}
	.st247{fill:#77CC7D;}
	.st248{fill:#52BD7E;}
	.st249{fill:#98DB7C;}
	.st250{fill:#D48C64;}
	.st251{fill:#FFD18D;}
	.st252{fill:#FBBD80;}
	.st253{fill:#F3B573;}
	.st254{fill:#434A54;}
	.st255{fill:#DA4453;}
	.st256{fill:#FFCE54;}
	.st257{fill:#ED5564;}
	.st258{fill-rule:evenodd;clip-rule:evenodd;fill:#4BC3EF;}
	.st259{fill-rule:evenodd;clip-rule:evenodd;fill:#1BADDE;}
	.st260{fill-rule:evenodd;clip-rule:evenodd;fill:#DBD8DB;}
	.st261{fill-rule:evenodd;clip-rule:evenodd;fill:#C9BFC8;}
	.st262{fill:#421815;}
	.st263{fill:#FCB982;}
	.st264{fill:#FDDBBF;}
	.st265{fill:#FCCA9F;}
	.st266{fill:#C6865C;}
	.st267{fill:#B16E3D;}
	.st268{fill:#454545;}
	.st269{fill:#EFECEF;}
	.st270{fill:#E2DFE2;}
	.st271{fill:#3F3736;}
	.st272{fill:#C4755B;}
	.st273{fill:#FFE3A1;}
	.st274{fill-rule:evenodd;clip-rule:evenodd;fill:#D48C64;}
	.st275{fill:#DBD8DB;}
	.st276{fill:#BB5D4C;}
	.st277{fill:#465A61;}
	.st278{fill:#596C76;}
	.st279{fill:#E5E1E5;}
	.st280{fill:#7A8C98;}
	.st281{fill:#FEDBA6;}
	.st282{fill:#EAB14D;}
	.st283{fill:#617881;}
	.st284{fill:#E28086;}
	.st285{fill:#DD636E;}
	.st286{fill:#FFE07D;}
	.st287{fill:#ECBE6B;}
	.st288{fill:#E9EDF5;}
	.st289{fill:#CDD2E1;}
	.st290{fill:#FFAA00;}
	.st291{fill:#FF9500;}
	.st292{fill:#555A65;}
	.st293{fill:#333940;}
	.st294{fill:#E6A373;}
	.st295{fill:#CC8552;}
	.st296{fill:#FFDF40;}
	.st297{fill:#FFBE40;}
	.st298{fill:#FF9F40;}
	.st299{fill:#F77E00;}
	.st300{fill:#FFF04A;}
	.st301{fill:#00DDC1;}
	.st302{fill:#A24603;}
	.st303{fill:#F2D813;}
	.st304{fill:#803602;}
	.st305{fill:#3A3A3A;}
	.st306{fill:#AFAFAF;}
	.st307{fill:#686868;}
	.st308{fill:#925A15;}
	.st309{fill:#F3F2F6;}
	.st310{fill:#BF7D5A;}
	.st311{fill:#AA6256;}
	.st312{fill:#894E46;}
	.st313{fill:#DBA660;}
	.st314{fill:#E49542;}
	.st315{fill:#F9EFDA;}
	.st316{fill:#756E78;}
	.st317{fill:#665E66;}
	.st318{fill:#F9F6F9;}
	.st319{fill:#BC6C59;}
	.st320{fill:#994B39;}
	.st321{fill:#FEEC96;}
	.st322{fill:#F5DB64;}
	.st323{fill:#5D5E69;}
	.st324{fill:#FFE09F;}
	.st325{fill:#ECBD83;}
	.st326{fill:#F6D190;}
	.st327{fill:#FF8086;}
	.st328{fill:#E5646E;}
	.st329{fill:#357DA3;}
	.st330{fill:#F48A3B;}
	.st331{fill:#FFC233;}
	.st332{fill:#CDDEE0;}
	.st333{fill:#C8C5C9;}
	.st334{fill:#785353;}
	.st335{fill:#6E4848;}
	.st336{fill:#B7E4F8;}
	.st337{fill:#93D6F4;}
	.st338{fill:#DBF1FB;}
	.st339{fill:#8DCAFC;}
	.st340{fill:#64B9FC;}
	.st341{fill:#C4E1FF;}
	.st342{fill:#B5DBFD;}
	.st343{fill:#FEE7C9;}
	.st344{fill:#FFD496;}
	.st345{fill:#A3E440;}
	.st346{fill:#99D53B;}
	.st347{fill:#BCEA73;}
	.st348{fill:#C76D3D;}
	.st349{fill:#AA5E33;}
	.st350{fill:#D67F4F;}
	.st351{fill:#8DC637;}
	.st352{fill:#A79BA7;}
	.st353{fill:#7A6D79;}
	.st354{fill:#C4E2FF;}
	.st355{fill:#60B7FF;}
	.st356{fill:#B3DAFE;}
	.st357{fill:#F3F0F3;}
	.st358{fill:#EFEDEF;}
	.st359{fill:#CBC4CC;}
	.st360{fill:#26A6FE;}
	.st361{fill:#D2555A;}
	.st362{fill:#FF6464;}
	.st363{fill:#D7DEED;}
	.st364{fill:#B8BFD4;}
	.st365{fill:#959CB3;}
	.st366{fill:#F8C460;}
	.st367{fill:#FAAF42;}
	.st368{fill:#7A838B;}
	.st369{fill:#5D6972;}
	.st370{fill:#A7D0E1;}
	.st371{fill:#80BBCE;}
	.st372{fill:#FFD8CA;}
	.st373{fill:#FFBFAE;}
	.st374{fill:#FFE5D8;}
	.st375{fill:#E5EEF9;}
	.st376{fill:#56595E;}
	.st377{fill:#7F8284;}
	.st378{fill:#A5A5A4;}
	.st379{fill:#95A5A5;}
	.st380{fill:#BDC3C7;}
	.st381{fill:#7F8C8D;}
</style>
<g id="Acoustic_Grand_Keyboard">
	<g id="_x31_2">
		<g>
			<g>
				<g>
					<g>
						<g>
							<path class="st310" d="M9.79,27.79l1.76-1.02c1.26-0.34,2.5-0.73,3.7-1.15c0.6-0.21,1.11-0.41,1.58-0.6
								c0.94-0.38,1.85-0.82,2.67-1.3c2.16-1.25,3.84-2.76,4.86-4.38c0,0,0-0.01,0.01-0.01l1.16-0.68
								c-0.15,0.32-0.33,0.63-0.52,0.94c-1.08,1.7-2.83,3.29-5.08,4.58c-0.85,0.5-1.78,0.95-2.75,1.34
								c-0.52,0.21-1.05,0.42-1.62,0.61C13.71,26.75,11.78,27.32,9.79,27.79z"/>
						</g>
					</g>
					<g>
						<g>
							<path class="st311" d="M47.88,10.41l-0.02,5.45L12.84,36.22l0.02-5.45L47.88,10.41z"/>
						</g>
						<g>
							<path class="st312" d="M44.98,14.44l-0.02,1.42L16.87,32.19l0.02-1.42L44.98,14.44z"/>
						</g>
						<g>
							<path class="st310" d="M12.86,30.77l-0.02,5.45L0,28.8l0.02-5.45L12.86,30.77z"/>
						</g>
						<g>
							<path class="st313" d="M47.89,10.42l-12.66,7.36l-1.76,1.02l-12.81,7.44c0,0,0,0.01-0.01,0.01l-1.16,0.68l-6.61,3.84
								l-0.48-0.28l-0.58-0.33L0.02,23.36l0.93-0.54l0.78-0.45l20.63-11.99l4.48-2.6c0,0,0.01,0,0.02-0.01L35.04,3l3.83,2.22h0.01
								l1.21,0.69l1.06,0.61l0.65,0.38l1.49,0.85h0.01l1.1,0.64l1.8,1.05l0.6,0.34L47.89,10.42z"/>
						</g>
						<g>
							<path class="st310" d="M41.79,6.91c-0.42,0.15-0.85,0.28-1.28,0.41l-0.05,0.02c-0.31,0.1-0.61,0.19-0.92,0.29
								c-2.04,0.65-4,1.54-5.86,2.6c-3.81,2.2-6.74,4.97-9.36,7.65l-0.91,0.92l-0.11-0.11h-0.01l0.1,0.14
								c-3.03,3.1-6.16,6.32-10.53,8.83c-0.85,0.49-1.74,0.95-2.62,1.35l-0.09,0.04l-0.54-0.41l0.25-0.11
								c0.86-0.39,1.74-0.84,2.57-1.32c4.29-2.48,7.38-5.66,10.38-8.74l0.93-0.95c2.48-2.53,5.45-5.41,9.49-7.75
								c1.9-1.1,3.93-1.99,6.02-2.67l0.09-0.03c0.28-0.09,0.54-0.17,0.83-0.26c0.32-0.11,0.65-0.2,0.97-0.31L41.79,6.91z"/>
							<path class="st310" d="M35.22,17.78l-1.76,1.02c-1.26,0.34-2.5,0.73-3.7,1.15c-0.6,0.21-1.11,0.41-1.58,0.6
								c-0.94,0.38-1.85,0.82-2.67,1.3c-2.16,1.25-3.84,2.76-4.86,4.38c0,0,0,0.01-0.01,0.01l-1.16,0.68
								c0.15-0.32,0.33-0.63,0.52-0.94c1.08-1.7,2.83-3.29,5.08-4.58c0.85-0.5,1.78-0.95,2.75-1.34c0.52-0.21,1.05-0.42,1.62-0.61
								C31.3,18.81,33.23,18.25,35.22,17.78z"/>
							<path class="st310" d="M9.79,17.68l1.76-1.02c1.26-0.34,2.5-0.73,3.7-1.15c0.6-0.21,1.11-0.41,1.58-0.6
								c0.94-0.38,1.85-0.82,2.67-1.3c2.16-1.25,3.84-2.76,4.86-4.38c0,0,0-0.01,0.01-0.01l1.16-0.68
								c-0.15,0.32-0.33,0.63-0.52,0.94c-1.08,1.7-2.83,3.29-5.08,4.58c-0.85,0.5-1.78,0.95-2.75,1.34
								c-0.52,0.21-1.05,0.42-1.62,0.61C13.71,16.65,11.78,17.21,9.79,17.68z"/>
							<path class="st310" d="M46.8,9.79c-0.13,0.09-0.27,0.17-0.39,0.25l-3.42,1.97c-1.19,0.68-2.39,1.38-3.58,2.06
								c-1.87,1.06-3.95,2.25-6.44,3.08c-0.14,0.05-0.31,0.11-0.53,0.11c-0.21,0-0.41-0.05-0.55-0.16
								c-0.28-0.18-0.34-0.49-0.29-0.71c0.19-0.68,0.97-1.21,1.71-1.63c0.15-0.09,0.3-0.17,0.45-0.26c0.77-0.43,1.6-0.9,2.6-1.47
								c0.38-0.22,0.77-0.45,1.15-0.67c0.84-0.48,1.79-1.03,2.49-1.66c0.19-0.17,0.36-0.35,0.51-0.5c0.25-0.26,0.5-0.52,0.81-0.76
								c0.23-0.19,0.52-0.38,0.89-0.6l0.12-0.06c0.19-0.12,0.41-0.22,0.61-0.33c-2.77,0.73-5.34,1.75-7.51,3
								c-0.59,0.34-1.15,0.7-1.67,1.07c-0.83,0.6-1.6,1.24-2.35,1.86l-0.12,0.1l-10.68,8.98c-2.72,2.28-5.54,4.65-8.16,7.04
								l-0.03,0.02l-0.04,0.03l-0.67-0.25l0.14-0.12l0.05-0.05c2.75-2.49,5.69-4.96,8.52-7.35l10.34-8.68
								c0.75-0.62,1.59-1.33,2.51-1.98c0.53-0.37,1.12-0.75,1.73-1.1c2.39-1.39,5.24-2.49,8.33-3.23h0.01l1.1,0.64
								c-0.59,0.23-1.14,0.5-1.65,0.8l-0.12,0.06c-0.33,0.19-0.59,0.36-0.81,0.54c-0.27,0.2-0.5,0.44-0.71,0.66l-0.09,0.09
								c-0.16,0.16-0.31,0.33-0.49,0.49c-0.7,0.64-1.64,1.18-2.55,1.72l-1.21,0.7c-1,0.58-1.82,1.03-2.59,1.46l-0.05,0.03
								c-0.14,0.07-0.28,0.16-0.42,0.23c-0.63,0.36-1.29,0.8-1.43,1.3c-0.01,0.06,0.01,0.15,0.06,0.18
								c0.03,0.02,0.05,0.02,0.09,0.03c0.04,0,0.12-0.03,0.22-0.06c2.45-0.81,4.49-1.98,6.29-3.02c1.19-0.68,2.39-1.38,3.58-2.06
								l3.55-2.05c0.04-0.02,0.09-0.05,0.12-0.07L46.8,9.79z"/>
							<path class="st310" d="M15.35,21.26c-0.17-0.11-0.38-0.17-0.61-0.17c-0.01,0-0.01,0-0.02,0c-0.29,0-0.52,0.09-0.68,0.15
								l-0.65,0.26c-1.15,0.44-2.3,0.89-3.45,1.33c-1.05,0.41-2.08,0.82-3.12,1.23c-0.11,0.04-0.22,0.09-0.35,0.14l-0.11,0.03
								c-0.36,0.13-0.85,0.3-1.23,0.52c-0.26,0.14-0.43,0.29-0.53,0.46c-0.19,0.32-0.09,0.67,0.26,0.92
								c0.26,0.18,0.63,0.28,1.01,0.28c0.09,0,0.16,0,0.25-0.01c1.12-0.1,2.31-0.48,3.23-0.8c1.09-0.38,2.17-0.87,3.28-1.51
								c0.89-0.51,1.7-1.06,2.38-1.53c0.23-0.16,0.55-0.38,0.62-0.68C15.68,21.64,15.57,21.41,15.35,21.26z M14.52,22.14
								c-0.71,0.48-1.49,1-2.34,1.49c-1.07,0.62-2.1,1.09-3.14,1.46c-0.87,0.3-2.01,0.65-3.02,0.75c-0.27,0.02-0.51-0.02-0.66-0.13
								c-0.19-0.13-0.12-0.23-0.1-0.28c0.04-0.07,0.15-0.16,0.32-0.26c0.28-0.17,0.68-0.31,1.03-0.44l0.05-0.02
								c0.19-0.06,0.35-0.13,0.5-0.18c1.03-0.42,2.07-0.82,3.1-1.24l0.07-0.02c1.12-0.44,2.24-0.87,3.37-1.31l0.65-0.25
								c0.13-0.05,0.23-0.09,0.33-0.1l0.17,0.05c0.03,0.03,0.04,0.06,0.04,0.09C14.89,21.87,14.66,22.03,14.52,22.14z"/>
							<path class="st310" d="M40.09,5.91l-0.03,0.02l-0.07-0.05c-0.49-0.3-1.5-0.09-2.22,0.19c-1.21,0.47-2.38,1.02-3.57,1.72
								c-1.97,1.14-3.7,2.44-5.38,3.71l-0.1,0.07c-0.77,0.58-1.56,1.17-2.37,1.74c-1.45,1.03-3.06,2.07-4.77,3.05
								c-4.48,2.58-9.8,4.99-15.84,7.16c-1.01,0.36-1.9,0.54-2.64,0.54c-0.5,0-0.94-0.07-1.3-0.25c-0.49-0.21-0.79-0.6-0.85-1.01
								l0.78-0.45c-0.01,0.02-0.01,0.03-0.02,0.05c-0.11,0.28-0.04,0.7,0.48,0.94c0.68,0.31,1.77,0.2,3.22-0.32
								c6.01-2.16,11.3-4.54,15.74-7.12c1.69-0.97,3.28-1.98,4.72-3c0.81-0.58,1.61-1.18,2.38-1.77l0.06-0.04
								c1.67-1.27,3.41-2.58,5.43-3.74c1.23-0.71,2.43-1.29,3.69-1.77c0.25-0.1,0.82-0.3,1.45-0.37h0.01L40.09,5.91z"/>
						</g>
					</g>
				</g>
			</g>
		</g>
	</g>
	<g>
		<path class="st313" d="M40.13,29.28l-24.98,15.3c-0.49,0.3-1.13,0.15-1.42-0.34c-0.3-0.49-0.15-1.13,0.34-1.42l24.98-15.3
			c0.49-0.3,1.13-0.15,1.42,0.34C40.77,28.34,40.62,28.98,40.13,29.28z"/>
		<path class="st310" d="M15.15,44.58l24.98-15.3c0.49-0.3,0.64-0.94,0.34-1.42L13.72,44.23C14.02,44.72,14.66,44.88,15.15,44.58z"
			/>
		<path class="st311" d="M39.73,24.79c-1.43,0.88-1.89,2.74-1.02,4.15c0.86,1.41,2.73,1.85,4.16,0.97c1.43-0.87,1.89-2.74,1.02-4.15
			C43.02,24.35,41.16,23.91,39.73,24.79z"/>
		<path class="st312" d="M42.86,29.91c1.43-0.88,1.89-2.74,1.02-4.15l-5.18,3.17C39.57,30.35,41.43,30.78,42.86,29.91z"/>
	</g>
</g>
<g id="Layer_2">
</g>
</svg>
