<svg id="Acoustic_Grand_Keyboard" data-name="Acoustic Grand Keyboard" xmlns="http://www.w3.org/2000/svg" viewBox="0 0 48 48"><defs><style>.cls-1{fill:#883f2e;}.cls-2{fill:#a44f3e;}.cls-3{fill:#d8aa5e;}.cls-4{fill:#e9b665;}.cls-5{fill:#e19974;}.cls-6{fill:#ffefd2;}.cls-7{fill:#d7d0d6;}.cls-8{fill:#e8ad8c;}.cls-9{fill:#6d3326;}</style></defs><path class="cls-1" d="M25.26,40.12a.56.56,0,0,1-.1.87c-3.62,2.32-8.37,6.33-12.72,4.75A15.44,15.44,0,0,1,6.49,42a14.06,14.06,0,0,1-1-1.14A15.27,15.27,0,0,1,2.74,36c-1.58-4.35,2.42-9.1,4.74-12.72a.57.57,0,0,1,.88-.1,3.71,3.71,0,0,0,5.26.18L15,22a3.67,3.67,0,0,0,.27-4.73.56.56,0,0,1,.22-.84c3.39-1.58,7.09-3.71,10.88-3.22,2.9.38,5.3-.75,7.81-2l3,3c-1.23,2.51-2.35,4.9-2,7.81.5,3.79-1.63,7.49-3.21,10.88a.57.57,0,0,1-.84.22,3.67,3.67,0,0,0-4.73.26l-1.4,1.4a3.72,3.72,0,0,0,.19,5.26Z"/><path class="cls-2" d="M23.08,37.94a.57.57,0,0,1-.1.88c-3.62,2.32-8.37,6.32-12.72,4.74a15.07,15.07,0,0,1-4.81-2.71A15.27,15.27,0,0,1,2.74,36c-1.58-4.35,2.42-9.1,4.74-12.72a.57.57,0,0,1,.88-.1,3.71,3.71,0,0,0,5.26.18L15,22a3.67,3.67,0,0,0,.27-4.73.56.56,0,0,1,.22-.84c3.39-1.58,7.09-3.71,10.88-3.22,2.9.38,5.3-.75,7.81-2l.86.86c-1.22,2.51-2.35,4.91-2,7.81.49,3.79-1.64,7.49-3.22,10.88A.56.56,0,0,1,29,31a3.67,3.67,0,0,0-4.73.27L22.9,32.68A3.73,3.73,0,0,0,23.08,37.94Z"/><path class="cls-3" d="M2.83,21.56,1.41,21A1.27,1.27,0,0,1,1,18.91L17.12,2.79a1.27,1.27,0,0,1,1.37-.28l2.4,1Z"/><path class="cls-4" d="M10.64,30.22a1.75,1.75,0,0,1-1.24-3,.72.72,0,1,1,1,1,.31.31,0,0,0,.44.44L15,24.6a1.75,1.75,0,0,1,2.48,2.47.72.72,0,0,1-1,0,.71.71,0,0,1,0-1,.32.32,0,0,0,.09-.22.3.3,0,0,0-.09-.22.29.29,0,0,0-.44,0l-4.09,4.09A1.75,1.75,0,0,1,10.64,30.22Z"/><path class="cls-4" d="M20,39.59a1.76,1.76,0,0,1-1.23-3l4.09-4.09a.32.32,0,0,0,.09-.22.29.29,0,0,0-.09-.22.29.29,0,0,0-.44,0,.72.72,0,1,1-1-1,1.75,1.75,0,0,1,2.48,2.47l-4.1,4.1a.31.31,0,0,0,0,.44.33.33,0,0,0,.45,0,.71.71,0,1,1,1,1,1.75,1.75,0,0,1-1.24.52Z"/><path class="cls-5" d="M18.76,34.12a.71.71,0,0,1-.51-.21l-3.68-3.68a.72.72,0,0,1,0-1,.71.71,0,0,1,1,0l3.69,3.68a.72.72,0,0,1-.51,1.23Z"/><path class="cls-6" d="M.72,24.39a.71.71,0,0,1-.51-.21.72.72,0,0,1,0-1L22.09,1.28a.71.71,0,0,1,1,0,.72.72,0,0,1,0,1L1.23,24.18A.73.73,0,0,1,.72,24.39Z"/><path class="cls-6" d="M10.84,35.8a.72.72,0,0,1,0-1L23.1,22.52a.72.72,0,0,1,1,1L11.85,35.8A.71.71,0,0,1,10.84,35.8Z"/><path class="cls-6" d="M12.68,37.64a.72.72,0,0,1,0-1L24.94,24.36a.72.72,0,1,1,1,1L13.7,37.64A.72.72,0,0,1,12.68,37.64Z"/><path class="cls-7" d="M1.67,47.52a.73.73,0,0,1-.51-.21.71.71,0,0,1,0-1l2-1.95a.7.7,0,0,1,1,0,.71.71,0,0,1,0,1l-1.95,2A.71.71,0,0,1,1.67,47.52Z"/><path class="cls-5" d="M14.12,38,12.68,39.2c-1.08.87-2.57.84-3.58,1.85L4.69,45.46a.32.32,0,0,1-.46,0L3,44.25a.32.32,0,0,1,0-.46l4.41-4.41c1-1,1-2.5,1.85-3.58l1.16-1.44a.62.62,0,0,1,.94,0l2.79,2.79a.62.62,0,0,1-.05.93Z"/><path class="cls-8" d="M13.2,37.11l-1.44,1.16c-1.09.88-2.57.85-3.58,1.86L3.77,44.54a.34.34,0,0,1-.46,0L3,44.25a.32.32,0,0,1,0-.46l4.41-4.41c1-1,1-2.5,1.85-3.58l1.16-1.44a.62.62,0,0,1,.94,0l1.87,1.87a.63.63,0,0,1-.05.93Z"/><path class="cls-9" d="M47.28,8.29a.73.73,0,0,1-.51-.21L45.12,6.43a.72.72,0,1,1,1-1l1.65,1.65a.72.72,0,0,1,0,1,.71.71,0,0,1-.51.21Z"/><path class="cls-9" d="M42.56,3.57a.71.71,0,0,1-.51-.21L40.4,1.7a.71.71,0,0,1,1-1l1.65,1.65a.72.72,0,0,1-.5,1.23Z"/><path class="cls-5" d="M26.72,25.39a1.22,1.22,0,0,1-1.75,0l-1.9-1.91a1.22,1.22,0,0,1,0-1.75L44,2l1.27,1.27,1.23,1.24Z"/><path class="cls-8" d="M25.49,24.15a1.23,1.23,0,0,1-1.75,0l-.67-.68a1.22,1.22,0,0,1,0-1.75L44,2l1.27,1.27h0Z"/><path class="cls-1" d="M46.29,5.26,45,6.58a1.26,1.26,0,0,1-1.76,0L42.15,5.51,42,5.37h0l-.11-.1a1.26,1.26,0,0,1,0-1.76l1.31-1.31a1.24,1.24,0,0,1,1.75,0l1.33,1.33a1.24,1.24,0,0,1,0,1.75Z"/><path class="cls-2" d="M45.2,4.17,43.88,5.49a1.23,1.23,0,0,1-1.73,0l0,0-.24-.23a1.26,1.26,0,0,1,0-1.76l1.31-1.31a1.24,1.24,0,0,1,1.75,0l.24.24A1.24,1.24,0,0,1,45.2,4.17Z"/></svg>