<svg id="Acoustic_Grand_Keyboard" data-name="Acoustic Grand Keyboard" xmlns="http://www.w3.org/2000/svg" viewBox="0 0 48 48"><defs><style>.cls-1{fill:#faa51e;}.cls-2{fill:#e13732;}.cls-3{fill:#f05055;}.cls-4{fill:#f06423;}.cls-5{fill:#463c4b;}.cls-6{fill:#d24605;}.cls-7{fill:#a5c3dc;}.cls-8{fill:#d7e6f0;}</style></defs><path class="cls-1" d="M47.46,2.91l.11-.11a.9.9,0,0,0,0-1.27L46.31.26A.9.9,0,0,0,45,.26l-.11.11A1.79,1.79,0,0,1,43.66.9h-1a1.75,1.75,0,0,0-1.26.52l-2,2L44.4,8.5l2-2a1.79,1.79,0,0,0,.53-1.27v-1a1.8,1.8,0,0,1,.52-1.26Z"/><path class="cls-2" d="M42.24,11,37.17,5.92a.89.89,0,0,1,0-1.26.9.9,0,0,1,1.27,0l5.07,5.06A.9.9,0,1,1,42.24,11Z"/><path class="cls-3" d="M39.71,8.46,37.17,5.92a.89.89,0,0,1,0-1.26.9.9,0,0,1,1.27,0L41,7.19a.9.9,0,0,1,0,1.27A.89.89,0,0,1,39.71,8.46Z"/><path class="cls-2" d="M33.37,19.86,28.3,14.79a.89.89,0,0,1,0-1.26.9.9,0,0,1,1.27,0l5.07,5.06a.9.9,0,0,1-1.27,1.27Z"/><path class="cls-2" d="M5.5,47.74.43,42.67a.9.9,0,0,1,0-1.27.89.89,0,0,1,1.26,0l5.07,5.07a.9.9,0,0,1,0,1.27A.89.89,0,0,1,5.5,47.74Z"/><path class="cls-2" d="M28.94,23l-3.8-3.8a.9.9,0,0,1,0-1.27.89.89,0,0,1,1.26,0l3.8,3.8a.9.9,0,0,1,0,1.27.89.89,0,0,1-1.26,0Z"/><path class="cls-4" d="M37.17,5.92,42.24,11l-7.6,7.6-5.07-5.07Z"/><path class="cls-1" d="M32.11,16.07l-2.54-2.54,7-7L39.08,9.1Z"/><path class="cls-4" d="M25.14,19.22l3.8,3.8L15.63,36.33l-3.8-3.8Z"/><path class="cls-1" d="M24.5,19.86l1.9,1.9L13.73,34.43l-1.9-1.9Z"/><path class="cls-5" d="M39.07,11.63,36.54,9.09l.63-.63a.9.9,0,0,1,1.27,0l1.27,1.26a.9.9,0,0,1,0,1.27Z"/><path class="cls-6" d="M35.91,12.26a1.8,1.8,0,0,1,0-2.54l.63-.63,2.53,2.54-.63.63A1.79,1.79,0,0,1,35.91,12.26Z"/><path class="cls-7" d="M30.84,22.4l-5.07-5.07a.9.9,0,0,1,0-1.27L27,14.79a.89.89,0,0,1,1.26,0l5.07,5.07a.9.9,0,0,1,0,1.27L32.1,22.4A.89.89,0,0,1,30.84,22.4Z"/><path class="cls-8" d="M28.3,19.86l-2.53-2.53a.9.9,0,0,1,0-1.27L27,14.79a.89.89,0,0,1,1.26,0l2.54,2.54a.89.89,0,0,1,0,1.26l-1.27,1.27A.9.9,0,0,1,28.3,19.86Z"/><path class="cls-3" d="M10.56,41.4l-3.8-3.8a.9.9,0,0,1,0-1.27l3.8-3.8a.9.9,0,0,1,1.27,0l3.8,3.8a.9.9,0,0,1,0,1.27l-3.8,3.8a.9.9,0,0,1-1.27,0Z"/><path class="cls-2" d="M10.56,41.4l-1.9-1.9,4.44-4.43,2.53,2.53-3.8,3.8a.9.9,0,0,1-1.27,0Z"/><path class="cls-4" d="M6.76,37.6,3,41.4a.9.9,0,0,1-1.27,0l5.07,5.07a.9.9,0,0,1,0-1.27l3.8-3.8Z"/><path class="cls-4" d="M45.41,5.29a1.79,1.79,0,0,1,0,2.53l-1.9,1.9L41,7.19l1.91-1.9A1.79,1.79,0,0,1,45.41,5.29Z"/><circle class="cls-5" cx="25.77" cy="22.4" r="0.9"/><circle class="cls-5" cx="23.24" cy="24.93" r="0.9"/><circle class="cls-5" cx="20.7" cy="27.46" r="0.9"/><circle class="cls-5" cx="18.17" cy="30" r="0.9"/><circle class="cls-5" cx="15.63" cy="32.53" r="0.9"/><circle class="cls-5" cx="11.2" cy="36.97" r="0.9"/><path class="cls-3" d="M30.84,17.33,28.3,14.79a.89.89,0,0,1,0-1.26.9.9,0,0,1,1.27,0l2.53,2.53a.9.9,0,0,1,0,1.27A.89.89,0,0,1,30.84,17.33Z"/><path class="cls-3" d="M3,45.2.43,42.67a.9.9,0,0,1,0-1.27.89.89,0,0,1,1.26,0l2.54,2.54a.89.89,0,0,1,0,1.26A.9.9,0,0,1,3,45.2Z"/><path class="cls-3" d="M27,21.13l-1.9-1.9a.9.9,0,0,1,0-1.27.89.89,0,0,1,1.26,0l1.9,1.9a.9.9,0,0,1,0,1.27.89.89,0,0,1-1.26,0Z"/><path class="cls-1" d="M8,40.13l-1.9-1.9L3,41.4a.9.9,0,0,1-1.27,0l2.54,2.54Z"/></svg>