<svg id="Acoustic_Grand_Keyboard" data-name="Acoustic Grand Keyboard" xmlns="http://www.w3.org/2000/svg" viewBox="0 0 48 48"><defs><style>.cls-1{fill:#3a3a3a;}.cls-2{fill:#4f4f4f;}.cls-3{fill:#afafaf;}.cls-4{fill:#686868;}.cls-5{fill:#925a15;}.cls-6{fill:#f3f2f6;}</style></defs><path class="cls-1" d="M45.87,15.67a.77.77,0,0,0-.72-.48H2.77a.77.77,0,0,0-.72.48,30.14,30.14,0,0,0,0,22.26C4.36,43.61,15,47,24,47s19.61-3.39,21.91-9.07a30.14,30.14,0,0,0,0-22.26Z"/><path class="cls-2" d="M45.87,15.67a.77.77,0,0,0-.72-.48H2.77a.77.77,0,0,0-.72.48A28.73,28.73,0,0,0,.41,21.34a.75.75,0,0,0,.1.55c3.06,5,12.49,8.3,23.45,8.3s20.39-3.33,23.45-8.3a.75.75,0,0,0,.1-.55,28.73,28.73,0,0,0-1.64-5.67Z"/><ellipse class="cls-3" cx="23.96" cy="13.97" rx="21.34" ry="8.15"/><path class="cls-4" d="M24,22.89C11.56,22.89,1.85,19,1.85,14S11.56,5,24,5,46.07,9,46.07,14,36.36,22.89,24,22.89Zm0-16.3C11.66,6.59,3.4,10.41,3.4,14S11.66,21.34,24,21.34,44.52,17.52,44.52,14,36.26,6.59,24,6.59Z"/><path class="cls-5" d="M41.68.68a2.32,2.32,0,0,0-3.29,0h0L29.61,9.46a.78.78,0,0,0,0,1.1l2.2,2.19a.77.77,0,0,0,1.09,0L41.68,4A2.32,2.32,0,0,0,41.68.68Z"/><circle class="cls-6" cx="29.61" cy="12.75" r="3.88"/><path class="cls-5" d="M18.31,9.46,9.53.68A2.33,2.33,0,0,0,6.24,4L15,12.75a.78.78,0,0,0,1.1,0l2.19-2.19A.78.78,0,0,0,18.31,9.46Z"/><circle class="cls-6" cx="18.31" cy="12.75" r="3.88"/></svg>