<?xml version="1.0" encoding="utf-8"?>
<!-- Generator: Adobe Illustrator 25.0.0, SVG Export Plug-In . SVG Version: 6.00 Build 0)  -->
<svg version="1.1" xmlns="http://www.w3.org/2000/svg" xmlns:xlink="http://www.w3.org/1999/xlink" x="0px" y="0px"
	 viewBox="0 0 48 48" style="enable-background:new 0 0 48 48;" xml:space="preserve">
<style type="text/css">
	.st0{fill:#F5DAA7;}
	.st1{fill:#EDC472;}
	.st2{fill:#BC9B5B;}
	.st3{fill:#9A6A53;}
	.st4{fill:#855B47;}
	.st5{fill:#F4E2C1;}
	.st6{fill:#F7F7F7;}
	.st7{fill:#C8C3CA;}
	.st8{fill:#B78C7A;}
	.st9{fill:#7A5341;}
	.st10{fill:#704C3B;}
	.st11{fill:#CF9875;}
	.st12{fill:#C7865B;}
	.st13{clip-path:url(#SVGID_3_);}
	.st14{clip-path:url(#SVGID_4_);fill:#FFFFFF;stroke:#231F20;stroke-miterlimit:10;}
	.st15{fill:#FFFFFF;stroke:#231F20;stroke-miterlimit:10;}
	.st16{fill:none;stroke:#000000;stroke-width:4.5;stroke-miterlimit:10;}
	.st17{fill:#463C4B;}
	.st18{fill:#555A6E;}
	.st19{fill:#F06423;}
	.st20{fill:#FAA51E;}
	.st21{fill:#D7E6F0;}
	.st22{fill:#DADADA;}
	.st23{fill:#C4C6C6;}
	.st24{fill:#EDEEEF;}
	.st25{fill:#797981;}
	.st26{fill:#5A5A63;}
	.st27{fill:#494951;}
	.st28{fill:#29BAED;}
	.st29{fill:#DD9554;}
	.st30{fill:#CC8244;}
	.st31{fill:#805333;}
	.st32{fill:#A56A43;}
	.st33{fill:#CB8252;}
	.st34{fill:#ECF0F1;}
	.st35{fill:#603E26;}
	.st36{fill:#F9EAB0;}
	.st37{fill:#F5EFCA;}
	.st38{fill:#464F5D;}
	.st39{fill:#F3D55B;}
	.st40{fill:#6F6571;}
	.st41{fill:#4B3F4E;}
	.st42{fill:#5D5360;}
	.st43{fill:#857E87;}
	.st44{fill:#ECEAEC;}
	.st45{fill:#DAD8DB;}
	.st46{fill:#B3E59F;}
	.st47{fill:#CCF49F;}
	.st48{fill:#792A47;}
	.st49{fill:#A62B38;}
	.st50{fill:#D22D28;}
	.st51{fill:#FF2F19;}
	.st52{fill:#FFFFFF;}
	.st53{fill:#202666;}
	.st54{fill:#FDE6BB;}
	.st55{fill:#FE501F;}
	.st56{fill:#FD7226;}
	.st57{fill:#FCCD76;}
	.st58{fill:#FB932C;}
	.st59{fill:#4D2857;}
	.st60{fill:#B19046;}
	.st61{fill:#F0C419;}
	.st62{fill:#24AE5F;}
	.st63{fill:#E64C3C;}
	.st64{fill:#3B97D3;}
	.st65{fill:#E74444;}
	.st66{fill:#CE3536;}
	.st67{fill:#D9DBDD;}
	.st68{fill:#E8EDF1;}
	.st69{fill:#F3DB70;}
	.st70{fill:#D5DAF3;}
	.st71{fill:#A2AEE6;}
	.st72{fill:#FFC344;}
	.st73{fill:#FFE177;}
	.st74{fill:#BEC6ED;}
	.st75{fill:#8795DE;}
	.st76{fill-rule:evenodd;clip-rule:evenodd;fill:#A46A5A;}
	.st77{fill-rule:evenodd;clip-rule:evenodd;fill:#845252;}
	.st78{fill-rule:evenodd;clip-rule:evenodd;fill:#FFD05B;}
	.st79{fill-rule:evenodd;clip-rule:evenodd;fill:#704242;}
	.st80{fill-rule:evenodd;clip-rule:evenodd;fill:#FFC244;}
	.st81{fill-rule:evenodd;clip-rule:evenodd;fill:#596C76;}
	.st82{fill-rule:evenodd;clip-rule:evenodd;fill:#465A61;}
	.st83{fill:#A46A5A;}
	.st84{fill:#607D8B;}
	.st85{fill:#9C27B0;}
	.st86{fill:#03A9F4;}
	.st87{fill:#8BC34A;}
	.st88{fill:#FFC107;}
	.st89{fill:#FF9800;}
	.st90{fill:#F44336;}
	.st91{fill:#D7CCC8;}
	.st92{fill:#F57C00;}
	.st93{fill:#F9BB4B;}
	.st94{fill:#FCF05A;}
	.st95{fill:#66342E;}
	.st96{fill:#D3843D;}
	.st97{fill:#704C55;}
	.st98{fill:#5A344B;}
	.st99{fill:#E63950;}
	.st100{fill:#EFE2DD;}
	.st101{fill:#FF435B;}
	.st102{fill:#FFF5F5;}
	.st103{fill:#9B786F;}
	.st104{fill:#925CB4;}
	.st105{fill:#814BA2;}
	.st106{fill:#6F3F8A;}
	.st107{fill:#FFD185;}
	.st108{fill:#FFBA48;}
	.st109{fill:#FF5A35;}
	.st110{fill:#FF7A3C;}
	.st111{fill:#FFE8C2;}
	.st112{fill:#4F4F4F;}
	.st113{fill:#FF3A2F;}
	.st114{fill:#353535;}
	.st115{fill:#FB4A59;}
	.st116{fill:#F82F40;}
	.st117{fill:#3F5959;}
	.st118{fill:#384848;}
	.st119{fill:#EFF5F6;}
	.st120{fill:#CBE5E7;}
	.st121{fill:#FCC16D;}
	.st122{fill:#FCB44D;}
	.st123{fill:#A66856;}
	.st124{fill:#735458;}
	.st125{fill:#FFDEA9;}
	.st126{fill:#5C4346;}
	.st127{fill:#8F5040;}
	.st128{fill:#595959;}
	.st129{fill:#7F221C;}
	.st130{fill:#913122;}
	.st131{fill:#FFEFB0;}
	.st132{fill:#DB2116;}
	.st133{fill:#883F2E;}
	.st134{fill:#A44F3E;}
	.st135{fill:#D8AA5E;}
	.st136{fill:#E9B665;}
	.st137{fill:#E19974;}
	.st138{fill:#FFEFD2;}
	.st139{fill:#D7D0D6;}
	.st140{fill:#E8AD8C;}
	.st141{fill:#6D3326;}
	.st142{fill:#BA5D4F;}
	.st143{fill:#F5A871;}
	.st144{fill:#E89A5E;}
	.st145{fill:#A34F41;}
	.st146{fill:#D68A5A;}
	.st147{fill:#FFE5C4;}
	.st148{fill:#FDD1A7;}
	.st149{fill:#873F30;}
	.st150{fill:#C86F5C;}
	.st151{fill:#6C3328;}
	.st152{fill:#54231D;}
	.st153{fill:#B5B1B3;}
	.st154{fill:#FEC93E;}
	.st155{fill:#EFB533;}
	.st156{fill:#F7A738;}
	.st157{fill:#EA952F;}
	.st158{fill:#FD6E2E;}
	.st159{fill:#EA551B;}
	.st160{fill:#F5A257;}
	.st161{fill:#DB8F52;}
	.st162{fill:#75360D;}
	.st163{fill:#FFBF7B;}
	.st164{fill:#00CCB2;}
	.st165{fill:#00AB94;}
	.st166{fill:#FEA832;}
	.st167{fill:#FF8700;}
	.st168{fill:#00EED0;}
	.st169{fill:#FFD400;}
	.st170{fill:#FDBF00;}
	.st171{fill:#08B865;}
	.st172{fill:#E41F2D;}
	.st173{fill:#FD4755;}
	.st174{fill:#FB2B3A;}
	.st175{fill:#FED2A4;}
	.st176{fill:#FFE5C2;}
	.st177{fill:#FFBD86;}
	.st178{fill:#FE99A0;}
	.st179{fill:#FD8087;}
	.st180{fill:#C57A44;}
	.st181{fill:#09A755;}
	.st182{fill:#FEDF30;}
	.st183{fill:#FED402;}
	.st184{fill:#FAC600;}
	.st185{fill:#46CC8D;}
	.st186{fill:#00C27A;}
	.st187{fill:#FE7701;}
	.st188{fill:#FE860A;}
	.st189{fill:#C41926;}
	.st190{fill:#E89C5D;}
	.st191{fill:#F4B37D;}
	.st192{fill:#E8626C;}
	.st193{fill:#40C6C2;}
	.st194{fill:#FFC999;}
	.st195{fill:#4A4A68;}
	.st196{fill:#333356;}
	.st197{fill:#EDEDED;}
	.st198{fill:#C9C9C9;}
	.st199{fill:#FF9900;}
	.st200{fill:#FFCE00;}
	.st201{fill:#FBBD00;}
	.st202{fill:#ED8100;}
	.st203{fill:#FFE431;}
	.st204{fill:#FF9F00;}
	.st205{fill:#FFE666;}
	.st206{fill:#FFBF00;}
	.st207{fill:#FCCD31;}
	.st208{fill:#F2B016;}
	.st209{fill:#4A4D4F;}
	.st210{fill:#D3CBC2;}
	.st211{fill:#6D7072;}
	.st212{fill:#BAAFA6;}
	.st213{fill:#888C8E;}
	.st214{fill:#B4B4B4;}
	.st215{fill:#FFE999;}
	.st216{fill:#FFCF3B;}
	.st217{fill:#C1C1C1;}
	.st218{fill:#FFBC19;}
	.st219{fill:#94E6FF;}
	.st220{fill:#315F83;}
	.st221{fill:#267EA8;}
	.st222{fill:#3B3F5F;}
	.st223{fill:#D8F2FB;}
	.st224{fill:#35495E;}
	.st225{fill:#556080;}
	.st226{fill:#E4C05C;}
	.st227{fill:#E4C05C;stroke:#E4C05C;stroke-width:2;stroke-linecap:round;stroke-linejoin:round;stroke-miterlimit:10;}
	.st228{fill:#B57F5F;}
	.st229{fill:#966A5B;}
	.st230{fill:#FFD15B;}
	.st231{fill:#A5C3DC;}
	.st232{fill:#8697CB;}
	.st233{fill:#E0E0E0;}
	.st234{fill:#CCCCCC;}
	.st235{fill:#8E8E8E;}
	.st236{fill:#A0A0A0;}
	.st237{fill:#E13732;}
	.st238{fill:#F05055;}
	.st239{fill:#D24605;}
	.st240{fill:#FFCE53;}
	.st241{fill:#FFB833;}
	.st242{fill:#4999D1;}
	.st243{fill:#43AAF0;}
	.st244{fill:#FF2E23;}
	.st245{fill:#FF4A26;}
	.st246{fill:#C6805D;}
	.st247{fill:#77CC7D;}
	.st248{fill:#52BD7E;}
	.st249{fill:#98DB7C;}
	.st250{fill:#D48C64;}
	.st251{fill:#FFD18D;}
	.st252{fill:#FBBD80;}
	.st253{fill:#F3B573;}
	.st254{fill:#434A54;}
	.st255{fill:#DA4453;}
	.st256{fill:#FFCE54;}
	.st257{fill:#ED5564;}
	.st258{fill-rule:evenodd;clip-rule:evenodd;fill:#4BC3EF;}
	.st259{fill-rule:evenodd;clip-rule:evenodd;fill:#1BADDE;}
	.st260{fill-rule:evenodd;clip-rule:evenodd;fill:#DBD8DB;}
	.st261{fill-rule:evenodd;clip-rule:evenodd;fill:#C9BFC8;}
	.st262{fill:#421815;}
	.st263{fill:#FCB982;}
	.st264{fill:#FDDBBF;}
	.st265{fill:#FCCA9F;}
	.st266{fill:#C6865C;}
	.st267{fill:#B16E3D;}
	.st268{fill:#454545;}
	.st269{fill:#EFECEF;}
	.st270{fill:#E2DFE2;}
	.st271{fill:#3F3736;}
	.st272{fill:#C4755B;}
	.st273{fill:#FFE3A1;}
	.st274{fill-rule:evenodd;clip-rule:evenodd;fill:#D48C64;}
	.st275{fill:#DBD8DB;}
	.st276{fill:#BB5D4C;}
	.st277{fill:#465A61;}
	.st278{fill:#596C76;}
	.st279{fill:#E5E1E5;}
	.st280{fill:#7A8C98;}
	.st281{fill:#FEDBA6;}
	.st282{fill:#EAB14D;}
	.st283{fill:#617881;}
	.st284{fill:#E28086;}
	.st285{fill:#DD636E;}
	.st286{fill:#FFE07D;}
	.st287{fill:#ECBE6B;}
	.st288{fill:#E9EDF5;}
	.st289{fill:#CDD2E1;}
	.st290{fill:#FFAA00;}
	.st291{fill:#FF9500;}
	.st292{fill:#555A65;}
	.st293{fill:#333940;}
	.st294{fill:#E6A373;}
	.st295{fill:#CC8552;}
	.st296{fill:#FFDF40;}
	.st297{fill:#FFBE40;}
	.st298{fill:#FF9F40;}
	.st299{fill:#F77E00;}
	.st300{fill:#FFF04A;}
	.st301{fill:#00DDC1;}
	.st302{fill:#A24603;}
	.st303{fill:#F2D813;}
	.st304{fill:#803602;}
	.st305{fill:#3A3A3A;}
	.st306{fill:#AFAFAF;}
	.st307{fill:#686868;}
	.st308{fill:#925A15;}
	.st309{fill:#F3F2F6;}
	.st310{fill:#BF7D5A;}
	.st311{fill:#AA6256;}
	.st312{fill:#894E46;}
	.st313{fill:#DBA660;}
	.st314{fill:#E49542;}
	.st315{fill:#F9EFDA;}
	.st316{fill:#756E78;}
	.st317{fill:#665E66;}
	.st318{fill:#F9F6F9;}
	.st319{fill:#BC6C59;}
	.st320{fill:#994B39;}
	.st321{fill:#FEEC96;}
	.st322{fill:#F5DB64;}
	.st323{fill:#5D5E69;}
	.st324{fill:#FFE09F;}
	.st325{fill:#ECBD83;}
	.st326{fill:#F6D190;}
	.st327{fill:#FF8086;}
	.st328{fill:#E5646E;}
	.st329{fill:#357DA3;}
	.st330{fill:#F48A3B;}
	.st331{fill:#FFC233;}
	.st332{fill:#CDDEE0;}
	.st333{fill:#C8C5C9;}
	.st334{fill:#785353;}
	.st335{fill:#6E4848;}
	.st336{fill:#B7E4F8;}
	.st337{fill:#93D6F4;}
	.st338{fill:#DBF1FB;}
	.st339{fill:#8DCAFC;}
	.st340{fill:#64B9FC;}
	.st341{fill:#C4E1FF;}
	.st342{fill:#B5DBFD;}
	.st343{fill:#FEE7C9;}
	.st344{fill:#FFD496;}
	.st345{fill:#A3E440;}
	.st346{fill:#99D53B;}
	.st347{fill:#BCEA73;}
	.st348{fill:#C76D3D;}
	.st349{fill:#AA5E33;}
	.st350{fill:#D67F4F;}
	.st351{fill:#8DC637;}
	.st352{fill:#A79BA7;}
	.st353{fill:#7A6D79;}
	.st354{fill:#C4E2FF;}
	.st355{fill:#60B7FF;}
	.st356{fill:#B3DAFE;}
	.st357{fill:#F3F0F3;}
	.st358{fill:#EFEDEF;}
	.st359{fill:#CBC4CC;}
	.st360{fill:#26A6FE;}
	.st361{fill:#D2555A;}
	.st362{fill:#FF6464;}
	.st363{fill:#D7DEED;}
	.st364{fill:#B8BFD4;}
	.st365{fill:#959CB3;}
	.st366{fill:#F8C460;}
	.st367{fill:#FAAF42;}
	.st368{fill:#7A838B;}
	.st369{fill:#5D6972;}
	.st370{fill:#A7D0E1;}
	.st371{fill:#80BBCE;}
	.st372{fill:#FFD8CA;}
	.st373{fill:#FFBFAE;}
	.st374{fill:#FFE5D8;}
	.st375{fill:#E5EEF9;}
	.st376{fill:#56595E;}
	.st377{fill:#7F8284;}
	.st378{fill:#A5A5A4;}
	.st379{fill:#95A5A5;}
	.st380{fill:#BDC3C7;}
	.st381{fill:#7F8C8D;}
</style>
<g id="Acoustic_Grand_Keyboard">
	<g>
		<path class="st199" d="M11.85,26.3l0.62-0.62c0.28-0.28,0.28-0.74,0-1.03c-0.28-0.28-0.74-0.28-1.03,0l-1.13,1.13c0,0,0,0,0,0
			c0,0,0,0,0,0l-1.13,1.13c-0.28,0.28-0.28,0.74,0,1.03c0.14,0.14,0.33,0.21,0.51,0.21s0.37-0.07,0.51-0.21l0.62-0.62l1.72,1.72
			c0.14,0.14,0.33,0.21,0.51,0.21s0.37-0.07,0.51-0.21c0.28-0.28,0.28-0.74,0-1.03L11.85,26.3z"/>
		<path class="st199" d="M15.74,22.42l0.62-0.62c0.28-0.28,0.28-0.74,0-1.03c-0.28-0.28-0.74-0.28-1.03,0l-1.13,1.13c0,0,0,0,0,0
			c0,0,0,0,0,0l-1.13,1.13c-0.28,0.28-0.28,0.74,0,1.03c0.14,0.14,0.33,0.21,0.51,0.21s0.37-0.07,0.51-0.21l0.62-0.62l1.72,1.72
			c0.14,0.14,0.33,0.21,0.51,0.21s0.37-0.07,0.51-0.21c0.28-0.28,0.28-0.74,0-1.03L15.74,22.42z"/>
		<path class="st199" d="M21.34,20.26l-1.72-1.72l0.62-0.62c0.28-0.28,0.28-0.74,0-1.03c-0.28-0.28-0.74-0.28-1.03,0l-2.27,2.27
			c-0.28,0.28-0.28,0.74,0,1.03c0.14,0.14,0.33,0.21,0.51,0.21s0.37-0.07,0.51-0.21l0.62-0.62l1.72,1.72
			c0.14,0.14,0.33,0.21,0.51,0.21s0.37-0.07,0.51-0.21C21.62,21,21.62,20.54,21.34,20.26L21.34,20.26z"/>
		<g>
			<path class="st200" d="M16.28,29.48l-1.6-1.6c-0.26-0.26-0.69-0.26-0.96,0l-1.31,1.31c-0.26,0.26-0.26,0.69,0,0.96l1.6,1.6
				L16.28,29.48z"/>
			<path class="st200" d="M16.25,33.99l2.27-2.27l6.55,6.55l-2.27,2.27L16.25,33.99z"/>
			<path class="st200" d="M25.05,42.79l1.55,1.55c0.26,0.26,0.69,0.26,0.96,0l1.31-1.31c0.26-0.26,0.26-0.69,0-0.96l-1.55-1.55
				L25.05,42.79z"/>
			<path class="st200" d="M20.16,25.6l-1.6-1.6c-0.26-0.26-0.69-0.26-0.96,0l-1.31,1.31c-0.26,0.26-0.26,0.69,0,0.96l1.6,1.6
				L20.16,25.6z"/>
			<path class="st200" d="M20.13,30.11l2.27-2.27l6.55,6.55l-2.27,2.27L20.13,30.11z"/>
			<path class="st200" d="M28.93,38.91l1.55,1.55c0.26,0.26,0.69,0.26,0.96,0l1.31-1.31c0.26-0.26,0.26-0.69,0-0.96l-1.55-1.55
				L28.93,38.91z"/>
			<path class="st200" d="M24.04,21.72l-1.6-1.6c-0.26-0.26-0.69-0.26-0.96,0l-1.31,1.31c-0.26,0.26-0.26,0.69,0,0.96l1.6,1.6
				L24.04,21.72z"/>
			<path class="st200" d="M24.01,26.23l2.27-2.27l6.55,6.55l-2.27,2.27L24.01,26.23z"/>
			<path class="st200" d="M32.81,35.03l1.55,1.55c0.26,0.26,0.69,0.26,0.96,0l1.31-1.31c0.26-0.26,0.26-0.69,0-0.96l-1.55-1.55
				L32.81,35.03z"/>
		</g>
		<path class="st201" d="M15,30.76l-0.99,0.99l-1.6-1.6c-0.26-0.26-0.26-0.69,0-0.96l0.99-0.99c-0.26,0.26-0.26,0.69,0,0.96
			L15,30.76z"/>
		<path class="st201" d="M16.24,33.99L17.23,33l6.55,6.55l-0.99,0.99L16.24,33.99z"/>
		<path class="st201" d="M28.55,43.35l-0.99,0.99c-0.26,0.26-0.69,0.26-0.96,0l-1.55-1.55l0.99-0.99l1.55,1.55
			C27.85,43.62,28.28,43.62,28.55,43.35z"/>
		<path class="st201" d="M18.88,26.88l-0.99,0.99l-1.6-1.6c-0.26-0.26-0.26-0.69,0-0.96l0.99-0.99c-0.26,0.26-0.26,0.69,0,0.96
			L18.88,26.88z"/>
		<path class="st201" d="M20.13,30.11l0.99-0.99l6.55,6.55l-0.99,0.99L20.13,30.11z"/>
		<path class="st201" d="M32.43,39.47l-0.99,0.99c-0.26,0.26-0.69,0.26-0.96,0l-1.55-1.55l0.99-0.99l1.55,1.55
			C31.73,39.74,32.16,39.74,32.43,39.47z"/>
		<path class="st201" d="M22.76,23l-0.99,0.99l-1.6-1.6c-0.26-0.26-0.26-0.69,0-0.96l0.99-0.99c-0.26,0.26-0.26,0.69,0,0.96
			L22.76,23z"/>
		<path class="st201" d="M24.01,26.23l0.99-0.99l6.55,6.55l-0.99,0.99L24.01,26.23z"/>
		<path class="st201" d="M36.31,35.59l-0.99,0.99c-0.26,0.26-0.69,0.26-0.96,0l-1.55-1.55l0.99-0.99l1.55,1.55
			C35.61,35.85,36.04,35.86,36.31,35.59z"/>
		<path class="st199" d="M5.64,44.6L4.7,46.67l-1.12,1.12c-0.28,0.28-0.73,0.28-1.01,0l-1.18-1.18l-1.18-1.18
			c-0.28-0.28-0.28-0.73,0-1.01l1.12-1.12l2.07-0.94L5.64,44.6z"/>
		<path class="st202" d="M3.8,46.56l-1.18-1.18L1.44,44.2c-0.25-0.25-0.28-0.64-0.08-0.91L1.33,43.3l-1.12,1.12
			c-0.28,0.28-0.28,0.73,0,1.01l1.18,1.18l1.18,1.18c0.28,0.28,0.73,0.28,1.01,0l1.12-1.12l0.01-0.03
			C4.43,46.83,4.05,46.81,3.8,46.56z"/>
		<path class="st200" d="M35.95,0.62C36.46,9.3,24.1,21.66,24.1,21.66c1.97-1.97,4.75-2.67,7.29-2.08c4.02-3.05,11.04-7.82,16-7.53
			c0.53,0.03,0.82-0.6,0.45-0.98l-5.45-5.45l-5.45-5.45C36.56-0.21,35.92,0.09,35.95,0.62z"/>
		<path class="st203" d="M35.14,21.66c-3.04-3.04-8-3.04-11.04,0l-7.49,7.49L3.4,42.36l2.24,2.24l6.11-6.11
			c0.24,1.6,0.97,3.13,2.2,4.36c3.04,3.04,8,3.04,11.04,0L35.14,32.7C38.18,29.66,38.18,24.7,35.14,21.66L35.14,21.66z M32.89,30.46
			L22.75,40.6c-1.81,1.81-4.75,1.81-6.55,0c-1.81-1.81-1.81-4.75,0-6.55L26.34,23.9c1.81-1.81,4.75-1.81,6.55,0
			C34.7,25.71,34.7,28.65,32.89,30.46z"/>
		<path class="st201" d="M11.75,38.49c0.1,0.66,0.28,1.3,0.54,1.92l2.57-2.57c-0.15-1.35,0.29-2.76,1.33-3.79L11.75,38.49z"/>
		<path class="st201" d="M27.62,17.73c-1.98,2.38-3.53,3.93-3.53,3.93c1.97-1.97,4.75-2.67,7.29-2.08c0.54-0.41,1.14-0.85,1.77-1.31
			C31.42,17.45,29.46,17.27,27.62,17.73z"/>
	</g>
	<g>
		<path class="st166" d="M12.23,12.7c0,0.95-0.77,1.72-1.72,1.73c-0.18,0-0.34-0.14-0.35-0.32c-0.01-0.21,0.14-0.37,0.34-0.37
			c0.57,0,1.04-0.46,1.04-1.04c0-0.33-0.15-0.64-0.42-0.84c-0.55-0.4-1.18-0.91-1.67-1.53v5.47c0,0.18-0.13,0.34-0.31,0.35
			c-0.21,0.02-0.38-0.14-0.38-0.34V9.19c0-0.15,0.1-0.28,0.24-0.33c0.03-0.01,0.07-0.01,0.1-0.01C9.21,8.85,9.32,8.9,9.39,9
			l0.39,0.6c0.46,0.68,1.12,1.24,1.74,1.7C11.97,11.62,12.23,12.15,12.23,12.7z"/>
		<path class="st167" d="M12.23,12.7c0,0.95-0.77,1.72-1.72,1.73c-0.18,0-0.34-0.14-0.35-0.32c-0.01-0.21,0.14-0.37,0.34-0.37
			c0.57,0,1.04-0.46,1.04-1.04c0-0.33-0.15-0.64-0.42-0.84c-0.55-0.4-1.18-0.91-1.67-1.53v5.47c0,0.19-0.15,0.35-0.35,0.35v-7.3
			C9.21,8.85,9.32,8.9,9.39,9l0.39,0.6c0.46,0.68,1.12,1.24,1.74,1.7C11.97,11.62,12.23,12.15,12.23,12.7z"/>
		<path class="st169" d="M9.1,14.9c-0.25-0.29-0.62-0.48-1.04-0.48c-0.76,0-1.4,0.62-1.4,1.38c0,0.76,0.64,1.38,1.4,1.38
			c0.41,0,0.79-0.19,1.04-0.48c0.22-0.24,0.35-0.56,0.35-0.91C9.44,15.46,9.32,15.14,9.1,14.9z"/>
		<path class="st170" d="M9.44,15.8c0,0.35-0.12,0.66-0.35,0.91V14.9C9.32,15.14,9.44,15.46,9.44,15.8z"/>
	</g>
	<g>
		<path class="st164" d="M20.92,10.91c0,0.2,0.18,0.37,0.38,0.34c0.18-0.02,0.31-0.17,0.31-0.35V7.03l-0.32-0.6l-0.38,0.8V10.91z"/>
		<path class="st165" d="M25.76,9.53c0,0.2,0.18,0.37,0.38,0.34c0.18-0.02,0.31-0.17,0.31-0.35V5.65l-0.33-0.6l-0.36,0.79V9.53z"/>
		<path class="st166" d="M20.23,4.7c0,0.95-0.77,1.72-1.72,1.73c-0.18,0-0.34-0.14-0.35-0.32C18.14,5.9,18.3,5.73,18.5,5.73
			c0.57,0,1.04-0.46,1.04-1.04c0-0.33-0.15-0.64-0.42-0.84c-0.55-0.4-1.18-0.91-1.67-1.53V7.8c0,0.18-0.13,0.34-0.31,0.35
			c-0.21,0.02-0.38-0.14-0.38-0.34V1.19c0-0.15,0.1-0.28,0.24-0.33c0.03-0.01,0.07-0.01,0.1-0.01c0.11,0,0.22,0.06,0.29,0.15
			l0.39,0.6c0.46,0.68,1.12,1.24,1.74,1.7C19.97,3.62,20.23,4.15,20.23,4.7z"/>
		<path class="st167" d="M20.23,4.7c0,0.95-0.77,1.72-1.72,1.73c-0.18,0-0.34-0.14-0.35-0.32C18.14,5.9,18.3,5.73,18.5,5.73
			c0.57,0,1.04-0.46,1.04-1.04c0-0.33-0.15-0.64-0.42-0.84c-0.55-0.4-1.18-0.91-1.67-1.53V7.8c0,0.19-0.15,0.35-0.35,0.35v-7.3
			c0.11,0,0.22,0.06,0.29,0.15l0.39,0.6c0.46,0.68,1.12,1.24,1.74,1.7C19.97,3.62,20.23,4.15,20.23,4.7z"/>
		<path class="st168" d="M20.23,12.64c-0.76,0-1.38-0.62-1.38-1.38s0.62-1.38,1.38-1.38c0.76,0,1.38,0.62,1.38,1.38
			S20.99,12.64,20.23,12.64z"/>
		<path class="st169" d="M17.1,6.9c-0.25-0.29-0.62-0.48-1.04-0.48c-0.76,0-1.4,0.62-1.4,1.38c0,0.76,0.64,1.38,1.4,1.38
			c0.41,0,0.79-0.19,1.04-0.48c0.22-0.24,0.35-0.56,0.35-0.91C17.44,7.46,17.32,7.14,17.1,6.9z"/>
		<path class="st164" d="M25.07,11.26c-0.76,0-1.38-0.62-1.38-1.38S24.3,8.5,25.07,8.5c0.76,0,1.38,0.62,1.38,1.38
			S25.83,11.26,25.07,11.26z"/>
		<path class="st170" d="M17.44,7.8c0,0.35-0.12,0.66-0.35,0.91V6.9C17.32,7.14,17.44,7.46,17.44,7.8z"/>
		<path class="st168" d="M26.31,3.73c-0.08-0.06-0.2-0.08-0.3-0.06l-2.32,0.66l-2.52,0.72c-0.15,0.04-0.25,0.18-0.25,0.33v1.84
			l0.69-0.19l2.07-0.59l2.07-0.59l0.69-0.19V4C26.45,3.89,26.4,3.8,26.31,3.73z"/>
		<path class="st164" d="M26.45,4v1.64l-0.69,0.19l-2.07,0.59v-2.1L26,3.67c0.1-0.03,0.22-0.01,0.3,0.06
			C26.4,3.8,26.45,3.89,26.45,4z"/>
	</g>
</g>
<g id="Layer_2">
</g>
</svg>
