<?xml version="1.0" encoding="utf-8"?>
<!-- Generator: Adobe Illustrator 25.0.0, SVG Export Plug-In . SVG Version: 6.00 Build 0)  -->
<svg version="1.1" xmlns="http://www.w3.org/2000/svg" xmlns:xlink="http://www.w3.org/1999/xlink" x="0px" y="0px"
	 viewBox="0 0 48 48" style="enable-background:new 0 0 48 48;" xml:space="preserve">
<style type="text/css">
	.st0{fill:#F5DAA7;}
	.st1{fill:#EDC472;}
	.st2{fill:#BC9B5B;}
	.st3{fill:#9A6A53;}
	.st4{fill:#855B47;}
	.st5{fill:#F4E2C1;}
	.st6{fill:#F7F7F7;}
	.st7{fill:#C8C3CA;}
	.st8{fill:#B78C7A;}
	.st9{fill:#7A5341;}
	.st10{fill:#704C3B;}
	.st11{fill:#CF9875;}
	.st12{fill:#C7865B;}
	.st13{clip-path:url(#SVGID_3_);}
	.st14{clip-path:url(#SVGID_4_);fill:#FFFFFF;stroke:#231F20;stroke-miterlimit:10;}
	.st15{fill:#FFFFFF;stroke:#231F20;stroke-miterlimit:10;}
	.st16{fill:none;stroke:#000000;stroke-width:4.5;stroke-miterlimit:10;}
	.st17{fill:#463C4B;}
	.st18{fill:#555A6E;}
	.st19{fill:#F06423;}
	.st20{fill:#FAA51E;}
	.st21{fill:#D7E6F0;}
	.st22{fill:#DADADA;}
	.st23{fill:#C4C6C6;}
	.st24{fill:#EDEEEF;}
	.st25{fill:#797981;}
	.st26{fill:#5A5A63;}
	.st27{fill:#494951;}
	.st28{fill:#29BAED;}
	.st29{fill:#DD9554;}
	.st30{fill:#CC8244;}
	.st31{fill:#805333;}
	.st32{fill:#A56A43;}
	.st33{fill:#CB8252;}
	.st34{fill:#ECF0F1;}
	.st35{fill:#603E26;}
	.st36{fill:#F9EAB0;}
	.st37{fill:#F5EFCA;}
	.st38{fill:#464F5D;}
	.st39{fill:#F3D55B;}
	.st40{fill:#6F6571;}
	.st41{fill:#4B3F4E;}
	.st42{fill:#5D5360;}
	.st43{fill:#857E87;}
	.st44{fill:#ECEAEC;}
	.st45{fill:#DAD8DB;}
	.st46{fill:#B3E59F;}
	.st47{fill:#CCF49F;}
	.st48{fill:#792A47;}
	.st49{fill:#A62B38;}
	.st50{fill:#D22D28;}
	.st51{fill:#FF2F19;}
	.st52{fill:#FFFFFF;}
	.st53{fill:#202666;}
	.st54{fill:#FDE6BB;}
	.st55{fill:#FE501F;}
	.st56{fill:#FD7226;}
	.st57{fill:#FCCD76;}
	.st58{fill:#FB932C;}
	.st59{fill:#4D2857;}
	.st60{fill:#B19046;}
	.st61{fill:#F0C419;}
	.st62{fill:#24AE5F;}
	.st63{fill:#E64C3C;}
	.st64{fill:#3B97D3;}
	.st65{fill:#E74444;}
	.st66{fill:#CE3536;}
	.st67{fill:#D9DBDD;}
	.st68{fill:#E8EDF1;}
	.st69{fill:#F3DB70;}
	.st70{fill:#D5DAF3;}
	.st71{fill:#A2AEE6;}
	.st72{fill:#FFC344;}
	.st73{fill:#FFE177;}
	.st74{fill:#BEC6ED;}
	.st75{fill:#8795DE;}
	.st76{fill-rule:evenodd;clip-rule:evenodd;fill:#A46A5A;}
	.st77{fill-rule:evenodd;clip-rule:evenodd;fill:#845252;}
	.st78{fill-rule:evenodd;clip-rule:evenodd;fill:#FFD05B;}
	.st79{fill-rule:evenodd;clip-rule:evenodd;fill:#704242;}
	.st80{fill-rule:evenodd;clip-rule:evenodd;fill:#FFC244;}
	.st81{fill-rule:evenodd;clip-rule:evenodd;fill:#596C76;}
	.st82{fill-rule:evenodd;clip-rule:evenodd;fill:#465A61;}
	.st83{fill:#A46A5A;}
	.st84{fill:#607D8B;}
	.st85{fill:#9C27B0;}
	.st86{fill:#03A9F4;}
	.st87{fill:#8BC34A;}
	.st88{fill:#FFC107;}
	.st89{fill:#FF9800;}
	.st90{fill:#F44336;}
	.st91{fill:#D7CCC8;}
	.st92{fill:#F57C00;}
	.st93{fill:#F9BB4B;}
	.st94{fill:#FCF05A;}
	.st95{fill:#66342E;}
	.st96{fill:#D3843D;}
	.st97{fill:#704C55;}
	.st98{fill:#5A344B;}
	.st99{fill:#E63950;}
	.st100{fill:#EFE2DD;}
	.st101{fill:#FF435B;}
	.st102{fill:#FFF5F5;}
	.st103{fill:#9B786F;}
	.st104{fill:#925CB4;}
	.st105{fill:#814BA2;}
	.st106{fill:#6F3F8A;}
	.st107{fill:#FFD185;}
	.st108{fill:#FFBA48;}
	.st109{fill:#FF5A35;}
	.st110{fill:#FF7A3C;}
	.st111{fill:#FFE8C2;}
	.st112{fill:#4F4F4F;}
	.st113{fill:#FF3A2F;}
	.st114{fill:#353535;}
	.st115{fill:#FB4A59;}
	.st116{fill:#F82F40;}
	.st117{fill:#3F5959;}
	.st118{fill:#384848;}
	.st119{fill:#EFF5F6;}
	.st120{fill:#CBE5E7;}
	.st121{fill:#FCC16D;}
	.st122{fill:#FCB44D;}
	.st123{fill:#A66856;}
	.st124{fill:#735458;}
	.st125{fill:#FFDEA9;}
	.st126{fill:#5C4346;}
	.st127{fill:#8F5040;}
	.st128{fill:#595959;}
	.st129{fill:#7F221C;}
	.st130{fill:#913122;}
	.st131{fill:#FFEFB0;}
	.st132{fill:#DB2116;}
	.st133{fill:#883F2E;}
	.st134{fill:#A44F3E;}
	.st135{fill:#D8AA5E;}
	.st136{fill:#E9B665;}
	.st137{fill:#E19974;}
	.st138{fill:#FFEFD2;}
	.st139{fill:#D7D0D6;}
	.st140{fill:#E8AD8C;}
	.st141{fill:#6D3326;}
	.st142{fill:#BA5D4F;}
	.st143{fill:#F5A871;}
	.st144{fill:#E89A5E;}
	.st145{fill:#A34F41;}
	.st146{fill:#D68A5A;}
	.st147{fill:#FFE5C4;}
	.st148{fill:#FDD1A7;}
	.st149{fill:#873F30;}
	.st150{fill:#C86F5C;}
	.st151{fill:#6C3328;}
	.st152{fill:#54231D;}
	.st153{fill:#B5B1B3;}
	.st154{fill:#FEC93E;}
	.st155{fill:#EFB533;}
	.st156{fill:#F7A738;}
	.st157{fill:#EA952F;}
	.st158{fill:#FD6E2E;}
	.st159{fill:#EA551B;}
	.st160{fill:#F5A257;}
	.st161{fill:#DB8F52;}
	.st162{fill:#75360D;}
	.st163{fill:#FFBF7B;}
	.st164{fill:#00CCB2;}
	.st165{fill:#00AB94;}
	.st166{fill:#FEA832;}
	.st167{fill:#FF8700;}
	.st168{fill:#00EED0;}
	.st169{fill:#FFD400;}
	.st170{fill:#FDBF00;}
	.st171{fill:#08B865;}
	.st172{fill:#E41F2D;}
	.st173{fill:#FD4755;}
	.st174{fill:#FB2B3A;}
	.st175{fill:#FED2A4;}
	.st176{fill:#FFE5C2;}
	.st177{fill:#FFBD86;}
	.st178{fill:#FE99A0;}
	.st179{fill:#FD8087;}
	.st180{fill:#C57A44;}
	.st181{fill:#09A755;}
	.st182{fill:#FEDF30;}
	.st183{fill:#FED402;}
	.st184{fill:#FAC600;}
	.st185{fill:#46CC8D;}
	.st186{fill:#00C27A;}
	.st187{fill:#FE7701;}
	.st188{fill:#FE860A;}
	.st189{fill:#C41926;}
	.st190{fill:#E89C5D;}
	.st191{fill:#F4B37D;}
	.st192{fill:#E8626C;}
	.st193{fill:#40C6C2;}
	.st194{fill:#FFC999;}
	.st195{fill:#4A4A68;}
	.st196{fill:#333356;}
	.st197{fill:#EDEDED;}
	.st198{fill:#C9C9C9;}
	.st199{fill:#FF9900;}
	.st200{fill:#FFCE00;}
	.st201{fill:#FBBD00;}
	.st202{fill:#ED8100;}
	.st203{fill:#FFE431;}
	.st204{fill:#FF9F00;}
	.st205{fill:#FFE666;}
	.st206{fill:#FFBF00;}
	.st207{fill:#FCCD31;}
	.st208{fill:#F2B016;}
	.st209{fill:#4A4D4F;}
	.st210{fill:#D3CBC2;}
	.st211{fill:#6D7072;}
	.st212{fill:#BAAFA6;}
	.st213{fill:#888C8E;}
	.st214{fill:#B4B4B4;}
	.st215{fill:#FFE999;}
	.st216{fill:#FFCF3B;}
	.st217{fill:#C1C1C1;}
	.st218{fill:#FFBC19;}
	.st219{fill:#94E6FF;}
	.st220{fill:#315F83;}
	.st221{fill:#267EA8;}
	.st222{fill:#3B3F5F;}
	.st223{fill:#D8F2FB;}
	.st224{fill:#35495E;}
	.st225{fill:#556080;}
	.st226{fill:#E4C05C;}
	.st227{fill:#E4C05C;stroke:#E4C05C;stroke-width:2;stroke-linecap:round;stroke-linejoin:round;stroke-miterlimit:10;}
	.st228{fill:#B57F5F;}
	.st229{fill:#966A5B;}
	.st230{fill:#FFD15B;}
	.st231{fill:#A5C3DC;}
	.st232{fill:#8697CB;}
	.st233{fill:#E0E0E0;}
	.st234{fill:#CCCCCC;}
	.st235{fill:#8E8E8E;}
	.st236{fill:#A0A0A0;}
	.st237{fill:#E13732;}
	.st238{fill:#F05055;}
	.st239{fill:#D24605;}
	.st240{fill:#FFCE53;}
	.st241{fill:#FFB833;}
	.st242{fill:#4999D1;}
	.st243{fill:#43AAF0;}
	.st244{fill:#FF2E23;}
	.st245{fill:#FF4A26;}
	.st246{fill:#C6805D;}
	.st247{fill:#77CC7D;}
	.st248{fill:#52BD7E;}
	.st249{fill:#98DB7C;}
	.st250{fill:#D48C64;}
	.st251{fill:#FFD18D;}
	.st252{fill:#FBBD80;}
	.st253{fill:#F3B573;}
	.st254{fill:#434A54;}
	.st255{fill:#DA4453;}
	.st256{fill:#FFCE54;}
	.st257{fill:#ED5564;}
	.st258{fill-rule:evenodd;clip-rule:evenodd;fill:#4BC3EF;}
	.st259{fill-rule:evenodd;clip-rule:evenodd;fill:#1BADDE;}
	.st260{fill-rule:evenodd;clip-rule:evenodd;fill:#DBD8DB;}
	.st261{fill-rule:evenodd;clip-rule:evenodd;fill:#C9BFC8;}
	.st262{fill:#421815;}
	.st263{fill:#FCB982;}
	.st264{fill:#FDDBBF;}
	.st265{fill:#FCCA9F;}
	.st266{fill:#C6865C;}
	.st267{fill:#B16E3D;}
	.st268{fill:#454545;}
	.st269{fill:#EFECEF;}
	.st270{fill:#E2DFE2;}
	.st271{fill:#3F3736;}
	.st272{fill:#C4755B;}
	.st273{fill:#FFE3A1;}
	.st274{fill-rule:evenodd;clip-rule:evenodd;fill:#D48C64;}
	.st275{fill:#DBD8DB;}
	.st276{fill:#BB5D4C;}
	.st277{fill:#465A61;}
	.st278{fill:#596C76;}
	.st279{fill:#E5E1E5;}
	.st280{fill:#7A8C98;}
	.st281{fill:#FEDBA6;}
	.st282{fill:#EAB14D;}
	.st283{fill:#617881;}
	.st284{fill:#E28086;}
	.st285{fill:#DD636E;}
	.st286{fill:#FFE07D;}
	.st287{fill:#ECBE6B;}
	.st288{fill:#E9EDF5;}
	.st289{fill:#CDD2E1;}
	.st290{fill:#FFAA00;}
	.st291{fill:#FF9500;}
	.st292{fill:#555A65;}
	.st293{fill:#333940;}
	.st294{fill:#E6A373;}
	.st295{fill:#CC8552;}
	.st296{fill:#FFDF40;}
	.st297{fill:#FFBE40;}
	.st298{fill:#FF9F40;}
	.st299{fill:#F77E00;}
	.st300{fill:#FFF04A;}
	.st301{fill:#00DDC1;}
	.st302{fill:#A24603;}
	.st303{fill:#F2D813;}
	.st304{fill:#803602;}
	.st305{fill:#3A3A3A;}
	.st306{fill:#AFAFAF;}
	.st307{fill:#686868;}
	.st308{fill:#925A15;}
	.st309{fill:#F3F2F6;}
	.st310{fill:#BF7D5A;}
	.st311{fill:#AA6256;}
	.st312{fill:#894E46;}
	.st313{fill:#DBA660;}
	.st314{fill:#E49542;}
	.st315{fill:#F9EFDA;}
	.st316{fill:#756E78;}
	.st317{fill:#665E66;}
	.st318{fill:#F9F6F9;}
	.st319{fill:#BC6C59;}
	.st320{fill:#994B39;}
	.st321{fill:#FEEC96;}
	.st322{fill:#F5DB64;}
	.st323{fill:#5D5E69;}
	.st324{fill:#FFE09F;}
	.st325{fill:#ECBD83;}
	.st326{fill:#F6D190;}
	.st327{fill:#FF8086;}
	.st328{fill:#E5646E;}
	.st329{fill:#357DA3;}
	.st330{fill:#F48A3B;}
	.st331{fill:#FFC233;}
	.st332{fill:#CDDEE0;}
	.st333{fill:#C8C5C9;}
	.st334{fill:#785353;}
	.st335{fill:#6E4848;}
	.st336{fill:#B7E4F8;}
	.st337{fill:#93D6F4;}
	.st338{fill:#DBF1FB;}
	.st339{fill:#8DCAFC;}
	.st340{fill:#64B9FC;}
	.st341{fill:#C4E1FF;}
	.st342{fill:#B5DBFD;}
	.st343{fill:#FEE7C9;}
	.st344{fill:#FFD496;}
	.st345{fill:#A3E440;}
	.st346{fill:#99D53B;}
	.st347{fill:#BCEA73;}
	.st348{fill:#C76D3D;}
	.st349{fill:#AA5E33;}
	.st350{fill:#D67F4F;}
	.st351{fill:#8DC637;}
	.st352{fill:#A79BA7;}
	.st353{fill:#7A6D79;}
	.st354{fill:#C4E2FF;}
	.st355{fill:#60B7FF;}
	.st356{fill:#B3DAFE;}
	.st357{fill:#F3F0F3;}
	.st358{fill:#EFEDEF;}
	.st359{fill:#CBC4CC;}
	.st360{fill:#26A6FE;}
	.st361{fill:#D2555A;}
	.st362{fill:#FF6464;}
	.st363{fill:#D7DEED;}
	.st364{fill:#B8BFD4;}
	.st365{fill:#959CB3;}
	.st366{fill:#F8C460;}
	.st367{fill:#FAAF42;}
	.st368{fill:#7A838B;}
	.st369{fill:#5D6972;}
	.st370{fill:#A7D0E1;}
	.st371{fill:#80BBCE;}
	.st372{fill:#FFD8CA;}
	.st373{fill:#FFBFAE;}
	.st374{fill:#FFE5D8;}
	.st375{fill:#E5EEF9;}
	.st376{fill:#56595E;}
	.st377{fill:#7F8284;}
	.st378{fill:#A5A5A4;}
	.st379{fill:#95A5A5;}
	.st380{fill:#BDC3C7;}
	.st381{fill:#7F8C8D;}
</style>
<g id="Acoustic_Grand_Keyboard">
	<g>
		<g>
			<g>
				<g>
					<g>
						<g>
							<path class="st339" d="M48,22.78v23.97c0,0.53-0.43,0.97-0.97,0.97H15.96c0,0,4.36-0.41,3.25-3.63s-2.72-5.11-0.9-7.28
								c1.82-2.17-3.99-2.59-2.34-4.34c1.64-1.75,9.39-0.5,8.48-3.61c-0.9-3.11,7.08-1.94,7.71-3.79c0.41-1.2-1.61-2.37-3.63-3.25
								h18.5C47.57,21.81,48,22.24,48,22.78L48,22.78z"/>
							<path class="st340" d="M48,24.63H0v-2.81h47.03c0.53,0,0.97,0.43,0.97,0.97V24.63z"/>
							<path class="st341" d="M34.82,25.06c-0.63,1.85-8.61,0.67-7.71,3.79c0.9,3.11-6.84,1.86-8.48,3.61
								c-1.64,1.75,4.17,2.17,2.35,4.34c-1.82,2.17-0.21,4.06,0.9,7.28c1.11,3.22-3.25,3.63-3.25,3.63H0.97
								C0.43,47.71,0,47.28,0,46.74V21.81h31.19C33.21,22.68,35.22,23.86,34.82,25.06L34.82,25.06z"/>
							<path class="st342" d="M34.86,24.63H0v-2.81h31.19C32.97,22.58,34.74,23.58,34.86,24.63L34.86,24.63z"/>
						</g>
					</g>
				</g>
			</g>
			<path class="st343" d="M12.09,47.71c0,0,6.39,0.03,6.39-5.55c0-5.06-8.49-6.95-8.49-9.51c0-4.67,18.21-2.06,18.21-10.83
				c0,0-4.18-2.41-27.23-2.47C0.43,19.34,0,19.77,0,20.31v26.44c0,0.53,0.43,0.97,0.97,0.97L12.09,47.71z"/>
			<path class="st344" d="M9.99,32.65c0,2.56,8.49,4.45,8.49,9.51c0,5.59-6.39,5.55-6.39,5.55h-1.44c1.79-0.69,3.73-2.18,3.73-5.45
				c0-5.5-8.89-7.55-8.89-10.33c0-4.95,18.19-2.36,19.05-11.11c2.86,0.53,3.66,0.99,3.66,0.99C28.2,30.59,9.99,27.97,9.99,32.65
				L9.99,32.65z"/>
			<ellipse class="st344" cx="10.81" cy="24.54" rx="6.18" ry="1.78"/>
			<g>
				<g>
					<g>
						<path class="st345" d="M11.52,10c0,0,3.88-6.75,11.46-5.15c0.27,0.06,0.44,0.33,0.37,0.59c-0.23,0.89-1.04,2.74-3.9,3.14
							l0.26,0.7c0.09,0.23-0.01,0.49-0.23,0.6C18.43,10.44,15.28,11.73,11.52,10z"/>
						<path class="st346" d="M23.35,5.45c-0.23,0.89-1.04,2.74-3.9,3.14l0.26,0.7c0.09,0.23-0.01,0.49-0.23,0.6
							c-1.06,0.55-4.21,1.84-7.97,0.11c0,0,0.1-0.18,0.31-0.47c2.82,0.59,5.06-0.34,5.92-0.79c0.22-0.11,0.32-0.37,0.23-0.6l0,0
							c-0.13-0.36,0.08-0.75,0.45-0.84c2-0.51,2.78-1.8,3.08-2.66c0.48,0.04,0.97,0.11,1.48,0.21C23.25,4.91,23.42,5.18,23.35,5.45z
							"/>
					</g>
					<g>
						<path class="st347" d="M14.41,11.2c0,0,0.79-7.74-6.3-10.87C7.86,0.22,7.56,0.34,7.46,0.6C7.13,1.45,6.71,3.42,8.8,5.42
							L8.17,5.84c-0.21,0.14-0.28,0.4-0.16,0.62C8.54,7.52,10.35,10.41,14.41,11.2z"/>
						<path class="st345" d="M14.41,11.2c-0.69-0.14-1.32-0.33-1.89-0.57c-0.11-2.19-0.91-6.59-5.31-9.06
							c0.05-0.4,0.15-0.74,0.25-0.98c0.1-0.25,0.39-0.37,0.65-0.26C15.21,3.46,14.41,11.2,14.41,11.2z"/>
						<g>
							<path class="st345" d="M13.53,10.69c0,0-5.36-5.64-12.36-2.29C0.93,8.52,0.83,8.82,0.95,9.06c0.43,0.81,1.65,2.41,4.53,2.13
								l-0.09,0.75c-0.03,0.25,0.13,0.47,0.37,0.53C6.92,12.75,10.29,13.25,13.53,10.69z"/>
							<path class="st346" d="M0.95,9.06c0.14,0.26,0.36,0.61,0.7,0.95c4.89-2.21,8.95-0.06,10.88,1.37
								c0.33-0.2,0.66-0.43,0.99-0.69c0,0-5.36-5.64-12.36-2.29C0.93,8.52,0.83,8.82,0.95,9.06z"/>
						</g>
					</g>
				</g>
				<path class="st348" d="M14.4,10.8c0,0-1.41,3.32-1.41,13.1H7.85c0,0-0.56-9.22,2.84-13.01c0.78-0.87,2.08-1.07,3.09-0.47
					L14.4,10.8z"/>
				<path class="st349" d="M14.4,10.81c0,0-1.41,3.32-1.41,13.1h-1.86c0-8.69,1.03-12.67,1.39-13.82c0.43,0,0.86,0.12,1.25,0.35
					L14.4,10.81z"/>
				<g>
					<path class="st350" d="M13.8,13.71c-0.05,0-0.1-0.01-0.16-0.02c-0.28-0.06-2.78-0.65-3.81-2.01c-0.24-0.32-0.18-0.77,0.14-1.01
						c0.32-0.24,0.77-0.18,1.01,0.14c0.6,0.8,2.35,1.33,2.97,1.47c0.39,0.09,0.64,0.47,0.55,0.86
						C14.43,13.48,14.13,13.71,13.8,13.71L13.8,13.71z"/>
					<path class="st350" d="M12.95,15.98c-0.96,0-3.07-0.12-4.38-1.05c-0.33-0.23-0.4-0.68-0.17-1.01c0.23-0.33,0.68-0.4,1.01-0.17
						c1.07,0.76,3.22,0.81,3.96,0.77c0.4-0.02,0.74,0.28,0.77,0.68c0.02,0.4-0.28,0.74-0.68,0.77
						C13.42,15.96,13.24,15.98,12.95,15.98z"/>
					<path class="st350" d="M11.85,19.06c-1.17,0-2.95-0.2-4.14-1.27c-0.3-0.27-0.32-0.72-0.06-1.02c0.27-0.3,0.72-0.32,1.02-0.06
						c0.69,0.62,1.76,0.82,2.54,0.87c0.9,0.07,1.63-0.04,1.63-0.04c0.39-0.06,0.76,0.22,0.82,0.61c0.06,0.4-0.22,0.76-0.61,0.82
						C13.01,19,12.53,19.06,11.85,19.06L11.85,19.06z"/>
				</g>
				<g>
					<g>
						<path class="st346" d="M12.93,10.12c0,0,7.76-0.66,10.76,6.49c0.11,0.25-0.02,0.54-0.28,0.64c-0.86,0.32-2.84,0.71-4.8-1.41
							l-0.43,0.62c-0.14,0.2-0.41,0.27-0.63,0.15C16.51,16.05,13.65,14.2,12.93,10.12z"/>
						<path class="st351" d="M23.41,17.25c-0.36,0.14-0.93,0.28-1.61,0.25c-2.03-4.7-6.13-5.98-8.63-6.3
							c-0.1-0.34-0.19-0.7-0.25-1.08c0,0,7.76-0.66,10.76,6.49C23.8,16.86,23.67,17.16,23.41,17.25L23.41,17.25z"/>
					</g>
				</g>
			</g>
			<path class="st350" d="M10.24,21.97c-1.35,0-2.42-0.25-2.5-0.27c-0.39-0.09-0.63-0.48-0.54-0.87c0.09-0.39,0.48-0.63,0.87-0.54
				c0.05,0.01,2.75,0.63,4.67-0.22c0.37-0.16,0.79,0,0.96,0.37c0.16,0.37,0,0.79-0.37,0.96C12.34,21.84,11.22,21.97,10.24,21.97z"/>
			<g>
				<path class="st121" d="M4.02,28.21H2.81c-0.4,0-0.72-0.32-0.72-0.72c0-0.4,0.32-0.72,0.72-0.72h1.21c0.4,0,0.72,0.32,0.72,0.72
					C4.74,27.88,4.42,28.21,4.02,28.21z"/>
				<path class="st121" d="M18.63,23.45h-1.21c-0.4,0-0.72-0.32-0.72-0.72c0-0.4,0.32-0.72,0.72-0.72h1.21
					c0.4,0,0.72,0.32,0.72,0.72C19.35,23.12,19.03,23.45,18.63,23.45z"/>
				<path class="st121" d="M5.88,31.05H4.67c-0.4,0-0.72-0.32-0.72-0.72c0-0.4,0.32-0.72,0.72-0.72h1.21c0.4,0,0.72,0.32,0.72,0.72
					C6.6,30.73,6.28,31.05,5.88,31.05z"/>
				<path class="st121" d="M4.02,44.25H2.81c-0.4,0-0.72-0.32-0.72-0.72c0-0.4,0.32-0.72,0.72-0.72h1.21c0.4,0,0.72,0.32,0.72,0.72
					C4.74,43.92,4.42,44.25,4.02,44.25z"/>
			</g>
			<g>
				<path class="st342" d="M45.6,33.53c-0.82,0-1.27-0.29-1.6-0.5c-0.27-0.17-0.43-0.27-0.82-0.27c-0.4,0-0.56,0.1-0.82,0.27
					c-0.33,0.21-0.79,0.5-1.6,0.5c-0.82,0-1.27-0.29-1.61-0.5c-0.27-0.17-0.43-0.27-0.82-0.27c-0.4,0-0.56,0.1-0.82,0.27
					c-0.33,0.21-0.79,0.5-1.61,0.5c-0.82,0-1.27-0.29-1.6-0.5c-0.27-0.17-0.43-0.27-0.82-0.27c-0.4,0-0.56,0.1-0.82,0.27
					c-0.33,0.21-0.79,0.5-1.6,0.5c-0.82,0-1.27-0.29-1.61-0.5c-0.27-0.17-0.43-0.27-0.82-0.27c-0.4,0-0.56,0.1-0.82,0.27
					c-0.33,0.21-0.79,0.5-1.61,0.5c-0.4,0-0.72-0.32-0.72-0.72c0-0.4,0.32-0.72,0.72-0.72c0.4,0,0.56-0.1,0.82-0.27
					c0.33-0.21,0.79-0.5,1.61-0.5s1.27,0.29,1.61,0.5c0.27,0.17,0.43,0.27,0.82,0.27c0.4,0,0.56-0.1,0.82-0.27
					c0.33-0.21,0.79-0.5,1.6-0.5s1.27,0.29,1.6,0.5c0.27,0.17,0.43,0.27,0.82,0.27c0.4,0,0.56-0.1,0.82-0.27
					c0.33-0.21,0.79-0.5,1.61-0.5c0.82,0,1.27,0.29,1.61,0.5c0.27,0.17,0.43,0.27,0.82,0.27c0.4,0,0.56-0.1,0.82-0.27
					c0.33-0.21,0.79-0.5,1.6-0.5s1.27,0.29,1.6,0.5c0.27,0.17,0.43,0.27,0.82,0.27c0.4,0,0.72,0.32,0.72,0.72
					C46.32,33.21,46,33.53,45.6,33.53L45.6,33.53z"/>
			</g>
			<g>
				<path class="st342" d="M31.71,38.86c-0.82,0-1.27-0.29-1.6-0.5c-0.27-0.17-0.43-0.27-0.82-0.27c-0.4,0-0.56,0.1-0.82,0.27
					c-0.33,0.21-0.79,0.5-1.6,0.5c-0.82,0-1.27-0.29-1.61-0.5c-0.27-0.17-0.43-0.27-0.82-0.27c-0.4,0-0.56,0.1-0.82,0.27
					c-0.33,0.21-0.79,0.5-1.61,0.5c-0.4,0-0.72-0.32-0.72-0.72c0-0.4,0.32-0.72,0.72-0.72c0.4,0,0.56-0.1,0.82-0.27
					c0.33-0.21,0.79-0.5,1.61-0.5c0.82,0,1.27,0.29,1.61,0.5c0.27,0.17,0.43,0.27,0.82,0.27c0.4,0,0.56-0.1,0.82-0.27
					c0.33-0.21,0.79-0.5,1.6-0.5c0.82,0,1.27,0.29,1.6,0.5c0.27,0.17,0.43,0.27,0.82,0.27c0.4,0,0.72,0.32,0.72,0.72
					C32.43,38.54,32.11,38.86,31.71,38.86L31.71,38.86z"/>
			</g>
			<g>
				<path class="st340" d="M44.34,42.36c-0.82,0-1.27-0.29-1.6-0.5c-0.27-0.17-0.43-0.27-0.82-0.27s-0.56,0.1-0.82,0.27
					c-0.33,0.21-0.79,0.5-1.6,0.5c-0.82,0-1.27-0.29-1.61-0.5c-0.27-0.17-0.43-0.27-0.82-0.27s-0.56,0.1-0.82,0.27
					c-0.33,0.21-0.79,0.5-1.61,0.5c-0.4,0-0.72-0.32-0.72-0.72c0-0.4,0.32-0.72,0.72-0.72c0.4,0,0.56-0.1,0.82-0.27
					c0.33-0.21,0.79-0.5,1.61-0.5c0.82,0,1.27,0.29,1.61,0.5c0.27,0.17,0.43,0.27,0.82,0.27c0.4,0,0.56-0.1,0.82-0.27
					c0.33-0.21,0.79-0.5,1.6-0.5c0.82,0,1.27,0.29,1.6,0.5c0.27,0.17,0.43,0.27,0.82,0.27c0.4,0,0.72,0.32,0.72,0.72
					C45.06,42.03,44.74,42.36,44.34,42.36L44.34,42.36z"/>
			</g>
			<g>
				<path class="st340" d="M40.74,27.68c-0.82,0-1.27-0.29-1.6-0.5c-0.27-0.17-0.43-0.27-0.82-0.27c-0.4,0-0.56,0.1-0.82,0.27
					c-0.33,0.21-0.79,0.5-1.6,0.5c-0.82,0-1.27-0.29-1.61-0.5c-0.27-0.17-0.43-0.27-0.82-0.27c-0.4,0-0.56,0.1-0.82,0.27
					c-0.33,0.21-0.79,0.5-1.61,0.5c-0.4,0-0.72-0.32-0.72-0.72c0-0.4,0.32-0.72,0.72-0.72c0.4,0,0.56-0.1,0.82-0.27
					c0.33-0.21,0.79-0.5,1.61-0.5c0.82,0,1.27,0.29,1.61,0.5c0.27,0.17,0.43,0.27,0.82,0.27c0.4,0,0.56-0.1,0.82-0.27
					c0.33-0.21,0.79-0.5,1.6-0.5c0.82,0,1.27,0.29,1.6,0.5c0.27,0.17,0.43,0.27,0.82,0.27c0.4,0,0.72,0.32,0.72,0.72
					C41.46,27.36,41.14,27.68,40.74,27.68z"/>
			</g>
		</g>
		<path class="st344" d="M14.52,24.48c-0.33-0.67-2.08-1.18-4.18-1.18s-3.85,0.51-4.18,1.18H14.52z"/>
	</g>
</g>
<g id="Layer_2">
</g>
</svg>
