<svg id="Acoustic_Grand_Keyboard" data-name="Acoustic Grand Keyboard" xmlns="http://www.w3.org/2000/svg" viewBox="0 0 48 48"><defs><style>.cls-1{fill:#d2555a;}.cls-2{fill:#ff6464;}.cls-3{fill:#d7deed;}.cls-4{fill:#b8bfd4;}.cls-5{fill:#fff;}.cls-6{fill:#959cb3;}</style></defs><rect class="cls-1" x="16.55" y="12.41" width="3.31" height="3.31"/><rect class="cls-1" x="28.14" y="12.41" width="3.31" height="3.31"/><path class="cls-2" d="M33.1,20.16v-4a.83.83,0,0,0-.72-.83,62.7,62.7,0,0,0-16.76,0,.83.83,0,0,0-.72.83v4a2.48,2.48,0,0,1-1.14,2.09L11.82,23.5a5.82,5.82,0,0,0-2.54,3.73L7.45,36.41h33.1l-1.83-9.18a5.84,5.84,0,0,0-2.54-3.73l-1.94-1.25A2.48,2.48,0,0,1,33.1,20.16Z"/><path class="cls-1" d="M38.9,39.72H9.1a1.65,1.65,0,0,1-1.65-1.65V36.41h33.1v1.66A1.65,1.65,0,0,1,38.9,39.72Z"/><path class="cls-2" d="M24,8.28c-13.25,0-24,4-24,8.89V21a2.41,2.41,0,0,0,3.1,2.14l8.25-2a2.48,2.48,0,0,0,1.89-2.41v-3.2a1.66,1.66,0,0,1,1.4-1.64,62.49,62.49,0,0,1,18.72,0,1.66,1.66,0,0,1,1.4,1.64v3.2a2.48,2.48,0,0,0,1.89,2.41l8.25,2A2.41,2.41,0,0,0,48,21V17.17C48,12.26,37.25,8.28,24,8.28Z"/><path class="cls-1" d="M13.24,16.61,0,19.89V21a2.41,2.41,0,0,0,3.1,2.14l8.25-2a2.48,2.48,0,0,0,1.89-2.41V16.61Z"/><path class="cls-1" d="M34.76,16.66v2a2.48,2.48,0,0,0,1.89,2.41l8.25,2A2.41,2.41,0,0,0,48,21V19.89Z"/><circle class="cls-3" cx="24" cy="25.66" r="8.28"/><circle class="cls-4" cx="24" cy="25.66" r="5.79"/><circle class="cls-5" cx="24" cy="25.66" r="4.14"/><circle class="cls-5" cx="24" cy="19.45" r="1.24"/><circle class="cls-5" cx="24" cy="31.86" r="1.24"/><path class="cls-6" d="M29.34,28.12l-.09.15a.43.43,0,0,0,.1.57l2.43,1.9a.44.44,0,0,0,.64-.12l.48-.78a.43.43,0,0,0-.2-.62L29.89,28A.43.43,0,0,0,29.34,28.12Z"/><circle class="cls-5" cx="17.79" cy="25.66" r="1.24"/><circle class="cls-5" cx="20.9" cy="31.03" r="1.24"/><circle class="cls-5" cx="27.1" cy="20.28" r="1.24"/><circle class="cls-5" cx="18.62" cy="22.55" r="1.24"/><circle class="cls-5" cx="27.1" cy="31.03" r="1.24"/><circle class="cls-5" cx="20.9" cy="20.28" r="1.24"/><circle class="cls-5" cx="18.62" cy="28.76" r="1.24"/></svg>