<svg id="Acoustic_Grand_Keyboard" data-name="Acoustic Grand Keyboard" xmlns="http://www.w3.org/2000/svg" viewBox="0 0 48 48"><defs><style>.cls-1{fill:#e6a373;}.cls-2{fill:#cc8552;}.cls-3{fill:#ffdf40;}.cls-4{fill:#ffbe40;}.cls-5{fill:#ff9f40;}</style></defs><path class="cls-1" d="M45.94,2.06a7,7,0,0,0-9.94,0,24.15,24.15,0,0,0-4.42,6.51,20.27,20.27,0,0,1-3.72,5.61l-3,3,3,3,3,3,3-3a20.27,20.27,0,0,1,5.61-3.72A24.15,24.15,0,0,0,45.94,12a7,7,0,0,0,0-9.94Z"/><path class="cls-2" d="M33.82,20.14a20.27,20.27,0,0,1,5.61-3.72A24.15,24.15,0,0,0,45.94,12a7,7,0,0,0,0-9.94L27.86,20.14l3,3Z"/><path class="cls-3" d="M30.83,17.17a12.68,12.68,0,0,0-17.9,0l-5,5,1.53,3.52,6.42,6.42,7.46,7.46,2.48.5,5-5a12.68,12.68,0,0,0,0-17.9Z"/><path class="cls-4" d="M25.85,40.05l5-5a12.68,12.68,0,0,0,0-17.9L15.91,32.09l7.46,7.46Z"/><path class="cls-4" d="M23.86,42l2-2-9-8.95L8,22.15l-2,2a2.83,2.83,0,0,1-4,0l1,3,9,9,9,9,3,1a2.83,2.83,0,0,1,0-4Z"/><path class="cls-5" d="M23.86,46a2.83,2.83,0,0,1,0-4l2-2-9-8.95-5,5,9,9Z"/><path class="cls-5" d="M10.94,45a4.22,4.22,0,0,1,0-6l2-2,6,6-2,2A4.22,4.22,0,0,1,10.94,45Z"/><path class="cls-3" d="M12.93,35.07,2,24.14l-2,2L10.94,37.06,21.88,48l2-2Z"/><path class="cls-4" d="M10.93,37.06l2-2L23.86,46l-2,2Z"/></svg>