<svg id="Acoustic_Grand_Keyboard" data-name="Acoustic Grand Keyboard" xmlns="http://www.w3.org/2000/svg" viewBox="0 0 48 48"><defs><style>.cls-1{fill:#d5daf3;}.cls-2{fill:#a2aee6;}.cls-3{fill:#ffc344;}.cls-4{fill:#ffe177;}.cls-5{fill:#bec6ed;}.cls-6{fill:#8795de;}.cls-7{fill:#fff;}</style></defs><path class="cls-1" d="M43.16,41H24V7.22c.72-.4.4-.72,0-.72a1.35,1.35,0,0,0-1,.72V41H4.76c-.4-.48-.73-.16-.73.24a.79.79,0,0,0,.73.76h38.4a.78.78,0,0,0,.72-.76.72.72,0,0,0-.72-.72Z"/><path class="cls-2" d="M2,7H5V46H2Z"/><path class="cls-2" d="M43,7h3V46H43Z"/><path class="cls-3" d="M10,36H9a1,1,0,0,1-1-1V1A1,1,0,0,1,9,0H10a1,1,0,0,1,1,1V35A1,1,0,0,1,10,36Z"/><path class="cls-4" d="M13,33H12a1,1,0,0,1-1-1V1a1,1,0,0,1,1-1H13a1,1,0,0,1,1,1V32A1,1,0,0,1,13,33Z"/><path class="cls-3" d="M16,31H15a1,1,0,0,1-1-1V1a1,1,0,0,1,1-1H16a1,1,0,0,1,1,1V30A1,1,0,0,1,16,31Z"/><path class="cls-4" d="M20,29H19a1,1,0,0,1-1-1V1a1,1,0,0,1,1-1H20a1,1,0,0,1,1,1V28A1,1,0,0,1,20,29Z"/><path class="cls-3" d="M23,26H22a1,1,0,0,1-1-1V1a1,1,0,0,1,1-1H23a1,1,0,0,1,1,1V25A1,1,0,0,1,23,26Z"/><path class="cls-4" d="M26,24H25a1,1,0,0,1-1-1V1a1,1,0,0,1,1-1H26a1,1,0,0,1,1,1V23A1,1,0,0,1,26,24Z"/><path class="cls-3" d="M29,22H28a1,1,0,0,1-1-1V1a1,1,0,0,1,1-1H29a1,1,0,0,1,1,1V21A1,1,0,0,1,29,22Z"/><path class="cls-4" d="M33.11,19H32a1,1,0,0,1-1-1V1a1,1,0,0,1,1-1H33a1,1,0,0,1,1,1V18a.93.93,0,0,1-.89,1Z"/><path class="cls-3" d="M36.11,17H35a1,1,0,0,1-1-1V1a1,1,0,0,1,1-1H36a1,1,0,0,1,1,1V16a.94.94,0,0,1-.89,1Z"/><path class="cls-4" d="M39.11,14H38a1,1,0,0,1-1-1V1a1,1,0,0,1,1-1H39a1,1,0,0,1,1,1V13.06a.92.92,0,0,1-.89.94Z"/><path class="cls-1" d="M47,8H1A1,1,0,0,1,0,7V4A1,1,0,0,1,1,3H47a1,1,0,0,1,1,1V7A1,1,0,0,1,47,8Z"/><path class="cls-5" d="M48,4a1,1,0,0,0-1-1H44a1,1,0,0,1,1,.88V7.12A1,1,0,0,1,44,8h3a1,1,0,0,0,1-1Z"/><path class="cls-2" d="M28.39,44H19.61a2.07,2.07,0,0,1-2.07-2.1,1,1,0,0,1,1-.9h11a1,1,0,0,1,1,.9A2.07,2.07,0,0,1,28.39,44Z"/><path class="cls-6" d="M30.58,41.9a1,1,0,0,0-1-.9H26.83a.93.93,0,0,1,.93.94A2.06,2.06,0,0,1,25.7,44h2.81A2.06,2.06,0,0,0,30.58,41.9Z"/><circle class="cls-1" cx="44.62" cy="44.62" r="3.38"/><path class="cls-7" d="M44.62,45.34a.73.73,0,1,1,.72-.77.73.73,0,0,1-.72.77Z"/><circle class="cls-1" cx="3.38" cy="44.62" r="3.38"/><path class="cls-7" d="M3.38,45.34a.72.72,0,1,1,.73-.72A.73.73,0,0,1,3.38,45.34Z"/></svg>