<svg id="Acoustic_Grand_Keyboard" data-name="Acoustic Grand Keyboard" xmlns="http://www.w3.org/2000/svg" viewBox="0 0 48 48"><defs><style>.cls-1{fill:#a66856;}.cls-2{fill:#735458;}.cls-3{fill:#ffdea9;}.cls-4{fill:#5c4346;}.cls-5{fill:#8f5040;}.cls-6{fill:#595959;}.cls-7{fill:#00ccb2;}.cls-8{fill:#00ab94;}.cls-9{fill:#fea832;}.cls-10{fill:#ff8700;}.cls-11{fill:#00eed0;}.cls-12{fill:#ffd400;}.cls-13{fill:#fdbf00;}</style></defs><polygon class="cls-1" points="8.37 10.01 10.89 7.45 8.18 4.74 5.64 7.28 8.37 10.01"/><path class="cls-2" d="M43.87,44.68l-.19,0a.71.71,0,0,1-.48-.87l.13-.48a4.36,4.36,0,0,0-1.46-3.89L5.27,2.82a.7.7,0,0,1,1-1l36.6,36.61a5.64,5.64,0,0,1,1.82,5.27l-.13.47A.7.7,0,0,1,43.87,44.68Z"/><path class="cls-3" d="M5.77,5.88,44.49,44.59a.39.39,0,0,1,0,.53l-1.11,1.11a.37.37,0,0,1-.53,0L4.13,7.52a.39.39,0,0,1,0-.53L5.24,5.88A.37.37,0,0,1,5.77,5.88Z"/><path class="cls-4" d="M43,11.44l-2.55-3.9L36.58,5a1.42,1.42,0,0,1,0-2h0a1.42,1.42,0,0,1,2,0l2.56,3.89,3.9,2.55a1.45,1.45,0,0,1,0,2h0A1.45,1.45,0,0,1,43,11.44Z"/><path class="cls-4" d="M39.74,14.72l-2.61-3.83L33.29,8.28a1.45,1.45,0,0,1,0-2h0a1.44,1.44,0,0,1,2,0L38,10l3.79,2.66a1.44,1.44,0,0,1,0,2h0A1.43,1.43,0,0,1,39.74,14.72Z"/><path class="cls-1" d="M3.94,43.79c-6.7-6.85-4.54-17.62,4-19.67a.41.41,0,0,1,.22,0c.67.25,4.37,1.47,6.36-.52a4.89,4.89,0,0,0,1.16-4.48.37.37,0,0,1,0-.27,9.58,9.58,0,0,1,1.79-2.43c7.58-8.29,23,6.56,13.92,14.29a10.34,10.34,0,0,1-2.22,1.6.39.39,0,0,1-.28,0,4.87,4.87,0,0,0-4.49,1.16c-1.53,1.52-1.66,4-.55,6.33a.37.37,0,0,1,0,.25C21.81,48.63,10.85,50.85,3.94,43.79Z"/><path class="cls-5" d="M28.57,15.85C32,19.5,33.36,24.92,29,28.67a9.85,9.85,0,0,1-2,1.48,1.1,1.1,0,0,1-.71.13A4.82,4.82,0,0,0,22,31.48c-1.48,1.47-1.65,3.87-.65,6.12a1,1,0,0,1,.06.72c-2,7.41-10.8,9.88-17.53,5.37l.09.1c6.91,7.06,17.87,4.84,19.94-3.68a.37.37,0,0,0,0-.25c-1.11-2.31-1-4.81.55-6.33a4.87,4.87,0,0,1,4.49-1.16.39.39,0,0,0,.28,0,10.34,10.34,0,0,0,2.22-1.6C36.72,26.17,33.59,19.17,28.57,15.85Z"/><path class="cls-6" d="M8.86,47.1a14.25,14.25,0,0,1-4.92-3.31c-5.39-5.52-5-13.58-.27-17.58h0a5.87,5.87,0,0,1,3.44,5.17c.26,4,1.17,5.36,3.58,8.21C12,41.12,10.81,43.54,8.86,47.1Z"/><path class="cls-6" d="M11.38,30h-.12a2.24,2.24,0,0,1-1.8-1,.7.7,0,0,1,1.21-.71.94.94,0,0,0,.69.28,2.08,2.08,0,0,0,1.55-1.06c1.74-2.41,3.24-1.51,3.3-1.47a.7.7,0,0,1,.22,1,.71.71,0,0,1-.93.25c-.15-.06-.7,0-1.45,1.07A3.32,3.32,0,0,1,11.38,30ZM15.51,28Zm0,0Zm0,0Z"/><path class="cls-6" d="M18.58,38.63a.77.77,0,0,1-.36-.09,2.29,2.29,0,0,1-1-1.81,3.26,3.26,0,0,1,1.65-2.79c1.18-.85,1.1-1.4,1.1-1.41a.7.7,0,0,1,.22-1,.71.71,0,0,1,1,.22c0,.07.95,1.57-1.47,3.3a2.05,2.05,0,0,0-1.06,1.55.9.9,0,0,0,.29.69.7.7,0,0,1-.36,1.31Z"/><path class="cls-6" d="M17.41,33.72a.7.7,0,0,1-.5-.21l-2.33-2.33a.7.7,0,1,1,1-1l2.34,2.34a.71.71,0,0,1-.5,1.2Z"/><path class="cls-4" d="M5.72,42.27h0a.86.86,0,0,1-.06-1.17l5.56-6.78a.38.38,0,0,1,.56,0l1.92,1.93a.36.36,0,0,1,0,.55L6.89,42.33A.87.87,0,0,1,5.72,42.27Z"/><path class="cls-2" d="M42.26,8.68l-6.38,6.38-1,1L33,17.89l-1,1-1.84,1.84-1,1-1.84,1.84-1,1-4.13,4.13a.37.37,0,0,1-.53,0l-2.4-2.4a.37.37,0,0,1,0-.53l4.11-4.1,1-1,1.84-1.84,1-1L29.1,16l1-1,1.84-1.84,1-1,6.41-6.39a.37.37,0,0,1,.53,0l2.39,2.39A.37.37,0,0,1,42.26,8.68Z"/><path class="cls-5" d="M38.31,13.2l-3.5-3.49A.5.5,0,0,1,35,9l6.73-5.88a.47.47,0,0,1,.62-.07L44.93,5.7a.46.46,0,0,1-.07.61L39,13.06C38.79,13.3,38.47,13.37,38.31,13.2Z"/><path class="cls-1" d="M47.92,3.9,44,8.91a.42.42,0,0,1-.62,0l-2-2L39.14,4.66a.42.42,0,0,1,0-.62l5-4a.44.44,0,0,1,.57.09l1.18,1.17,2,2A.44.44,0,0,1,47.92,3.9Z"/><path class="cls-5" d="M47.92,3.9,44,8.91a.42.42,0,0,1-.62,0l-2-2h0a.42.42,0,0,0,.62,0l3.94-5a.44.44,0,0,0-.07-.56l2,2A.44.44,0,0,1,47.92,3.9Z"/><polygon class="cls-4" points="35.88 15.06 34.89 16.05 31.94 13.15 32.93 12.15 35.88 15.06"/><polygon class="cls-4" points="33.05 17.89 32.05 18.89 29.1 15.98 30.09 14.99 33.05 17.89"/><polygon class="cls-4" points="30.21 20.73 29.21 21.72 26.27 18.82 27.26 17.82 30.21 20.73"/><polygon class="cls-4" points="27.37 23.56 26.38 24.55 23.43 21.65 24.42 20.66 27.37 23.56"/><path class="cls-7" d="M25.26,10.06a.35.35,0,1,0,.69,0V6.18l-.31-.6-.38.8Z"/><path class="cls-8" d="M30.1,8.68a.35.35,0,0,0,.38.35.36.36,0,0,0,.31-.36V4.8l-.33-.6L30.1,5Z"/><path class="cls-9" d="M24.57,3.85a1.72,1.72,0,0,1-1.72,1.72.35.35,0,1,1,0-.69A1,1,0,0,0,23.46,3a8.46,8.46,0,0,1-1.67-1.53V7a.36.36,0,0,1-.32.35A.34.34,0,0,1,21.09,7V.35A.35.35,0,0,1,21.34,0h.1a.38.38,0,0,1,.29.15l.39.6a7.42,7.42,0,0,0,1.75,1.7A1.75,1.75,0,0,1,24.57,3.85Z"/><path class="cls-10" d="M24.57,3.85a1.72,1.72,0,0,1-1.72,1.72.35.35,0,1,1,0-.69A1,1,0,0,0,23.46,3a8.46,8.46,0,0,1-1.67-1.53V7a.35.35,0,0,1-.35.34V0a.38.38,0,0,1,.29.15l.39.6a7.42,7.42,0,0,0,1.75,1.7A1.75,1.75,0,0,1,24.57,3.85Z"/><path class="cls-11" d="M24.57,11.79A1.38,1.38,0,1,1,26,10.41,1.38,1.38,0,0,1,24.57,11.79Z"/><path class="cls-12" d="M21.44,6.05a1.37,1.37,0,0,0-1-.48,1.39,1.39,0,1,0,0,2.77,1.37,1.37,0,0,0,1-.48,1.35,1.35,0,0,0,0-1.81Z"/><path class="cls-7" d="M29.41,10.41A1.38,1.38,0,1,1,30.79,9,1.38,1.38,0,0,1,29.41,10.41Z"/><path class="cls-13" d="M21.79,7a1.33,1.33,0,0,1-.35.9V6.05A1.34,1.34,0,0,1,21.79,7Z"/><path class="cls-11" d="M30.65,2.88a.39.39,0,0,0-.3-.06L28,3.49l-2.52.72a.35.35,0,0,0-.25.33V6.38l.69-.2L28,5.59,30.1,5l.69-.19V3.16A.34.34,0,0,0,30.65,2.88Z"/><path class="cls-7" d="M30.79,3.16V4.8L30.1,5,28,5.59V3.49l2.32-.67a.39.39,0,0,1,.3.06A.34.34,0,0,1,30.79,3.16Z"/><path class="cls-7" d="M41.6,26.52a.3.3,0,0,0,.33.3.3.3,0,0,0,.26-.3V23.2l-.27-.51-.32.68Z"/><path class="cls-8" d="M45.73,25.34a.3.3,0,0,0,.33.3.3.3,0,0,0,.26-.31V22L46,21.51l-.31.68Z"/><path class="cls-9" d="M41,21.21a1.47,1.47,0,0,1-1.47,1.47.28.28,0,0,1-.3-.27.29.29,0,0,1,.29-.32.89.89,0,0,0,.53-1.6,6.93,6.93,0,0,1-1.43-1.3v4.67a.3.3,0,0,1-.27.3.29.29,0,0,1-.32-.29V18.22a.3.3,0,0,1,.2-.29h.09a.33.33,0,0,1,.25.13l.34.51A5.9,5.9,0,0,0,40.41,20,1.49,1.49,0,0,1,41,21.21Z"/><path class="cls-10" d="M41,21.21a1.47,1.47,0,0,1-1.47,1.47.28.28,0,0,1-.3-.27.29.29,0,0,1,.29-.32.89.89,0,0,0,.53-1.6,6.93,6.93,0,0,1-1.43-1.3v4.68a.29.29,0,0,1-.3.29V17.92a.33.33,0,0,1,.25.13l.34.51A5.9,5.9,0,0,0,40.41,20,1.49,1.49,0,0,1,41,21.21Z"/><path class="cls-11" d="M41,28a1.18,1.18,0,1,1,1.18-1.18A1.18,1.18,0,0,1,41,28Z"/><path class="cls-12" d="M38.33,23.09a1.15,1.15,0,0,0-.88-.41,1.19,1.19,0,1,0,0,2.37,1.18,1.18,0,0,0,.88-2Z"/><path class="cls-7" d="M45.14,26.82a1.18,1.18,0,1,1,1.18-1.18A1.18,1.18,0,0,1,45.14,26.82Z"/><path class="cls-13" d="M38.63,23.87a1.14,1.14,0,0,1-.3.77V23.09A1.15,1.15,0,0,1,38.63,23.87Z"/><path class="cls-11" d="M46.2,20.38a.34.34,0,0,0-.26-.05l-2,.57-2.15.62a.29.29,0,0,0-.21.28v1.57l.59-.17L44,22.7l1.77-.51.59-.17v-1.4A.29.29,0,0,0,46.2,20.38Z"/><path class="cls-7" d="M46.32,20.62V22l-.59.17L44,22.7V20.9l2-.57a.34.34,0,0,1,.26.05A.29.29,0,0,1,46.32,20.62Z"/></svg>