<svg id="Acoustic_Grand_Keyboard" data-name="Acoustic Grand Keyboard" xmlns="http://www.w3.org/2000/svg" viewBox="0 0 48 48"><defs><style>.cls-1{fill:#f5a257;}.cls-2{fill:#a66856;}.cls-3{fill:#db8f52;}.cls-4{fill:#5c4346;}.cls-5{fill:#8f5040;}.cls-6{fill:#75360d;}.cls-7{fill:#735458;}.cls-8{fill:#ffdea9;}.cls-9{fill:#ffbf7b;}</style></defs><path class="cls-1" d="M12,29.52c-11.85,0-11.33-15-11.33-15H23.33S23.85,29.52,12,29.52Z"/><path class="cls-2" d="M12,33.33c6.52,0,6.23,5.67,6.23,5.67H5.77S5.48,33.33,12,33.33Z"/><path class="cls-1" d="M36,29.52c-11.85,0-11.33-15-11.33-15H47.33S47.85,29.52,36,29.52Z"/><path class="cls-3" d="M47.33,14.51H44.59s.48,13.83-10,14.94a12.07,12.07,0,0,0,1.37.07C47.85,29.52,47.33,14.51,47.33,14.51Z"/><path class="cls-3" d="M23.33,14.51H20.59s.48,13.83-10,14.94a12.07,12.07,0,0,0,1.37.07C23.85,29.52,23.33,14.51,23.33,14.51Z"/><path class="cls-2" d="M36,33.33c6.52,0,6.23,5.67,6.23,5.67H29.77S29.48,33.33,36,33.33Z"/><path class="cls-4" d="M12,38a.7.7,0,0,1-.7-.7V13.25a.7.7,0,0,1,1.4,0V37.34A.7.7,0,0,1,12,38Z"/><path class="cls-4" d="M7.9,37.43a.71.71,0,0,1-.68-.52L1,13.4a.7.7,0,0,1,.5-.86.71.71,0,0,1,.86.5L8.58,36.55a.7.7,0,0,1-.5.86A.55.55,0,0,1,7.9,37.43Z"/><path class="cls-4" d="M16.1,37.43a.55.55,0,0,1-.18,0,.7.7,0,0,1-.5-.86L21.6,13a.71.71,0,0,1,.86-.5.7.7,0,0,1,.5.86L16.78,36.91A.71.71,0,0,1,16.1,37.43Z"/><path class="cls-4" d="M36,38a.7.7,0,0,1-.7-.7V13.25a.7.7,0,1,1,1.4,0V37.34A.7.7,0,0,1,36,38Z"/><path class="cls-4" d="M31.9,37.43a.71.71,0,0,1-.68-.52L25,13.4a.7.7,0,0,1,.5-.86.71.71,0,0,1,.86.5l6.18,23.51a.7.7,0,0,1-.5.86A.55.55,0,0,1,31.9,37.43Z"/><path class="cls-4" d="M40.1,37.43a.55.55,0,0,1-.18,0,.7.7,0,0,1-.5-.86L45.6,13a.71.71,0,0,1,.86-.5.7.7,0,0,1,.5.86L40.78,36.91A.71.71,0,0,1,40.1,37.43Z"/><path class="cls-5" d="M43.19,39H28.81a.38.38,0,0,1-.38-.38V36.41a.37.37,0,0,1,.38-.37H43.19a.37.37,0,0,1,.38.37v2.21A.38.38,0,0,1,43.19,39Z"/><path class="cls-6" d="M43.19,39H40.67V36h2.52a.37.37,0,0,1,.38.37v2.21A.38.38,0,0,1,43.19,39Z"/><path class="cls-5" d="M19.19,39H4.81a.38.38,0,0,1-.38-.38V36.41A.37.37,0,0,1,4.81,36H19.19a.37.37,0,0,1,.38.37v2.21A.38.38,0,0,1,19.19,39Z"/><path class="cls-6" d="M19.19,39H16.67V36h2.52a.37.37,0,0,1,.38.37v2.21A.38.38,0,0,1,19.19,39Z"/><path class="cls-7" d="M23.64,14.51H.36A.36.36,0,0,1,0,14.15V12.3a.36.36,0,0,1,.36-.36H23.64a.36.36,0,0,1,.36.36v1.85A.36.36,0,0,1,23.64,14.51Z"/><path class="cls-8" d="M23.31,11.94H.69V10.33A1.32,1.32,0,0,1,2,9H22a1.32,1.32,0,0,1,1.32,1.33Z"/><path class="cls-7" d="M47.64,14.51H24.36a.36.36,0,0,1-.36-.36V12.3a.36.36,0,0,1,.36-.36H47.64a.36.36,0,0,1,.36.36v1.85A.36.36,0,0,1,47.64,14.51Z"/><path class="cls-4" d="M47.64,11.94h-2.9a.36.36,0,0,1,.36.36v1.85a.36.36,0,0,1-.36.36h2.9a.36.36,0,0,0,.36-.36V12.3A.36.36,0,0,0,47.64,11.94Z"/><path class="cls-4" d="M23.64,11.94h-2.9a.36.36,0,0,1,.36.36v1.85a.36.36,0,0,1-.36.36h2.9a.36.36,0,0,0,.36-.36V12.3A.36.36,0,0,0,23.64,11.94Z"/><path class="cls-8" d="M47.31,11.94H24.69V10.33A1.32,1.32,0,0,1,26,9H46a1.32,1.32,0,0,1,1.32,1.33v1.61Z"/><path class="cls-9" d="M46,9H43.11a1.32,1.32,0,0,1,1.32,1.33v1.61h2.88V10.33A1.32,1.32,0,0,0,46,9Z"/><path class="cls-9" d="M22,9H19.11a1.32,1.32,0,0,1,1.32,1.33v1.61h2.88V10.33A1.32,1.32,0,0,0,22,9Z"/></svg>