<svg id="Acoustic_Grand_Keyboard" data-name="Acoustic Grand Keyboard" xmlns="http://www.w3.org/2000/svg" viewBox="0 0 48 48"><defs><style>.cls-1{fill:#434a54;}.cls-2{fill:#da4453;}.cls-3{fill:#ffce54;}.cls-4{fill:#ed5564;}</style></defs><path class="cls-1" d="M44.12,46a1,1,0,0,1,0-2c.71,0,1.14-1.21,1.34-1.94.9-3.29.67-10-.59-17.43a68.84,68.84,0,0,0-2-8.71c-1-3.07-1.64-3.79-1.79-3.92a1,1,0,0,1-.87-1,1,1,0,0,1,1-1c1.05,0,1.92,1,2.82,3.21A45,45,0,0,1,46,19.8a83.5,83.5,0,0,1,2,16.78,22.44,22.44,0,0,1-.7,6.32C46.87,44.31,46,46,44.12,46Z"/><path class="cls-2" d="M29,2H5a1,1,0,0,0-.71.29l-4,4A1,1,0,0,0,.17,7.56l4,6A1,1,0,0,0,5,14H17A12,12,0,1,0,29,2Z"/><path class="cls-1" d="M29,2H22.59l-4.3,4.29a1,1,0,0,0,0,1.42A1,1,0,0,0,19,8c.23,0,4.44-.08,5.35-.24A1,1,0,0,0,25,8a1,1,0,0,0,.71-.29l5.5-5.51A12.36,12.36,0,0,0,29,2Z"/><path class="cls-3" d="M41,8H35s2.25,1.67,3.56,6H41a3,3,0,0,0,0-6Z"/><path class="cls-1" d="M44.12,46c-1.27,0-2.36-.81-3.25-2.41a19,19,0,0,1-1.73-5.17,71.54,71.54,0,0,1-1.27-14.16,62,62,0,0,1,.63-9.44,14.88,14.88,0,0,1,.8-3.13c.47-1.12,1.12-1.69,1.92-1.69a1,1,0,0,1,.19,2c-.15.19-.63,1-1,3.76A62.31,62.31,0,0,0,39.87,24c0,7,.78,13.55,2.09,17.14C42.63,43,43.41,44,44.12,44a1,1,0,1,1,0,2Z"/><path class="cls-4" d="M25,6H1A1,1,0,0,0,0,7V17a1,1,0,0,0,1,1H13A12,12,0,1,0,25,6Z"/><path class="cls-3" d="M25,13a5,5,0,1,0,5,5A5,5,0,0,0,25,13Z"/></svg>