<svg id="Acoustic_Grand_Keyboard" data-name="Acoustic Grand Keyboard" xmlns="http://www.w3.org/2000/svg" viewBox="0 0 48 48"><defs><style>.cls-1{fill:#463c4b;}.cls-2{fill:#555a6e;}.cls-3{fill:#f06423;}.cls-4{fill:#faa51e;}.cls-5{fill:#d7e6f0;}</style></defs><path class="cls-1" d="M11.2,16.8,23.06,4.94A3.22,3.22,0,0,1,25.33,4h9.54a.8.8,0,0,1,.56,1.37L33.37,7.43a.8.8,0,0,0,.56,1.37H39.2a4,4,0,0,1,0,8Z"/><path class="cls-2" d="M35.2,18.8a.39.39,0,0,1-.28-.12L23.72,7.48a.4.4,0,0,1,.56-.56l11.2,11.2a.39.39,0,0,1,0,.56A.39.39,0,0,1,35.2,18.8Z"/><path class="cls-3" d="M25.6,16.8h4.8v1.6H25.6Z"/><path class="cls-1" d="M38.4,28h8.8a.8.8,0,0,0,.8-.8V17.6a.8.8,0,0,0-.8-.8H38.4Z"/><path class="cls-2" d="M38.4,16.8h8V28h-8Z"/><path class="cls-2" d="M4.8,17.6V20a3.2,3.2,0,0,1-3.2,3.2H.8A.8.8,0,0,0,0,24v4.8a.8.8,0,0,0,.8.8H16V16.8H5.6A.8.8,0,0,0,4.8,17.6Z"/><path class="cls-1" d="M6.4,17.6V20a3.2,3.2,0,0,1-3.2,3.2H2.4a.8.8,0,0,0-.8.8v4.8a.8.8,0,0,0,.8.8H17.6V16.8H7.2A.8.8,0,0,0,6.4,17.6Z"/><path class="cls-4" d="M7.2,18.4H29.6v6.4H7.2Z"/><path class="cls-3" d="M21.6,22.4H15.2a.8.8,0,0,1,0-1.6h6.4a.8.8,0,1,1,0,1.6Z"/><path class="cls-2" d="M7.2,23.2H30.4v1.6H7.2Z"/><path class="cls-5" d="M1.6,24.8H30.4v1.6H1.6Z"/><path class="cls-2" d="M1.6,26.4H30.4v3.2H1.6Z"/><path class="cls-2" d="M27.2,17.6V20A3.2,3.2,0,0,1,24,23.2h-.8a.8.8,0,0,0-.8.8v4.8a.8.8,0,0,0,.8.8H38.4V16.8H28A.8.8,0,0,0,27.2,17.6Z"/><path class="cls-1" d="M28.8,17.6V20a3.2,3.2,0,0,1-3.2,3.2h-.8a.8.8,0,0,0-.8.8v4.8a.8.8,0,0,0,.8.8H39.2a.8.8,0,0,0,.8-.8V17.6a.8.8,0,0,0-.8-.8H29.6A.8.8,0,0,0,28.8,17.6Z"/><path class="cls-1" d="M24,14.4a1.6,1.6,0,0,0-1.6-1.6H16a1.6,1.6,0,0,0-1.6,1.6h-.8a.8.8,0,0,0-.8.8v3.2H25.6V15.2a.8.8,0,0,0-.8-.8Z"/><path class="cls-2" d="M23.2,14.4a1.6,1.6,0,0,0-1.6-1.6H15.2a1.6,1.6,0,0,0-1.6,1.6h-.8a.8.8,0,0,0-.8.8v3.2H24.8V15.2a.8.8,0,0,0-.8-.8Z"/><path class="cls-2" d="M30.4,42.4H28a.8.8,0,0,1-.8-.8V31.2a1.6,1.6,0,0,0-1.6-1.6h7.2a1.6,1.6,0,0,0-1.6,1.6V41.6A.8.8,0,0,1,30.4,42.4Z"/><path class="cls-1" d="M30.4,42.4h-.8a.8.8,0,0,1-.8-.8V31.2a1.6,1.6,0,0,0-1.6-1.6h5.6a1.6,1.6,0,0,0-1.6,1.6V41.6A.8.8,0,0,1,30.4,42.4Z"/><path class="cls-4" d="M29.2,44A1.2,1.2,0,0,1,28,42.8v-.4h2.4v.4A1.2,1.2,0,0,1,29.2,44Z"/><path class="cls-2" d="M44.8,42.4H42.4a.8.8,0,0,1-.8-.8v-12A1.6,1.6,0,0,0,40,28h7.2a1.6,1.6,0,0,0-1.6,1.6v12A.8.8,0,0,1,44.8,42.4Z"/><path class="cls-1" d="M44.8,42.4H44a.8.8,0,0,1-.8-.8v-12A1.6,1.6,0,0,0,41.6,28h5.6a1.6,1.6,0,0,0-1.6,1.6v12A.8.8,0,0,1,44.8,42.4Z"/><path class="cls-4" d="M43.6,44a1.2,1.2,0,0,1-1.2-1.2v-.4h2.4v.4A1.2,1.2,0,0,1,43.6,44Z"/><path class="cls-2" d="M6.4,42.4H4a.8.8,0,0,1-.8-.8V31.2a1.6,1.6,0,0,0-1.6-1.6H8.8a1.6,1.6,0,0,0-1.6,1.6V41.6A.8.8,0,0,1,6.4,42.4Z"/><path class="cls-1" d="M6.4,42.4H5.6a.8.8,0,0,1-.8-.8V31.2a1.6,1.6,0,0,0-1.6-1.6H8.8a1.6,1.6,0,0,0-1.6,1.6V41.6A.8.8,0,0,1,6.4,42.4Z"/><path class="cls-4" d="M5.2,44A1.2,1.2,0,0,1,4,42.8v-.4H6.4v.4A1.2,1.2,0,0,1,5.2,44Z"/><path class="cls-1" d="M12,29.6h2.4V42.4H12Z"/><path class="cls-2" d="M12,31.2h1.6V42.4H12Z"/><path class="cls-1" d="M20,29.6h2.4V42.4H20Z"/><path class="cls-2" d="M20,31.2h1.6V42.4H20Z"/><path class="cls-1" d="M22.4,40.8H12a.8.8,0,0,0-.8.8v1.6a.8.8,0,0,0,.8.8H22.4a.8.8,0,0,0,.8-.8V41.6A.8.8,0,0,0,22.4,40.8Z"/><path class="cls-2" d="M19.2,40.8H12a.8.8,0,0,0-.8.8v1.6a.8.8,0,0,0,.8.8h7.2a.8.8,0,0,0,.8-.8V41.6A.8.8,0,0,0,19.2,40.8Z"/><path class="cls-1" d="M12,42.4h7.2V44H12Z"/><path class="cls-4" d="M14.4,43.2H10a.4.4,0,1,1,0-.8h4.4Z"/><path class="cls-3" d="M14.4,43.2H11.6a.4.4,0,1,1,0-.8h2.8Z"/><path class="cls-4" d="M17.6,43.2H13.2a.4.4,0,1,1,0-.8h4.4Z"/><path class="cls-3" d="M17.6,43.2H14.8a.4.4,0,0,1,0-.8h2.8Z"/><path class="cls-4" d="M19.2,43.2H16.4a.4.4,0,0,1,0-.8h2.8Z"/><path class="cls-3" d="M19.2,43.2H18a.4.4,0,1,1,0-.8h1.2Z"/></svg>