<svg id="Acoustic_Grand_Keyboard" data-name="Acoustic Grand Keyboard" xmlns="http://www.w3.org/2000/svg" viewBox="0 0 48 48"><defs><style>.cls-1{fill:#845252;}.cls-1,.cls-2,.cls-3,.cls-4{fill-rule:evenodd;}.cls-2{fill:#704242;}.cls-3{fill:#d48c64;}.cls-4{fill:#a46a5a;}.cls-5{fill:#eceaec;}.cls-6{fill:#dbd8db;}</style></defs><path class="cls-1" d="M47.39,9.21,38.76.61a2.12,2.12,0,0,0-3,0L34.43,2l4,6.68L46,13.53l1.36-1.36A2.11,2.11,0,0,0,47.39,9.21Z"/><path class="cls-2" d="M45.06,12.56h0Zm2.33-.39a2.11,2.11,0,0,0,0-3l-2.1-2.09a2.11,2.11,0,0,1,0,3l-1.36,1.35-.24.59L46,13.53Z"/><path class="cls-3" d="M31.31,38.45,44.13,17.69,39.26,9.5l-9-5.63L9.45,16.68c-3.17,1.95-4.35,5.79-5.9,8.75L11.41,36.9l11.13,7.45c3-1.55,6.82-2.73,8.77-5.9Z"/><path class="cls-4" d="M22.54,44.35c3-1.55,6.82-2.73,8.77-5.9L44.13,17.69l-.2-4.16L41.39,15,28.57,35.72c-2,3.17-5.81,4.35-8.77,5.9l-2.38.9Z"/><path class="cls-1" d="M17,44.9l-14-14L1.64,32.29a2.1,2.1,0,0,0,0,3l11,11a2.12,2.12,0,0,0,3,0Z"/><path class="cls-4" d="M46,13.53,34.43,2,33.29.84a2.14,2.14,0,1,0-3,3L44.13,17.69a2.14,2.14,0,0,0,3-3Z"/><path class="cls-2" d="M15.66,46.26,17,44.9l-2.1-2.1-1.36,1.36a2.11,2.11,0,0,1-3,0l2.1,2.1A2.12,2.12,0,0,0,15.66,46.26Z"/><path class="cls-1" d="M44.13,17.69a2.14,2.14,0,0,0,3-3L46,13.53l-1-1a2.14,2.14,0,0,1,0,3,2.17,2.17,0,0,1-3,0Z"/><path class="cls-4" d="M3.55,25.43a2.14,2.14,0,0,0-3,3l19,18.92a2.14,2.14,0,0,0,3-3Z"/><path class="cls-1" d="M22.54,47.38a2.15,2.15,0,0,0,0-3L20.19,42a2.15,2.15,0,0,1-3.05,3l2.37,2.36a2.15,2.15,0,0,0,3,0Z"/><path class="cls-5" d="M12.13,36.53a.7.7,0,0,1-.51-.22.71.71,0,0,1,0-1l26-25.94a.72.72,0,0,1,1,1l-26,25.94a.71.71,0,0,1-.51.21Z"/><path class="cls-5" d="M9.12,33.53a.73.73,0,0,1-.51-.21.74.74,0,0,1,0-1l26-25.94a.73.73,0,1,1,1,1l-26,25.94A.75.75,0,0,1,9.12,33.53Z"/><path class="cls-5" d="M6.11,30.53a.73.73,0,0,1-.51-.21.74.74,0,0,1,0-1l26-25.93a.72.72,0,0,1,1,1l-26,25.94a.73.73,0,0,1-.52.21Z"/><path class="cls-5" d="M15.14,39.52a.71.71,0,0,1-.51-.21.72.72,0,0,1,0-1l26-25.93a.73.73,0,0,1,1,0,.74.74,0,0,1,0,1l-26,25.93a.71.71,0,0,1-.51.21Z"/><path class="cls-6" d="M12.83,24.91a.73.73,0,0,1-.52-.21l-1.08-1.08a.73.73,0,0,1,1-1l1.08,1.08a.74.74,0,0,1,0,1,.73.73,0,0,1-.51.21Z"/><path class="cls-6" d="M21.58,22.17a.73.73,0,0,1-.51-.21L20,20.88a.73.73,0,0,1,1-1l1.08,1.08a.73.73,0,0,1,0,1A.75.75,0,0,1,21.58,22.17Z"/><path class="cls-6" d="M29.15,20.61a.73.73,0,0,1-.51-.21l-1.08-1.08a.72.72,0,0,1,0-1,.73.73,0,0,1,1,0l1.08,1.08a.72.72,0,0,1-.51,1.24Z"/><path class="cls-6" d="M37.23,18.55a.73.73,0,0,1-.51-.21l-1.08-1.08a.73.73,0,0,1,0-1,.74.74,0,0,1,1,0l1.08,1.08a.72.72,0,0,1,0,1A.71.71,0,0,1,37.23,18.55Z"/><path class="cls-5" d="M18.15,42.52a.73.73,0,0,1-.52-1.24l26-25.94a.73.73,0,0,1,1,1l-26,25.94A.73.73,0,0,1,18.15,42.52Z"/><path class="cls-6" d="M24.86,36.9a.75.75,0,0,1-.52-.21l-1.08-1.08a.73.73,0,1,1,1-1l1.08,1.08a.74.74,0,0,1,0,1,.73.73,0,0,1-.51.21Z"/></svg>