<svg id="Acoustic_Grand_Keyboard" data-name="Acoustic Grand Keyboard" xmlns="http://www.w3.org/2000/svg" viewBox="0 0 48 48"><defs><style>.cls-1{fill:#56595e;}.cls-2{fill:#7f8284;}.cls-3{fill:#a5a5a4;}.cls-4{fill:#95a5a5;}.cls-5{fill:#bdc3c7;}.cls-6{fill:#7f8c8d;}.cls-7{fill:#a56a43;}.cls-8{fill:#603e26;}</style></defs><g id="Page-1"><g id="_060---Revolvers" data-name="060---Revolvers"><path id="Shape" class="cls-1" d="M32.83,35.64a2.46,2.46,0,0,1-1.43-.48L29.86,34A2.39,2.39,0,0,1,29,31.47l1.54-5.79a.8.8,0,0,1,1.54.41l-1.53,5.79a.78.78,0,0,0,.29.84l1.55,1.15a.78.78,0,0,0,.84.08l3.9-2a.8.8,0,0,1,.82,0,.81.81,0,0,1-.1,1.4l-3.9,2A2.43,2.43,0,0,1,32.83,35.64Z"/><path id="Shape-2" data-name="Shape" class="cls-1" d="M15.17,35.64a2.36,2.36,0,0,1-1.08-.26l-3.91-2a.78.78,0,0,1-.46-.67.81.81,0,0,1,.36-.73.85.85,0,0,1,.82,0l3.91,2a.78.78,0,0,0,.83-.07l1.55-1.15a.79.79,0,0,0,.29-.85l-1.6-6a.82.82,0,0,1,.57-1,.8.8,0,0,1,1,.57l1.6,6A2.37,2.37,0,0,1,18.15,34L16.6,35.15a2.38,2.38,0,0,1-1.43.49Z"/><path id="Shape-3" data-name="Shape" class="cls-2" d="M44,26.55a4.91,4.91,0,0,1-2.38-.78.81.81,0,0,1-.29-1.1.8.8,0,0,1,1.09-.29c.94.53,1.69.71,1.89.45a2.32,2.32,0,0,1,1.57-1,2.34,2.34,0,0,1,1.79.48.8.8,0,0,1,.16,1.12.81.81,0,0,1-1.12.16.73.73,0,0,0-.6-.19.74.74,0,0,0-.52.35,1.91,1.91,0,0,1-1.59.77Z"/><path id="Shape-4" data-name="Shape" class="cls-2" d="M4,26.55a1.92,1.92,0,0,1-1.59-.77.74.74,0,0,0-1.12-.16.8.8,0,0,1-1-1.28,2.35,2.35,0,0,1,1.79-.48,2.32,2.32,0,0,1,1.57,1c.2.27,1,.08,1.89-.45a.8.8,0,0,1,1.09.29.81.81,0,0,1-.29,1.1A4.91,4.91,0,0,1,4,26.55Z"/><path id="Shape-5" data-name="Shape" class="cls-1" d="M17.05,3.33a.81.81,0,0,1-.72-.45.78.78,0,0,1,.08-.83L17.36.76A.78.78,0,0,1,18.1.45a.79.79,0,0,1,.64.48.8.8,0,0,1-.1.79L17.68,3a.83.83,0,0,1-.63.33Z"/><path id="Shape-6" data-name="Shape" class="cls-1" d="M31,3.33A.79.79,0,0,1,30.32,3l-1-1.28a.8.8,0,1,1,1.28-1L31.59,2a.78.78,0,0,1,.08.84.8.8,0,0,1-.72.44Z"/><path id="Shape-7" data-name="Shape" class="cls-3" d="M32.44,14,30.06,17.2,26.7,14.7l3.36-2.48Z"/><path id="Shape-8" data-name="Shape" class="cls-3" d="M24,7.7l-3.34,2.5L15.2,6.13,13.38,4.77a.78.78,0,0,1-.32-.52.8.8,0,0,1,.15-.6l1.43-1.92a.81.81,0,0,1,.53-.31.78.78,0,0,1,.59.15Z"/><path id="Shape-9" data-name="Shape" class="cls-4" d="M35,15.9l-4.78,6.42-.64-.48-1.29-1a.81.81,0,0,1-.16-1.12l1.92-2.56L32.44,14Z"/><path id="Shape-10" data-name="Shape" class="cls-5" d="M40.14,19.72l-4.78,6.42-5.13-3.82L31.18,21l1-1.29,1-1.28.95-1.28h0L35,15.9Z"/><path id="Shape-11" data-name="Shape" class="cls-4" d="M42.39,23.41a4,4,0,0,1-.79,2.39,4.11,4.11,0,0,1-1.27,1.11A4,4,0,0,1,36,26.62l-.65-.48,4.78-6.42.64.48a4,4,0,0,1,1.61,3.21Z"/><path id="Shape-12" data-name="Shape" class="cls-2" d="M37.42,20.69a.73.73,0,0,1-.64.32.83.83,0,0,1-.48-.15l-3.2-2.39.95-1.28h0l3.2,2.38a.81.81,0,0,1,.31.53.78.78,0,0,1-.15.59Z"/><path id="Shape-13" data-name="Shape" class="cls-2" d="M35.51,23.26a.81.81,0,0,1-.64.32.77.77,0,0,1-.48-.16L31.18,21l1-1.29,3.21,2.39a.81.81,0,0,1,.31.53.78.78,0,0,1-.15.59Z"/><path id="Shape-14" data-name="Shape" class="cls-6" d="M40.85,31.11c-.25-.19-.52-.39-.81-.58a.81.81,0,0,0-1.1.18l-2,2.67a.78.78,0,0,0,0,.89h0l-1.05-.78-.23-1.59A1.59,1.59,0,0,0,35,30.86l-5.88-4.38a2.39,2.39,0,0,1-.95-1.57,2.43,2.43,0,0,1,.45-1.79l1-1.28.64.48,5.13,3.82.65.48a4,4,0,0,0,4.32.29,3.46,3.46,0,0,1,.52,4.2Z"/><path id="Shape-15" data-name="Shape" class="cls-7" d="M43.79,39.6,42.1,46.34a1.59,1.59,0,0,1-2.51.9l-4.25-3.17a1.55,1.55,0,0,1-.64-1.18,1.61,1.61,0,0,1,.48-1.26l1.56-1.5a4.57,4.57,0,0,0,1.38-2.46,3.47,3.47,0,0,0-1.07-3.24.61.61,0,0,1-.12-.16.78.78,0,0,1,0-.89l2-2.67a.81.81,0,0,1,1.1-.18c.29.19.56.39.81.58a8.44,8.44,0,0,1,3,4.44,7.94,7.94,0,0,1,0,4.05Z"/><circle id="Oval" class="cls-8" cx="40.8" cy="39.56" r="0.8"/><path id="Shape-16" data-name="Shape" class="cls-2" d="M20.66,10.2l-2.72,2-2.41-1.77a.81.81,0,0,1-.33-.64V6.13Z"/><path id="Shape-17" data-name="Shape" class="cls-2" d="M34.62,4.77,32.8,6.13,18,17.2,15.56,14l2.38-1.77,2.72-2L24,7.7l8.24-6.13a.78.78,0,0,1,.59-.15.81.81,0,0,1,.53.31l1.43,1.92a.8.8,0,0,1,.15.6.78.78,0,0,1-.32.52Z"/><path id="Shape-18" data-name="Shape" class="cls-4" d="M19.7,20.88l-1.29,1-.64.48L13,15.9,15.56,14,18,17.2l1.91,2.56a.81.81,0,0,1-.16,1.12Z"/><path id="Shape-19" data-name="Shape" class="cls-5" d="M17.77,22.32l-5.13,3.82L7.86,19.72,13,15.9l1,1.29h0l1,1.28.95,1.28,1,1.29Z"/><path id="Shape-20" data-name="Shape" class="cls-4" d="M12.64,26.14l-.65.48a4,4,0,0,1-4.32.29A4.11,4.11,0,0,1,6.4,25.8a4,4,0,0,1,.82-5.6l.64-.48Z"/><path id="Shape-21" data-name="Shape" class="cls-2" d="M14.91,18.47,11.7,20.86a.83.83,0,0,1-.48.15.75.75,0,0,1-.64-.32.79.79,0,0,1,.16-1.12L14,17.19h0Z"/><path id="Shape-22" data-name="Shape" class="cls-2" d="M16.82,21l-3.21,2.38a.77.77,0,0,1-.48.16.8.8,0,0,1-.48-1.44l3.21-2.39Z"/><path id="Shape-23" data-name="Shape" class="cls-6" d="M18.87,26.48,13,30.86a1.59,1.59,0,0,0-.63,1.05l-.23,1.59-1.05.78h0a.75.75,0,0,0,0-.89l-2-2.67A.81.81,0,0,0,8,30.53c-.29.19-.56.39-.81.58a3.46,3.46,0,0,1,.52-4.2A4,4,0,0,0,12,26.62l.65-.48,5.13-3.82.64-.48,1,1.28a2.43,2.43,0,0,1,.45,1.79A2.35,2.35,0,0,1,18.87,26.48Z"/><path id="Shape-24" data-name="Shape" class="cls-7" d="M12.67,44.07,8.41,47.24a1.59,1.59,0,0,1-2.51-.9L4.21,39.6a8.05,8.05,0,0,1,0-4.05,8.44,8.44,0,0,1,3-4.44c.25-.19.52-.39.81-.58a.81.81,0,0,1,1.1.18l2,2.67a.75.75,0,0,1,0,.89.61.61,0,0,1-.12.16,3.47,3.47,0,0,0-1.07,3.24,4.57,4.57,0,0,0,1.38,2.46l1.56,1.5a1.6,1.6,0,0,1-.15,2.44Z"/><circle id="Oval-2" data-name="Oval" class="cls-8" cx="7.2" cy="39.56" r="0.8"/><path id="Shape-25" data-name="Shape" class="cls-2" d="M30.06,17.2l-1.92,2.56L24,16.7l2.7-2Z"/><path id="Shape-26" data-name="Shape" class="cls-1" d="M32.8,6.13V9.81a.79.79,0,0,1-.33.64l-2.41,1.77L26.7,14.7l-2.7,2-4.14,3.06L18,17.2Z"/></g></g></svg>