<svg id="Acoustic_Grand_Keyboard" data-name="Acoustic Grand Keyboard" xmlns="http://www.w3.org/2000/svg" viewBox="0 0 48 48"><defs><style>.cls-1{fill:#eab14d;}.cls-2{fill:#617881;}.cls-3{fill:#e28086;}.cls-4{fill:#dd636e;}.cls-5{fill:#ffe07d;}.cls-6{fill:#ecbe6b;}</style></defs><path class="cls-1" d="M10.1,8.49A.71.71,0,0,1,9.89,7.1l1.32-.4a.71.71,0,1,1,.41,1.36l-1.31.4Z"/><path class="cls-1" d="M12.9,7.08a.72.72,0,0,1-.21-1.4L14,5.28a.72.72,0,1,1,.41,1.37l-1.31.4A.76.76,0,0,1,12.9,7.08Z"/><path class="cls-1" d="M20.06,6.05A.71.71,0,0,1,20,4.63l1.4-.17a.72.72,0,0,1,.8.62.73.73,0,0,1-.63.8l-1.4.17Z"/><path class="cls-1" d="M23.09,5.43A.71.71,0,0,1,23,4l1.4-.17a.7.7,0,0,1,.79.62.72.72,0,0,1-.62.8l-1.4.17Z"/><path class="cls-1" d="M31.73,13.35h0l-1.47-.08a.71.71,0,0,1,.07-1.42l1.47.07a.72.72,0,0,1,0,1.43Z"/><path class="cls-1" d="M34.75,13.35h0l-1.47-.08a.71.71,0,1,1,.07-1.42l1.47.07a.72.72,0,0,1,0,1.43Z"/><path class="cls-1" d="M43.28,12.16a.64.64,0,0,1-.33-.08l-1.38-.71a.72.72,0,0,1,.66-1.27l1.38.72a.71.71,0,0,1-.33,1.34Z"/><path class="cls-1" d="M45.92,13.48a.76.76,0,0,1-.33-.08l-1.68-.87a.71.71,0,0,1-.3-1,.7.7,0,0,1,1-.3l1.67.86a.71.71,0,0,1-.32,1.35Z"/><path class="cls-2" d="M7.48,29.92a.7.7,0,0,0-.85.54L3.05,46l-.91-.24a.71.71,0,1,0-.37,1.38L5,48l.19,0a.71.71,0,0,0,.18-1.4l-.94-.25L8,30.78A.71.71,0,0,0,7.48,29.92Z"/><path class="cls-3" d="M5.88,32.81a1.07,1.07,0,0,1-.78-1.25l1.76-8.83A8.1,8.1,0,0,1,11.3,17a50.75,50.75,0,0,1,23.44-4.88,10,10,0,0,1,9.48,8.12l1.18,6a7.79,7.79,0,0,1-7,9.26l-11.07,1a7.82,7.82,0,0,1-8.14-5.45l-.69-2.21a4.19,4.19,0,0,0-8-.07L9.28,32.66a1.06,1.06,0,0,1-1.29.7Z"/><path class="cls-4" d="M40.57,35.05a7.82,7.82,0,0,0,4.83-8.77l-1.18-6a10,10,0,0,0-9.48-8.12A50.75,50.75,0,0,0,11.3,17a7.61,7.61,0,0,0-1.71,1.11,51,51,0,0,1,22.85-4.6,10,10,0,0,1,9.47,8.12l1.19,6a7.82,7.82,0,0,1-2.53,7.38Z"/><path class="cls-5" d="M17.53,15.72a.27.27,0,0,1-.19.33L12.79,17.4a.28.28,0,0,1-.34-.19l-.55-1.89a.51.51,0,0,1,.34-.64l4.09-1.2a.51.51,0,0,1,.64.35Z"/><path class="cls-6" d="M10.81,2.29a1,1,0,0,0-.69,1.2l2.76,11,2.81-.83L12,2.93A1,1,0,0,0,10.81,2.29Z"/><path class="cls-5" d="M25.91,14.41a.28.28,0,0,1-.24.3L21,15.22a.27.27,0,0,1-.3-.24l-.21-2a.51.51,0,0,1,.45-.56L25.13,12a.51.51,0,0,1,.56.46Z"/><path class="cls-6" d="M21.67,0a1,1,0,0,0-.88,1.05l.76,11.32,2.92-.31L22.77.85A1,1,0,0,0,21.67,0Z"/><path class="cls-5" d="M34.05,17.23a.26.26,0,0,1-.29.24L29,17a.27.27,0,0,1-.25-.29l.21-2a.5.5,0,0,1,.56-.46l4.24.43a.53.53,0,0,1,.46.57Z"/><path class="cls-6" d="M32.93,2.26a1,1,0,0,0-1.09.85L30.22,14.33l2.92.3.69-11.32A1,1,0,0,0,32.93,2.26Z"/><path class="cls-6" d="M25.83,37.13a.74.74,0,0,1-.56-.27.73.73,0,0,1,.12-1A31.41,31.41,0,0,1,35.5,30.6a30.3,30.3,0,0,0,9.19-4.66.71.71,0,1,1,.86,1.14A31.72,31.72,0,0,1,35.92,32a30,30,0,0,0-9.65,5,.66.66,0,0,1-.44.16Z"/><path class="cls-6" d="M21.1,34.87a.73.73,0,0,1-.54-.24.71.71,0,0,1,.06-1,31.21,31.21,0,0,1,11.45-6.38A29.42,29.42,0,0,0,43.61,20.6a.71.71,0,0,1,1,0,.72.72,0,0,1,0,1,30.85,30.85,0,0,1-12.12,7,29.68,29.68,0,0,0-10.91,6.07.69.69,0,0,1-.47.18Z"/><path class="cls-6" d="M18.83,30.51a.76.76,0,0,1-.55-.25.72.72,0,0,1,.1-1,31.09,31.09,0,0,1,10.68-5.72,30.07,30.07,0,0,0,9.41-4.82.71.71,0,1,1,.87,1.13,31.67,31.67,0,0,1-9.86,5.06,29.54,29.54,0,0,0-10.19,5.45.72.72,0,0,1-.46.16Z"/><path class="cls-5" d="M40.32,21.9A.26.26,0,0,1,40,22l-4-2.63a.28.28,0,0,1-.08-.38L37,17.33a.52.52,0,0,1,.72-.14l3.54,2.36a.51.51,0,0,1,.14.71Z"/><path class="cls-6" d="M46.62,9.49a1,1,0,0,0-.3-1.35A1,1,0,0,0,45,8.38l-6.68,9.17,2.44,1.63Z"/></svg>