<svg id="Acoustic_Grand_Keyboard" data-name="Acoustic Grand Keyboard" xmlns="http://www.w3.org/2000/svg" viewBox="0 0 48 48"><defs><style>.cls-1{fill:#a34f41;}.cls-2{fill:#421815;}.cls-3{fill:#fcb982;}.cls-4{fill:#873f30;}.cls-5{fill:#fddbbf;}.cls-6{fill:#fcca9f;}.cls-7{fill:#6c3328;}.cls-8{fill:#54231d;}</style></defs><path class="cls-1" d="M22,33.12a9.58,9.58,0,0,0-.37,4.43A9.91,9.91,0,0,1,19.25,46C15.73,49.54,10,48.12,5.56,43.7S-.28,33.53,3.25,30a9.87,9.87,0,0,1,8.46-2.39,9.51,9.51,0,0,0,4.44-.37l3.76,1.61Z"/><path class="cls-2" d="M21.41,23.45l-2.15-2.16a.71.71,0,0,1,1-1l2.15,2.16a.71.71,0,0,1-1,1Z"/><path class="cls-3" d="M18.7,21.54a.71.71,0,0,1,0-1l.81-.81a.71.71,0,0,1,1,1l-.81.81A.71.71,0,0,1,18.7,21.54Z"/><path class="cls-2" d="M24,21.15,21.84,19a.71.71,0,1,1,1-1L25,20.14a.71.71,0,0,1-1,1Z"/><path class="cls-3" d="M21.28,19.24a.71.71,0,0,1,0-1l.81-.81a.71.71,0,0,1,1,0,.73.73,0,0,1,0,1l-.81.81a.71.71,0,0,1-1,0Z"/><path class="cls-2" d="M26.57,18.85l-2.15-2.16a.71.71,0,0,1,0-1,.7.7,0,0,1,1,0l2.16,2.16a.71.71,0,0,1,0,1A.73.73,0,0,1,26.57,18.85Z"/><path class="cls-3" d="M23.86,16.94a.71.71,0,0,1,0-1l.8-.81a.71.71,0,0,1,1,1l-.81.81a.7.7,0,0,1-1,0Z"/><path class="cls-2" d="M29.15,16.54,27,14.39a.73.73,0,0,1,0-1,.71.71,0,0,1,1,0l2.16,2.16a.7.7,0,0,1,0,1,.71.71,0,0,1-1,0Z"/><path class="cls-3" d="M26.43,14.64a.71.71,0,0,1,0-1l.81-.81a.71.71,0,0,1,1,1l-.81.81a.71.71,0,0,1-1,0Z"/><path class="cls-2" d="M36,10,33.8,7.86a.71.71,0,0,1,1-1L37,9a.71.71,0,1,1-1,1Z"/><path class="cls-3" d="M33.24,8.11a.71.71,0,0,1,0-1l.81-.81a.71.71,0,1,1,1,1l-.81.81A.73.73,0,0,1,33.24,8.11Z"/><path class="cls-2" d="M39.58,6.39,37.43,4.23a.71.71,0,0,1,0-1,.73.73,0,0,1,1,0l2.15,2.16a.71.71,0,0,1-1,1Z"/><path class="cls-3" d="M36.87,4.48a.71.71,0,0,1,0-1l.8-.81a.73.73,0,0,1,1,0,.71.71,0,0,1,0,1l-.81.81A.7.7,0,0,1,36.87,4.48Z"/><path class="cls-1" d="M43.42,9l-4.35,4.65L36.3,12.44l-.71-2.24,4.65-4.36a1,1,0,0,1,1.36,0l1.8,1.8A1,1,0,0,1,43.42,9Z"/><path class="cls-4" d="M22,33.12a9.58,9.58,0,0,0-.37,4.43A9.91,9.91,0,0,1,19.25,46C15.73,49.54,10,48.12,5.56,43.7c-.34-.34-.66-.68-1-1C8.85,46.31,14,47.27,17.25,44a9.91,9.91,0,0,0,2.39-8.47A9.58,9.58,0,0,1,20,31.12Z"/><path class="cls-2" d="M7.54,40.78A.72.72,0,0,1,7,39.56l9.16-9.16a.71.71,0,0,1,1,1L8,40.57A.7.7,0,0,1,7.54,40.78Z"/><path class="cls-2" d="M9.2,42.44a.69.69,0,0,1-.5-.21.71.71,0,0,1,0-1l9.16-9.16a.7.7,0,0,1,1,0,.71.71,0,0,1,0,1L9.7,42.23A.69.69,0,0,1,9.2,42.44Z"/><path class="cls-4" d="M43.42,9l-4.35,4.65-2-2L41.42,7a1,1,0,0,0,.08-1.25l.1.09,1.8,1.8A1,1,0,0,1,43.42,9Z"/><path class="cls-2" d="M14.89,46.78a.71.71,0,0,1-.12-1.42,3.39,3.39,0,0,0,2-1,6.33,6.33,0,0,0,1.6-4.58.71.71,0,0,1,.7-.72.72.72,0,0,1,.73.7,7.76,7.76,0,0,1-2,5.61A4.88,4.88,0,0,1,15,46.77Z"/><path class="cls-2" d="M3.18,35.08H3.09a.7.7,0,0,1-.61-.8A4.85,4.85,0,0,1,3.9,31.39a7.77,7.77,0,0,1,5.61-2,.71.71,0,0,1,.71.72.73.73,0,0,1-.72.71h0A6.32,6.32,0,0,0,4.91,32.4a3.46,3.46,0,0,0-1,2.06A.71.71,0,0,1,3.18,35.08Z"/><path class="cls-5" d="M1.6,37.27A8.21,8.21,0,0,1,1.5,33c1.17.19,2.62,1.07,2.62,2.13S2.75,37,1.6,37.27Z"/><path class="cls-6" d="M16.25,47.76a8,8,0,0,1-4.25-.1c.22-1.15,1.09-2.52,2.11-2.52S16.05,46.6,16.25,47.76Z"/><path class="cls-5" d="M19.54,34.45a2.06,2.06,0,0,1-.9-.52l-3.3-3.31a2,2,0,0,1,.81-3.37,9.11,9.11,0,0,0,3.36-2l16.08-15,3.48,3.47L24,29.76a9,9,0,0,0-2,3.36,2,2,0,0,1-2.47,1.33Z"/><path class="cls-6" d="M19.54,34.45A9.27,9.27,0,0,1,22,27.76L37.07,11.67l2,2L24,29.76a9,9,0,0,0-2,3.36,2,2,0,0,1-2.47,1.33Z"/><path class="cls-7" d="M41.78,11l4.69-5a1,1,0,0,0,0-1.36l-1.8-1.8a1,1,0,0,0-1.36,0l-5,4.7a.48.48,0,0,0,0,.7L41.07,11A.5.5,0,0,0,41.78,11Z"/><path class="cls-8" d="M41.78,11a.5.5,0,0,1-.71,0L39.43,9.36a.48.48,0,0,0,.7,0l4.7-5a1,1,0,0,0,0-1.36l1.64,1.64a1,1,0,0,1,0,1.36Z"/><path class="cls-3" d="M35.24,17.76l-1,1L30.46,15l1-1Z"/><path class="cls-3" d="M36.89,16l-1,1-3.69-3.69,1-1Z"/><path class="cls-3" d="M23.47,30.39a8.53,8.53,0,0,0-.8,1.22l-5-5a9.47,9.47,0,0,0,1.22-.8Z"/><path class="cls-3" d="M25.09,28.6l-1,1-4.49-4.5,1-1Z"/><path class="cls-3" d="M31.24,22l-1,1L26.19,19l1-1Z"/><path class="cls-3" d="M32.89,20.27l-1,1-4-4,1-1Z"/><path class="cls-3" d="M27.92,25.58l-1,1-4.3-4.3,1-1Z"/><path class="cls-3" d="M29.57,23.82l-1,1L24.4,20.67l1-1Z"/><path class="cls-2" d="M42,3.93,39.89,1.78a.71.71,0,1,1,1-1l2.15,2.15a.71.71,0,1,1-1,1Z"/><path class="cls-3" d="M39.33,2a.71.71,0,0,1,0-1l.81-.81a.71.71,0,0,1,1,1L40.34,2A.71.71,0,0,1,39.33,2Z"/><path class="cls-2" d="M42.74,7.53,40.17,10.1l-1-1,2.57-2.57a.73.73,0,0,1,1,0A.71.71,0,0,1,42.74,7.53Z"/><path class="cls-5" d="M11.05,42,7.33,38.25a.49.49,0,0,1,0-.69l1.18-1.18a.48.48,0,0,1,.7,0l3.72,3.72a.49.49,0,0,1,0,.69L11.74,42A.49.49,0,0,1,11.05,42Z"/><path class="cls-6" d="M12.93,40.79,11.74,42a.49.49,0,0,1-.69,0l-1.49-1.5a.49.49,0,0,0,.69,0l1.19-1.18a.5.5,0,0,0,0-.7l1.49,1.5A.49.49,0,0,1,12.93,40.79Z"/></svg>