<svg id="Acoustic_Grand_Keyboard" data-name="Acoustic Grand Keyboard" xmlns="http://www.w3.org/2000/svg" viewBox="0 0 48 48"><defs><style>.cls-1{fill:#94e6ff;}.cls-2{fill:#315f83;}.cls-3{fill:#267ea8;}.cls-4{fill:#3b3f5f;}.cls-5{fill:#d8f2fb;}</style></defs><path class="cls-1" d="M47.71,1.13a.72.72,0,0,0,0-1,.71.71,0,0,0-1,0l-8,8.1,1,1Z"/><path class="cls-2" d="M39.29,14l.89-2.26-2-4L31,15l7.07,1A5.61,5.61,0,0,0,39.29,14Z"/><path class="cls-3" d="M37.13,11.67,38,9.41v-2H36l-2.26.9a5.77,5.77,0,0,0-1.92,1.28l-1,5.05,5-1A5.61,5.61,0,0,0,37.13,11.67Z"/><path class="cls-4" d="M38,16.85,17.93,37.11l-7.07-1L32,14.86l4,0Z"/><path class="cls-2" d="M32,9.91,11.85,30.17l1,7.06L36,13.93Z"/><path class="cls-1" d="M17.92,36.2l-2,2-6.06-2,6.05-2Z"/><path class="cls-5" d="M15.9,34.19l-4.05-4-2,2,2,6.05Z"/><path class="cls-2" d="M13.89,36.21l-4.05-4L8.17,33.87a9.22,9.22,0,0,1-5.69,2.69l-1,1,7.33,7.28Z"/><path class="cls-4" d="M11.6,45.61a9.28,9.28,0,0,1,2.65-5.71l1.66-1.68-2-2-1.66,1.68a12.11,12.11,0,0,0-3.42,7l1.78,1.76Z"/><path class="cls-2" d="M11.6,45.61l-2-2-2,2,2,2a1.43,1.43,0,0,0,2-2Z"/><path class="cls-3" d="M9.58,45.62a1.43,1.43,0,0,0,0-2l-7.09-7a1.43,1.43,0,1,0-2,2l7.09,7A1.43,1.43,0,0,0,9.58,45.62Z"/><path class="cls-4" d="M42.19,9.72l-2-2-2,2,2,2a1.43,1.43,0,0,0,2-2Z"/><path class="cls-2" d="M40.18,9.73a1.44,1.44,0,0,0,0-2l-2-2a1.43,1.43,0,0,0-2,2l2,2A1.43,1.43,0,0,0,40.18,9.73Z"/><path class="cls-5" d="M33.49,16.46l-4.05-4a.71.71,0,1,1,1-1l4.05,4a.71.71,0,1,1-1,1Z"/><path class="cls-5" d="M29.49,24.55,27,22l-1,1,2.53,2.51a.71.71,0,0,0,1-1Z"/><path class="cls-5" d="M18.38,23.58l-2-2a.72.72,0,0,1,0-1l8-8.1a.71.71,0,0,1,1,0l2,2a.71.71,0,1,1-1,1L24.91,14l-7,7.09,1.52,1.51a.71.71,0,0,1-1,1Z"/><path class="cls-5" d="M22.4,19.53l-2-2a.72.72,0,0,1,0-1,.71.71,0,0,1,1,0l2,2a.71.71,0,0,1-1,1Z"/><path class="cls-5" d="M14.36,27.63l-1-1a.72.72,0,0,1,0-1,.71.71,0,0,1,1,0l1,1a.71.71,0,0,1-1,1Z"/><path class="cls-5" d="M16.37,25.61l-1-1a.72.72,0,0,1,0-1,.71.71,0,0,1,1,0l1,1a.7.7,0,0,1,0,1A.71.71,0,0,1,16.37,25.61Z"/><path class="cls-5" d="M27.49,30.61l-4.56-4.52-1,1,4.56,4.53a.71.71,0,0,0,1-1Z"/><path class="cls-5" d="M35.75,23a.72.72,0,0,0-.22-.5L31,18l-1,1L34,23,23,34.16l-4.05-4-1,1,4.55,4.53a.72.72,0,0,0,1,0L35.54,23.52a.75.75,0,0,0,.21-.51Z"/><circle class="cls-1" cx="29.97" cy="17.99" r="1.43"/><circle class="cls-1" cx="25.95" cy="22.04" r="1.43"/><circle class="cls-1" cx="21.92" cy="26.09" r="1.43"/><circle class="cls-1" cx="17.9" cy="30.14" r="1.43"/></svg>