<svg id="Acoustic_Grand_Keyboard" data-name="Acoustic Grand Keyboard" xmlns="http://www.w3.org/2000/svg" viewBox="0 0 48 48"><defs><style>.cls-1{fill:#7f221c;}.cls-2{fill:#913122;}.cls-3{fill:#ff3a2f;}.cls-4{fill:#ffefb0;}.cls-5{fill:#4f4f4f;}.cls-6{fill:#ff5a35;}.cls-7{fill:#ff7a3c;}.cls-8{fill:#353535;}.cls-9{fill:#db2116;}</style></defs><path class="cls-1" d="M43.32,12.44,39.1,8.21l-1,1,4.22,4.23a.71.71,0,0,0,1-1Z"/><path class="cls-1" d="M45.25,10.33,41.11,6.2l-1,1,4.13,4.14a.71.71,0,1,0,1-1Z"/><path class="cls-2" d="M34.87,4a.71.71,0,1,0-1,1l4.23,4.22,1-1Z"/><path class="cls-2" d="M37,2.06a.71.71,0,1,0-1,1L40.11,7.2l1-1Z"/><path class="cls-3" d="M4.29,3.05l-1,1,2,2,3-3A2.87,2.87,0,0,0,4.29,3.05Z"/><path class="cls-4" d="M39.72,41.51l-2-2L41.23,36l2,2-.51,2.53Z"/><path class="cls-5" d="M42.24,44l-2.52-2.52L43.25,38l3,3-3,3A.71.71,0,0,1,42.24,44Z"/><path class="cls-3" d="M47.79,41.51l-39-39a3.57,3.57,0,0,0-5,0l-1,1,1,1,1-1a2.12,2.12,0,0,1,3,0l39,38.95a.71.71,0,0,0,1,0A.7.7,0,0,0,47.79,41.51Z"/><path class="cls-4" d="M2.78,2.55a.71.71,0,1,0-1,1L37.7,39.49l2.35.33Z"/><path class="cls-6" d="M24.24,35.18a5.27,5.27,0,0,1,4.25-1.6.69.69,0,0,0,.59-.21l1.72-1.72a10,10,0,0,0,0-14.13L30.3,17,5.08,44.25a12.14,12.14,0,0,0,16.64-.49l1.56-1.56a.71.71,0,0,0,.08-.91,4.81,4.81,0,0,1,.88-6.11Z"/><path class="cls-7" d="M19.7,41.74l.47-.47a7.88,7.88,0,0,1,2.06-8.11,8.17,8.17,0,0,1,5.48-2.46l1.08-1.07a7.16,7.16,0,0,0,0-10.1l-.51-.5,2-2-.5-.5a10,10,0,0,0-14.13,0l-1.73,1.72a.69.69,0,0,0-.21.59,5.27,5.27,0,0,1-1.6,4.25A4.81,4.81,0,0,1,6,24a.71.71,0,0,0-.91.08L3.55,25.59a12.15,12.15,0,0,0,0,17.16l1,1,.52.49c3.64,3.11,10.05,2.06,14.62-2.51Z"/><path class="cls-8" d="M16.17,38.21a2.14,2.14,0,0,1,0-3l3-3a.71.71,0,0,0,0-1,.71.71,0,1,1,1-1,2.15,2.15,0,0,1,0,3l-3,3a.71.71,0,0,0,0,1,.71.71,0,0,1,0,1A.73.73,0,0,1,16.17,38.21Z"/><path class="cls-8" d="M9.1,31.14a.73.73,0,0,1,0-1,.71.71,0,0,1,1,0,.71.71,0,0,0,1,0l3-3a2.15,2.15,0,0,1,3,0,.71.71,0,0,1-1,1,.71.71,0,0,0-1,0l-3,3A2.14,2.14,0,0,1,9.1,31.14Z"/><path class="cls-8" d="M9.61,34.67c-3.53,3.54-3,4-6.56,7.57a1.43,1.43,0,0,0,2,2c3.53-3.53,4-3,7.57-6.56Z"/><path class="cls-3" d="M41.9,7.63,39.68,5.41l-4.4,4-.73,3.32L37.87,12Z"/><path class="cls-9" d="M42,3.29,39.68,5.41a4.81,4.81,0,0,0,.93,1.29,4.81,4.81,0,0,0,1.29.93L44,5.31Z"/><path class="cls-8" d="M35.28,9.44,18.19,25.08l4,4L37.87,12Z"/><path class="cls-6" d="M46.67.64a2.15,2.15,0,0,0-3,0l-1,1a2.14,2.14,0,1,0,3,3l1-1A2.15,2.15,0,0,0,46.67.64Z"/></svg>