<svg id="Acoustic_Grand_Keyboard" data-name="Acoustic Grand Keyboard" xmlns="http://www.w3.org/2000/svg" xmlns:xlink="http://www.w3.org/1999/xlink" viewBox="0 0 48 48"><defs><style>.cls-1,.cls-2,.cls-3{fill:#fff;}.cls-1,.cls-2,.cls-5{stroke:#231f20;stroke-miterlimit:10;}.cls-2{clip-path:url(#clip-path);}.cls-4{clip-path:url(#clip-path-2);}.cls-5{fill:none;}.cls-6{fill:#b19046;}.cls-7{fill:#f0c419;}.cls-8{fill:#24ae5f;}.cls-9{fill:#e64c3c;}.cls-10{fill:#3b97d3;}.cls-11{fill:#ecf0f1;}.cls-12{fill:#464f5d;}</style><clipPath id="clip-path"><path class="cls-1" d="M26.51,48.17"/></clipPath><clipPath id="clip-path-2"><path class="cls-2" d="M31.68.61"/></clipPath></defs><path class="cls-3" d="M26.51,48.17"/><path class="cls-3" d="M31.68.61"/><g class="cls-4"><path class="cls-1" d="M3.37,34.81l3-3.87M26.51,48.17m4-48.24"/></g><path class="cls-5" d="M26.51,48.17"/><path class="cls-5" d="M31.68.61"/><g id="Page-1"><g id="_035---Glockenspiel" data-name="035---Glockenspiel"><rect id="Rectangle-path" class="cls-6" y="19.83" width="47.6" height="4.96" rx="1.66"/><rect id="Rectangle-path-2" data-name="Rectangle-path" class="cls-6" y="2.97" width="47.6" height="4.96" rx="1.66"/><path id="Shape" class="cls-7" d="M10.91,1.66v19.8a2.32,2.32,0,0,0-2.78.2,2.57,2.57,0,0,0-.69,2.82,2.38,2.38,0,0,0,2.34,1.57l1.13,1.18V44a1.63,1.63,0,0,1-1.59,1.66H4.56A1.64,1.64,0,0,1,3,44V1.66A1.64,1.64,0,0,1,4.56,0H9.32A1.63,1.63,0,0,1,10.91,1.66Z"/><path id="Shape-2" data-name="Shape" class="cls-8" d="M21.81,1.66V21.33a2.52,2.52,0,0,0-.55,3.94,2.05,2.05,0,0,0,.55.43v8.37l-7.93-8.28V1.66A1.62,1.62,0,0,1,15.47,0h4.76a1.62,1.62,0,0,1,1.58,1.66Z"/><path id="Shape-3" data-name="Shape" class="cls-8" d="M22.05,38.59a1.66,1.66,0,0,1-1.55,1.07h-5A1.65,1.65,0,0,1,13.88,38V30.42Z"/><path id="Shape-4" data-name="Shape" class="cls-9" d="M31.71,33.71H27.44a1.65,1.65,0,0,1-1.66-1.65V27.78Z"/><path id="Shape-5" data-name="Shape" class="cls-9" d="M33.71,1.66V31.59l-7.6-7.94a2.57,2.57,0,0,0-.33-1.38V1.66A1.62,1.62,0,0,1,27.37,0h4.76a1.62,1.62,0,0,1,1.58,1.66Z"/><rect id="Rectangle-path-3" data-name="Rectangle-path" class="cls-10" x="37.68" width="7.93" height="27.76" rx="1.66"/><circle id="Oval" class="cls-11" cx="6.62" cy="5.79" r="1.66"/><circle id="Oval-2" data-name="Oval" class="cls-11" cx="18.21" cy="5.79" r="1.66"/><circle id="Oval-3" data-name="Oval" class="cls-11" cx="29.79" cy="5.79" r="1.66"/><circle id="Oval-4" data-name="Oval" class="cls-11" cx="41.38" cy="5.79" r="1.66"/><path id="Shape-6" data-name="Shape" class="cls-12" d="M47.51,47.51a1.66,1.66,0,0,1-1.17.49,1.62,1.62,0,0,1-1.16-.49L31.59,33.93,25.65,28l-2-2a2.4,2.4,0,0,1-1.31-.29,2.19,2.19,0,0,1-.58-.43,2.5,2.5,0,0,1,0-3.51,2.73,2.73,0,0,1,.58-.43,2.5,2.5,0,0,1,2.93.43,2.12,2.12,0,0,1,.38.51A2.41,2.41,0,0,1,26,23.65l7.94,7.94L47.51,45.18A1.62,1.62,0,0,1,48,46.34a1.66,1.66,0,0,1-.49,1.17Z"/><path id="Shape-7" data-name="Shape" class="cls-12" d="M33.44,47.51a1.66,1.66,0,0,1-1.17.49,1.64,1.64,0,0,1-1.16-.49l-8.87-8.86-8.17-8.17L9.58,26a2.48,2.48,0,1,1,1.18-4.57,2.42,2.42,0,0,1,.45.34,2.55,2.55,0,0,1,.72,1.89L22.34,34.07l11.1,11.11a1.62,1.62,0,0,1,.49,1.16,1.66,1.66,0,0,1-.49,1.17Z"/></g></g></svg>