<svg id="Acoustic_Grand_Keyboard" data-name="Acoustic Grand Keyboard" xmlns="http://www.w3.org/2000/svg" viewBox="0 0 48 48"><defs><style>.cls-1{fill:#ffe177;}.cls-2{fill:#b57f5f;}.cls-3{fill:#966a5b;}.cls-4{fill:#ffc344;}.cls-5{fill:#ffd15b;}</style></defs><path class="cls-1" d="M30.48,12.71a.7.7,0,0,1-.5-.21.69.69,0,0,1,0-1l2.69-2.69a1.64,1.64,0,0,0,.47-1.15,1.61,1.61,0,0,0-.47-1.14,1.64,1.64,0,0,0-1.52-.44A3.31,3.31,0,0,1,28,5.18l-.87-.86a.7.7,0,1,1,1-1l.87.87a2,2,0,0,0,1.81.53,3.08,3.08,0,0,1,.68-.07,3,3,0,0,1,3,3,3.05,3.05,0,0,1-.89,2.15L31,12.5a.67.67,0,0,1-.49.21Z"/><path class="cls-2" d="M45.93,7.59,36,17.52,16.4,37.12,9.66,43.86l-.07-.07L4.07,38.27,2.3,36.5,28.23,10.58a.57.57,0,0,1,.82,0l2.85,2.85a.59.59,0,0,0,.83,0l9.52-9.52Z"/><path class="cls-3" d="M30.81,12.34a.59.59,0,0,0-.82,0L4.07,38.27,2.3,36.5,28.23,10.58a.57.57,0,0,1,.82,0Z"/><path class="cls-3" d="M44,5.68,34.49,15.2a.57.57,0,0,1-.82,0L31.9,13.43a.59.59,0,0,0,.83,0l9.52-9.52Z"/><path class="cls-1" d="M11.06,44.36,9.42,46a.56.56,0,0,1-.79,0L2.16,39.53l-2-2a.57.57,0,0,1,0-.79L1.8,35.1a.57.57,0,0,1,.8,0l8.46,8.46A.57.57,0,0,1,11.06,44.36Z"/><path class="cls-1" d="M47.78,7.26,47,8.09a.75.75,0,0,1-1.06,0L43.75,5.94h0l-2-2a.75.75,0,0,1,0-1.06l.83-.82a.75.75,0,0,1,1.06,0l2,2L47.78,6.2A.75.75,0,0,1,47.78,7.26Z"/><circle class="cls-4" cx="27.65" cy="16.45" r="1.21"/><circle class="cls-4" cx="24.22" cy="19.88" r="1.21"/><path class="cls-4" d="M17.78,32.76a.67.67,0,0,1-.49-.21.69.69,0,0,1,0-1L36.93,11.92a.7.7,0,0,1,1,1L18.28,32.55a.7.7,0,0,1-.5.21Z"/><circle class="cls-4" cx="20.79" cy="23.31" r="1.21"/><circle class="cls-4" cx="17.36" cy="26.74" r="1.21"/><circle class="cls-4" cx="9.56" cy="34.55" r="1.21"/><path class="cls-1" d="M10.44,24.71l9.18,9.18-2.69,2.7L7.75,27.4Z"/><path class="cls-5" d="M4.59,37.1a.57.57,0,0,0-.82,0L2.16,38.71a.57.57,0,0,0,0,.82l-2-2a.57.57,0,0,1,0-.79L1.8,35.1a.57.57,0,0,1,.8,0Z"/><path class="cls-5" d="M45.64,4.06a.78.78,0,0,0-1.1,0l-.79.79a.77.77,0,0,0,0,1.08l-2-2a.75.75,0,0,1,0-1.06l.83-.82a.75.75,0,0,1,1.06,0Z"/><path class="cls-5" d="M9.72,29.39l2.7-2.7,7.14,7.14-9.19-9.19-2.69,2.7,9.18,9.19Z"/><path class="cls-1" d="M27.65,14.53a2,2,0,0,0-.76.16L24.17,12l.7-.7a.7.7,0,1,0-1-1L3.26,30.9a.71.71,0,0,0,0,1,.72.72,0,0,0,1,0l.82-.83L7.8,33.78a2,2,0,0,0-.16.77A1.93,1.93,0,1,0,8.8,32.79L6.07,30.07l6.82-6.81L15.61,26a1.91,1.91,0,1,0,1.75-1.16,2,2,0,0,0-.76.16l-2.72-2.72,2.44-2.43L19,22.55a1.91,1.91,0,1,0,1.75-1.16,2,2,0,0,0-.76.16l-2.72-2.72,2.44-2.43,2.72,2.72A1.91,1.91,0,1,0,24.22,18a2,2,0,0,0-.76.16L20.74,15.4,23.18,13l2.72,2.72a1.91,1.91,0,1,0,1.75-1.16Zm-17.58,20A.51.51,0,1,1,9.56,34,.51.51,0,0,1,10.07,34.55Zm7.8-7.81a.51.51,0,0,1-.51.51.51.51,0,0,1,0-1A.51.51,0,0,1,17.87,26.74Zm3.43-3.43a.51.51,0,0,1-.51.51.51.51,0,0,1,0-1A.51.51,0,0,1,21.3,23.31Zm3.43-3.43a.51.51,0,0,1-.51.51.51.51,0,0,1,0-1A.51.51,0,0,1,24.73,19.88ZM27.65,17a.51.51,0,0,1,0-1,.51.51,0,0,1,0,1Z"/><path class="cls-4" d="M39.27,11.27a.67.67,0,0,1-.49-.21.69.69,0,0,1,0-1l1.78-1.78a.69.69,0,0,1,1,0,.71.71,0,0,1,0,1l-1.78,1.78A.7.7,0,0,1,39.27,11.27Z"/><path class="cls-1" d="M35.58,10.58l1.85-1.85,3.68,3.68-1.85,1.85Z"/><path class="cls-5" d="M35.58,10.58l1.85-1.85,1.83,1.83-1.84,1.85Z"/></svg>