<svg id="Acoustic_Grand_Keyboard" data-name="Acoustic Grand Keyboard" xmlns="http://www.w3.org/2000/svg" viewBox="0 0 48 48"><defs><style>.cls-1{fill:#a5c3dc;}.cls-2{fill:#d7e6f0;}.cls-3{fill:#555a6e;}.cls-4{fill:#463c4b;}</style></defs><path class="cls-1" d="M7.84,47.88.26,40.3A.89.89,0,0,1,1.52,39L9.1,46.61a.9.9,0,0,1,0,1.27.89.89,0,0,1-1.26,0Z"/><path class="cls-2" d="M4.05,44.09.26,40.3A.89.89,0,0,1,1.52,39l3.79,3.78a.9.9,0,0,1,0,1.27A.89.89,0,0,1,4.05,44.09Z"/><path class="cls-3" d="M10.89,42.3,42.27,10.92a13.15,13.15,0,0,0,1.67-2L47.85,3a.89.89,0,0,0-.11-1.13L46.25.4A.89.89,0,0,0,45.12.29L39.26,4.2a13.72,13.72,0,0,0-2,1.67L5.84,37.25A6.14,6.14,0,0,1,1.52,39L9.1,46.61a6.14,6.14,0,0,1,1.79-4.31Z"/><path class="cls-4" d="M42.57,8.09a1.77,1.77,0,0,0-2.52,0L5.31,42.82,9.1,46.61a6.14,6.14,0,0,1,1.79-4.31L42.57,10.62a1.79,1.79,0,0,0,0-2.53Z"/><path class="cls-1" d="M6.79,36.29l5.05,5.05-.84.85-5-5Z"/><path class="cls-1" d="M33.94,9.14l5.05,5-.84.84-5-5Z"/><path class="cls-1" d="M36.47,6.61l5.05,5.05-.85.85L35.62,7.45Z"/><path class="cls-2" d="M6.79,36.29l2.53,2.53-.85.84L6,37.14Z"/><path class="cls-2" d="M33.94,9.14l2.53,2.52-.85.85L33.1,10Z"/><path class="cls-2" d="M36.47,6.61,39,9.14l-.84.84L35.62,7.45Z"/><path class="cls-1" d="M39.67,3.92l4.54,4.55,2-3L42.7,1.9Z"/><path class="cls-2" d="M44.47,3.67,42.7,1.9l-3,2L41.94,6.2Z"/><circle class="cls-4" cx="43.2" cy="4.93" r="0.89"/><path class="cls-4" d="M31.84,17.64A1.33,1.33,0,0,1,30.5,16.3a1.36,1.36,0,0,1,.39-1,1.34,1.34,0,0,1,1.89,0,1.32,1.32,0,0,1,.4,1,1.31,1.31,0,0,1-.4.95A1.33,1.33,0,0,1,31.84,17.64Z"/><path class="cls-1" d="M31.84,15.41a.88.88,0,0,1,.63.26.89.89,0,0,1,0,1.26.88.88,0,0,1-.63.26.86.86,0,0,1-.63-.26.89.89,0,0,1,0-1.26.86.86,0,0,1,.63-.26m0-.89A1.78,1.78,0,1,0,33.1,15,1.79,1.79,0,0,0,31.84,14.52Z"/><path class="cls-4" d="M28.05,21.43a1.34,1.34,0,1,1,0-2.68,1.34,1.34,0,1,1,0,2.68Z"/><path class="cls-1" d="M28.05,19.2a.89.89,0,1,1,0,1.78.86.86,0,0,1-.63-.26.87.87,0,0,1,0-1.26.88.88,0,0,1,.63-.26m0-.9a1.79,1.79,0,1,0,1.26,3.05,1.79,1.79,0,0,0-1.26-3.05Z"/><path class="cls-4" d="M24.26,25.22a1.34,1.34,0,0,1-1-.39,1.35,1.35,0,0,1,0-1.9,1.34,1.34,0,0,1,1-.39,1.34,1.34,0,1,1,0,2.68Z"/><path class="cls-1" d="M24.26,23a.88.88,0,0,1,.63.26.89.89,0,0,1,0,1.26.89.89,0,0,1-1.26,0,.89.89,0,0,1,0-1.26.88.88,0,0,1,.63-.26m0-.9a1.76,1.76,0,0,0-1.26.53,1.77,1.77,0,0,0,0,2.52,1.76,1.76,0,0,0,2.52,0,1.79,1.79,0,0,0-1.26-3.05Z"/><path class="cls-4" d="M20.47,29a1.33,1.33,0,0,1-1.34-1.34,1.34,1.34,0,0,1,.39-1A1.34,1.34,0,1,1,20.47,29Z"/><path class="cls-1" d="M20.47,26.78a.89.89,0,1,1-.63,1.52.89.89,0,0,1,0-1.26.88.88,0,0,1,.63-.26m0-.9a1.79,1.79,0,1,0,1.26.53A1.77,1.77,0,0,0,20.47,25.88Z"/><path class="cls-4" d="M16.68,32.8a1.35,1.35,0,0,1-1.34-1.34,1.34,1.34,0,0,1,.39-.95,1.34,1.34,0,1,1,.95,2.29Z"/><path class="cls-1" d="M16.68,30.56a.9.9,0,0,1,.63,1.53.89.89,0,0,1-1.26,0,.9.9,0,0,1,.63-1.53m0-.89a1.8,1.8,0,0,0-1.26.52,1.79,1.79,0,0,0,0,2.53,1.79,1.79,0,0,0,2.52,0,1.79,1.79,0,0,0-1.26-3Z"/><path class="cls-4" d="M12.89,36.59a1.35,1.35,0,0,1-1.34-1.34,1.34,1.34,0,0,1,.39-1,1.36,1.36,0,0,1,1-.39,1.34,1.34,0,0,1,.95,2.28,1.31,1.31,0,0,1-.95.4Z"/><path class="cls-1" d="M12.89,34.35a.89.89,0,0,1,.63.27.86.86,0,0,1,.26.63.89.89,0,1,1-1.78,0,.86.86,0,0,1,.26-.63.89.89,0,0,1,.63-.27m0-.89a1.76,1.76,0,0,0-1.26.52,1.79,1.79,0,0,0,0,2.53,1.79,1.79,0,0,0,2.52,0,1.79,1.79,0,0,0,0-2.53A1.75,1.75,0,0,0,12.89,33.46Z"/><path class="cls-2" d="M30.57,15.49a.44.44,0,0,1-.31-.14L29,14.09a.44.44,0,0,1,0-.63.45.45,0,0,1,.63,0l1.26,1.26a.45.45,0,0,1,0,.63A.45.45,0,0,1,30.57,15.49Z"/><path class="cls-2" d="M26.78,19.27a.43.43,0,0,1-.31-.13l-1.26-1.26a.45.45,0,1,1,.63-.63l1.26,1.26a.45.45,0,0,1,0,.63A.44.44,0,0,1,26.78,19.27Z"/><path class="cls-2" d="M23,23.06a.44.44,0,0,1-.32-.13l-1.26-1.26a.45.45,0,1,1,.63-.63l1.26,1.26a.45.45,0,0,1-.31.76Z"/><path class="cls-2" d="M19.21,26.85a.44.44,0,0,1-.32-.13l-1.26-1.26a.45.45,0,0,1,.63-.63l1.26,1.26a.44.44,0,0,1,0,.63A.42.42,0,0,1,19.21,26.85Z"/><path class="cls-2" d="M15.42,30.64a.44.44,0,0,1-.32-.13l-1.26-1.26a.45.45,0,0,1,.63-.63l1.26,1.26a.43.43,0,0,1,0,.63A.42.42,0,0,1,15.42,30.64Z"/><path class="cls-2" d="M11.63,34.43a.44.44,0,0,1-.32-.13L10.05,33a.45.45,0,0,1,0-.63.44.44,0,0,1,.63,0l1.26,1.26a.43.43,0,0,1,0,.63A.42.42,0,0,1,11.63,34.43Z"/><path class="cls-1" d="M14.15,39a.61.61,0,0,1,0-.85l9.27-9.26a.59.59,0,0,1,.84.84L15,39A.61.61,0,0,1,14.15,39Z"/><path class="cls-1" d="M25.52,27.67a.6.6,0,0,1,0-.84l9.26-9.27a.6.6,0,0,1,.85.85l-9.27,9.26A.6.6,0,0,1,25.52,27.67Z"/></svg>