<svg id="Acoustic_Grand_Keyboard" data-name="Acoustic Grand Keyboard" xmlns="http://www.w3.org/2000/svg" viewBox="0 0 48 48"><defs><style>.cls-1{fill:#6f6571;}.cls-2{fill:#4b3f4e;}.cls-3{fill:#5d5360;}.cls-4{fill:#857e87;}.cls-5{fill:#eceaec;}.cls-6{fill:#dad8db;}.cls-7{fill:#b3e59f;}.cls-8{fill:#ccf49f;}.cls-9{fill:#00ccb2;}.cls-10{fill:#00ab94;}.cls-11{fill:#fea832;}.cls-12{fill:#ff8700;}.cls-13{fill:#00eed0;}.cls-14{fill:#ffd400;}.cls-15{fill:#fdbf00;}</style></defs><path class="cls-1" d="M46.45,19.39H1.55L.66,20.94V40.51A1.54,1.54,0,0,0,2.2,42.06H46.45l1.55-1V20.94A1.54,1.54,0,0,0,46.45,19.39Z"/><path class="cls-2" d="M10.84,23.26A3.87,3.87,0,1,1,7,19.39,3.87,3.87,0,0,1,10.84,23.26Z"/><path class="cls-2" d="M44.9,23.26A3.87,3.87,0,1,1,41,19.39,3.87,3.87,0,0,1,44.9,23.26Z"/><path class="cls-3" d="M1.55,39.52V19.39A1.54,1.54,0,0,0,0,20.94V41.06a1.54,1.54,0,0,0,1.55,1.55H3.87l19-.83,21.25.83h2.32A1.54,1.54,0,0,0,48,41.06H3.1A1.54,1.54,0,0,1,1.55,39.52Z"/><path class="cls-4" d="M24.77,31H23.23a.78.78,0,1,1,0-1.55h1.54a.78.78,0,1,1,0,1.55Z"/><path class="cls-4" d="M29.42,31H27.87a.78.78,0,0,1,0-1.55h1.55a.78.78,0,0,1,0,1.55Z"/><path class="cls-4" d="M20.13,31H18.58a.78.78,0,0,1,0-1.55h1.55a.78.78,0,0,1,0,1.55Z"/><path class="cls-4" d="M13.94,31H12.39a.78.78,0,1,1,0-1.55h1.55a.78.78,0,0,1,0,1.55Z"/><path class="cls-4" d="M35.61,31H34.06a.78.78,0,0,1,0-1.55h1.55a.78.78,0,1,1,0,1.55Z"/><path class="cls-5" d="M43.35,33.91H4.65l-.78,1v6.19l20.18.77,20.08-.77V34.87Z"/><path class="cls-6" d="M43.35,33.32H4.65a.78.78,0,0,0-.78.78v.77H44.13V34.1A.78.78,0,0,0,43.35,33.32Z"/><path class="cls-7" d="M20.13,23.26v2.32a.77.77,0,0,0,.77.77h6.2a.77.77,0,0,0,.77-.77v-.77l-6.19-2.33H20.9A.78.78,0,0,0,20.13,23.26Z"/><path class="cls-3" d="M17,24.81a.77.77,0,0,1-.77-.78V22.48a.77.77,0,0,1,.77-.77.78.78,0,0,1,.78.77V24A.78.78,0,0,1,17,24.81Z"/><path class="cls-3" d="M13.94,24.81a.78.78,0,0,1-.78-.78V22.48a.78.78,0,0,1,1.55,0V24A.78.78,0,0,1,13.94,24.81Z"/><path class="cls-3" d="M31,24.81a.78.78,0,0,1-.78-.78V22.48a.78.78,0,0,1,.78-.77.77.77,0,0,1,.77.77V24A.77.77,0,0,1,31,24.81Z"/><path class="cls-3" d="M34.06,24.81a.78.78,0,0,1-.77-.78V22.48a.78.78,0,0,1,1.55,0V24A.78.78,0,0,1,34.06,24.81Z"/><path class="cls-3" d="M1.55,26.35H48V27.9H1.55Z"/><path class="cls-2" d="M0,26.35H1.55V27.9H0Z"/><path class="cls-6" d="M3.87,41.06H44.13v1.55H3.87Z"/><path class="cls-3" d="M7,39.52a.78.78,0,0,1-.78-.78V33.32H7.74v5.42A.77.77,0,0,1,7,39.52Z"/><path class="cls-2" d="M6.19,33.32H7.74v1.55H6.19Z"/><path class="cls-3" d="M10.84,39.52a.78.78,0,0,1-.78-.78V33.32h1.55v5.42A.77.77,0,0,1,10.84,39.52Z"/><path class="cls-2" d="M10.06,33.32h1.55v1.55H10.06Z"/><path class="cls-3" d="M13.94,39.52a.78.78,0,0,1-.78-.78V33.32h1.55v5.42A.78.78,0,0,1,13.94,39.52Z"/><path class="cls-2" d="M13.16,33.32h1.55v1.55H13.16Z"/><path class="cls-3" d="M17,39.52a.77.77,0,0,1-.77-.78V33.32h1.55v5.42A.78.78,0,0,1,17,39.52Z"/><path class="cls-2" d="M16.26,33.32h1.55v1.55H16.26Z"/><path class="cls-3" d="M20.9,39.52a.78.78,0,0,1-.77-.78V33.32h1.55v5.42A.78.78,0,0,1,20.9,39.52Z"/><path class="cls-2" d="M20.13,33.32h1.55v1.55H20.13Z"/><path class="cls-3" d="M24,39.52a.77.77,0,0,1-.77-.78V33.32h1.54v5.42A.77.77,0,0,1,24,39.52Z"/><path class="cls-2" d="M23.23,33.32h1.54v1.55H23.23Z"/><path class="cls-3" d="M27.87,39.52a.77.77,0,0,1-.77-.78V33.32h1.55v5.42A.78.78,0,0,1,27.87,39.52Z"/><path class="cls-2" d="M27.1,33.32h1.55v1.55H27.1Z"/><path class="cls-3" d="M31,39.52a.78.78,0,0,1-.78-.78V33.32h1.55v5.42A.77.77,0,0,1,31,39.52Z"/><path class="cls-2" d="M30.19,33.32h1.55v1.55H30.19Z"/><path class="cls-3" d="M34.06,39.52a.78.78,0,0,1-.77-.78V33.32h1.55v5.42A.78.78,0,0,1,34.06,39.52Z"/><path class="cls-2" d="M33.29,33.32h1.55v1.55H33.29Z"/><path class="cls-3" d="M37.94,39.52a.78.78,0,0,1-.78-.78V33.32h1.55v5.42A.78.78,0,0,1,37.94,39.52Z"/><path class="cls-2" d="M37.16,33.32h1.55v1.55H37.16Z"/><path class="cls-3" d="M41,39.52a.77.77,0,0,1-.77-.78V33.32h1.55v5.42A.78.78,0,0,1,41,39.52Z"/><path class="cls-2" d="M40.26,33.32h1.55v1.55H40.26Z"/><path class="cls-8" d="M27.87,24.81H23.23a1.55,1.55,0,0,1-1.55-1.55v-.78H27.1a.78.78,0,0,1,.77.78Z"/><path class="cls-9" d="M11.68,12.75a.35.35,0,0,0,.7,0V8.86l-.32-.6-.38.8Z"/><path class="cls-10" d="M16.52,11.37a.35.35,0,0,0,.39.34.35.35,0,0,0,.3-.35V7.48l-.33-.6-.36.8Z"/><path class="cls-11" d="M11,6.53A1.73,1.73,0,0,1,9.27,8.26a.35.35,0,0,1-.35-.32.34.34,0,0,1,.35-.37,1,1,0,0,0,.61-1.88A8.46,8.46,0,0,1,8.21,4.16V9.63a.35.35,0,0,1-.32.35.33.33,0,0,1-.37-.34V3a.34.34,0,0,1,.24-.33l.1,0a.36.36,0,0,1,.29.16l.4.6a7.15,7.15,0,0,0,1.74,1.69A1.75,1.75,0,0,1,11,6.53Z"/><path class="cls-12" d="M11,6.53A1.73,1.73,0,0,1,9.27,8.26a.35.35,0,0,1-.35-.32.34.34,0,0,1,.35-.37,1,1,0,0,0,.61-1.88A8.46,8.46,0,0,1,8.21,4.16V9.64a.35.35,0,0,1-.35.34V2.68a.36.36,0,0,1,.29.16l.4.6a7.15,7.15,0,0,0,1.74,1.69A1.75,1.75,0,0,1,11,6.53Z"/><path class="cls-13" d="M11,14.48a1.39,1.39,0,1,1,1.39-1.39A1.38,1.38,0,0,1,11,14.48Z"/><path class="cls-14" d="M7.86,8.73a1.36,1.36,0,0,0-1-.47,1.38,1.38,0,1,0,0,2.76,1.36,1.36,0,0,0,1-.48,1.33,1.33,0,0,0,.35-.9A1.36,1.36,0,0,0,7.86,8.73Z"/><path class="cls-9" d="M15.83,13.09a1.38,1.38,0,1,1,1.38-1.38A1.38,1.38,0,0,1,15.83,13.09Z"/><path class="cls-15" d="M8.21,9.64a1.33,1.33,0,0,1-.35.9V8.73A1.36,1.36,0,0,1,8.21,9.64Z"/><path class="cls-13" d="M17.07,5.56a.35.35,0,0,0-.3,0l-2.32.66-2.52.72a.35.35,0,0,0-.25.33V9.06l.7-.2,2.07-.59,2.07-.59.69-.2V5.84A.35.35,0,0,0,17.07,5.56Z"/><path class="cls-9" d="M17.21,5.84V7.48l-.69.2-2.07.59V6.17l2.32-.66a.34.34,0,0,1,.44.33Z"/><path class="cls-9" d="M33.68,12.75a.35.35,0,0,0,.7,0V8.86l-.32-.6-.38.8Z"/><path class="cls-10" d="M38.52,11.37a.35.35,0,0,0,.39.34.35.35,0,0,0,.3-.35V7.48l-.33-.6-.36.8Z"/><path class="cls-11" d="M33,6.53a1.73,1.73,0,0,1-1.72,1.73.35.35,0,0,1-.35-.32.34.34,0,0,1,.35-.37,1,1,0,0,0,.61-1.88,8.46,8.46,0,0,1-1.67-1.53V9.63a.35.35,0,0,1-.32.35.33.33,0,0,1-.37-.34V3a.34.34,0,0,1,.24-.33l.1,0a.36.36,0,0,1,.29.16l.4.6a7.15,7.15,0,0,0,1.74,1.69A1.75,1.75,0,0,1,33,6.53Z"/><path class="cls-12" d="M33,6.53a1.73,1.73,0,0,1-1.72,1.73.35.35,0,0,1-.35-.32.34.34,0,0,1,.35-.37,1,1,0,0,0,.61-1.88,8.46,8.46,0,0,1-1.67-1.53V9.64a.35.35,0,0,1-.35.34V2.68a.36.36,0,0,1,.29.16l.4.6a7.15,7.15,0,0,0,1.74,1.69A1.75,1.75,0,0,1,33,6.53Z"/><path class="cls-13" d="M33,14.48a1.39,1.39,0,1,1,1.39-1.39A1.38,1.38,0,0,1,33,14.48Z"/><path class="cls-14" d="M29.86,8.73a1.36,1.36,0,0,0-1-.47,1.38,1.38,0,1,0,0,2.76,1.36,1.36,0,0,0,1-.48,1.33,1.33,0,0,0,.35-.9A1.36,1.36,0,0,0,29.86,8.73Z"/><path class="cls-9" d="M37.83,13.09a1.38,1.38,0,1,1,1.38-1.38A1.38,1.38,0,0,1,37.83,13.09Z"/><path class="cls-15" d="M30.21,9.64a1.33,1.33,0,0,1-.35.9V8.73A1.36,1.36,0,0,1,30.21,9.64Z"/><path class="cls-13" d="M39.07,5.56a.35.35,0,0,0-.3,0l-2.32.66-2.52.72a.35.35,0,0,0-.25.33V9.06l.7-.2,2.07-.59,2.07-.59.69-.2V5.84A.35.35,0,0,0,39.07,5.56Z"/><path class="cls-9" d="M39.21,5.84V7.48l-.69.2-2.07.59V6.17l2.32-.66a.34.34,0,0,1,.44.33Z"/></svg>