<svg id="Acoustic_Grand_Keyboard" data-name="Acoustic Grand Keyboard" xmlns="http://www.w3.org/2000/svg" viewBox="0 0 48 48"><defs><style>.cls-1{fill:#e89c5d;}.cls-2{fill:#f4b37d;}.cls-3{fill:#e8626c;}.cls-4{fill:#40c6c2;}.cls-5{fill:#ffc999;}.cls-6{fill:#4a4a68;}.cls-7{fill:#333356;}.cls-8{fill:#ededed;}.cls-9{fill:#c9c9c9;}</style></defs><path class="cls-1" d="M7.23,16.75l3.2.58L12.06,5.57A2.21,2.21,0,0,0,10.27,3.1l-.22,0a.34.34,0,0,0-.4.27Z"/><path class="cls-2" d="M7.86,15.39l3.31,1.93L17.82,4.77a2.38,2.38,0,0,0-.9-3.16l-.42-.24a.4.4,0,0,0-.55.14Z"/><path class="cls-3" d="M40.85,22.4a1.12,1.12,0,0,0-.84-.46l-6.41-.49a1.14,1.14,0,0,0-1.2.88l-.92,4a2.37,2.37,0,0,0-.91-.42A2.42,2.42,0,0,0,28,29.51a2.43,2.43,0,0,0,1.51,1.07,2.51,2.51,0,0,0,.55.06,2.41,2.41,0,0,0,2.35-1.87l1.36-5.88,5.83.44-.81,3.52a2.51,2.51,0,0,0-.92-.43,2.43,2.43,0,0,0-1.82.31A2.35,2.35,0,0,0,35,28.23a2.4,2.4,0,0,0,.3,1.83,2.45,2.45,0,0,0,1.5,1.07,2.64,2.64,0,0,0,.55.06,2.39,2.39,0,0,0,2.35-1.87l1.39-6A1.18,1.18,0,0,0,40.85,22.4Z"/><path class="cls-4" d="M33,1.38,31.36.27A1.68,1.68,0,0,0,29.63.16a1,1,0,0,0-.55,1.49V4.77a5.83,5.83,0,0,0-1.62-.32,2.7,2.7,0,1,0,0,5.4,2.59,2.59,0,0,0,2.62-2.7V1.65a.63.63,0,0,1,.21-.22.21.21,0,0,1,.25,0l1.61,1.11A.72.72,0,0,0,33,1.38Z"/><path class="cls-5" d="M23.3,20.14C22,23,21.32,24.2,20.46,25.9A2.17,2.17,0,0,1,19.1,27c-2.65.71-4.26,1.1-6.67,1.72a.39.39,0,0,0-.28.41,23,23,0,0,0,4.06,10.43L8.88,43.32A30.38,30.38,0,0,1,3.79,24.87,39.64,39.64,0,0,1,6.52,14.22a1.6,1.6,0,0,1,.92-.92l9.91-3.86a1.83,1.83,0,0,1,2.27.83l2.92,5.34a.72.72,0,0,1-.37,1l-.54.2a2.36,2.36,0,0,1-2.82-1L17.64,14a.4.4,0,0,0-.59-.1c-.78.64-2.69,2.2-3.52,3s-1.25,4.08,0,5.36c1,1,3.14,1.39,4,.54S19.27,18.55,23.3,20.14Z"/><path class="cls-1" d="M21.17,19.74c-1.14,2.31-1.84,3.46-2.67,5a2.19,2.19,0,0,1-1.39,1.06c-2.66.63-4.28,1-6.71,1.54a.39.39,0,0,0-.3.4,23.07,23.07,0,0,0,3.78,10.53l-6.22,3c.38.69.78,1.38,1.22,2.08l7.33-3.76a23,23,0,0,1-4.06-10.43.39.39,0,0,1,.28-.41c2.41-.62,4-1,6.67-1.72a2.17,2.17,0,0,0,1.36-1.1C21.32,24.2,22,23,23.3,20.14A4.93,4.93,0,0,0,21.17,19.74Z"/><path class="cls-6" d="M15.9,20.81,16,21a1.09,1.09,0,0,0,1.5.45L44.34,7.08a1.11,1.11,0,0,0-1-2L16.36,19.31A1.11,1.11,0,0,0,15.9,20.81Z"/><path class="cls-6" d="M18.92,42.45,10.52,48l-.45-.68a52.75,52.75,0,0,1-5.32-9.8l9.14-4.3a39.7,39.7,0,0,0,4.57,8.52Z"/><path class="cls-7" d="M12,35.09a39.7,39.7,0,0,0,4.57,8.52l.17.26,2.14-1.42-.46-.68a39.7,39.7,0,0,1-4.57-8.52l-9.14,4.3c.11.27.22.54.34.81Z"/><path class="cls-8" d="M7.24,43.32a56.8,56.8,0,0,0,9.62-5.78.56.56,0,0,0,.15-.73,32.54,32.54,0,0,1-2.66-5.88.57.57,0,0,0-.86-.3,35.64,35.64,0,0,1-10,4.7.58.58,0,0,0-.38.75,45.17,45.17,0,0,0,3.38,7A.59.59,0,0,0,7.24,43.32Z"/><path class="cls-9" d="M17,36.81a32.54,32.54,0,0,1-2.66-5.88.57.57,0,0,0-.86-.3c-.5.33-1,.65-1.52,1a42.39,42.39,0,0,0,3.08,6.62.71.71,0,0,1,0,.6c.6-.41,1.18-.83,1.76-1.27A.56.56,0,0,0,17,36.81Z"/><path class="cls-6" d="M13.26,35.88a.71.71,0,0,1-.32-1.35l.38-.19A.72.72,0,1,1,14,35.62l-.38.19A.71.71,0,0,1,13.26,35.88Z"/></svg>