<svg id="Acoustic_Grand_Keyboard" data-name="Acoustic Grand Keyboard" xmlns="http://www.w3.org/2000/svg" viewBox="0 0 48 48"><defs><style>.cls-1{fill:#e9edf5;}.cls-2{fill:#cdd2e1;}.cls-3{fill:#fa0;}.cls-4{fill:#ff9500;}.cls-5{fill:#555a65;}.cls-6{fill:#333940;}</style></defs><path class="cls-1" d="M.79,47.21,0,46.43l5.2-5.21L6,42,3.78,45Z"/><path class="cls-2" d="M1.56,48l-.78-.78L6,42l.78.78Z"/><path class="cls-3" d="M38.7,0,32.77,11.18,3.14,40.8l2,2,20.77-18.7L44.63,3.37A12.9,12.9,0,0,0,38.7,0Z"/><path class="cls-4" d="M36.82,15.23,48,9.3a12.9,12.9,0,0,0-3.37-5.93L5.17,42.83l2,2Z"/><path class="cls-5" d="M30.28,17.72a1.1,1.1,0,0,0-1.56,1.56l1.06-.5Z"/><path class="cls-6" d="M30.28,17.72a1.1,1.1,0,0,1-1.56,1.56Z"/><path class="cls-5" d="M27.16,20.84a1.11,1.11,0,0,0-1.57,1.57l1.07-.5Z"/><path class="cls-6" d="M27.16,20.84a1.11,1.11,0,0,1-1.57,1.57Z"/><path class="cls-5" d="M24,24a1.1,1.1,0,0,0-1.56,1.56l1.06-.5Z"/><path class="cls-6" d="M24,24a1.1,1.1,0,0,1-1.56,1.56Z"/><path class="cls-5" d="M20.91,27.09a1.12,1.12,0,0,0-1.57,0,1.1,1.1,0,0,0,0,1.56l1.07-.5Z"/><path class="cls-6" d="M20.91,27.09a1.11,1.11,0,0,1-1.57,1.56Z"/><path class="cls-5" d="M17.78,30.22a1.09,1.09,0,0,0-1.56,0,1.1,1.1,0,0,0,0,1.56l1.06-.5Z"/><path class="cls-6" d="M17.78,30.22a1.1,1.1,0,0,1-1.56,1.56Z"/><path class="cls-5" d="M14.66,33.34a1.1,1.1,0,0,0-1.56,0,1.09,1.09,0,0,0,0,1.56l1.06-.5Z"/><path class="cls-6" d="M14.66,33.34A1.1,1.1,0,1,1,13.1,34.9Z"/><path class="cls-5" d="M11.53,36.46a1.1,1.1,0,0,0-1.56,0A1.12,1.12,0,0,0,10,38l1.06-.5Z"/><path class="cls-6" d="M11.53,36.46A1.11,1.11,0,1,1,10,38Z"/></svg>