<svg id="Acoustic_Grand_Keyboard" data-name="Acoustic Grand Keyboard" xmlns="http://www.w3.org/2000/svg" viewBox="0 0 48 48"><defs><style>.cls-1{fill:#f90;}.cls-2{fill:#ffce00;}.cls-3{fill:#fbbd00;}.cls-4{fill:#ed8100;}.cls-5{fill:#ffe431;}.cls-6{fill:#fea832;}.cls-7{fill:#ff8700;}.cls-8{fill:#ffd400;}.cls-9{fill:#fdbf00;}.cls-10{fill:#00ccb2;}.cls-11{fill:#00ab94;}.cls-12{fill:#00eed0;}</style></defs><path class="cls-1" d="M11.85,26.3l.63-.62a.73.73,0,0,0-1-1l-1.13,1.14h0L9.18,26.92a.74.74,0,0,0,0,1,.74.74,0,0,0,1,0l.62-.62,1.72,1.72a.74.74,0,0,0,1,0,.74.74,0,0,0,0-1Z"/><path class="cls-1" d="M15.74,22.42l.62-.62a.73.73,0,0,0-1-1L14.2,21.91h0L13.06,23a.74.74,0,0,0,0,1,.74.74,0,0,0,1,0l.62-.62,1.72,1.72a.74.74,0,0,0,1,0,.74.74,0,0,0,0-1Z"/><path class="cls-1" d="M21.34,20.26l-1.72-1.72.62-.62a.73.73,0,1,0-1-1l-2.27,2.27a.73.73,0,0,0,.52,1.24.73.73,0,0,0,.51-.21l.62-.62,1.72,1.72a.74.74,0,0,0,1,0,.74.74,0,0,0,0-1Z"/><path class="cls-2" d="M16.28,29.48l-1.6-1.6a.69.69,0,0,0-1,0l-1.31,1.31a.67.67,0,0,0,0,1l1.6,1.6Z"/><path class="cls-2" d="M16.25,34l2.26-2.27,6.56,6.56L22.8,40.54Z"/><path class="cls-2" d="M25.05,42.79l1.55,1.55a.69.69,0,0,0,1,0L28.87,43a.69.69,0,0,0,0-1l-1.55-1.55Z"/><path class="cls-2" d="M20.16,25.6,18.56,24a.69.69,0,0,0-1,0l-1.31,1.31a.67.67,0,0,0,0,1l1.6,1.6Z"/><path class="cls-2" d="M20.13,30.11l2.26-2.27L29,34.4l-2.27,2.26Z"/><path class="cls-2" d="M28.93,38.91l1.55,1.55a.69.69,0,0,0,1,0l1.31-1.31a.69.69,0,0,0,0-1L31.2,36.64Z"/><path class="cls-2" d="M24,21.72l-1.6-1.6a.67.67,0,0,0-1,0l-1.31,1.31a.69.69,0,0,0,0,1l1.6,1.6Z"/><path class="cls-2" d="M24,26.23,26.27,24l6.56,6.56-2.27,2.26Z"/><path class="cls-2" d="M32.81,35l1.55,1.55a.69.69,0,0,0,1,0l1.31-1.31a.69.69,0,0,0,0-1l-1.55-1.55Z"/><path class="cls-3" d="M15,30.76l-1,1-1.6-1.6a.67.67,0,0,1,0-1l1-1a.67.67,0,0,0,0,1Z"/><path class="cls-3" d="M16.24,34l1-1,6.56,6.56-1,1Z"/><path class="cls-3" d="M28.55,43.35l-1,1a.69.69,0,0,1-1,0l-1.55-1.55,1-1,1.56,1.55A.67.67,0,0,0,28.55,43.35Z"/><path class="cls-3" d="M18.88,26.88l-1,1-1.6-1.6a.67.67,0,0,1,0-1l1-1a.67.67,0,0,0,0,1Z"/><path class="cls-3" d="M20.13,30.11l1-1,6.56,6.56-1,1Z"/><path class="cls-3" d="M32.43,39.47l-1,1a.69.69,0,0,1-1,0l-1.55-1.55,1-1,1.55,1.55A.67.67,0,0,0,32.43,39.47Z"/><path class="cls-3" d="M22.76,23l-1,1-1.6-1.6a.69.69,0,0,1,0-1l1-1a.67.67,0,0,0,0,1Z"/><path class="cls-3" d="M24,26.23l1-1,6.56,6.56-1,1Z"/><path class="cls-3" d="M36.31,35.59l-1,1a.69.69,0,0,1-1,0L32.81,35l1-1,1.55,1.55A.68.68,0,0,0,36.31,35.59Z"/><path class="cls-1" d="M5.64,44.6,4.7,46.67,3.58,47.79a.71.71,0,0,1-1,0L1.39,46.61.21,45.43a.71.71,0,0,1,0-1L1.33,43.3l2.07-.94Z"/><path class="cls-4" d="M3.8,46.56,2.62,45.38,1.44,44.2a.71.71,0,0,1-.08-.91h0L.21,44.42a.71.71,0,0,0,0,1l1.18,1.18,1.18,1.18a.71.71,0,0,0,1,0L4.7,46.67v0A.71.71,0,0,1,3.8,46.56Z"/><path class="cls-2" d="M36,.62c.51,8.68-11.85,21-11.85,21a7.81,7.81,0,0,1,7.28-2.08c4-3,11-7.82,16-7.53a.58.58,0,0,0,.45-1L42.38,5.62,36.93.17A.58.58,0,0,0,36,.62Z"/><path class="cls-5" d="M35.14,21.66a7.82,7.82,0,0,0-11,0l-7.5,7.5L3.4,42.36,5.64,44.6l6.11-6.11A7.81,7.81,0,0,0,25,42.85L35.14,32.7a7.82,7.82,0,0,0,0-11Zm-2.25,8.8L22.75,40.6a4.64,4.64,0,1,1-6.56-6.55L26.34,23.9a4.64,4.64,0,1,1,6.55,6.56Z"/><path class="cls-3" d="M11.75,38.49a7.78,7.78,0,0,0,.55,1.92l2.57-2.57a4.63,4.63,0,0,1,1.32-3.79Z"/><path class="cls-3" d="M27.62,17.73c-2,2.38-3.52,3.93-3.52,3.93a7.81,7.81,0,0,1,7.28-2.08c.54-.41,1.14-.85,1.78-1.31A8.29,8.29,0,0,0,27.62,17.73Z"/><path class="cls-6" d="M12.23,12.69a1.72,1.72,0,0,1-1.72,1.73.35.35,0,0,1-.35-.32.34.34,0,0,1,.34-.37,1,1,0,0,0,.62-1.87,8.53,8.53,0,0,1-1.68-1.53V15.8a.35.35,0,0,1-.31.35.34.34,0,0,1-.38-.35V9.19A.35.35,0,0,1,9,8.86H9.1A.35.35,0,0,1,9.39,9l.39.6a7.38,7.38,0,0,0,1.74,1.7A1.72,1.72,0,0,1,12.23,12.69Z"/><path class="cls-7" d="M12.23,12.69a1.72,1.72,0,0,1-1.72,1.73.35.35,0,0,1-.35-.32.34.34,0,0,1,.34-.37,1,1,0,0,0,.62-1.87,8.53,8.53,0,0,1-1.68-1.53V15.8a.34.34,0,0,1-.34.35V8.85A.35.35,0,0,1,9.39,9l.39.6a7.38,7.38,0,0,0,1.74,1.7A1.72,1.72,0,0,1,12.23,12.69Z"/><path class="cls-8" d="M9.1,14.9a1.37,1.37,0,0,0-1-.48,1.39,1.39,0,1,0,0,2.77,1.37,1.37,0,0,0,1-.48,1.37,1.37,0,0,0,0-1.81Z"/><path class="cls-9" d="M9.44,15.8a1.33,1.33,0,0,1-.34.91V14.9A1.32,1.32,0,0,1,9.44,15.8Z"/><path class="cls-10" d="M20.92,10.91a.34.34,0,0,0,.38.35.36.36,0,0,0,.31-.36V7l-.32-.6-.37.8Z"/><path class="cls-11" d="M25.76,9.53a.33.33,0,0,0,.38.34.34.34,0,0,0,.31-.35V5.65l-.33-.6-.36.79Z"/><path class="cls-6" d="M20.23,4.69a1.72,1.72,0,0,1-1.72,1.73.35.35,0,0,1-.35-.32.34.34,0,0,1,.34-.37,1,1,0,0,0,.62-1.87,8.53,8.53,0,0,1-1.68-1.53V7.8a.35.35,0,0,1-.31.35.34.34,0,0,1-.38-.35V1.19A.35.35,0,0,1,17,.86h.11a.35.35,0,0,1,.29.15l.39.6a7.38,7.38,0,0,0,1.74,1.7A1.72,1.72,0,0,1,20.23,4.69Z"/><path class="cls-7" d="M20.23,4.69a1.72,1.72,0,0,1-1.72,1.73.35.35,0,0,1-.35-.32.34.34,0,0,1,.34-.37,1,1,0,0,0,.62-1.87,8.53,8.53,0,0,1-1.68-1.53V7.8a.34.34,0,0,1-.34.35V.85a.35.35,0,0,1,.29.15l.39.6a7.38,7.38,0,0,0,1.74,1.7A1.72,1.72,0,0,1,20.23,4.69Z"/><path class="cls-12" d="M20.23,12.64a1.38,1.38,0,1,1,1.38-1.38A1.38,1.38,0,0,1,20.23,12.64Z"/><path class="cls-8" d="M17.1,6.9a1.37,1.37,0,0,0-1-.48,1.39,1.39,0,1,0,0,2.77,1.37,1.37,0,0,0,1-.48,1.37,1.37,0,0,0,0-1.81Z"/><path class="cls-10" d="M25.07,11.26a1.38,1.38,0,1,1,1.38-1.38A1.38,1.38,0,0,1,25.07,11.26Z"/><path class="cls-9" d="M17.44,7.8a1.33,1.33,0,0,1-.34.91V6.9A1.32,1.32,0,0,1,17.44,7.8Z"/><path class="cls-12" d="M26.31,3.73A.37.37,0,0,0,26,3.67l-2.32.67-2.51.71a.35.35,0,0,0-.25.34V7.22L21.61,7l2.07-.59,2.08-.6.69-.19V4A.33.33,0,0,0,26.31,3.73Z"/><path class="cls-10" d="M26.45,4V5.65l-.69.19-2.08.6V4.34L26,3.67a.37.37,0,0,1,.31.06A.33.33,0,0,1,26.45,4Z"/></svg>