<svg id="Acoustic_Grand_Keyboard" data-name="Acoustic Grand Keyboard" xmlns="http://www.w3.org/2000/svg" viewBox="0 0 48 48"><defs><style>.cls-1{fill:#a66856;}.cls-2{fill:#735458;}.cls-3{fill:#ffdea9;}.cls-4{fill:#5c4346;}.cls-5{fill:#8f5040;}.cls-6{fill:#595959;}</style></defs><polygon class="cls-1" points="8.36 9.99 10.88 7.44 8.17 4.73 5.64 7.27 8.36 9.99"/><path class="cls-2" d="M43.8,44.6a.58.58,0,0,1-.19,0,.7.7,0,0,1-.49-.86l.14-.48a4.34,4.34,0,0,0-1.46-3.88L5.26,2.81a.71.71,0,0,1,0-1,.72.72,0,0,1,1,0L42.79,38.35a5.68,5.68,0,0,1,1.82,5.27l-.14.47A.7.7,0,0,1,43.8,44.6Z"/><path class="cls-3" d="M5.77,5.87,44.41,44.51a.37.37,0,0,1,0,.53L43.3,46.15a.39.39,0,0,1-.53,0L4.13,7.51a.39.39,0,0,1,0-.53L5.24,5.87A.37.37,0,0,1,5.77,5.87Z"/><path class="cls-4" d="M43,11.42l-2.54-3.9L36.52,5a1.42,1.42,0,0,1,0-2h0a1.44,1.44,0,0,1,2,0L41.1,6.83,45,9.38a1.45,1.45,0,0,1,0,2h0A1.44,1.44,0,0,1,43,11.42Z"/><path class="cls-4" d="M39.67,14.7l-2.61-3.83L33.23,8.26a1.44,1.44,0,0,1,0-2h0a1.45,1.45,0,0,1,2,0L37.93,10l3.78,2.65a1.45,1.45,0,0,1,0,2h0A1.45,1.45,0,0,1,39.67,14.7Z"/><path class="cls-1" d="M3.94,43.71c-6.68-6.84-4.54-17.59,4-19.64a.38.38,0,0,1,.21,0c.67.24,4.36,1.46,6.35-.53a4.89,4.89,0,0,0,1.16-4.47.42.42,0,0,1,0-.27,10.16,10.16,0,0,1,1.79-2.42c7.57-8.28,23,6.54,13.9,14.26a10.34,10.34,0,0,1-2.22,1.6.37.37,0,0,1-.27.05,4.9,4.9,0,0,0-4.49,1.15c-1.52,1.53-1.65,4-.54,6.33a.42.42,0,0,1,0,.25C21.77,48.54,10.83,50.76,3.94,43.71Z"/><path class="cls-5" d="M28.52,15.82c3.43,3.64,4.78,9.05.39,12.8a9,9,0,0,1-2,1.47,1,1,0,0,1-.7.13,4.85,4.85,0,0,0-4.26,1.2c-1.47,1.47-1.64,3.86-.64,6.11a1,1,0,0,1,.06.72c-2,7.4-10.79,9.86-17.5,5.35l.09.11c6.89,7,17.84,4.83,19.9-3.67a.42.42,0,0,0,0-.25c-1.11-2.31-1-4.8.54-6.33a4.9,4.9,0,0,1,4.49-1.15.37.37,0,0,0,.27-.05,10.34,10.34,0,0,0,2.22-1.6C36.66,26.13,33.54,19.14,28.52,15.82Z"/><path class="cls-6" d="M8.85,47a14.22,14.22,0,0,1-4.91-3.3c-5.38-5.51-5-13.56-.27-17.55h0a5.85,5.85,0,0,1,3.44,5.15c.26,4,1.16,5.35,3.57,8.19C12,41.05,10.79,43.46,8.85,47Z"/><path class="cls-6" d="M11.36,30.7h-.11a2.29,2.29,0,0,1-1.81-1A.71.71,0,0,1,10.66,29a1,1,0,0,0,.69.29,2.07,2.07,0,0,0,1.54-1.06c1.74-2.41,3.24-1.51,3.3-1.47A.7.7,0,0,1,15.48,28c-.16-.05-.7,0-1.45,1.08A3.29,3.29,0,0,1,11.36,30.7ZM15.49,28Zm-.05,0Zm0,0Z"/><path class="cls-6" d="M18.55,38.56a.7.7,0,0,1-.36-.1,2.24,2.24,0,0,1-1-1.8,3.23,3.23,0,0,1,1.64-2.78C20,33,20,32.48,20,32.47a.7.7,0,1,1,1.18-.75c0,.07.95,1.57-1.46,3.3a2,2,0,0,0-1.06,1.54.93.93,0,0,0,.29.7.7.7,0,0,1-.36,1.3Z"/><path class="cls-6" d="M17.38,33.66a.7.7,0,0,1-.49-.21l-2.33-2.33a.7.7,0,1,1,1-1l2.33,2.33a.69.69,0,0,1,0,1A.7.7,0,0,1,17.38,33.66Z"/><path class="cls-4" d="M5.71,42.19h0a.87.87,0,0,1,0-1.17l5.55-6.76a.36.36,0,0,1,.55,0l1.92,1.92a.37.37,0,0,1,0,.55L6.89,42.25A.89.89,0,0,1,5.71,42.19Z"/><path class="cls-2" d="M42.19,8.66,35.82,15l-1,1L33,17.86l-1,1-1.84,1.84-1,1-1.84,1.84-1,1-4.13,4.12a.39.39,0,0,1-.53,0l-2.39-2.39a.39.39,0,0,1,0-.53l4.1-4.1,1-1,1.83-1.84,1-1L29.05,16l1-1,1.84-1.84,1-1,6.39-6.39a.39.39,0,0,1,.53,0l2.39,2.4A.36.36,0,0,1,42.19,8.66Z"/><path class="cls-5" d="M38.25,13.18l-3.5-3.49c-.16-.16-.09-.48.14-.68l6.72-5.88a.47.47,0,0,1,.62-.07l2.62,2.62a.48.48,0,0,1-.06.62L38.93,13C38.72,13.27,38.41,13.34,38.25,13.18Z"/><path class="cls-1" d="M47.84,3.89l-3.93,5a.42.42,0,0,1-.62,0l-2-2L39.07,4.65A.42.42,0,0,1,39,4l5-4a.44.44,0,0,1,.57.09l1.17,1.17,2,2A.44.44,0,0,1,47.84,3.89Z"/><path class="cls-5" d="M47.84,4,43.91,9a.42.42,0,0,1-.62,0l-2-2h0a.42.42,0,0,0,.62,0l3.93-5a.44.44,0,0,0-.07-.56l2,2A.43.43,0,0,1,47.84,4Z"/><polygon class="cls-4" points="35.82 15.03 34.83 16.02 31.89 13.12 32.88 12.13 35.82 15.03"/><polygon class="cls-4" points="32.99 17.86 32 18.85 29.05 15.95 30.05 14.96 32.99 17.86"/><polygon class="cls-4" points="30.16 20.69 29.17 21.68 26.22 18.78 27.22 17.79 30.16 20.69"/><polygon class="cls-4" points="27.33 23.52 26.34 24.51 23.39 21.61 24.39 20.62 27.33 23.52"/></svg>