<svg id="Acoustic_Grand_Keyboard" data-name="Acoustic Grand Keyboard" xmlns="http://www.w3.org/2000/svg" viewBox="0 0 48 48"><defs><style>.cls-1{fill:#f90;}.cls-2{fill:#ffce00;}.cls-3{fill:#fbbd00;}.cls-4{fill:#ed8100;}.cls-5{fill:#ffe431;}</style></defs><path class="cls-1" d="M11.85,26.3l.63-.62a.73.73,0,0,0-1-1l-1.13,1.14h0L9.18,26.92a.74.74,0,0,0,0,1,.74.74,0,0,0,1,0l.62-.62,1.72,1.72a.74.74,0,0,0,1,0,.74.74,0,0,0,0-1Z"/><path class="cls-1" d="M15.74,22.42l.62-.62a.73.73,0,0,0-1-1L14.2,21.91h0L13.06,23a.74.74,0,0,0,0,1,.74.74,0,0,0,1,0l.62-.62,1.72,1.72a.74.74,0,0,0,1,0,.74.74,0,0,0,0-1Z"/><path class="cls-1" d="M21.34,20.26l-1.72-1.72.62-.62a.73.73,0,1,0-1-1l-2.27,2.27a.73.73,0,0,0,.52,1.24.73.73,0,0,0,.51-.21l.62-.62,1.72,1.72a.74.74,0,0,0,1,0,.74.74,0,0,0,0-1Z"/><path class="cls-2" d="M16.28,29.48l-1.6-1.6a.69.69,0,0,0-1,0l-1.31,1.31a.67.67,0,0,0,0,1l1.6,1.6Z"/><path class="cls-2" d="M16.25,34l2.26-2.27,6.56,6.56L22.8,40.54Z"/><path class="cls-2" d="M25.05,42.79l1.55,1.55a.69.69,0,0,0,1,0L28.87,43a.69.69,0,0,0,0-1l-1.55-1.55Z"/><path class="cls-2" d="M20.16,25.6,18.56,24a.69.69,0,0,0-1,0l-1.31,1.31a.67.67,0,0,0,0,1l1.6,1.6Z"/><path class="cls-2" d="M20.13,30.11l2.26-2.27L29,34.4l-2.27,2.26Z"/><path class="cls-2" d="M28.93,38.91l1.55,1.55a.69.69,0,0,0,1,0l1.31-1.31a.69.69,0,0,0,0-1L31.2,36.64Z"/><path class="cls-2" d="M24,21.72l-1.6-1.6a.67.67,0,0,0-1,0l-1.31,1.31a.69.69,0,0,0,0,1l1.6,1.6Z"/><path class="cls-2" d="M24,26.23,26.27,24l6.56,6.56-2.27,2.26Z"/><path class="cls-2" d="M32.81,35l1.55,1.55a.69.69,0,0,0,1,0l1.31-1.31a.69.69,0,0,0,0-1l-1.55-1.55Z"/><path class="cls-3" d="M15,30.76l-1,1-1.6-1.6a.67.67,0,0,1,0-1l1-1a.67.67,0,0,0,0,1Z"/><path class="cls-3" d="M16.24,34l1-1,6.56,6.56-1,1Z"/><path class="cls-3" d="M28.55,43.35l-1,1a.69.69,0,0,1-1,0l-1.55-1.55,1-1,1.56,1.55A.67.67,0,0,0,28.55,43.35Z"/><path class="cls-3" d="M18.88,26.88l-1,1-1.6-1.6a.67.67,0,0,1,0-1l1-1a.67.67,0,0,0,0,1Z"/><path class="cls-3" d="M20.13,30.11l1-1,6.56,6.56-1,1Z"/><path class="cls-3" d="M32.43,39.47l-1,1a.69.69,0,0,1-1,0l-1.55-1.55,1-1,1.55,1.55A.67.67,0,0,0,32.43,39.47Z"/><path class="cls-3" d="M22.76,23l-1,1-1.6-1.6a.69.69,0,0,1,0-1l1-1a.67.67,0,0,0,0,1Z"/><path class="cls-3" d="M24,26.23l1-1,6.56,6.56-1,1Z"/><path class="cls-3" d="M36.31,35.59l-1,1a.69.69,0,0,1-1,0L32.81,35l1-1,1.55,1.55A.68.68,0,0,0,36.31,35.59Z"/><path class="cls-1" d="M5.64,44.6,4.7,46.67,3.58,47.79a.71.71,0,0,1-1,0L1.39,46.61.21,45.43a.71.71,0,0,1,0-1L1.33,43.3l2.07-.94Z"/><path class="cls-4" d="M3.8,46.56,2.62,45.38,1.44,44.2a.71.71,0,0,1-.08-.91h0L.21,44.42a.71.71,0,0,0,0,1l1.18,1.18,1.18,1.18a.71.71,0,0,0,1,0L4.7,46.67v0A.71.71,0,0,1,3.8,46.56Z"/><path class="cls-2" d="M36,.62c.51,8.68-11.85,21-11.85,21a7.81,7.81,0,0,1,7.28-2.08c4-3,11-7.82,16-7.53a.58.58,0,0,0,.45-1L42.38,5.62,36.93.17A.58.58,0,0,0,36,.62Z"/><path class="cls-5" d="M35.14,21.66a7.82,7.82,0,0,0-11,0l-7.5,7.5L3.4,42.36,5.64,44.6l6.11-6.11A7.81,7.81,0,0,0,25,42.85L35.14,32.7a7.82,7.82,0,0,0,0-11Zm-2.25,8.8L22.75,40.6a4.64,4.64,0,1,1-6.56-6.55L26.34,23.9a4.64,4.64,0,1,1,6.55,6.56Z"/><path class="cls-3" d="M11.75,38.49a7.78,7.78,0,0,0,.55,1.92l2.57-2.57a4.63,4.63,0,0,1,1.32-3.79Z"/><path class="cls-3" d="M27.62,17.73c-2,2.38-3.52,3.93-3.52,3.93a7.81,7.81,0,0,1,7.28-2.08c.54-.41,1.14-.85,1.78-1.31A8.29,8.29,0,0,0,27.62,17.73Z"/></svg>