<svg id="Acoustic_Grand_Keyboard" data-name="Acoustic Grand Keyboard" xmlns="http://www.w3.org/2000/svg" viewBox="0 0 48 48"><defs><style>.cls-1{fill:#805333;}.cls-2{fill:#a56a43;}.cls-3{fill:#cb8252;}.cls-4{fill:#ecf0f1;}.cls-5{fill:#603e26;}.cls-6{fill:#f9eab0;}.cls-7{fill:#f5efca;}.cls-8{fill:#464f5d;}.cls-9{fill:#f3d55b;}</style></defs><g id="Page-1"><g id="_027---Piano" data-name="027---Piano"><path id="Shape" class="cls-1" d="M6.62,20.28l1.66,5.79L0,24.41V22.76a2.48,2.48,0,0,1,2.48-2.48Z"/><path id="Shape-2" data-name="Shape" class="cls-1" d="M39.72,7.86,48,8.69V41a1.65,1.65,0,0,1-1.66,1.65H35.59L32.28,28.55V22.76c0-1.38,2.76-5,4.13-5Z"/><path id="Shape-3" data-name="Shape" class="cls-2" d="M40.55,8.69V20.28H36.41a2.48,2.48,0,0,0-2.48,2.48v1.65L6.62,26.07V7Z"/><path id="Shape-4" data-name="Shape" class="cls-2" d="M48,6.21V8.69H38.07a.83.83,0,0,0,.83-.83V6.21a.83.83,0,0,0-.83-.83h9.1A.83.83,0,0,1,48,6.21Z"/><rect id="Rectangle-path" class="cls-3" x="3.31" y="5.38" width="37.24" height="3.31" rx="0.83"/><path id="Shape-5" data-name="Shape" class="cls-2" d="M37.24,28.55V41a1.65,1.65,0,0,1-1.65,1.65H5A1.65,1.65,0,0,1,3.31,41V27.72l30.62.83Z"/><path id="Shape-6" data-name="Shape" class="cls-4" d="M33.93,24.41v4.14H.83A.83.83,0,0,1,0,27.72V24.41Z"/><path id="Shape-7" data-name="Shape" class="cls-5" d="M41.38,29.38a.83.83,0,0,1-.83.83H37.24V28.55h3.31A.83.83,0,0,1,41.38,29.38Z"/><path id="Shape-8" data-name="Shape" class="cls-6" d="M29,15.31v9.1H20.69V14.48h7.45A.83.83,0,0,1,29,15.31Z"/><path id="Shape-9" data-name="Shape" class="cls-7" d="M20.69,14.48v9.93H12.41v-9.1a.83.83,0,0,1,.83-.83Z"/><path id="Shape-10" data-name="Shape" class="cls-5" d="M44.69,40.14H42.21a.83.83,0,0,1,0-1.66h1.65V36.83a.83.83,0,1,1,1.66,0v2.48A.83.83,0,0,1,44.69,40.14Z"/><path id="Shape-11" data-name="Shape" class="cls-8" d="M4.14,24.41v1.66a.83.83,0,0,1-1.66,0V24.41Z"/><path id="Shape-12" data-name="Shape" class="cls-8" d="M7.45,24.41v1.66a.83.83,0,0,1-1.66,0V24.41Z"/><path id="Shape-13" data-name="Shape" class="cls-8" d="M11.59,24.41v1.66a.83.83,0,1,1-1.66,0V24.41Z"/><path id="Shape-14" data-name="Shape" class="cls-8" d="M14.9,24.41v1.66a.83.83,0,1,1-1.66,0V24.41Z"/><path id="Shape-15" data-name="Shape" class="cls-8" d="M18.21,24.41v1.66a.83.83,0,0,1-1.66,0V24.41Z"/><path id="Shape-16" data-name="Shape" class="cls-8" d="M30.62,24.41v1.66a.83.83,0,1,1-1.65,0V24.41Z"/><path id="Shape-17" data-name="Shape" class="cls-8" d="M23.17,24.41v1.66a.83.83,0,1,1-1.65,0V24.41Z"/><path id="Shape-18" data-name="Shape" class="cls-8" d="M26.48,24.41v1.66a.83.83,0,1,1-1.65,0V24.41Z"/><path id="Shape-19" data-name="Shape" class="cls-9" d="M12.41,39.31H14.9A1.65,1.65,0,0,1,16.55,41v1.65H10.76V41A1.65,1.65,0,0,1,12.41,39.31Z"/><path id="Shape-20" data-name="Shape" class="cls-9" d="M22.34,39.31h2.49A1.65,1.65,0,0,1,26.48,41v1.65H20.69V41A1.65,1.65,0,0,1,22.34,39.31Z"/></g></g></svg>