<?xml version="1.0" encoding="utf-8"?>
<!-- Generator: Adobe Illustrator 25.0.0, SVG Export Plug-In . SVG Version: 6.00 Build 0)  -->
<svg version="1.1" id="volume" xmlns="http://www.w3.org/2000/svg" xmlns:xlink="http://www.w3.org/1999/xlink" x="0px" y="0px"
	 viewBox="0 0 48 48" style="enable-background:new 0 0 48 48;" xml:space="preserve">
<g>
	<path d="M26.48,13.87l-10.76,4.4H9.2c-0.64,0-1.16,0.52-1.16,1.16v9.13c0,0.64,0.52,1.16,1.16,1.16h6.52l10.76,4.4
		c0.14,0.06,0.29,0.09,0.44,0.09c0.23,0,0.45-0.07,0.65-0.2c0.32-0.22,0.51-0.58,0.51-0.97V14.94c0-0.39-0.19-0.75-0.51-0.97
		C27.24,13.76,26.84,13.72,26.48,13.87z M14.78,27.4h-4.43V20.6h4.43V27.4z M25.76,31.32l-8.65-3.54v-7.57l8.65-3.54V31.32z"/>
	<path d="M31.58,33.09c0.23,0.23,0.52,0.34,0.82,0.34c0.3,0,0.6-0.11,0.82-0.34c5.01-5.01,5.01-13.16,0-18.17
		c-0.45-0.45-1.19-0.45-1.64,0c-0.45,0.45-0.45,1.19,0,1.64c4.1,4.1,4.1,10.78,0,14.89C31.13,31.9,31.13,32.63,31.58,33.09z"/>
	<path d="M37.32,10.82c-0.45-0.45-1.19-0.45-1.64,0c-0.45,0.45-0.45,1.19,0,1.64c6.36,6.36,6.36,16.71,0,23.07
		c-0.45,0.45-0.45,1.19,0,1.64c0.23,0.23,0.52,0.34,0.82,0.34c0.3,0,0.6-0.11,0.82-0.34C44.59,29.91,44.59,18.09,37.32,10.82z"/>
	<path d="M41.03,7.11c-0.45-0.45-1.19-0.45-1.64,0c-0.45,0.45-0.45,1.19,0,1.64c4.07,4.07,6.31,9.48,6.31,15.24
		c0,5.76-2.24,11.17-6.31,15.24c-0.45,0.45-0.45,1.19,0,1.64c0.23,0.23,0.52,0.34,0.82,0.34c0.3,0,0.59-0.11,0.82-0.34
		c4.51-4.51,7-10.51,7-16.89C48.02,17.62,45.54,11.62,41.03,7.11z"/>
	<path d="M31.78,44.25c-2.47,0.95-5.08,1.43-7.76,1.43C12.07,45.68,2.35,35.95,2.35,24S12.07,2.33,24.02,2.33
		c2.75,0,5.43,0.51,7.96,1.51c0.6,0.24,1.27-0.06,1.51-0.65c0.24-0.6-0.06-1.27-0.65-1.51C30.03,0.56,27.07,0,24.02,0
		c-13.23,0-24,10.77-24,24c0,13.23,10.77,24,24,24c2.96,0,5.85-0.53,8.59-1.58c0.6-0.23,0.9-0.9,0.67-1.5
		C33.05,44.32,32.38,44.02,31.78,44.25z"/>
</g>
</svg>
