<?xml version="1.0" encoding="utf-8"?>
<!-- Generator: Adobe Illustrator 25.0.0, SVG Export Plug-In . SVG Version: 6.00 Build 0)  -->
<svg version="1.1" id="volume" xmlns="http://www.w3.org/2000/svg" xmlns:xlink="http://www.w3.org/1999/xlink" x="0px" y="0px"
	 viewBox="0 0 48 48" style="enable-background:new 0 0 48 48;" xml:space="preserve">
<path d="M24,1.87c12.13,0,22,9.87,22,22s-9.87,22-22,22S2,36,2,23.87S11.87,1.87,24,1.87 M24-0.13c-13.25,0-24,10.75-24,24
	s10.75,24,24,24s24-10.75,24-24S37.25-0.13,24-0.13L24-0.13z"/>
<g>
	<path d="M30.23,12.07c-1.32-1.09-3.17-1.63-5.57-1.63c-1.85,0-3.57,0.37-5.16,1.1c-1.08,0.5-1.98,1.11-2.72,1.82
		c-0.58,0.56-0.55,1.51,0.01,2.09L17.31,16c0.56,0.58,1.47,0.58,2.08,0.04c0.55-0.48,1.16-0.9,1.83-1.24
		c1.12-0.58,2.25-0.86,3.4-0.86c1.13,0,2,0.25,2.61,0.76c0.61,0.51,0.92,1.22,0.92,2.14c0,0.85-0.25,1.63-0.75,2.36
		c-0.5,0.73-1.24,1.4-2.24,2.01c-1.01,0.64-1.76,1.42-2.26,2.35c-0.5,0.93-0.75,2-0.75,3.21v0.26c0,0.83,0.68,1.51,1.51,1.51h0.59
		c0.83,0,1.51-0.68,1.51-1.51v0c0-0.72,0.2-1.39,0.59-2c0.39-0.61,0.98-1.17,1.77-1.68c1.36-0.87,2.38-1.86,3.06-2.98
		c0.68-1.12,1.02-2.35,1.02-3.72C32.2,14.68,31.55,13.15,30.23,12.07z"/>
	<path d="M24.04,31.85c-0.75,0-1.39,0.26-1.92,0.79c-0.53,0.53-0.8,1.17-0.8,1.93c0,0.75,0.27,1.39,0.8,1.92
		c0.53,0.53,1.17,0.8,1.92,0.8c0.76,0,1.4-0.27,1.93-0.8c0.53-0.53,0.79-1.17,0.79-1.92c0-0.76-0.26-1.4-0.79-1.93
		S24.8,31.85,24.04,31.85z"/>
</g>
</svg>
