<?xml version="1.0" encoding="utf-8"?>
<!-- Generator: Adobe Illustrator 25.0.0, SVG Export Plug-In . SVG Version: 6.00 Build 0)  -->
<svg version="1.1" id="settings" xmlns="http://www.w3.org/2000/svg" xmlns:xlink="http://www.w3.org/1999/xlink" x="0px" y="0px"
	 viewBox="0 0 48 48" style="enable-background:new 0 0 48 48;" xml:space="preserve">
<g id="Layer_114">
	<path d="M48,24.02c0.02,13.25-10.71,24.02-23.96,24.04C10.78,48.07,0.02,37.35,0,24.09S10.71,0.07,23.96,0.05
		c4.94-0.01,9.75,1.51,13.8,4.34l-0.29-0.85C37,2.1,37.78,0.55,39.21,0.08c1.44-0.47,2.98,0.31,3.45,1.75l2.67,8
		c0.27,0.81,0.13,1.71-0.37,2.4c-0.52,0.74-1.39,1.16-2.29,1.12h-8c-1.47,0-2.67-1.19-2.67-2.67c0.02-1.16,0.78-2.17,1.89-2.51
		c-8.74-5.46-20.26-2.81-25.72,5.94s-2.81,20.26,5.94,25.72s20.26,2.81,25.72-5.94c1.85-2.96,2.84-6.39,2.84-9.88
		c0-1.47,1.19-2.67,2.67-2.67C46.81,21.35,48,22.54,48,24.02z"/>
</g>
</svg>
