<?xml version="1.0" encoding="utf-8"?>
<!-- Generator: Adobe Illustrator 25.0.0, SVG Export Plug-In . SVG Version: 6.00 Build 0)  -->
<svg version="1.1" id="settings" xmlns="http://www.w3.org/2000/svg" xmlns:xlink="http://www.w3.org/1999/xlink" x="0px" y="0px"
	 viewBox="0 0 48 48" style="enable-background:new 0 0 48 48;" xml:space="preserve">
<path d="M24,38.4c-13,0-23.23-12.87-23.66-13.41c-0.45-0.58-0.45-1.39,0-1.97C0.77,22.47,11,9.6,24,9.6s23.23,12.87,23.66,13.41
	c0.45,0.58,0.45,1.39,0,1.97C47.23,25.53,37,38.4,24,38.4L24,38.4z M3.7,24C6.29,26.9,14.52,35.2,24,35.2S41.71,26.9,44.3,24
	C41.71,21.1,33.48,12.8,24,12.8S6.29,21.1,3.7,24z"/>
<path d="M24,32c-4.42,0-8-3.58-8-8s3.58-8,8-8s8,3.58,8,8C31.99,28.42,28.42,31.99,24,32z M24,19.2c-2.65,0-4.8,2.15-4.8,4.8
	s2.15,4.8,4.8,4.8s4.8-2.15,4.8-4.8S26.65,19.2,24,19.2z"/>
</svg>
