<?xml version="1.0" encoding="utf-8"?>
<!-- Generator: Adobe Illustrator 25.0.0, SVG Export Plug-In . SVG Version: 6.00 Build 0)  -->
<svg version="1.1" id="settings" xmlns="http://www.w3.org/2000/svg" xmlns:xlink="http://www.w3.org/1999/xlink" x="0px" y="0px"
	 viewBox="0 0 48 48" style="enable-background:new 0 0 48 48;" xml:space="preserve">
<style type="text/css">
	.st0{fill-rule:evenodd;clip-rule:evenodd;}
</style>
<g>
	<path d="M1.59,25.01h22.66c0.83,0,1.51-0.68,1.51-1.51c0-0.83-0.68-1.51-1.51-1.51H1.59c-0.83,0-1.51,0.68-1.51,1.51
		C0.08,24.33,0.76,25.01,1.59,25.01z"/>
	<path d="M46.41,21.99h-5.22c-0.63-2.64-2.87-4.73-5.73-5c-1.74-0.17-3.44,0.35-4.79,1.46c-1.35,1.11-2.19,2.68-2.36,4.42
		c-0.35,3.59,2.29,6.8,5.88,7.15c0.22,0.02,0.43,0.03,0.64,0.03c3.03,0,5.66-2.11,6.36-5.03h5.22c0.83,0,1.51-0.68,1.51-1.51
		C47.92,22.66,47.24,21.99,46.41,21.99z M34.48,27c-1.93-0.19-3.35-1.92-3.16-3.85c0.09-0.94,0.54-1.78,1.27-2.38
		c0.64-0.52,1.42-0.8,2.23-0.8c0.12,0,0.23,0.01,0.35,0.02c1.93,0.19,3.35,1.92,3.16,3.85C38.14,25.77,36.43,27.2,34.48,27z"/>
	<path d="M23.75,9.9h22.66c0.83,0,1.51-0.68,1.51-1.51c0-0.83-0.68-1.51-1.51-1.51H23.75c-0.83,0-1.51,0.68-1.51,1.51
		C22.24,9.23,22.91,9.9,23.75,9.9z"/>
	<path d="M1.59,9.9h5.22c0.69,2.93,3.33,5.04,6.36,5.04c0.21,0,0.43-0.01,0.64-0.03c1.74-0.17,3.31-1.01,4.42-2.36
		c1.11-1.35,1.63-3.05,1.46-4.79c-0.35-3.59-3.55-6.23-7.15-5.88h0c-2.85,0.28-5.1,2.36-5.73,5H1.59c-0.83,0-1.51,0.68-1.51,1.51
		C0.08,9.23,0.76,9.9,1.59,9.9z M12.83,4.88c1.93-0.18,3.66,1.23,3.85,3.17c0.19,1.93-1.23,3.66-3.17,3.85
		c-0.94,0.09-1.85-0.19-2.58-0.79c-0.73-0.6-1.18-1.44-1.27-2.38C9.48,6.8,10.9,5.07,12.83,4.88z"/>
	<path d="M46.41,38.1H23.75c-0.83,0-1.51,0.68-1.51,1.51s0.68,1.51,1.51,1.51h22.66c0.83,0,1.51-0.68,1.51-1.51
		S47.24,38.1,46.41,38.1z"/>
	<path d="M12.54,33.09L12.54,33.09c-2.85,0.28-5.1,2.36-5.73,5H1.59c-0.83,0-1.51,0.68-1.51,1.51s0.68,1.51,1.51,1.51h5.22
		c0.69,2.93,3.33,5.03,6.36,5.03c0.21,0,0.42-0.01,0.64-0.03c1.74-0.17,3.31-1.01,4.42-2.36c1.11-1.35,1.63-3.05,1.46-4.79
		C19.34,35.38,16.13,32.75,12.54,33.09z M15.9,41.85c-0.6,0.73-1.44,1.18-2.38,1.27c-1.93,0.19-3.66-1.23-3.85-3.17
		c-0.19-1.93,1.23-3.66,3.17-3.85c1.93-0.19,3.66,1.23,3.85,3.17C16.77,40.2,16.5,41.12,15.9,41.85z"/>
</g>
</svg>
