<?xml version="1.0" encoding="utf-8"?>
<!-- Generator: Adobe Illustrator 25.0.0, SVG Export Plug-In . SVG Version: 6.00 Build 0)  -->
<svg version="1.1" id="settings" xmlns="http://www.w3.org/2000/svg" xmlns:xlink="http://www.w3.org/1999/xlink" x="0px" y="0px"
	 viewBox="0 0 48 48" style="enable-background:new 0 0 48 48;" xml:space="preserve">
<style type="text/css">
	.st0{fill-rule:evenodd;clip-rule:evenodd;}
</style>
<path id="Hide" d="M29.96,24.4l2.73-2.73C32.88,22.42,33,23.2,33,24c0,4.96-4.04,9-9,9c-0.8,0-1.58-0.12-2.32-0.31l2.73-2.73
	C27.39,29.76,29.76,27.39,29.96,24.4L29.96,24.4z M47.81,23.27c-0.18-0.33-2.8-4.92-7.92-8.8l-2.18,2.18
	c3.73,2.74,6.09,5.94,7.02,7.35C42.96,26.71,35.98,36,24,36c-1.8,0-3.47-0.23-5.04-0.6l-2.46,2.46C18.76,38.56,21.25,39,24,39
	c15.7,0,23.49-13.69,23.81-14.27C48.06,24.28,48.06,23.72,47.81,23.27L47.81,23.27z M41.56,8.56l-33,33C8.27,41.85,7.88,42,7.5,42
	s-0.77-0.15-1.06-0.44c-0.59-0.59-0.59-1.54,0-2.12l4.2-4.2C3.85,31.14,0.4,25.11,0.19,24.73c-0.25-0.45-0.25-1,0-1.46
	C0.51,22.69,8.3,9,24,9c4.06,0,7.58,0.93,10.58,2.3l4.86-4.86c0.59-0.59,1.54-0.59,2.12,0C42.15,7.03,42.15,7.97,41.56,8.56
	L41.56,8.56z M12.87,33l3.8-3.8C15.62,27.74,15,25.94,15,24c0-4.96,4.04-9,9-9c1.94,0,3.73,0.62,5.21,1.67l3.07-3.07
	C29.85,12.63,27.09,12,24,12C12.02,12,5.04,21.29,3.27,24C4.39,25.71,7.64,30.04,12.87,33L12.87,33z M18.85,27.03l8.18-8.18
	C26.14,18.32,25.11,18,24,18c-3.31,0-6,2.69-6,6C18,25.11,18.32,26.14,18.85,27.03L18.85,27.03z"/>
</svg>
