<?xml version="1.0" encoding="utf-8"?>
<!-- Generator: Adobe Illustrator 25.0.0, SVG Export Plug-In . SVG Version: 6.00 Build 0)  -->
<svg version="1.1" id="settings" xmlns="http://www.w3.org/2000/svg" xmlns:xlink="http://www.w3.org/1999/xlink" x="0px" y="0px"
	 viewBox="0 0 48 48" style="enable-background:new 0 0 48 48;" xml:space="preserve">
<style type="text/css">
	.st0{fill-rule:evenodd;clip-rule:evenodd;}
</style>
<g id="Layer_2_1_">
	<g id="Color">
		<path id="_10.Linkedin" d="M24,0C10.75,0,0,10.75,0,24s10.75,24,24,24s24-10.75,24-24S37.25,0,24,0z M17.02,36.63h-5.24V19.77
			h5.24V36.63z M14.4,17.46c-1.68,0.01-3.05-1.35-3.06-3.03s1.35-3.05,3.03-3.06c1.68-0.01,3.05,1.35,3.06,3.03
			C17.44,16.08,16.08,17.45,14.4,17.46z M36.63,36.63H31.4v-8.21c0-1.96-0.04-4.47-2.72-4.47s-3.16,2.13-3.16,4.33v8.35h-5.21V19.77
			h5.02v2.3h0.07c0.7-1.33,2.41-2.73,4.95-2.73c5.3,0,6.27,3.49,6.27,8.03V36.63z"/>
	</g>
</g>
</svg>
