<?xml version="1.0" encoding="utf-8"?>
<!-- Generator: Adobe Illustrator 25.0.0, SVG Export Plug-In . SVG Version: 6.00 Build 0)  -->
<svg version="1.1" id="settings" xmlns="http://www.w3.org/2000/svg" xmlns:xlink="http://www.w3.org/1999/xlink" x="0px" y="0px"
	 viewBox="0 0 48 48" style="enable-background:new 0 0 48 48;" xml:space="preserve">
<style type="text/css">
	.st0{fill-rule:evenodd;clip-rule:evenodd;}
</style>
<g>
	<path d="M24,38.39c-1.23,0-2.46-0.12-3.67-0.34c-0.78-0.12-1.35-0.79-1.35-1.58c0.02-0.9,0.76-1.61,1.65-1.6
		c0.08,0,0.17,0.01,0.25,0.02c1.03,0.19,2.07,0.29,3.12,0.29c9.48,0,17.71-8.3,20.3-11.2c-1.73-1.93-3.62-3.7-5.66-5.29
		c-0.7-0.54-0.83-1.55-0.29-2.25c0.54-0.7,1.55-0.83,2.25-0.29c2.6,2.01,4.98,4.3,7.07,6.84c0.45,0.58,0.45,1.39,0,1.97
		C47.23,25.52,37,38.39,24,38.39z"/>
	<path d="M41.13,6.86c-0.62-0.62-1.64-0.62-2.26,0l-5.09,5.09c-1.93-0.93-3.96-1.6-6.06-2.01C26.49,9.71,25.25,9.59,24,9.59
		C11,9.59,0.77,22.46,0.34,23c-0.45,0.58-0.45,1.39,0,1.97c2.09,2.54,4.46,4.83,7.06,6.83c1.23,0.96,2.52,1.85,3.86,2.66l-4.39,4.39
		c-0.64,0.61-0.65,1.63-0.04,2.26c0.61,0.64,1.63,0.65,2.26,0.04c0.01-0.01,0.03-0.03,0.04-0.04l32-32
		C41.75,8.5,41.75,7.48,41.13,6.86z M9.36,29.28c-2.04-1.59-3.94-3.36-5.66-5.29c2.59-2.9,10.82-11.2,20.3-11.2
		c1.05,0,2.1,0.1,3.14,0.29c1.45,0.28,2.86,0.7,4.22,1.28l-2.95,2.95c-3.69-2.44-8.65-1.42-11.08,2.26c-1.77,2.67-1.77,6.15,0,8.82
		l-3.73,3.73C12.12,31.29,10.7,30.34,9.36,29.28z M19.68,26.04c-0.31-0.64-0.48-1.34-0.48-2.05c0-1.27,0.5-2.49,1.4-3.39
		c1.46-1.39,3.61-1.75,5.44-0.91L19.68,26.04z"/>
</g>
</svg>
