<?xml version="1.0" encoding="utf-8"?>
<!-- Generator: Adobe Illustrator 25.0.0, SVG Export Plug-In . SVG Version: 6.00 Build 0)  -->
<svg version="1.1" id="settings" xmlns="http://www.w3.org/2000/svg" xmlns:xlink="http://www.w3.org/1999/xlink" x="0px" y="0px"
	 viewBox="0 0 48 48" style="enable-background:new 0 0 48 48;" xml:space="preserve">
<g>
	<path d="M33.23,10.92h-0.77v-10c0-0.43-0.34-0.77-0.77-0.77H16.31c-0.42,0-0.77,0.34-0.77,0.77v10h-0.77
		c-0.42,0-0.77,0.34-0.77,0.77v13.85c0,2.12,1.73,3.85,3.85,3.85h0.77v3.08c0,1.27,1.04,2.31,2.31,2.31h0.77v13.08h1.54V34.77h1.54
		v13.08h1.54V34.77h0.77c1.27,0,2.31-1.04,2.31-2.31v-3.08h0.77c2.12,0,3.85-1.73,3.85-3.85V11.69C34,11.27,33.66,10.92,33.23,10.92
		z M17.08,1.69h13.85v9.23H17.08V1.69z M27.85,32.46c0,0.42-0.35,0.77-0.77,0.77h-6.15c-0.42,0-0.77-0.34-0.77-0.77v-3.08h7.69
		V32.46z M32.46,25.54c0,1.27-1.04,2.31-2.31,2.31H17.85c-1.27,0-2.31-1.04-2.31-2.31V12.46h16.92V25.54z"/>
	<path d="M21.69,4h-3.08c-0.42,0-0.77,0.34-0.77,0.77v2.31c0,0.43,0.34,0.77,0.77,0.77h3.08c0.42,0,0.77-0.34,0.77-0.77V4.77
		C22.46,4.34,22.12,4,21.69,4z M20.92,6.31h-1.54V5.54h1.54V6.31z"/>
	<path d="M29.38,4h-3.08c-0.42,0-0.77,0.34-0.77,0.77v2.31c0,0.43,0.34,0.77,0.77,0.77h3.08c0.42,0,0.77-0.34,0.77-0.77V4.77
		C30.15,4.34,29.81,4,29.38,4z M28.62,6.31h-1.54V5.54h1.54V6.31z"/>
	<path d="M19.76,21.58l3.47,2.08v2.64h1.54v-4.95l3.47-2.08c0.23-0.14,0.37-0.39,0.37-0.66V14h-1.54v4.18l-2.31,1.38V14h-1.54v7.87
		l-2.31-1.38v-4.18h-1.54v4.62C19.38,21.19,19.53,21.44,19.76,21.58L19.76,21.58z"/>
</g>
</svg>
