<?xml version="1.0" encoding="utf-8"?>
<!-- Generator: Adobe Illustrator 25.0.0, SVG Export Plug-In . SVG Version: 6.00 Build 0)  -->
<svg version="1.1" id="settings" xmlns="http://www.w3.org/2000/svg" xmlns:xlink="http://www.w3.org/1999/xlink" x="0px" y="0px"
	 viewBox="0 0 48 48" style="enable-background:new 0 0 48 48;" xml:space="preserve">
<style type="text/css">
	.st0{fill-rule:evenodd;clip-rule:evenodd;}
</style>
<g>
	<path class="st0" d="M14.85,46.44c0.79,0.63,1.95,0.07,1.95-0.94V31.3c0-1.01-1.16-1.57-1.95-0.94l-8.88,7.1
		c-0.6,0.48-0.6,1.39,0,1.87L14.85,46.44z"/>
	<path class="st0" d="M33.15,1.56C32.36,0.93,31.2,1.49,31.2,2.5V16.7c0,1.01,1.16,1.57,1.95,0.94l8.88-7.1
		c0.6-0.48,0.6-1.39,0-1.87L33.15,1.56z"/>
	<path class="st0" d="M38.4,9.6c0-1.33-1.07-2.4-2.4-2.4H14.4C6.45,7.2,0,13.65,0,21.6c0,2.09,0.45,4.09,1.26,5.89
		c0.54,1.21,1.96,1.75,3.17,1.21c1.21-0.54,1.75-1.96,1.21-3.17C5.1,24.33,4.8,23,4.8,21.6c0-5.3,4.3-9.6,9.6-9.6H36
		C37.33,12,38.4,10.93,38.4,9.6z"/>
	<path class="st0" d="M9.6,38.4c0,1.33,1.07,2.4,2.4,2.4h21.6c7.95,0,14.4-6.45,14.4-14.4c0-2.09-0.45-4.09-1.26-5.89
		c-0.54-1.21-1.96-1.75-3.17-1.21c-1.21,0.54-1.75,1.96-1.21,3.17C42.9,23.67,43.2,25,43.2,26.4c0,5.3-4.3,9.6-9.6,9.6H12
		C10.67,36,9.6,37.07,9.6,38.4z"/>
</g>
</svg>
