<?xml version="1.0" encoding="utf-8"?>
<!-- Generator: Adobe Illustrator 25.0.0, SVG Export Plug-In . SVG Version: 6.00 Build 0)  -->
<svg version="1.1" id="settings" xmlns="http://www.w3.org/2000/svg" xmlns:xlink="http://www.w3.org/1999/xlink" x="0px" y="0px"
	 viewBox="0 0 48 48" style="enable-background:new 0 0 48 48;" xml:space="preserve">
<style type="text/css">
	.st0{fill-rule:evenodd;clip-rule:evenodd;}
</style>
<g>
	<g>
		<path d="M24,0.5C10.75,0.5,0,11.29,0,24.6c0,10.64,6.88,19.67,16.42,22.86c1.2,0.22,1.64-0.52,1.64-1.16
			c0-0.57-0.02-2.09-0.03-4.1c-6.67,1.45-8.09-3.23-8.09-3.23c-1.09-2.78-2.66-3.53-2.66-3.53c-2.18-1.49,0.16-1.46,0.16-1.46
			c2.41,0.17,3.68,2.48,3.68,2.48c2.14,3.68,5.62,2.62,6.99,2c0.22-1.56,0.84-2.62,1.52-3.22c-5.33-0.61-10.93-2.68-10.93-11.91
			c0-2.63,0.94-4.78,2.47-6.47c-0.25-0.61-1.07-3.06,0.23-6.38c0,0,2.02-0.65,6.6,2.47c1.91-0.53,3.97-0.8,6.01-0.81
			c2.04,0.01,4.09,0.28,6.01,0.81c4.58-3.12,6.59-2.47,6.59-2.47c1.31,3.32,0.49,5.77,0.24,6.38c1.54,1.69,2.47,3.84,2.47,6.47
			c0,9.25-5.61,11.29-10.96,11.89c0.86,0.74,1.63,2.21,1.63,4.46c0,3.22-0.03,5.82-0.03,6.61c0,0.65,0.43,1.4,1.65,1.16
			C41.13,44.26,48,35.24,48,24.6C48,11.29,37.25,0.5,24,0.5z"/>
	</g>
</g>
</svg>
