<?xml version="1.0" encoding="utf-8"?>
<!-- Generator: Adobe Illustrator 25.0.0, SVG Export Plug-In . SVG Version: 6.00 Build 0)  -->
<svg version="1.1" xmlns="http://www.w3.org/2000/svg" xmlns:xlink="http://www.w3.org/1999/xlink" x="0px" y="0px"
	 viewBox="0 0 48 48" style="enable-background:new 0 0 48 48;" xml:space="preserve">
<style type="text/css">
	.st0{fill:#F5DAA7;}
	.st1{fill:#EDC472;}
	.st2{fill:#BC9B5B;}
	.st3{fill:#9A6A53;}
	.st4{fill:#855B47;}
	.st5{fill:#F4E2C1;}
	.st6{fill:#F7F7F7;}
	.st7{fill:#C8C3CA;}
	.st8{fill:#B78C7A;}
	.st9{fill:#7A5341;}
	.st10{fill:#704C3B;}
	.st11{fill:#CF9875;}
	.st12{fill:#C7865B;}
	.st13{clip-path:url(#SVGID_3_);}
	.st14{clip-path:url(#SVGID_4_);fill:#FFFFFF;stroke:#231F20;stroke-miterlimit:10;}
	.st15{fill:#FFFFFF;stroke:#231F20;stroke-miterlimit:10;}
	.st16{fill:none;stroke:#000000;stroke-width:4.5;stroke-miterlimit:10;}
	.st17{fill:#463C4B;}
	.st18{fill:#555A6E;}
	.st19{fill:#F06423;}
	.st20{fill:#FAA51E;}
	.st21{fill:#D7E6F0;}
	.st22{fill:#DADADA;}
	.st23{fill:#C4C6C6;}
	.st24{fill:#EDEEEF;}
	.st25{fill:#797981;}
	.st26{fill:#5A5A63;}
	.st27{fill:#494951;}
	.st28{fill:#29BAED;}
	.st29{fill:#DD9554;}
	.st30{fill:#CC8244;}
	.st31{fill:#805333;}
	.st32{fill:#A56A43;}
	.st33{fill:#CB8252;}
	.st34{fill:#ECF0F1;}
	.st35{fill:#603E26;}
	.st36{fill:#F9EAB0;}
	.st37{fill:#F5EFCA;}
	.st38{fill:#464F5D;}
	.st39{fill:#F3D55B;}
	.st40{fill:#6F6571;}
	.st41{fill:#4B3F4E;}
	.st42{fill:#5D5360;}
	.st43{fill:#857E87;}
	.st44{fill:#ECEAEC;}
	.st45{fill:#DAD8DB;}
	.st46{fill:#B3E59F;}
	.st47{fill:#CCF49F;}
	.st48{fill:#792A47;}
	.st49{fill:#A62B38;}
	.st50{fill:#D22D28;}
	.st51{fill:#FF2F19;}
	.st52{fill:#FFFFFF;}
	.st53{fill:#202666;}
	.st54{fill:#FDE6BB;}
	.st55{fill:#FE501F;}
	.st56{fill:#FD7226;}
	.st57{fill:#FCCD76;}
	.st58{fill:#FB932C;}
	.st59{fill:#4D2857;}
	.st60{fill:#B19046;}
	.st61{fill:#F0C419;}
	.st62{fill:#24AE5F;}
	.st63{fill:#E64C3C;}
	.st64{fill:#3B97D3;}
	.st65{fill:#E74444;}
	.st66{fill:#CE3536;}
	.st67{fill:#D9DBDD;}
	.st68{fill:#E8EDF1;}
	.st69{fill:#F3DB70;}
	.st70{fill:#D5DAF3;}
	.st71{fill:#A2AEE6;}
	.st72{fill:#FFC344;}
	.st73{fill:#FFE177;}
	.st74{fill:#BEC6ED;}
	.st75{fill:#8795DE;}
	.st76{fill-rule:evenodd;clip-rule:evenodd;fill:#A46A5A;}
	.st77{fill-rule:evenodd;clip-rule:evenodd;fill:#845252;}
	.st78{fill-rule:evenodd;clip-rule:evenodd;fill:#FFD05B;}
	.st79{fill-rule:evenodd;clip-rule:evenodd;fill:#704242;}
	.st80{fill-rule:evenodd;clip-rule:evenodd;fill:#FFC244;}
	.st81{fill-rule:evenodd;clip-rule:evenodd;fill:#596C76;}
	.st82{fill-rule:evenodd;clip-rule:evenodd;fill:#465A61;}
	.st83{fill:#A46A5A;}
	.st84{fill:#607D8B;}
	.st85{fill:#9C27B0;}
	.st86{fill:#03A9F4;}
	.st87{fill:#8BC34A;}
	.st88{fill:#FFC107;}
	.st89{fill:#FF9800;}
	.st90{fill:#F44336;}
	.st91{fill:#D7CCC8;}
	.st92{fill:#F57C00;}
	.st93{fill:#F9BB4B;}
	.st94{fill:#FCF05A;}
	.st95{fill:#66342E;}
	.st96{fill:#D3843D;}
	.st97{fill:#704C55;}
	.st98{fill:#5A344B;}
	.st99{fill:#E63950;}
	.st100{fill:#EFE2DD;}
	.st101{fill:#FF435B;}
	.st102{fill:#FFF5F5;}
	.st103{fill:#9B786F;}
	.st104{fill:#925CB4;}
	.st105{fill:#814BA2;}
	.st106{fill:#6F3F8A;}
	.st107{fill:#FFD185;}
	.st108{fill:#FFBA48;}
	.st109{fill:#FF5A35;}
	.st110{fill:#FF7A3C;}
	.st111{fill:#FFE8C2;}
	.st112{fill:#4F4F4F;}
	.st113{fill:#FF3A2F;}
	.st114{fill:#353535;}
	.st115{fill:#FB4A59;}
	.st116{fill:#F82F40;}
	.st117{fill:#3F5959;}
	.st118{fill:#384848;}
	.st119{fill:#EFF5F6;}
	.st120{fill:#CBE5E7;}
	.st121{fill:#FCC16D;}
	.st122{fill:#FCB44D;}
	.st123{fill:#A66856;}
	.st124{fill:#735458;}
	.st125{fill:#FFDEA9;}
	.st126{fill:#5C4346;}
	.st127{fill:#8F5040;}
	.st128{fill:#595959;}
	.st129{fill:#7F221C;}
	.st130{fill:#913122;}
	.st131{fill:#FFEFB0;}
	.st132{fill:#DB2116;}
	.st133{fill:#883F2E;}
	.st134{fill:#A44F3E;}
	.st135{fill:#D8AA5E;}
	.st136{fill:#E9B665;}
	.st137{fill:#E19974;}
	.st138{fill:#FFEFD2;}
	.st139{fill:#D7D0D6;}
	.st140{fill:#E8AD8C;}
	.st141{fill:#6D3326;}
	.st142{fill:#BA5D4F;}
	.st143{fill:#F5A871;}
	.st144{fill:#E89A5E;}
	.st145{fill:#A34F41;}
	.st146{fill:#D68A5A;}
	.st147{fill:#FFE5C4;}
	.st148{fill:#FDD1A7;}
	.st149{fill:#873F30;}
	.st150{fill:#C86F5C;}
	.st151{fill:#6C3328;}
	.st152{fill:#54231D;}
	.st153{fill:#B5B1B3;}
	.st154{fill:#FEC93E;}
	.st155{fill:#EFB533;}
	.st156{fill:#F7A738;}
	.st157{fill:#EA952F;}
	.st158{fill:#FD6E2E;}
	.st159{fill:#EA551B;}
	.st160{fill:#F5A257;}
	.st161{fill:#DB8F52;}
	.st162{fill:#75360D;}
	.st163{fill:#FFBF7B;}
	.st164{fill:#00CCB2;}
	.st165{fill:#00AB94;}
	.st166{fill:#FEA832;}
	.st167{fill:#FF8700;}
	.st168{fill:#00EED0;}
	.st169{fill:#FFD400;}
	.st170{fill:#FDBF00;}
	.st171{fill:#08B865;}
	.st172{fill:#E41F2D;}
	.st173{fill:#FD4755;}
	.st174{fill:#FB2B3A;}
	.st175{fill:#FED2A4;}
	.st176{fill:#FFE5C2;}
	.st177{fill:#FFBD86;}
	.st178{fill:#FE99A0;}
	.st179{fill:#FD8087;}
	.st180{fill:#C57A44;}
	.st181{fill:#09A755;}
	.st182{fill:#FEDF30;}
	.st183{fill:#FED402;}
	.st184{fill:#FAC600;}
	.st185{fill:#46CC8D;}
	.st186{fill:#00C27A;}
	.st187{fill:#FE7701;}
	.st188{fill:#FE860A;}
	.st189{fill:#C41926;}
	.st190{fill:#E89C5D;}
	.st191{fill:#F4B37D;}
	.st192{fill:#E8626C;}
	.st193{fill:#40C6C2;}
	.st194{fill:#FFC999;}
	.st195{fill:#4A4A68;}
	.st196{fill:#333356;}
	.st197{fill:#EDEDED;}
	.st198{fill:#C9C9C9;}
	.st199{fill:#FF9900;}
	.st200{fill:#FFCE00;}
	.st201{fill:#FBBD00;}
	.st202{fill:#ED8100;}
	.st203{fill:#FFE431;}
	.st204{fill:#FF9F00;}
	.st205{fill:#FFE666;}
	.st206{fill:#FFBF00;}
	.st207{fill:#FCCD31;}
	.st208{fill:#F2B016;}
	.st209{fill:#4A4D4F;}
	.st210{fill:#D3CBC2;}
	.st211{fill:#6D7072;}
	.st212{fill:#BAAFA6;}
	.st213{fill:#888C8E;}
	.st214{fill:#B4B4B4;}
	.st215{fill:#FFE999;}
	.st216{fill:#FFCF3B;}
	.st217{fill:#C1C1C1;}
	.st218{fill:#FFBC19;}
	.st219{fill:#94E6FF;}
	.st220{fill:#315F83;}
	.st221{fill:#267EA8;}
	.st222{fill:#3B3F5F;}
	.st223{fill:#D8F2FB;}
	.st224{fill:#35495E;}
	.st225{fill:#556080;}
	.st226{fill:#E4C05C;}
	.st227{fill:#E4C05C;stroke:#E4C05C;stroke-width:2;stroke-linecap:round;stroke-linejoin:round;stroke-miterlimit:10;}
	.st228{fill:#B57F5F;}
	.st229{fill:#966A5B;}
	.st230{fill:#FFD15B;}
	.st231{fill:#A5C3DC;}
	.st232{fill:#8697CB;}
	.st233{fill:#E0E0E0;}
	.st234{fill:#CCCCCC;}
	.st235{fill:#8E8E8E;}
	.st236{fill:#A0A0A0;}
	.st237{fill:#E13732;}
	.st238{fill:#F05055;}
	.st239{fill:#D24605;}
	.st240{fill:#FFCE53;}
	.st241{fill:#FFB833;}
	.st242{fill:#4999D1;}
	.st243{fill:#43AAF0;}
	.st244{fill:#FF2E23;}
	.st245{fill:#FF4A26;}
	.st246{fill:#C6805D;}
	.st247{fill:#77CC7D;}
	.st248{fill:#52BD7E;}
	.st249{fill:#98DB7C;}
	.st250{fill:#D48C64;}
	.st251{fill:#FFD18D;}
	.st252{fill:#FBBD80;}
	.st253{fill:#F3B573;}
	.st254{fill:#434A54;}
	.st255{fill:#DA4453;}
	.st256{fill:#FFCE54;}
	.st257{fill:#ED5564;}
	.st258{fill-rule:evenodd;clip-rule:evenodd;fill:#4BC3EF;}
	.st259{fill-rule:evenodd;clip-rule:evenodd;fill:#1BADDE;}
	.st260{fill-rule:evenodd;clip-rule:evenodd;fill:#DBD8DB;}
	.st261{fill-rule:evenodd;clip-rule:evenodd;fill:#C9BFC8;}
	.st262{fill:#421815;}
	.st263{fill:#FCB982;}
	.st264{fill:#FDDBBF;}
	.st265{fill:#FCCA9F;}
	.st266{fill:#C6865C;}
	.st267{fill:#B16E3D;}
	.st268{fill:#454545;}
	.st269{fill:#EFECEF;}
	.st270{fill:#E2DFE2;}
	.st271{fill:#3F3736;}
	.st272{fill:#C4755B;}
	.st273{fill:#FFE3A1;}
	.st274{fill-rule:evenodd;clip-rule:evenodd;fill:#D48C64;}
	.st275{fill:#DBD8DB;}
	.st276{fill:#BB5D4C;}
	.st277{fill:#465A61;}
	.st278{fill:#596C76;}
	.st279{fill:#E5E1E5;}
	.st280{fill:#7A8C98;}
	.st281{fill:#FEDBA6;}
	.st282{fill:#EAB14D;}
	.st283{fill:#617881;}
	.st284{fill:#E28086;}
	.st285{fill:#DD636E;}
	.st286{fill:#FFE07D;}
	.st287{fill:#ECBE6B;}
	.st288{fill:#E9EDF5;}
	.st289{fill:#CDD2E1;}
	.st290{fill:#FFAA00;}
	.st291{fill:#FF9500;}
	.st292{fill:#555A65;}
	.st293{fill:#333940;}
	.st294{fill:#E6A373;}
	.st295{fill:#CC8552;}
	.st296{fill:#FFDF40;}
	.st297{fill:#FFBE40;}
	.st298{fill:#FF9F40;}
	.st299{fill:#F77E00;}
	.st300{fill:#FFF04A;}
	.st301{fill:#00DDC1;}
	.st302{fill:#A24603;}
	.st303{fill:#F2D813;}
	.st304{fill:#803602;}
	.st305{fill:#3A3A3A;}
	.st306{fill:#AFAFAF;}
	.st307{fill:#686868;}
	.st308{fill:#925A15;}
	.st309{fill:#F3F2F6;}
	.st310{fill:#BF7D5A;}
	.st311{fill:#AA6256;}
	.st312{fill:#894E46;}
	.st313{fill:#DBA660;}
	.st314{fill:#E49542;}
	.st315{fill:#F9EFDA;}
	.st316{fill:#756E78;}
	.st317{fill:#665E66;}
	.st318{fill:#F9F6F9;}
	.st319{fill:#BC6C59;}
	.st320{fill:#994B39;}
	.st321{fill:#FEEC96;}
	.st322{fill:#F5DB64;}
	.st323{fill:#5D5E69;}
	.st324{fill:#FFE09F;}
	.st325{fill:#ECBD83;}
	.st326{fill:#F6D190;}
	.st327{fill:#FF8086;}
	.st328{fill:#E5646E;}
	.st329{fill:#357DA3;}
	.st330{fill:#F48A3B;}
	.st331{fill:#FFC233;}
	.st332{fill:#CDDEE0;}
	.st333{fill:#C8C5C9;}
	.st334{fill:#785353;}
	.st335{fill:#6E4848;}
	.st336{fill:#B7E4F8;}
	.st337{fill:#93D6F4;}
	.st338{fill:#DBF1FB;}
	.st339{fill:#8DCAFC;}
	.st340{fill:#64B9FC;}
	.st341{fill:#C4E1FF;}
	.st342{fill:#B5DBFD;}
	.st343{fill:#FEE7C9;}
	.st344{fill:#FFD496;}
	.st345{fill:#A3E440;}
	.st346{fill:#99D53B;}
	.st347{fill:#BCEA73;}
	.st348{fill:#C76D3D;}
	.st349{fill:#AA5E33;}
	.st350{fill:#D67F4F;}
	.st351{fill:#8DC637;}
	.st352{fill:#A79BA7;}
	.st353{fill:#7A6D79;}
	.st354{fill:#C4E2FF;}
	.st355{fill:#60B7FF;}
	.st356{fill:#B3DAFE;}
	.st357{fill:#F3F0F3;}
	.st358{fill:#EFEDEF;}
	.st359{fill:#CBC4CC;}
	.st360{fill:#26A6FE;}
	.st361{fill:#D2555A;}
	.st362{fill:#FF6464;}
	.st363{fill:#D7DEED;}
	.st364{fill:#B8BFD4;}
	.st365{fill:#959CB3;}
	.st366{fill:#F8C460;}
	.st367{fill:#FAAF42;}
	.st368{fill:#7A838B;}
	.st369{fill:#5D6972;}
	.st370{fill:#A7D0E1;}
	.st371{fill:#80BBCE;}
	.st372{fill:#FFD8CA;}
	.st373{fill:#FFBFAE;}
	.st374{fill:#FFE5D8;}
	.st375{fill:#E5EEF9;}
	.st376{fill:#56595E;}
	.st377{fill:#7F8284;}
	.st378{fill:#A5A5A4;}
	.st379{fill:#95A5A5;}
	.st380{fill:#BDC3C7;}
	.st381{fill:#7F8C8D;}
</style>
<g id="Acoustic_Grand_Keyboard">
	<g id="Page-1">
		<g id="_x30_60---Revolvers" transform="translate(-1)">
			<path id="Shape" class="st376" d="M33.83,35.64c-0.52,0-1.02-0.17-1.43-0.48l-1.55-1.15c-0.79-0.58-1.14-1.59-0.89-2.54
				l1.54-5.79c0.12-0.42,0.55-0.67,0.98-0.56c0.42,0.11,0.68,0.55,0.57,0.97l-1.54,5.79c-0.09,0.32,0.03,0.65,0.3,0.85l1.55,1.15
				c0.24,0.18,0.57,0.21,0.84,0.07l3.91-1.97c0.26-0.14,0.57-0.13,0.81,0.03c0.25,0.16,0.39,0.44,0.37,0.73
				c-0.02,0.29-0.2,0.55-0.46,0.67l-3.91,1.97C34.58,35.55,34.21,35.64,33.83,35.64z"/>
			<path id="Shape_72_" class="st376" d="M16.17,35.64c-0.38,0-0.75-0.09-1.08-0.26l-3.91-1.97c-0.26-0.12-0.44-0.38-0.46-0.67
				s0.12-0.57,0.37-0.73c0.25-0.16,0.56-0.17,0.81-0.03l3.91,1.97c0.27,0.14,0.6,0.11,0.84-0.07l1.55-1.15
				c0.26-0.19,0.38-0.53,0.3-0.85l-1.6-6.01c-0.11-0.43,0.14-0.87,0.57-0.98c0.43-0.11,0.87,0.14,0.98,0.57l1.6,6.01
				c0.26,0.95-0.1,1.96-0.89,2.54l-1.55,1.15C17.19,35.47,16.69,35.63,16.17,35.64L16.17,35.64z"/>
			<path id="Shape_71_" class="st377" d="M45.01,26.55c-0.85-0.05-1.66-0.32-2.37-0.78c-0.38-0.22-0.51-0.71-0.29-1.09
				s0.71-0.51,1.09-0.29c0.93,0.53,1.69,0.71,1.89,0.45c0.37-0.53,0.94-0.88,1.57-0.97c0.64-0.09,1.28,0.08,1.79,0.48
				c0.35,0.27,0.43,0.77,0.16,1.12s-0.77,0.43-1.12,0.16c-0.16-0.15-0.38-0.22-0.6-0.18c-0.22,0.03-0.41,0.16-0.52,0.35
				C46.23,26.28,45.63,26.57,45.01,26.55L45.01,26.55z"/>
			<path id="Shape_70_" class="st377" d="M4.99,26.55c-0.62,0.02-1.22-0.26-1.59-0.76c-0.11-0.19-0.31-0.32-0.53-0.35
				c-0.22-0.03-0.44,0.04-0.6,0.19c-0.35,0.26-0.86,0.19-1.12-0.17c-0.26-0.35-0.19-0.86,0.17-1.12c0.5-0.4,1.15-0.57,1.79-0.48
				c0.64,0.09,1.21,0.44,1.57,0.97c0.2,0.27,0.96,0.08,1.89-0.45c0.38-0.22,0.87-0.09,1.09,0.29s0.09,0.87-0.29,1.09
				C6.66,26.23,5.84,26.5,4.99,26.55z"/>
			<path id="Shape_69_" class="st376" d="M18.05,3.33c-0.3,0-0.58-0.17-0.72-0.44c-0.14-0.27-0.11-0.6,0.08-0.84l0.96-1.28
				c0.17-0.23,0.45-0.35,0.74-0.31s0.53,0.22,0.64,0.48c0.11,0.26,0.08,0.57-0.1,0.79L18.68,3C18.53,3.2,18.3,3.32,18.05,3.33
				L18.05,3.33z"/>
			<path id="Shape_68_" class="st376" d="M31.95,3.33c-0.25,0-0.49-0.12-0.64-0.32l-0.96-1.28c-0.27-0.35-0.19-0.86,0.16-1.12
				s0.86-0.19,1.12,0.16l0.96,1.28c0.18,0.24,0.21,0.57,0.08,0.84C32.53,3.15,32.26,3.32,31.95,3.33L31.95,3.33z"/>
			<path id="Shape_67_" class="st378" d="M33.44,13.99l-2.38,3.21l-3.35-2.5l3.36-2.48L33.44,13.99z"/>
			<path id="Shape_66_" class="st378" d="M25,7.7l-3.34,2.5L16.2,6.13l-1.82-1.36c-0.17-0.13-0.28-0.32-0.32-0.53
				s0.02-0.42,0.15-0.59l1.43-1.92c0.13-0.17,0.32-0.28,0.53-0.32c0.21-0.03,0.42,0.02,0.59,0.15L25,7.7z"/>
			<path id="Shape_65_" class="st379" d="M36.01,15.9l-4.78,6.42l-0.64-0.48l-1.29-0.95c-0.35-0.27-0.43-0.77-0.16-1.12l1.91-2.57
				l2.38-3.21L36.01,15.9z"/>
			<path id="Shape_64_" class="st380" d="M41.14,19.72l-4.78,6.42l-5.13-3.82l0.95-1.28l0.96-1.29l0.95-1.28l0.95-1.28h0.01
				l0.95-1.29L41.14,19.72z"/>
			<path id="Shape_63_" class="st379" d="M43.39,23.41c0,0.86-0.28,1.7-0.79,2.38c-0.34,0.45-0.77,0.83-1.26,1.11
				c-1.37,0.77-3.07,0.65-4.33-0.29l-0.65-0.48l4.78-6.42l0.64,0.48C42.79,20.96,43.39,22.15,43.39,23.41L43.39,23.41z"/>
			<path id="Shape_62_" class="st377" d="M38.42,20.69c-0.15,0.21-0.39,0.33-0.64,0.32c-0.17,0-0.34-0.05-0.48-0.15l-3.21-2.39
				l0.95-1.28h0.01l3.21,2.38c0.17,0.13,0.28,0.32,0.31,0.53C38.6,20.31,38.55,20.52,38.42,20.69L38.42,20.69z"/>
			<path id="Shape_61_" class="st377" d="M36.51,23.26c-0.15,0.2-0.39,0.32-0.64,0.32c-0.17,0-0.34-0.05-0.48-0.16l-3.21-2.38
				l0.96-1.29l3.21,2.39c0.17,0.13,0.28,0.32,0.31,0.53C36.69,22.88,36.64,23.09,36.51,23.26L36.51,23.26z"/>
			<path id="Shape_60_" class="st381" d="M41.85,31.11c-0.25-0.19-0.52-0.39-0.81-0.58c-0.36-0.24-0.84-0.16-1.1,0.18l-1.99,2.66
				c-0.2,0.26-0.2,0.62-0.02,0.9l-0.01,0.01l-1.05-0.78l-0.23-1.58c-0.06-0.42-0.29-0.8-0.63-1.06l-5.88-4.38
				c-0.51-0.38-0.85-0.95-0.95-1.58c-0.09-0.63,0.07-1.27,0.45-1.78l0.96-1.29l0.64,0.48l5.13,3.82l0.65,0.48
				c1.26,0.94,2.95,1.05,4.33,0.29C42.44,28.03,42.65,29.76,41.85,31.11L41.85,31.11z"/>
			<path id="Shape_59_" class="st32" d="M44.79,39.6l-1.69,6.74c-0.13,0.52-0.51,0.94-1.02,1.12c-0.51,0.18-1.07,0.1-1.5-0.23
				l-4.26-3.17c-0.38-0.28-0.61-0.72-0.64-1.18c-0.03-0.47,0.15-0.93,0.49-1.25l1.56-1.5c0.71-0.65,1.19-1.52,1.38-2.46
				c0.24-1.19-0.17-2.42-1.07-3.24c-0.05-0.05-0.09-0.1-0.12-0.15c-0.18-0.27-0.17-0.63,0.02-0.9l1.99-2.66
				c0.26-0.34,0.74-0.42,1.1-0.18c0.29,0.19,0.56,0.39,0.81,0.58c1.44,1.12,2.48,2.67,2.97,4.43C45.15,36.88,45.15,38.27,44.79,39.6
				L44.79,39.6z"/>
			<circle id="Oval" class="st35" cx="41.8" cy="39.56" r="0.8"/>
			<path id="Shape_58_" class="st377" d="M21.66,10.2l-2.72,2.02l-2.41-1.78c-0.2-0.15-0.33-0.39-0.33-0.64V6.13L21.66,10.2z"/>
			<path id="Shape_50_" class="st377" d="M35.62,4.77L33.8,6.13L18.95,17.2l-2.38-3.21l2.38-1.77l2.72-2.02L25,7.7l8.24-6.14
				c0.17-0.13,0.38-0.18,0.59-0.15c0.21,0.03,0.4,0.15,0.53,0.32l1.43,1.92c0.13,0.17,0.18,0.38,0.15,0.59
				C35.91,4.46,35.79,4.65,35.62,4.77L35.62,4.77z"/>
			<path id="Shape_49_" class="st379" d="M20.7,20.88l-1.29,0.95l-0.64,0.48l-4.78-6.42l2.57-1.91l2.38,3.21l1.91,2.57
				C21.12,20.12,21.05,20.62,20.7,20.88L20.7,20.88z"/>
			<path id="Shape_8_" class="st380" d="M18.77,22.32l-5.13,3.82l-4.78-6.42l5.14-3.82l0.95,1.29h0.01l0.95,1.28l0.95,1.28
				l0.96,1.29L18.77,22.32z"/>
			<path id="Shape_7_" class="st379" d="M13.64,26.14l-0.65,0.48c-1.26,0.94-2.95,1.05-4.33,0.29c-0.49-0.28-0.92-0.66-1.26-1.11
				c-0.52-0.69-0.79-1.52-0.79-2.38c0-1.26,0.6-2.45,1.61-3.21l0.64-0.48L13.64,26.14z"/>
			<path id="Shape_6_" class="st377" d="M15.91,18.47l-3.21,2.39c-0.14,0.1-0.31,0.15-0.48,0.15c-0.25,0.01-0.49-0.11-0.64-0.32
				c-0.27-0.35-0.19-0.85,0.16-1.12l3.21-2.38h0.01L15.91,18.47z"/>
			<path id="Shape_5_" class="st377" d="M17.82,21.04l-3.21,2.38c-0.14,0.11-0.31,0.16-0.48,0.16c-0.25,0-0.49-0.12-0.64-0.32
				c-0.27-0.35-0.19-0.85,0.16-1.12l3.21-2.39L17.82,21.04z"/>
			<path id="Shape_4_" class="st381" d="M19.87,26.48l-5.88,4.38c-0.34,0.25-0.57,0.63-0.63,1.06l-0.23,1.58l-1.05,0.78l-0.01-0.01
				c0.18-0.27,0.17-0.63-0.02-0.9l-1.99-2.66c-0.26-0.34-0.74-0.42-1.1-0.18c-0.29,0.19-0.56,0.39-0.81,0.58
				c-0.8-1.36-0.59-3.08,0.51-4.21c1.37,0.77,3.07,0.65,4.33-0.29l0.65-0.48l5.13-3.82l0.64-0.48l0.96,1.29
				c0.38,0.51,0.54,1.15,0.45,1.78C20.73,25.54,20.39,26.1,19.87,26.48z"/>
			<path id="Shape_3_" class="st32" d="M13.67,44.07l-4.26,3.17c-0.43,0.32-0.99,0.41-1.5,0.23s-0.89-0.6-1.02-1.12L5.21,39.6
				c-0.36-1.33-0.36-2.72-0.02-4.06c0.49-1.76,1.53-3.31,2.97-4.43c0.25-0.19,0.52-0.39,0.81-0.58c0.36-0.24,0.84-0.16,1.1,0.18
				l1.99,2.66c0.2,0.26,0.2,0.62,0.02,0.9c-0.03,0.06-0.07,0.11-0.12,0.15c-0.9,0.82-1.31,2.05-1.07,3.24
				c0.18,0.95,0.67,1.81,1.38,2.46l1.56,1.5c0.34,0.33,0.52,0.79,0.49,1.25C14.28,43.36,14.04,43.79,13.67,44.07L13.67,44.07z"/>
			<circle id="Oval_1_" class="st35" cx="8.2" cy="39.56" r="0.8"/>
			<path id="Shape_2_" class="st377" d="M31.06,17.2l-1.91,2.57L25,16.7l2.7-2L31.06,17.2z"/>
			<path id="Shape_1_" class="st376" d="M33.8,6.13v3.67c0,0.25-0.12,0.49-0.33,0.64l-2.41,1.78L27.7,14.7l-2.7,2l-4.14,3.06
				l-1.91-2.57L33.8,6.13z"/>
		</g>
	</g>
</g>
<g id="Layer_2">
</g>
</svg>
