<?xml version="1.0" encoding="utf-8"?>
<!-- Generator: Adobe Illustrator 25.0.0, SVG Export Plug-In . SVG Version: 6.00 Build 0)  -->
<svg version="1.1" xmlns="http://www.w3.org/2000/svg" xmlns:xlink="http://www.w3.org/1999/xlink" x="0px" y="0px"
	 viewBox="0 0 48 48" style="enable-background:new 0 0 48 48;" xml:space="preserve">
<style type="text/css">
	.st0{fill:#F5DAA7;}
	.st1{fill:#EDC472;}
	.st2{fill:#BC9B5B;}
	.st3{fill:#9A6A53;}
	.st4{fill:#855B47;}
	.st5{fill:#F4E2C1;}
	.st6{fill:#F7F7F7;}
	.st7{fill:#C8C3CA;}
	.st8{fill:#B78C7A;}
	.st9{fill:#7A5341;}
	.st10{fill:#704C3B;}
	.st11{fill:#CF9875;}
	.st12{fill:#C7865B;}
	.st13{clip-path:url(#SVGID_3_);}
	.st14{clip-path:url(#SVGID_4_);fill:#FFFFFF;stroke:#231F20;stroke-miterlimit:10;}
	.st15{fill:#FFFFFF;stroke:#231F20;stroke-miterlimit:10;}
	.st16{fill:none;stroke:#000000;stroke-width:4.5;stroke-miterlimit:10;}
	.st17{fill:#463C4B;}
	.st18{fill:#555A6E;}
	.st19{fill:#F06423;}
	.st20{fill:#FAA51E;}
	.st21{fill:#D7E6F0;}
	.st22{fill:#DADADA;}
	.st23{fill:#C4C6C6;}
	.st24{fill:#EDEEEF;}
	.st25{fill:#797981;}
	.st26{fill:#5A5A63;}
	.st27{fill:#494951;}
	.st28{fill:#29BAED;}
	.st29{fill:#DD9554;}
	.st30{fill:#CC8244;}
	.st31{fill:#805333;}
	.st32{fill:#A56A43;}
	.st33{fill:#CB8252;}
	.st34{fill:#ECF0F1;}
	.st35{fill:#603E26;}
	.st36{fill:#F9EAB0;}
	.st37{fill:#F5EFCA;}
	.st38{fill:#464F5D;}
	.st39{fill:#F3D55B;}
	.st40{fill:#6F6571;}
	.st41{fill:#4B3F4E;}
	.st42{fill:#5D5360;}
	.st43{fill:#857E87;}
	.st44{fill:#ECEAEC;}
	.st45{fill:#DAD8DB;}
	.st46{fill:#B3E59F;}
	.st47{fill:#CCF49F;}
	.st48{fill:#792A47;}
	.st49{fill:#A62B38;}
	.st50{fill:#D22D28;}
	.st51{fill:#FF2F19;}
	.st52{fill:#FFFFFF;}
	.st53{fill:#202666;}
	.st54{fill:#FDE6BB;}
	.st55{fill:#FE501F;}
	.st56{fill:#FD7226;}
	.st57{fill:#FCCD76;}
	.st58{fill:#FB932C;}
	.st59{fill:#4D2857;}
	.st60{fill:#B19046;}
	.st61{fill:#F0C419;}
	.st62{fill:#24AE5F;}
	.st63{fill:#E64C3C;}
	.st64{fill:#3B97D3;}
	.st65{fill:#E74444;}
	.st66{fill:#CE3536;}
	.st67{fill:#D9DBDD;}
	.st68{fill:#E8EDF1;}
	.st69{fill:#F3DB70;}
	.st70{fill:#D5DAF3;}
	.st71{fill:#A2AEE6;}
	.st72{fill:#FFC344;}
	.st73{fill:#FFE177;}
	.st74{fill:#BEC6ED;}
	.st75{fill:#8795DE;}
	.st76{fill-rule:evenodd;clip-rule:evenodd;fill:#A46A5A;}
	.st77{fill-rule:evenodd;clip-rule:evenodd;fill:#845252;}
	.st78{fill-rule:evenodd;clip-rule:evenodd;fill:#FFD05B;}
	.st79{fill-rule:evenodd;clip-rule:evenodd;fill:#704242;}
	.st80{fill-rule:evenodd;clip-rule:evenodd;fill:#FFC244;}
	.st81{fill-rule:evenodd;clip-rule:evenodd;fill:#596C76;}
	.st82{fill-rule:evenodd;clip-rule:evenodd;fill:#465A61;}
	.st83{fill:#A46A5A;}
	.st84{fill:#607D8B;}
	.st85{fill:#9C27B0;}
	.st86{fill:#03A9F4;}
	.st87{fill:#8BC34A;}
	.st88{fill:#FFC107;}
	.st89{fill:#FF9800;}
	.st90{fill:#F44336;}
	.st91{fill:#D7CCC8;}
	.st92{fill:#F57C00;}
	.st93{fill:#F9BB4B;}
	.st94{fill:#FCF05A;}
	.st95{fill:#66342E;}
	.st96{fill:#D3843D;}
	.st97{fill:#704C55;}
	.st98{fill:#5A344B;}
	.st99{fill:#E63950;}
	.st100{fill:#EFE2DD;}
	.st101{fill:#FF435B;}
	.st102{fill:#FFF5F5;}
	.st103{fill:#9B786F;}
	.st104{fill:#925CB4;}
	.st105{fill:#814BA2;}
	.st106{fill:#6F3F8A;}
	.st107{fill:#FFD185;}
	.st108{fill:#FFBA48;}
	.st109{fill:#FF5A35;}
	.st110{fill:#FF7A3C;}
	.st111{fill:#FFE8C2;}
	.st112{fill:#4F4F4F;}
	.st113{fill:#FF3A2F;}
	.st114{fill:#353535;}
	.st115{fill:#FB4A59;}
	.st116{fill:#F82F40;}
	.st117{fill:#3F5959;}
	.st118{fill:#384848;}
	.st119{fill:#EFF5F6;}
	.st120{fill:#CBE5E7;}
	.st121{fill:#FCC16D;}
	.st122{fill:#FCB44D;}
	.st123{fill:#A66856;}
	.st124{fill:#735458;}
	.st125{fill:#FFDEA9;}
	.st126{fill:#5C4346;}
	.st127{fill:#8F5040;}
	.st128{fill:#595959;}
	.st129{fill:#7F221C;}
	.st130{fill:#913122;}
	.st131{fill:#FFEFB0;}
	.st132{fill:#DB2116;}
	.st133{fill:#883F2E;}
	.st134{fill:#A44F3E;}
	.st135{fill:#D8AA5E;}
	.st136{fill:#E9B665;}
	.st137{fill:#E19974;}
	.st138{fill:#FFEFD2;}
	.st139{fill:#D7D0D6;}
	.st140{fill:#E8AD8C;}
	.st141{fill:#6D3326;}
	.st142{fill:#BA5D4F;}
	.st143{fill:#F5A871;}
	.st144{fill:#E89A5E;}
	.st145{fill:#A34F41;}
	.st146{fill:#D68A5A;}
	.st147{fill:#FFE5C4;}
	.st148{fill:#FDD1A7;}
	.st149{fill:#873F30;}
	.st150{fill:#C86F5C;}
	.st151{fill:#6C3328;}
	.st152{fill:#54231D;}
	.st153{fill:#B5B1B3;}
	.st154{fill:#FEC93E;}
	.st155{fill:#EFB533;}
	.st156{fill:#F7A738;}
	.st157{fill:#EA952F;}
	.st158{fill:#FD6E2E;}
	.st159{fill:#EA551B;}
	.st160{fill:#F5A257;}
	.st161{fill:#DB8F52;}
	.st162{fill:#75360D;}
	.st163{fill:#FFBF7B;}
	.st164{fill:#00CCB2;}
	.st165{fill:#00AB94;}
	.st166{fill:#FEA832;}
	.st167{fill:#FF8700;}
	.st168{fill:#00EED0;}
	.st169{fill:#FFD400;}
	.st170{fill:#FDBF00;}
	.st171{fill:#08B865;}
	.st172{fill:#E41F2D;}
	.st173{fill:#FD4755;}
	.st174{fill:#FB2B3A;}
	.st175{fill:#FED2A4;}
	.st176{fill:#FFE5C2;}
	.st177{fill:#FFBD86;}
	.st178{fill:#FE99A0;}
	.st179{fill:#FD8087;}
	.st180{fill:#C57A44;}
	.st181{fill:#09A755;}
	.st182{fill:#FEDF30;}
	.st183{fill:#FED402;}
	.st184{fill:#FAC600;}
	.st185{fill:#46CC8D;}
	.st186{fill:#00C27A;}
	.st187{fill:#FE7701;}
	.st188{fill:#FE860A;}
	.st189{fill:#C41926;}
	.st190{fill:#E89C5D;}
	.st191{fill:#F4B37D;}
	.st192{fill:#E8626C;}
	.st193{fill:#40C6C2;}
	.st194{fill:#FFC999;}
	.st195{fill:#4A4A68;}
	.st196{fill:#333356;}
	.st197{fill:#EDEDED;}
	.st198{fill:#C9C9C9;}
	.st199{fill:#FF9900;}
	.st200{fill:#FFCE00;}
	.st201{fill:#FBBD00;}
	.st202{fill:#ED8100;}
	.st203{fill:#FFE431;}
	.st204{fill:#FF9F00;}
	.st205{fill:#FFE666;}
	.st206{fill:#FFBF00;}
	.st207{fill:#FCCD31;}
	.st208{fill:#F2B016;}
	.st209{fill:#4A4D4F;}
	.st210{fill:#D3CBC2;}
	.st211{fill:#6D7072;}
	.st212{fill:#BAAFA6;}
	.st213{fill:#888C8E;}
	.st214{fill:#B4B4B4;}
	.st215{fill:#FFE999;}
	.st216{fill:#FFCF3B;}
	.st217{fill:#C1C1C1;}
	.st218{fill:#FFBC19;}
	.st219{fill:#94E6FF;}
	.st220{fill:#315F83;}
	.st221{fill:#267EA8;}
	.st222{fill:#3B3F5F;}
	.st223{fill:#D8F2FB;}
	.st224{fill:#35495E;}
	.st225{fill:#556080;}
	.st226{fill:#E4C05C;}
	.st227{fill:#E4C05C;stroke:#E4C05C;stroke-width:2;stroke-linecap:round;stroke-linejoin:round;stroke-miterlimit:10;}
	.st228{fill:#B57F5F;}
	.st229{fill:#966A5B;}
	.st230{fill:#FFD15B;}
	.st231{fill:#A5C3DC;}
	.st232{fill:#8697CB;}
	.st233{fill:#E0E0E0;}
	.st234{fill:#CCCCCC;}
	.st235{fill:#8E8E8E;}
	.st236{fill:#A0A0A0;}
	.st237{fill:#E13732;}
	.st238{fill:#F05055;}
	.st239{fill:#D24605;}
	.st240{fill:#FFCE53;}
	.st241{fill:#FFB833;}
	.st242{fill:#4999D1;}
	.st243{fill:#43AAF0;}
	.st244{fill:#FF2E23;}
	.st245{fill:#FF4A26;}
	.st246{fill:#C6805D;}
	.st247{fill:#77CC7D;}
	.st248{fill:#52BD7E;}
	.st249{fill:#98DB7C;}
	.st250{fill:#D48C64;}
	.st251{fill:#FFD18D;}
	.st252{fill:#FBBD80;}
	.st253{fill:#F3B573;}
	.st254{fill:#434A54;}
	.st255{fill:#DA4453;}
	.st256{fill:#FFCE54;}
	.st257{fill:#ED5564;}
	.st258{fill-rule:evenodd;clip-rule:evenodd;fill:#4BC3EF;}
	.st259{fill-rule:evenodd;clip-rule:evenodd;fill:#1BADDE;}
	.st260{fill-rule:evenodd;clip-rule:evenodd;fill:#DBD8DB;}
	.st261{fill-rule:evenodd;clip-rule:evenodd;fill:#C9BFC8;}
	.st262{fill:#421815;}
	.st263{fill:#FCB982;}
	.st264{fill:#FDDBBF;}
	.st265{fill:#FCCA9F;}
	.st266{fill:#C6865C;}
	.st267{fill:#B16E3D;}
	.st268{fill:#454545;}
	.st269{fill:#EFECEF;}
	.st270{fill:#E2DFE2;}
	.st271{fill:#3F3736;}
	.st272{fill:#C4755B;}
	.st273{fill:#FFE3A1;}
	.st274{fill-rule:evenodd;clip-rule:evenodd;fill:#D48C64;}
	.st275{fill:#DBD8DB;}
	.st276{fill:#BB5D4C;}
	.st277{fill:#465A61;}
	.st278{fill:#596C76;}
	.st279{fill:#E5E1E5;}
	.st280{fill:#7A8C98;}
	.st281{fill:#FEDBA6;}
	.st282{fill:#EAB14D;}
	.st283{fill:#617881;}
	.st284{fill:#E28086;}
	.st285{fill:#DD636E;}
	.st286{fill:#FFE07D;}
	.st287{fill:#ECBE6B;}
	.st288{fill:#E9EDF5;}
	.st289{fill:#CDD2E1;}
	.st290{fill:#FFAA00;}
	.st291{fill:#FF9500;}
	.st292{fill:#555A65;}
	.st293{fill:#333940;}
	.st294{fill:#E6A373;}
	.st295{fill:#CC8552;}
	.st296{fill:#FFDF40;}
	.st297{fill:#FFBE40;}
	.st298{fill:#FF9F40;}
	.st299{fill:#F77E00;}
	.st300{fill:#FFF04A;}
	.st301{fill:#00DDC1;}
	.st302{fill:#A24603;}
	.st303{fill:#F2D813;}
	.st304{fill:#803602;}
	.st305{fill:#3A3A3A;}
	.st306{fill:#AFAFAF;}
	.st307{fill:#686868;}
	.st308{fill:#925A15;}
	.st309{fill:#F3F2F6;}
	.st310{fill:#BF7D5A;}
	.st311{fill:#AA6256;}
	.st312{fill:#894E46;}
	.st313{fill:#DBA660;}
	.st314{fill:#E49542;}
	.st315{fill:#F9EFDA;}
	.st316{fill:#756E78;}
	.st317{fill:#665E66;}
	.st318{fill:#F9F6F9;}
	.st319{fill:#BC6C59;}
	.st320{fill:#994B39;}
	.st321{fill:#FEEC96;}
	.st322{fill:#F5DB64;}
	.st323{fill:#5D5E69;}
	.st324{fill:#FFE09F;}
	.st325{fill:#ECBD83;}
	.st326{fill:#F6D190;}
	.st327{fill:#FF8086;}
	.st328{fill:#E5646E;}
	.st329{fill:#357DA3;}
	.st330{fill:#F48A3B;}
	.st331{fill:#FFC233;}
	.st332{fill:#CDDEE0;}
	.st333{fill:#C8C5C9;}
	.st334{fill:#785353;}
	.st335{fill:#6E4848;}
	.st336{fill:#B7E4F8;}
	.st337{fill:#93D6F4;}
	.st338{fill:#DBF1FB;}
	.st339{fill:#8DCAFC;}
	.st340{fill:#64B9FC;}
	.st341{fill:#C4E1FF;}
	.st342{fill:#B5DBFD;}
	.st343{fill:#FEE7C9;}
	.st344{fill:#FFD496;}
	.st345{fill:#A3E440;}
	.st346{fill:#99D53B;}
	.st347{fill:#BCEA73;}
	.st348{fill:#C76D3D;}
	.st349{fill:#AA5E33;}
	.st350{fill:#D67F4F;}
	.st351{fill:#8DC637;}
	.st352{fill:#A79BA7;}
	.st353{fill:#7A6D79;}
	.st354{fill:#C4E2FF;}
	.st355{fill:#60B7FF;}
	.st356{fill:#B3DAFE;}
	.st357{fill:#F3F0F3;}
	.st358{fill:#EFEDEF;}
	.st359{fill:#CBC4CC;}
	.st360{fill:#26A6FE;}
	.st361{fill:#D2555A;}
	.st362{fill:#FF6464;}
	.st363{fill:#D7DEED;}
	.st364{fill:#B8BFD4;}
	.st365{fill:#959CB3;}
	.st366{fill:#F8C460;}
	.st367{fill:#FAAF42;}
	.st368{fill:#7A838B;}
	.st369{fill:#5D6972;}
	.st370{fill:#A7D0E1;}
	.st371{fill:#80BBCE;}
	.st372{fill:#FFD8CA;}
	.st373{fill:#FFBFAE;}
	.st374{fill:#FFE5D8;}
	.st375{fill:#E5EEF9;}
	.st376{fill:#56595E;}
	.st377{fill:#7F8284;}
	.st378{fill:#A5A5A4;}
	.st379{fill:#95A5A5;}
	.st380{fill:#BDC3C7;}
	.st381{fill:#7F8C8D;}
</style>
<g id="Acoustic_Grand_Keyboard">
	<g>
		<polygon class="st123" points="8.38,10.02 10.9,7.47 8.19,4.75 5.65,7.29 		"/>
		<path class="st124" d="M43.86,44.68c-0.06,0-0.13-0.01-0.19-0.03c-0.37-0.11-0.59-0.49-0.48-0.87l0.13-0.47
			c0.32-1.13-0.27-2.7-1.46-3.89L5.27,2.84C5,2.56,5,2.12,5.27,1.84c0.27-0.27,0.72-0.27,0.99,0l36.59,36.59
			c1.57,1.57,2.28,3.64,1.82,5.27l-0.13,0.47C44.45,44.48,44.17,44.68,43.86,44.68z"/>
		<path class="st125" d="M5.78,5.9l38.7,38.7c0.15,0.15,0.15,0.38,0,0.53l-1.11,1.11c-0.15,0.15-0.38,0.15-0.53,0L4.14,7.53
			C3.99,7.39,3.99,7.15,4.14,7L5.25,5.9C5.39,5.75,5.63,5.75,5.78,5.9z"/>
		<g>
			<path class="st126" d="M43.02,11.45l-2.55-3.9l-3.9-2.54c-0.56-0.56-0.56-1.47,0-2.04l0,0c0.56-0.56,1.47-0.56,2.04,0l2.56,3.89
				l3.89,2.55c0.56,0.56,0.56,1.47,0,2.04l0,0C44.49,12.01,43.58,12.01,43.02,11.45z"/>
			<path class="st126" d="M39.73,14.74l-2.61-3.83l-3.84-2.61c-0.56-0.56-0.56-1.47,0-2.04l0,0c0.56-0.56,1.47-0.56,2.04,0
				l2.66,3.78l3.79,2.66c0.56,0.56,0.56,1.47,0,2.04l0,0C41.21,15.3,40.3,15.3,39.73,14.74z"/>
		</g>
		<path class="st123" d="M3.95,43.79c-6.7-6.85-4.55-17.62,3.95-19.66c0.07-0.02,0.15-0.01,0.22,0.01c0.67,0.24,4.36,1.47,6.35-0.52
			c1.12-1.12,1.49-2.77,1.16-4.48c-0.02-0.09,0-0.19,0.05-0.27c0.44-0.74,0.44-0.95,1.79-2.43c7.58-8.3,22.99,6.55,13.92,14.28
			c-1.5,1.28-1.42,1.1-2.22,1.6c-0.08,0.05-0.18,0.07-0.27,0.05c-1.72-0.33-3.37,0.04-4.49,1.16c-1.52,1.52-1.65,4.02-0.54,6.33
			c0.04,0.08,0.05,0.17,0.03,0.25C21.81,48.63,10.85,50.85,3.95,43.79z"/>
		<path class="st127" d="M28.57,15.86c3.43,3.64,4.79,9.06,0.39,12.81c-1.37,1.16-1.43,1.12-2.02,1.48
			c-0.21,0.13-0.46,0.17-0.71,0.13c-1.63-0.25-3.19,0.13-4.26,1.2c-1.48,1.48-1.64,3.87-0.64,6.12c0.1,0.23,0.13,0.48,0.06,0.72
			c-1.99,7.41-10.8,9.88-17.53,5.36c0.03,0.03,0.07,0.07,0.1,0.1c6.9,7.06,17.86,4.84,19.93-3.68c0.02-0.08,0.01-0.17-0.03-0.25
			c-1.11-2.31-0.98-4.81,0.54-6.33c1.12-1.12,2.78-1.49,4.49-1.16c0.09,0.02,0.19,0,0.27-0.05c0.8-0.5,0.72-0.32,2.22-1.6
			C36.72,26.18,33.59,19.18,28.57,15.86z"/>
		<g>
			<path class="st128" d="M8.86,47.1c-1.74-0.69-3.42-1.78-4.91-3.31c-5.39-5.52-5.05-13.58-0.27-17.57c0.01,0,0.02,0,0.02,0
				c0,0,3.18,1.2,3.44,5.16c0.26,3.97,1.17,5.36,3.57,8.2C12.02,41.13,10.81,43.54,8.86,47.1z"/>
			<path class="st128" d="M11.38,30.76c-0.04,0-0.08,0-0.12,0c-0.87-0.04-1.54-0.53-1.8-0.98c-0.2-0.33-0.08-0.77,0.25-0.96
				c0.33-0.2,0.77-0.08,0.96,0.25c0.05,0.07,0.31,0.28,0.69,0.28c0.51,0,1.05-0.36,1.55-1.06c1.74-2.42,3.24-1.51,3.3-1.47
				c0.33,0.21,0.43,0.64,0.22,0.97c-0.2,0.32-0.61,0.42-0.93,0.24c-0.16-0.05-0.7,0.04-1.45,1.08
				C13.09,30.46,12.09,30.76,11.38,30.76z M15.51,28.04L15.51,28.04L15.51,28.04z M15.47,28.02C15.47,28.02,15.47,28.02,15.47,28.02
				C15.47,28.02,15.47,28.02,15.47,28.02z M15.46,28.02C15.47,28.02,15.47,28.02,15.46,28.02C15.47,28.02,15.47,28.02,15.46,28.02z"
				/>
			<path class="st128" d="M18.58,38.64c-0.12,0-0.24-0.03-0.36-0.1c-0.44-0.26-0.94-0.93-0.98-1.8c-0.03-0.71,0.22-1.77,1.64-2.79
				c1.18-0.85,1.1-1.4,1.1-1.41c-0.21-0.33-0.11-0.76,0.22-0.97c0.33-0.21,0.76-0.11,0.97,0.22c0.04,0.06,0.95,1.56-1.47,3.3
				c-0.7,0.5-1.06,1.04-1.06,1.55c0,0.38,0.22,0.64,0.29,0.69c0.34,0.2,0.45,0.63,0.25,0.96C19.05,38.51,18.82,38.64,18.58,38.64z"
				/>
			<path class="st128" d="M17.41,33.72c-0.18,0-0.36-0.07-0.5-0.21l-2.33-2.33c-0.27-0.27-0.27-0.72,0-0.99
				c0.27-0.27,0.72-0.27,0.99,0l2.33,2.33c0.27,0.27,0.27,0.72,0,0.99C17.77,33.65,17.59,33.72,17.41,33.72z"/>
		</g>
		<path class="st126" d="M5.72,42.27L5.72,42.27c-0.32-0.32-0.34-0.83-0.06-1.17l5.56-6.78c0.14-0.17,0.4-0.18,0.55-0.03l1.92,1.92
			c0.16,0.16,0.14,0.41-0.03,0.56L6.9,42.33C6.55,42.61,6.04,42.59,5.72,42.27z"/>
		<path class="st124" d="M42.26,8.69l-6.38,6.38l-0.99,0.99l-1.84,1.84l-0.99,0.99l-1.84,1.84l-0.99,0.99l-1.84,1.84l-0.99,0.99
			l-4.13,4.12c-0.15,0.15-0.38,0.15-0.53,0l-2.4-2.39c-0.15-0.15-0.15-0.38,0-0.53l4.11-4.1l0.99-0.99l1.84-1.84l0.99-0.99
			l1.84-1.84L30.09,15l1.84-1.84l0.99-0.99l6.4-6.4c0.15-0.15,0.38-0.15,0.53,0l2.4,2.39C42.4,8.31,42.4,8.55,42.26,8.69z"/>
		<path class="st127" d="M38.3,13.22l-3.5-3.49c-0.16-0.16-0.1-0.48,0.14-0.68l6.73-5.88c0.21-0.18,0.47-0.21,0.61-0.07l2.63,2.63
			c0.14,0.14,0.11,0.41-0.07,0.61l-5.86,6.75C38.78,13.31,38.46,13.38,38.3,13.22z"/>
		<path class="st123" d="M47.91,3.91l-3.94,5.01c-0.14,0.18-0.43,0.16-0.62-0.03l-2.01-2.01l-2.21-2.21
			c-0.19-0.19-0.21-0.48-0.04-0.62l4.99-3.97c0.15-0.12,0.4-0.09,0.57,0.09l1.17,1.17l2,2C48,3.51,48.03,3.76,47.91,3.91z"/>
		<path class="st127" d="M47.91,4.03l-3.94,5.01c-0.14,0.18-0.43,0.16-0.62-0.03L41.34,7h0c0.2,0.2,0.48,0.21,0.62,0.03l3.94-5.01
			c0.12-0.15,0.08-0.39-0.08-0.56l2,2C48,3.63,48.03,3.88,47.91,4.03z"/>
		<g>
			<polygon class="st126" points="35.87,15.07 34.88,16.06 31.93,13.16 32.93,12.17 			"/>
			<polygon class="st126" points="33.04,17.9 32.05,18.9 29.1,15.99 30.09,15 			"/>
			<polygon class="st126" points="30.2,20.74 29.21,21.73 26.26,18.83 27.26,17.83 			"/>
			<polygon class="st126" points="27.37,23.57 26.38,24.56 23.43,21.66 24.42,20.67 			"/>
		</g>
	</g>
</g>
<g id="Layer_2">
</g>
</svg>
