<svg id="Acoustic_Grand_Keyboard" data-name="Acoustic Grand Keyboard" xmlns="http://www.w3.org/2000/svg" viewBox="0 0 48 48"><defs><style>.cls-1{fill:#bc6c59;}.cls-2{fill:#994b39;}.cls-3{fill:#feec96;}.cls-4{fill:#f5db64;}.cls-5{fill:#5d5e69;}</style></defs><path class="cls-1" d="M11.31,13.42A1.57,1.57,0,0,0,12.88,15h8.48a1.57,1.57,0,0,0,1.57-1.57V8.67H11.31Z"/><path class="cls-2" d="M20,8.67v4.75A1.57,1.57,0,0,1,18.4,15h3a1.57,1.57,0,0,0,1.57-1.57V8.67Z"/><path class="cls-3" d="M21.36,5.82H12.88a1.57,1.57,0,0,0-1.57,1.57V8.67H22.93V7.39A1.57,1.57,0,0,0,21.36,5.82Z"/><path class="cls-4" d="M21.36,5.82h-3A1.57,1.57,0,0,1,20,7.39V8.67h3V7.39A1.57,1.57,0,0,0,21.36,5.82Z"/><path class="cls-3" d="M37.16,7.39a1.57,1.57,0,0,0-1.57-1.57H27.11a1.56,1.56,0,0,0-1.56,1.57V8.67H37.16V7.39Z"/><path class="cls-4" d="M35.59,5.82h-3A1.57,1.57,0,0,1,34.2,7.39V8.67h3V7.39A1.57,1.57,0,0,0,35.59,5.82Z"/><path class="cls-1" d="M25.55,8.67v4.75A1.56,1.56,0,0,0,27.11,15h8.48a1.57,1.57,0,0,0,1.57-1.57V8.67Z"/><path class="cls-2" d="M34.2,8.67v4.75A1.57,1.57,0,0,1,32.63,15h3a1.57,1.57,0,0,0,1.57-1.57V8.67Z"/><path class="cls-5" d="M41.33,19.93V37a.71.71,0,1,1-1.42,0V19.93"/><path class="cls-5" d="M47.29,41.87a.69.69,0,0,1-.54-.25l-6.16-7.09-6.16,7.09a.71.71,0,0,1-1.07-.93L40,33a.71.71,0,0,1,.54-.25h0a.69.69,0,0,1,.53.25l6.69,7.69a.72.72,0,0,1-.07,1A.73.73,0,0,1,47.29,41.87Z"/><path class="cls-5" d="M7.38,37.84a.71.71,0,0,1-.71-.71V16a.71.71,0,0,1,1.42,0V37.13A.71.71,0,0,1,7.38,37.84Z"/><path class="cls-1" d="M.66,15.4V29.54a1.16,1.16,0,0,0,1.16,1.15H13.64a1.16,1.16,0,0,0,1.16-1.15V15.4Z"/><path class="cls-2" d="M11.91,15.4V29.54a1.16,1.16,0,0,1-1.16,1.15h2.89a1.16,1.16,0,0,0,1.16-1.15V15.4Z"/><path class="cls-3" d="M14.8,13.81a1.16,1.16,0,0,0-1.16-1.16H1.82A1.16,1.16,0,0,0,.66,13.81V15.4H14.8Z"/><path class="cls-4" d="M13.64,12.65H10.75a1.16,1.16,0,0,1,1.16,1.16V15.4H14.8V13.81A1.16,1.16,0,0,0,13.64,12.65Z"/><path class="cls-1" d="M33.68,21.28V24a1.14,1.14,0,0,0,1.15,1.15H46.65A1.15,1.15,0,0,0,47.81,24V21.28Z"/><path class="cls-2" d="M44.92,21.28V24a1.15,1.15,0,0,1-1.16,1.15h2.9A1.15,1.15,0,0,0,47.81,24V21.28Z"/><path class="cls-3" d="M47.81,19.73a1.16,1.16,0,0,0-1.15-1.15H34.83a1.15,1.15,0,0,0-1.15,1.15v1.55H47.81Z"/><path class="cls-4" d="M46.65,18.58H43.76a1.16,1.16,0,0,1,1.16,1.15v1.55h2.89V19.73A1.16,1.16,0,0,0,46.65,18.58Z"/><path class="cls-5" d="M14.09,41.82a.71.71,0,0,1-.54-.24L7.4,34.49,1.25,41.58a.72.72,0,0,1-1,.07.73.73,0,0,1-.07-1L6.85,33a.69.69,0,0,1,.54-.25h0A.69.69,0,0,1,8,33l6.67,7.68a.71.71,0,0,1-.07,1A.73.73,0,0,1,14.09,41.82Z"/><path class="cls-5" d="M7.74,27.59A.71.71,0,0,1,7,26.88V21.19a.71.71,0,0,1,1.42,0v5.69A.71.71,0,0,1,7.74,27.59Z"/><path class="cls-5" d="M4.32,27.59a.71.71,0,0,1-.71-.71V21.19a.71.71,0,0,1,1.42,0v5.69A.71.71,0,0,1,4.32,27.59Z"/><path class="cls-5" d="M11.15,27.59a.71.71,0,0,1-.71-.71V21.19a.71.71,0,0,1,1.42,0v5.69A.71.71,0,0,1,11.15,27.59Z"/><path class="cls-5" d="M37.38,25.17V23.56a.71.71,0,0,1,1.42,0v1.61"/><path class="cls-5" d="M42.69,25.17V23.56a.71.71,0,0,1,1.42,0v1.61"/><path class="cls-5" d="M28.46,41.82a.71.71,0,0,1-.71-.71V12.65A.71.71,0,0,1,28.1,12l1.75-1a.71.71,0,1,1,.73,1.22l-1.41.84V41.11A.71.71,0,0,1,28.46,41.82Z"/><path class="cls-5" d="M20,42.18a.71.71,0,0,1-.72-.71V13L18,12.09a.7.7,0,0,1-.15-1,.71.71,0,0,1,1-.16l1.56,1.14a.68.68,0,0,1,.3.57V41.47A.71.71,0,0,1,20,42.18Z"/></svg>