<svg id="Acoustic_Grand_Keyboard" data-name="Acoustic Grand Keyboard" xmlns="http://www.w3.org/2000/svg" viewBox="0 0 48 48"><defs><style>.cls-1{fill:#ffd185;}.cls-2{fill:#ffba48;}.cls-3{fill:#ff5a35;}.cls-4{fill:#ff7a3c;}.cls-5{fill:#ffe8c2;}.cls-6{fill:#4f4f4f;}.cls-7{fill:#ff3a2f;}.cls-8{fill:#353535;}</style></defs><path class="cls-1" d="M39.72.21a.71.71,0,0,0,0,1l2.35,2.35,1-1L40.73.21A.71.71,0,0,0,39.72.21Z"/><path class="cls-1" d="M37.7,2.23a.71.71,0,0,0,0,1l2.35,2.35,1-1L38.71,2.23A.71.71,0,0,0,37.7,2.23Z"/><path class="cls-1" d="M35.68,4.25a.7.7,0,0,0,0,1L38,7.61l1-1L36.69,4.25A.71.71,0,0,0,35.68,4.25Z"/><path class="cls-2" d="M47.79,8.28a.71.71,0,0,0,0-1L45.44,4.92l-1,1,2.35,2.35A.71.71,0,0,0,47.79,8.28Z"/><path class="cls-2" d="M45.77,9.29,43.42,6.94l-1,1,2.35,2.35a.71.71,0,0,0,1-1Z"/><path class="cls-2" d="M43.75,11.31,41.4,9l-1,1,2.36,2.36a.7.7,0,0,0,1,0A.71.71,0,0,0,43.75,11.31Z"/><path class="cls-3" d="M24.7,40.55l1-3.93a4.37,4.37,0,0,1,1.11-1.94,4,4,0,0,1,.95-.71L30,32.76a7.72,7.72,0,0,0,1.74-1.31,7.86,7.86,0,0,0,0-11.1l-2-2L6,43.06l2,2A10,10,0,0,0,24.7,40.55Z"/><path class="cls-4" d="M22.68,38.53l1-3.93a4.37,4.37,0,0,1,1.11-1.94,4.28,4.28,0,0,1,.95-.71l2.16-1.21a7.72,7.72,0,0,0,1.74-1.31,7.86,7.86,0,0,0,0-11.1l-2-2a7.86,7.86,0,0,0-11.1,0,7.72,7.72,0,0,0-1.31,1.74L14,20.21a4,4,0,0,1-.71.95,4.37,4.37,0,0,1-1.94,1.11l-3.93,1A10,10,0,0,0,2.93,40l3,3a10,10,0,0,0,16.73-4.53Z"/><circle class="cls-5" cx="22.6" cy="25.44" r="5.71"/><path class="cls-5" d="M37.19,7.78l-4,4-.51,3.54,3.54-.51,4-4Z"/><path class="cls-6" d="M21,23.93,33.15,11.82l3,3L24.07,27Z"/><path class="cls-7" d="M45.77,2.23l-9.58,8.58,2,2,3-1,5.6-5.6a.71.71,0,0,0,.09-.9c-.69-1.06,0-2-1.15-3.08Z"/><path class="cls-3" d="M45.77,2.22c-1.11-1.1-2-.46-3.08-1.14a.71.71,0,0,0-.9.09l-5.6,5.6-1,3,1,1,3-1,6.06-6.06c.56-.56.78-1.23.5-1.52Z"/><circle class="cls-8" cx="22.6" cy="25.44" r="2.85"/><path class="cls-8" d="M15,36l-3-1,1,3,2,2,2-2Z"/><path class="cls-8" d="M10,31,8,33l2,2,3,1-1-3Z"/><path class="cls-6" d="M10,35l2-2,3,3-2,2Z"/></svg>