<svg id="Acoustic_Grand_Keyboard" data-name="Acoustic Grand Keyboard" xmlns="http://www.w3.org/2000/svg" viewBox="0 0 48 48"><defs><style>.cls-1{fill:#f3b573;}.cls-2{fill:#f5a257;}.cls-3{fill:#735458;}.cls-4{fill:#db8f52;}</style></defs><path class="cls-1" d="M3.18,47.89.11,44.82a.37.37,0,0,1,0-.53L44.29.11a.37.37,0,0,1,.53,0l3.07,3.07a.37.37,0,0,1,0,.53L3.71,47.89A.37.37,0,0,1,3.18,47.89Z"/><path class="cls-2" d="M45.36.65l.81.81L1.46,46.17l1.72,1.72a.37.37,0,0,0,.53,0L47.89,3.71a.37.37,0,0,0,0-.53Z"/><circle class="cls-3" cx="25.59" cy="22.41" r="0.7"/><circle class="cls-3" cx="22.42" cy="25.58" r="0.7"/><circle class="cls-3" cx="19.24" cy="28.75" r="0.7"/><circle class="cls-3" cx="16.07" cy="31.93" r="0.7"/><circle class="cls-3" cx="12.9" cy="35.1" r="0.7"/><circle class="cls-3" cx="9.73" cy="38.27" r="0.7"/><path class="cls-2" d="M3.18,47.89.11,44.82a.37.37,0,0,1,0-.53l2.43-2.43,3.6,3.6L3.71,47.89A.37.37,0,0,1,3.18,47.89Z"/><path class="cls-2" d="M40.87,12,32,20.71a.37.37,0,0,1-.53,0l-2.08-2.08-2.19-2.19a.37.37,0,0,1,0-.53l8.83-8.73a.37.37,0,0,1,.53,0l2.2,2.19,2.07,2.08A.37.37,0,0,1,40.87,12Z"/><path class="cls-4" d="M40.87,12,32,20.71a.37.37,0,0,1-.53,0l-2.08-2.08h0L38.8,9.37l2.07,2.08A.37.37,0,0,1,40.87,12Z"/><circle class="cls-3" cx="34.06" cy="13.94" r="1.21"/></svg>