<svg id="Acoustic_Grand_Keyboard" data-name="Acoustic Grand Keyboard" xmlns="http://www.w3.org/2000/svg" viewBox="0 0 48 48"><defs><style>.cls-1{fill:#f9bb4b;}.cls-2{fill:#fcf05a;}.cls-3{fill:#66342e;}.cls-4{fill:#d3843d;}</style></defs><g id="flat"><path class="cls-1" d="M15,12h3V45.93a1.59,1.59,0,0,1-1.5,1.66A1.59,1.59,0,0,1,15,45.93V12Z"/><path class="cls-2" d="M18,12h3V42.62a1.51,1.51,0,1,1-3,0V12Z"/><path class="cls-1" d="M22,12h3V40.14a1.51,1.51,0,1,1-3,0V12Z"/><path class="cls-2" d="M25,12h3V37.65a1.51,1.51,0,1,1-3,0V12Z"/><path class="cls-1" d="M28,12h3V35.17a1.51,1.51,0,1,1-3,0V12Z"/><path class="cls-2" d="M32,12h3V32.69a1.51,1.51,0,1,1-3,0V12Z"/><path class="cls-1" d="M35,12h3V30.21a1.51,1.51,0,1,1-3,0V12Z"/><path class="cls-2" d="M38,12h3V27.72a1.51,1.51,0,1,1-3,0V12Z"/><path class="cls-1" d="M42,12h3V25.24a1.51,1.51,0,1,1-3,0V12Z"/><path class="cls-3" d="M0,7H48v5H0Z"/><path class="cls-1" d="M4.5,5.42h0A1.5,1.5,0,0,1,6,6.92V28.67a1.5,1.5,0,0,1-1.5,1.5h0A1.5,1.5,0,0,1,3,28.67V6.92A1.5,1.5,0,0,1,4.5,5.42Z"/><path class="cls-4" d="M34.89,7H13.11l.78-4.67C14.11,1.33,15.2,0,16.22,0H31.78c1,0,2.11,1.33,2.33,2.33Z"/><path class="cls-1" d="M16,2h8V4H16Z"/><path class="cls-1" d="M30,2h2V4H30Z"/></g></svg>