<svg id="Acoustic_Grand_Keyboard" data-name="Acoustic Grand Keyboard" xmlns="http://www.w3.org/2000/svg" viewBox="0 0 48 48"><defs><style>.cls-1{fill:#d5daf3;}.cls-2{fill:#925cb4;}.cls-3{fill:#814ba2;}.cls-4{fill:#6f3f8a;}.cls-5{fill:#a2aee6;}.cls-6{fill:#8795de;}.cls-7{fill:#fff;}</style></defs><path class="cls-1" d="M36,45.88,2.11,12,13.53.55a1.94,1.94,0,0,1,2.73,0L47.43,31.73a1.92,1.92,0,0,1,0,2.73Z"/><path class="cls-2" d="M32.82,47.7.28,15.16a1,1,0,0,1,0-1.36L3,11.1a1,1,0,0,1,1.36,0L36.88,43.64a1,1,0,0,1,0,1.37L34.19,47.7a1,1,0,0,1-1.37,0Z"/><path class="cls-3" d="M36.88,43.64l-1.44-1.45a1,1,0,0,1,0,1.37l-2.7,2.69a1,1,0,0,1-1.36,0l1.44,1.45a1,1,0,0,0,1.37,0L36.88,45a1,1,0,0,0,0-1.37Z"/><path class="cls-4" d="M9.44,18.28a.72.72,0,0,0-1,0l-1,1A.72.72,0,0,0,8,20.47a.73.73,0,0,0,.52-.21l.95-1A.74.74,0,0,0,9.44,18.28Z"/><path class="cls-4" d="M11.69,20.53a.72.72,0,0,0-1,0l-1,1a.72.72,0,0,0,0,1,.75.75,0,0,0,.52.21.73.73,0,0,0,.51-.21l.95-1A.72.72,0,0,0,11.69,20.53Z"/><path class="cls-4" d="M13.94,22.78a.72.72,0,0,0-1,0l-.95,1A.72.72,0,0,0,12.48,25a.7.7,0,0,0,.51-.22l.95-1A.72.72,0,0,0,13.94,22.78Z"/><path class="cls-4" d="M16.2,25a.72.72,0,0,0-1,0l-.95.95a.72.72,0,0,0,0,1,.71.71,0,0,0,.51.21.73.73,0,0,0,.51-.21l1-1A.72.72,0,0,0,16.2,25Z"/><path class="cls-4" d="M18.45,27.29a.72.72,0,0,0-1,0l-1,.95a.72.72,0,0,0,0,1,.72.72,0,0,0,1,0l1-1A.72.72,0,0,0,18.45,27.29Z"/><path class="cls-4" d="M20.7,29.54a.74.74,0,0,0-1,0l-1,.95a.74.74,0,0,0,0,1,.73.73,0,0,0,.51.21.71.71,0,0,0,.51-.21l1-1a.72.72,0,0,0,0-1Z"/><path class="cls-4" d="M23,31.79a.72.72,0,0,0-1,0l-1,1a.74.74,0,0,0,0,1,.73.73,0,0,0,.51.21.71.71,0,0,0,.51-.21l1-1a.72.72,0,0,0,0-1Z"/><path class="cls-4" d="M25.2,34a.72.72,0,0,0-1,0l-1,1a.72.72,0,0,0,.51,1.23.75.75,0,0,0,.52-.21l.95-1A.74.74,0,0,0,25.2,34Z"/><path class="cls-4" d="M27.45,36.29a.72.72,0,0,0-1,0l-1,1a.72.72,0,0,0,0,1,.74.74,0,0,0,1,0l.95-1A.72.72,0,0,0,27.45,36.29Z"/><path class="cls-4" d="M29.7,38.54a.72.72,0,0,0-1,0l-1,1a.72.72,0,0,0,0,1,.76.76,0,0,0,.52.22.74.74,0,0,0,.51-.22l.95-1A.72.72,0,0,0,29.7,38.54Z"/><path class="cls-5" d="M42.63,31.27l-.2-.2,2.2-2.2a1.94,1.94,0,0,0,0-2.73L21.84,3.36a1.91,1.91,0,0,0-2.72,0l-2.21,2.2-.2-.2a2.05,2.05,0,0,0-2.9,2.9l.2.2-.83.83a3.86,3.86,0,0,0,0,5.46l20,20.06a3.86,3.86,0,0,0,5.46,0l.83-.83.2.19a2.05,2.05,0,0,0,2.91-2.9Z"/><path class="cls-6" d="M44.63,26.14l-1.47-1.42a1.94,1.94,0,0,1,0,2.73l-5.94,5.93a3.86,3.86,0,0,1-5.08.34l1.09,1.09a3.86,3.86,0,0,0,5.46,0l.83-.83.2.19a2.05,2.05,0,0,0,2.91-2.9l-.2-.2,2.2-2.2a1.94,1.94,0,0,0,0-2.73Z"/><path class="cls-7" d="M41.18,33.45a.73.73,0,1,1,.73-.72A.73.73,0,0,1,41.18,33.45Z"/><path class="cls-7" d="M15.26,7.53a.73.73,0,1,1,0-1.45.73.73,0,0,1,0,1.45Z"/><path class="cls-7" d="M35.6,24,24,12.39l-2.78.36-.36,2.78L32.46,27.14l2.78-.35Z"/></svg>