<svg id="Acoustic_Grand_Keyboard" data-name="Acoustic Grand Keyboard" xmlns="http://www.w3.org/2000/svg" viewBox="0 0 48 48"><defs><style>.cls-1{fill:#a44f3e;}.cls-2{fill:#08b865;}.cls-3{fill:#883f2e;}.cls-4{fill:#e41f2d;}.cls-5{fill:#fd4755;}.cls-6{fill:#fb2b3a;}.cls-7{fill:#fed2a4;}.cls-8{fill:#ffe5c2;}.cls-9{fill:#ffbd86;}.cls-10{fill:#fe99a0;}.cls-11{fill:#fd8087;}.cls-12{fill:#c57a44;}.cls-13{fill:#09a755;}.cls-14{fill:#fedf30;}.cls-15{fill:#fed402;}.cls-16{fill:#fac600;}.cls-17{fill:#46cc8d;}.cls-18{fill:#00c27a;}.cls-19{fill:#fe7701;}.cls-20{fill:#fe860a;}.cls-21{fill:#c41926;}</style></defs><path class="cls-1" d="M22,25.75V13.32A8.37,8.37,0,0,0,13.63,5H12.35A8.35,8.35,0,0,0,4,13.3V28A4.62,4.62,0,0,1,4.65,28H22v-.87c.24-.49.38-.94.61-1.33Z"/><path class="cls-2" d="M32.53,33.26a.46.46,0,0,1,.47.45v5.14l.56.1H43V24.76L42.91,24H24.73A2.72,2.72,0,0,0,22,26.67v9.06l1.59.59a.73.73,0,0,0,.29.07.73.73,0,0,0,.3-.07l8.13-3a.63.63,0,0,1,.22-.05Z"/><path class="cls-3" d="M4.67,28H7V13.41A8.46,8.46,0,0,1,14.74,5L14,5H12.35A8.35,8.35,0,0,0,4,13.3V28A4.91,4.91,0,0,1,4.67,28Z"/><path class="cls-4" d="M21.57,27H5.1l-.1.69V39h9.43l.57-.1V33.66a.45.45,0,0,1,.65-.42L22,35.77V27a3.1,3.1,0,0,0-.43,0Z"/><path class="cls-5" d="M17.09,24.34a6.71,6.71,0,0,1-8.18,0A1.89,1.89,0,0,0,8,26v1.08A1.9,1.9,0,0,0,9.89,29h6.22A1.9,1.9,0,0,0,18,27.05V26a1.89,1.89,0,0,0-.91-1.63Z"/><path class="cls-6" d="M11,27.05V26a1.91,1.91,0,0,1,.08-.54,7,7,0,0,1-2.15-1.09A1.89,1.89,0,0,0,8,26v1.08A1.9,1.9,0,0,0,9.89,29h3A1.89,1.89,0,0,1,11,27.05Z"/><path class="cls-7" d="M6,18.59V16H5a2.28,2.28,0,0,0-2,2.36V19.6A2.26,2.26,0,0,0,5,22H7a9.05,9.05,0,0,1-.71-3.36Z"/><path class="cls-8" d="M21.93,16H21v2.64c-.34,1.12-.6,2.18-1.06,3.36h2A2.44,2.44,0,0,0,24,19.6V18.31a2.05,2.05,0,0,0-2.07-2.11Z"/><path class="cls-7" d="M17.68,11.32l-10.49,3A1.64,1.64,0,0,0,6,15.86v2.66a7.5,7.5,0,1,0,15,.06V14.29a3,3,0,0,0-2.65-3,1.69,1.69,0,0,0-.67.05Z"/><path class="cls-9" d="M9,18.6V14.46a3.07,3.07,0,0,1,.05-.53l-1.86.52A1.64,1.64,0,0,0,6,16V18.3a7.43,7.43,0,0,0,6.35,7.47,7.47,7.47,0,0,0,2.37-.1A7.24,7.24,0,0,1,9,18.6Z"/><path class="cls-10" d="M13.52,24h-1A1.54,1.54,0,0,1,11,22.41v-1a.45.45,0,0,1,.42-.46h3.16a.45.45,0,0,1,.42.46v.88A1.58,1.58,0,0,1,13.52,24Z"/><path class="cls-11" d="M13,22.29v-.88a.46.46,0,0,1,.45-.46h-2a.46.46,0,0,0-.45.46v1A1.54,1.54,0,0,0,12.53,24h1.16a1.56,1.56,0,0,0,.44-.07A1.65,1.65,0,0,1,13,22.29Z"/><path class="cls-12" d="M13.29,19.47a.66.66,0,0,1-.44-.16l-.85-.7a.7.7,0,0,1-.12-.95l.85-1.16a.7.7,0,1,1,1.13.83L13.4,18l.34.28a.7.7,0,0,1,.09,1,.69.69,0,0,1-.54.25Z"/><path class="cls-12" d="M8.71,17.17a.71.71,0,0,1-.5-1.2,2.52,2.52,0,0,1,3.57,0,.71.71,0,0,1,0,1,.69.69,0,0,1-1,0,1.1,1.1,0,0,0-.79-.32,1.14,1.14,0,0,0-.8.32.67.67,0,0,1-.49.21Z"/><path class="cls-12" d="M18.19,17.17A.67.67,0,0,1,17.7,17a1.14,1.14,0,0,0-.8-.32,1.1,1.1,0,0,0-.79.32.69.69,0,0,1-1,0,.71.71,0,0,1,0-1,2.52,2.52,0,0,1,3.57,0,.71.71,0,0,1-.5,1.2Z"/><path class="cls-13" d="M23.72,36.23a.62.62,0,0,0,.53,0L26,35.62V26.67A2.86,2.86,0,0,1,29,24H24.73A2.72,2.72,0,0,0,22,26.67v9Z"/><path class="cls-14" d="M33,44.45V34a.56.56,0,0,0-.8-.5l-8,3a.55.55,0,0,1-.5,0l-7.95-3a.56.56,0,0,0-.8.5V44.45a.55.55,0,0,0,.27.48l8.45,3a.56.56,0,0,0,.56,0l8.45-3A.55.55,0,0,0,33,44.45Z"/><path class="cls-7" d="M34,39.08,33.9,39H31.68A1.68,1.68,0,0,0,30,40.63v2.63A1.69,1.69,0,0,0,31.68,45H33.9l.1-.17Z"/><path class="cls-15" d="M23.94,36.64a.6.6,0,0,1-.19-.06l-7.95-3a.56.56,0,0,0-.8.5V44.45a.55.55,0,0,0,.27.48l8.45,3a.48.48,0,0,0,.21.07H24V36.64Z"/><path class="cls-16" d="M17,45.7V33.89a.37.37,0,0,1,0-.11l-1.18-.46a.58.58,0,0,0-.83.52V44.66a.58.58,0,0,0,.28.5l1.73.62a.22.22,0,0,1,0-.08Z"/><path class="cls-7" d="M16.16,39H14.1l-.1.12v5.71l.1.17h2.22A1.69,1.69,0,0,0,18,43.26V40.77A1.82,1.82,0,0,0,16.16,39Z"/><path class="cls-17" d="M37.62,21.47a5.84,5.84,0,0,1-2.3.48H32.68a5.84,5.84,0,0,1-2.3-.48A1.77,1.77,0,0,0,29,23.18v.87A1.9,1.9,0,0,0,30.89,26h6.22A1.9,1.9,0,0,0,39,24.05v-.87a1.77,1.77,0,0,0-1.38-1.71Z"/><path class="cls-18" d="M33,24.14v-1A1.7,1.7,0,0,1,33.46,22h-.61a6.36,6.36,0,0,1-2.55-.54A1.82,1.82,0,0,0,29,23.12v.93A1.9,1.9,0,0,0,30.89,26h4A1.86,1.86,0,0,1,33,24.14Z"/><path class="cls-19" d="M40.36,1H37a3.52,3.52,0,0,1,1,2.43V7h1.13A2.87,2.87,0,0,1,42,9.81V11h1a2.81,2.81,0,0,0,1,.77V5a3.64,3.64,0,0,0-3.64-3.63Z"/><path class="cls-20" d="M26,11h1V9.8A2.85,2.85,0,0,1,29.85,7H38V3.58A3.63,3.63,0,0,0,34.37,0H25.85A.84.84,0,0,0,25,.79V11.23A2,2,0,0,1,26,11Z"/><path class="cls-19" d="M26.05,11H27v-.88a8,8,0,0,1,1-2V.78A.84.84,0,0,1,28.85,0h-3A.84.84,0,0,0,25,.79V11.22A2.08,2.08,0,0,1,26.05,11Z"/><path class="cls-7" d="M27,15.63V11H26a2.55,2.55,0,0,0-2,2.5v1.29A2.08,2.08,0,0,0,26,17h1.4a7.09,7.09,0,0,1-.13-1.32Z"/><path class="cls-8" d="M43,11H42v4.68A2.64,2.64,0,0,0,41.55,17H43a2.16,2.16,0,0,0,2-2.21V13.45a2,2,0,0,0-2-2.12Z"/><path class="cls-7" d="M35.91,21h-3A5.93,5.93,0,0,1,27,15V9.89A3,3,0,0,1,30,7H39a3,3,0,0,1,3,3V15.2A5.93,5.93,0,0,1,35.91,21Z"/><path class="cls-9" d="M30,15.2V9.8A2.9,2.9,0,0,1,33,7H30a3,3,0,0,0-3,3V15A5.93,5.93,0,0,0,32.93,21h2.86A5.82,5.82,0,0,1,30,15.2Z"/><path class="cls-10" d="M35.15,19H33.79c-1,.54-1.91-.32-1.79-1.37v-1c-.12-.3.12-.54.42-.62h4.1a.57.57,0,0,1,.48.62v1a1.82,1.82,0,0,1-1.85,1.91Z"/><path class="cls-11" d="M34,17.58v-1c-.18-.3.06-.54.36-.62H32.42c-.3.08-.54.32-.42.62v1c-.12,1.05.74,1.91,1.79,1.37h1.36c.1.54.2.53.29.52A1.64,1.64,0,0,1,34,17.58Z"/><path class="cls-12" d="M34.49,14.82a.74.74,0,0,1-.5-.2l-.84-.85a.71.71,0,0,1-.11-.86l.85-1.39a.7.7,0,0,1,1.2.73l-.56.92.45.46a.69.69,0,0,1,0,1,.7.7,0,0,1-.49.2Z"/><path class="cls-12" d="M32.48,11.86a.7.7,0,0,1-.5-.21,1.11,1.11,0,0,0-1.58,0,.7.7,0,0,1-1-1,2.52,2.52,0,0,1,3.57,0,.71.71,0,0,1-.5,1.2Z"/><path class="cls-12" d="M36.81,11.86a.67.67,0,0,1-.49-.21.69.69,0,0,1,0-1,2.51,2.51,0,0,1,3.56,0,.7.7,0,1,1-1,1,1.11,1.11,0,0,0-1.58,0A.7.7,0,0,1,36.81,11.86Z"/><path class="cls-17" d="M44.27,25H43V39H34v6H45.36A1.64,1.64,0,0,0,47,43.31V27.67A2.72,2.72,0,0,0,44.27,25Z"/><path class="cls-21" d="M2.71,45H14V39H5V26.36a4.24,4.24,0,0,0-4,4.32V43.17A1.75,1.75,0,0,0,2.71,45Z"/><path class="cls-16" d="M8.44,1.82a1,1,0,0,0-.74-.24L3.73,2a.77.77,0,0,0-.73,1V6A2.41,2.41,0,0,1,4.17,7H4V3.34L7,3V5.58C8.09,5.69,8.66,7,8.66,7H9V2.53C8.75,2.26,8.64,2,8.44,1.82Z"/><circle class="cls-15" cx="7.12" cy="7.1" r="1.63"/><circle class="cls-15" cx="2.63" cy="7.56" r="1.63"/><path class="cls-16" d="M44.49,26.78a1,1,0,0,0-.75-.24l-4,.41a.83.83,0,0,0-.78.95V31a2.42,2.42,0,0,1,1.22.95H40V28.3L43,28v2.56A2.44,2.44,0,0,1,44.71,32H45V27.49a4.84,4.84,0,0,0-.51-.71Z"/><circle class="cls-15" cx="43.17" cy="32.06" r="1.63"/><circle class="cls-15" cx="38.68" cy="32.52" r="1.63"/></svg>