<svg id="Acoustic_Grand_Keyboard" data-name="Acoustic Grand Keyboard" xmlns="http://www.w3.org/2000/svg" viewBox="0 0 48 48"><defs><style>.cls-1{fill:#dad8db;}.cls-2{fill:#c8c5c9;}.cls-3{fill:#ffe09f;}.cls-4{fill:#785353;}.cls-5{fill:#6e4848;}.cls-6{fill:#f6d190;}</style></defs><path class="cls-1" d="M42.26,18.81H41l-.59-3V15a.76.76,0,0,1,.76-.76h1.53a.76.76,0,0,1,.76.76v.76Z"/><path class="cls-2" d="M40.38,15.76h3v3h-3Z"/><path class="cls-1" d="M30,18.81h-.72l-1.12-3V15a.76.76,0,0,1,.77-.76h1.52a.76.76,0,0,1,.76.76v.76Z"/><path class="cls-2" d="M28.19,15.76h3v3h-3Z"/><path class="cls-1" d="M36.88,18.81H34.94l-.65-3V15a.76.76,0,0,1,.76-.76h1.52a.77.77,0,0,1,.77.76v.76Z"/><path class="cls-2" d="M34.29,15.76h3.05v3H34.29Z"/><path class="cls-1" d="M18.4,18.81H16.64l-.64-3V15a.77.77,0,0,1,.77-.76h1.52a.76.76,0,0,1,.76.76v.76Z"/><path class="cls-2" d="M16,15.76h3.05v3H16Z"/><path class="cls-1" d="M24.47,18.81H23.06l-1-3V15a.76.76,0,0,1,.76-.76h1.52a.76.76,0,0,1,.77.76v.76Z"/><path class="cls-2" d="M22.1,15.76h3v3h-3Z"/><path class="cls-3" d="M42.29,17.28H15.15A2.2,2.2,0,0,0,13,19.48h0a2.19,2.19,0,0,1-1.54,2.09l-1.53.48-.17,4L12,28.86l2.74,0c1.81-.58,3.72.68,4.73,2.29,1.17,1.88,3.12,2.19,5.06,1.13L34.31,27a4.33,4.33,0,0,1,4.46.38,3.35,3.35,0,0,0,2.15.73l1.28.38a11.41,11.41,0,0,0,3.94-1.3,5.7,5.7,0,0,0-3.85-9.91Z"/><path class="cls-4" d="M9.89,22.05,7,23l-.58.69-.87-.24-3.21,1-.95,1.45.21,6.75,1.33.25,9.15-4Z"/><path class="cls-5" d="M2.29,24.43l-.45.14A1.52,1.52,0,0,0,.77,26v7a.76.76,0,0,0,1,.73l6.34-2,.56-.58.89.12,2.94-.94L12,28.86l-7.9,2.51A1.41,1.41,0,0,1,2.29,30Z"/><path class="cls-6" d="M40.92,27.19a2.34,2.34,0,0,1-1.42-.48,5.51,5.51,0,0,0-3.25-1.08,5.42,5.42,0,0,0-2.61.67l-9.58,5.27a2.7,2.7,0,0,1-1.27.33,2.65,2.65,0,0,1-2.25-1.25A5.69,5.69,0,0,0,14,28.24l-2,.62.46,1.45,1.95-.62a4.17,4.17,0,0,1,4.81,1.77A4.17,4.17,0,0,0,24.8,32.9l9.57-5.26a3.88,3.88,0,0,1,4.21.29,3.89,3.89,0,0,0,2.34.78h1.37a5.65,5.65,0,0,0,3.85-1.52Z"/><path class="cls-2" d="M8.1,31.71l1.45-.46L7,23l-1.45.45Z"/><path class="cls-1" d="M17.69,21.74.53,27.1a.76.76,0,0,0,.23,1.49.91.91,0,0,0,.23,0l17.08-5.34A4.43,4.43,0,0,1,17.69,21.74Z"/><path class="cls-1" d="M.77,31.75A.76.76,0,0,1,0,31.21a.75.75,0,0,1,.5-.95l29-9.06A.77.77,0,0,1,30,22.66L1,31.71A.57.57,0,0,1,.77,31.75Z"/><path class="cls-2" d="M19.05,21.85a1.53,1.53,0,1,1-1.52-1.52A1.52,1.52,0,0,1,19.05,21.85Z"/><path class="cls-2" d="M25.15,21.85a1.53,1.53,0,1,1-1.53-1.52A1.53,1.53,0,0,1,25.15,21.85Z"/><path class="cls-2" d="M31.24,21.85a1.53,1.53,0,1,1-1.52-1.52A1.52,1.52,0,0,1,31.24,21.85Z"/><path class="cls-2" d="M37.34,21.85a1.53,1.53,0,1,1-1.53-1.52A1.53,1.53,0,0,1,37.34,21.85Z"/><path class="cls-2" d="M43.43,21.85a1.53,1.53,0,1,1-1.52-1.52A1.52,1.52,0,0,1,43.43,21.85Z"/></svg>