<svg id="Acoustic_Grand_Keyboard" data-name="Acoustic Grand Keyboard" xmlns="http://www.w3.org/2000/svg" viewBox="0 0 48 48"><defs><style>.cls-1{fill:#fccd76;}.cls-2{fill:#ff2f19;}.cls-3{fill:#fe501f;}.cls-4{fill:#4d2857;}.cls-5{fill:#792a47;}.cls-6{fill:#fde6bb;}.cls-7{fill:#a62b38;}.cls-8{fill:#d22d28;}</style></defs><path class="cls-1" d="M45.53,13.44a.71.71,0,0,1-.51-.21L34.77,3a.73.73,0,1,1,1-1L46,12.21a.72.72,0,0,1-.51,1.23Z"/><path class="cls-1" d="M43.48,15.49a.71.71,0,0,1-.51-.21L32.72,5a.73.73,0,0,1,1-1L44,14.25a.74.74,0,0,1,0,1,.73.73,0,0,1-.51.21Z"/><path class="cls-2" d="M25.74,36.17,26.27,34l6.53-6.54A11.6,11.6,0,0,0,36,21.57l1.36-6.8L4.1,48l13-3.17a11.58,11.58,0,0,0,8.65-8.66Z"/><path class="cls-3" d="M20.6,39.69a8.61,8.61,0,0,0,2.32-4.17l.73-3,7.1-7.11a20.81,20.81,0,0,0,3.86-5.23l2.72-5.44-4.09-4.1L26.43,12a11.6,11.6,0,0,0-5.92,3.17L14,21.73l-2.14.53a11.56,11.56,0,0,0-8.67,8.66L0,43.9l5.13-1L4.1,48l11.35-4.8a16.12,16.12,0,0,0,5.15-3.51Z"/><path class="cls-4" d="M37.33,14.77l9.22-9.22L43.48,2.47,32.21,13.74Z"/><path class="cls-5" d="M44.53,3.5l-2.05-2-9.22,9.22v4.1Z"/><path class="cls-1" d="M35.28,16.82l2-2.05-2-2-5.12,3.07Z"/><path class="cls-6" d="M35.29,12.72l-2-2.05L31.2,12.72v4.1Z"/><path class="cls-7" d="M15.69,36.37,35.28,16.78l-2-2.05H31.19L10.57,35.35Z"/><path class="cls-8" d="M33.25,14.77l-2.05-2L11.61,32.31v4.1Z"/><path class="cls-1" d="M13.64,38.46l2-2.05-2-2L8.52,37.43Z"/><path class="cls-6" d="M13.64,34.36l-2.05-2-2.05,2v4.1Z"/><path class="cls-4" d="M4.09,48l9.54-9.54-2.05-2H9.53L2,43.87v2.05Z"/><path class="cls-5" d="M0,43.9l9.54-9.54,2.05,2L2.05,45.94Z"/><circle class="cls-4" cx="8.52" cy="31.29" r="0.72"/><circle class="cls-4" cx="16.71" cy="39.48" r="0.72"/><path class="cls-5" d="M47.58,4.52l-2-2-2.05,2,2.05,2.05a1.44,1.44,0,0,0,2,0A1.46,1.46,0,0,0,47.58,4.52Z"/><path class="cls-7" d="M45.53,4.52a1.45,1.45,0,0,0,0-2l-2.05-2a1.45,1.45,0,0,0-2,2l2,2a1.44,1.44,0,0,0,2.05,0Z"/></svg>