<svg id="Acoustic_Grand_Keyboard" data-name="Acoustic Grand Keyboard" xmlns="http://www.w3.org/2000/svg" viewBox="0 0 48 48"><defs><style>.cls-1{fill:#595959;}.cls-2{fill:#c6865c;}.cls-3{fill:#b16e3d;}.cls-4{fill:#454545;}.cls-5{fill:#efecef;}.cls-6{fill:#e2dfe2;}</style></defs><path class="cls-1" d="M45.07,9.47a.7.7,0,0,1-.5-.21L43.45,8.14a.71.71,0,0,1,0-1,.72.72,0,0,1,1,0l1.11,1.11a.72.72,0,0,1,0,1,.71.71,0,0,1-.51.21Z"/><path class="cls-1" d="M47.28,7.26a.73.73,0,0,1-.51-.21L45.66,5.94a.72.72,0,0,1,0-1,.71.71,0,0,1,1,0L47.79,6a.72.72,0,0,1,0,1A.71.71,0,0,1,47.28,7.26Z"/><path class="cls-1" d="M40.37,4.76a.71.71,0,0,1-.51-.21L38.74,3.43a.71.71,0,0,1,0-1,.72.72,0,0,1,1,0l1.11,1.11a.72.72,0,0,1,0,1,.7.7,0,0,1-.5.21Z"/><path class="cls-1" d="M42.57,2.55a.73.73,0,0,1-.51-.21L41,1.23a.72.72,0,0,1,0-1,.71.71,0,0,1,1,0l1.12,1.12a.72.72,0,0,1-.51,1.22Z"/><path class="cls-2" d="M42.11,9.52,46.94,4.7a1,1,0,0,0,0-1.36L44.66,1.06a1,1,0,0,0-1.36,0L38.48,5.89Z"/><path class="cls-3" d="M46.65,3.05l-5.51,5.5,1,1L46.94,4.7a1,1,0,0,0,0-1.36Z"/><path class="cls-1" d="M19.23,25.13,38.47,5.89l3.64,3.64L22.86,28.77Z"/><path class="cls-1" d="M42.11,9.52,39.9,11.73l-1,1L37,14.64l-1,1-1.9,1.89-1,1-1.9,1.9-1,1L28.24,23.4l-1,1-4.35,4.36-3.64-3.64,4.36-4.35h0l1-1,1.92-1.91,1-1,1.9-1.9h0l1-1L32.34,12h0l1-1h0l1.89-1.9,1-1h0l2.21-2.21Z"/><path class="cls-4" d="M21.89,27.8,41.14,8.56l1,1L22.86,28.77Z"/><circle class="cls-2" cx="12.61" cy="35.39" r="12.61"/><path class="cls-3" d="M21.11,26.07A12.61,12.61,0,0,1,3.29,43.89,12.61,12.61,0,1,0,21.11,26.07Z"/><circle class="cls-5" cx="12.61" cy="35.39" r="9.7"/><path class="cls-6" d="M17.48,27a9.7,9.7,0,0,1-11,15.92A9.7,9.7,0,1,0,17.48,27Z"/><path class="cls-4" d="M26.51,17.85l1-1,3.64,3.64-1,1Z"/><path class="cls-4" d="M34.08,17.55l-3.63-3.63-1,1h0l3.64,3.64h0Z"/><path class="cls-4" d="M28.24,23.4l-1,1h0l-3.63-3.63h0l1-1Z"/><path class="cls-4" d="M37,14.64h0l-1,1h0L32.34,12h0l1-1h0Z"/><path class="cls-4" d="M39.9,11.73h0l-1,1L35.25,9.11l1-1h0Z"/><path class="cls-2" d="M12.18,42a.7.7,0,0,1-.5-.21L6.25,36.32a.7.7,0,0,1,1-1l5.44,5.44a.71.71,0,0,1-.5,1.2Z"/><path class="cls-1" d="M5,41.93a.76.76,0,0,1-.41-.13.71.71,0,0,1-.18-1l2.93-4.25.09-.1,9.85-9.84a.7.7,0,0,1,1,0,.71.71,0,0,1,0,1l-9.8,9.8-2.9,4.2A.72.72,0,0,1,5,41.93Z"/><path class="cls-1" d="M6.79,43.77a.72.72,0,0,1-.41-1.31l4.2-2.9,9.8-9.8a.72.72,0,0,1,1,1l-9.84,9.84-.1.09L7.2,43.64a.69.69,0,0,1-.41.13Z"/><path class="cls-1" d="M9.46,39.26A.72.72,0,0,1,9,38l10-10a.72.72,0,0,1,1,1L10,39.05A.73.73,0,0,1,9.46,39.26Z"/></svg>