<svg id="Acoustic_Grand_Keyboard" data-name="Acoustic Grand Keyboard" xmlns="http://www.w3.org/2000/svg" viewBox="0 0 48 48"><defs><style>.cls-1{fill:#ffce53;}.cls-2{fill:#ffb833;}.cls-3{fill:#4999d1;}.cls-4{fill:#43aaf0;}.cls-5{fill:#ff2e23;}.cls-6{fill:#ff4a26;}</style></defs><path class="cls-1" d="M3.72.72V7.24L5.17,8.69,3.72,10.14V20.47a1.45,1.45,0,0,0,1.45,1.45H6.62L9.51,19V2.9L6.62,0H4.44A.72.72,0,0,0,3.72.72Z"/><path class="cls-2" d="M6.62,0V21.92H8.06a1.45,1.45,0,0,0,1.45-1.45h2.9V2.9L9.51,0Z"/><path class="cls-1" d="M9.51,0V24.82A1.45,1.45,0,0,0,11,26.27h1.45l2.9-2.9V2.9L12.41,0Z"/><path class="cls-2" d="M12.41,0V26.27h1.45a1.45,1.45,0,0,0,1.45-1.45h2.9V2.9L15.31,0Z"/><path class="cls-1" d="M15.31,0V29.17a1.45,1.45,0,0,0,1.45,1.45h1.45l2.89-2.9V2.9L18.21,0Z"/><path class="cls-2" d="M18.21,0V30.62h1.44a1.45,1.45,0,0,0,1.45-1.45H24V2.9L21.1,0Z"/><path class="cls-1" d="M21.1,0V33.51A1.45,1.45,0,0,0,22.55,35H24l2.9-2.9V2.9L24,0Z"/><path class="cls-2" d="M24,0V35h1.45a1.45,1.45,0,0,0,1.45-1.45h2.89V2.9L26.9,0Z"/><path class="cls-1" d="M26.9,0V37.86a1.45,1.45,0,0,0,1.45,1.45h1.44l2.9-2.9V2.9L29.79,0Z"/><path class="cls-2" d="M29.79,0V39.31h1.45a1.45,1.45,0,0,0,1.45-1.45h2.9V2.9L32.69,0Z"/><path class="cls-1" d="M32.69,0V42.21a1.44,1.44,0,0,0,1.45,1.44h1.45l2.9-2.89V2.9L35.59,0Z"/><path class="cls-2" d="M35.59,0V43.65H37a1.44,1.44,0,0,0,1.45-1.44h2.89V2.9L38.49,0Z"/><path class="cls-2" d="M41.38,0,39.94,1.45v45.1L41.38,48h1.45a1.45,1.45,0,0,0,1.45-1.45V10.14L42.83,8.69l1.45-1.45V.72A.72.72,0,0,0,43.56,0Z"/><path class="cls-1" d="M38.49,0V46.55A1.45,1.45,0,0,0,39.94,48h1.44V0Z"/><path class="cls-3" d="M38.69,5.79h5.59v5.8H38.69Z"/><path class="cls-4" d="M3.72,5.79H41.38v5.8H3.72Z"/><path class="cls-5" d="M44.28,10.14h-2.9V13h2.9a1.45,1.45,0,0,0,0-2.9Z"/><path class="cls-6" d="M41.38,10.14a1.45,1.45,0,0,1,0,2.9H3.72a1.45,1.45,0,0,1,0-2.9Z"/><path class="cls-5" d="M44.28,4.35h-2.9V7.24h2.9a1.45,1.45,0,1,0,0-2.89Z"/><path class="cls-6" d="M41.38,4.35a1.45,1.45,0,1,1,0,2.89H3.72a1.45,1.45,0,1,1,0-2.89Z"/></svg>