<svg id="Acoustic_Grand_Keyboard" data-name="Acoustic Grand Keyboard" xmlns="http://www.w3.org/2000/svg" viewBox="0 0 48 48"><defs><style>.cls-1,.cls-8{fill:#a46a5a;}.cls-1,.cls-2,.cls-3,.cls-4,.cls-5,.cls-6,.cls-7{fill-rule:evenodd;}.cls-2{fill:#845252;}.cls-3{fill:#ffd05b;}.cls-4{fill:#704242;}.cls-5{fill:#ffc244;}.cls-6{fill:#596c76;}.cls-7{fill:#465a61;}</style></defs><path class="cls-1" d="M2.86,18V47.71a.29.29,0,0,0,.29.29H6.23a.29.29,0,0,0,.29-.29V18Z"/><path class="cls-1" d="M41.39,18V47.71a.29.29,0,0,0,.28.29h3.09a.28.28,0,0,0,.28-.29V18H41.39Z"/><path class="cls-2" d="M2.86,18.47H6.52v3.94H2.86Z"/><path class="cls-2" d="M41.39,18.47v3.94H45V18.47H41.39Z"/><path class="cls-2" d="M8.58,12.94a1.12,1.12,0,0,0-1.12-1.12H4.92A1.12,1.12,0,0,0,3.8,12.94v3.38H8.58Z"/><path class="cls-2" d="M13.36,12.94a1.12,1.12,0,0,0-1.12-1.12H9.7a1.12,1.12,0,0,0-1.12,1.12v3.38h4.78Z"/><path class="cls-2" d="M24,16.32l.36-1.87L24,12.94a1.13,1.13,0,0,0-1.13-1.12H20.3a1.13,1.13,0,0,0-1.13,1.12v3.38Z"/><path class="cls-2" d="M28.73,12.94a1.12,1.12,0,0,0-1.12-1.12H25.07A1.12,1.12,0,0,0,24,12.94v3.38h4.78Z"/><path class="cls-2" d="M39.43,12.94a1.12,1.12,0,0,0-1.12-1.12H35.77a1.13,1.13,0,0,0-1.13,1.12v3.38h4.79l.69-1.72Z"/><path class="cls-3" d="M15.8,38.79l1.06-10.37-1.06-10H10.36V41.54a.74.74,0,0,0,.74.74h4a.74.74,0,0,0,.74-.74V38.79Z"/><path class="cls-3" d="M21.23,36.37l.91-9.07-.91-8.83-5.43,0V38.83a.74.74,0,0,0,.74.73h3.95a.74.74,0,0,0,.74-.73Z"/><path class="cls-3" d="M26.67,33.36l1-7-1-7.85H21.23V36.39a.75.75,0,0,0,.75.74h3.95a.74.74,0,0,0,.74-.74Z"/><path class="cls-3" d="M32.11,30.48,32.79,24l-.68-5.64H26.67V33.29a.74.74,0,0,0,.74.74h3.95a.75.75,0,0,0,.75-.74V30.48Z"/><path class="cls-3" d="M37.55,30.48V18.38H32.11v12.1a.74.74,0,0,0,.74.74H36.8A.75.75,0,0,0,37.55,30.48Z"/><path class="cls-4" d="M39.33,12.94a1.11,1.11,0,0,0-1.09-1.12H37a1.1,1.1,0,0,1,1.08,1.12v3.38h1.22Z"/><path class="cls-4" d="M28.73,12.94a1.1,1.1,0,0,0-1.08-1.12H26.44a1.1,1.1,0,0,1,1.08,1.12v3.38h1.21Z"/><path class="cls-4" d="M24,12.94a1.1,1.1,0,0,0-1.08-1.12H21.66a1.1,1.1,0,0,1,1.07,1.12v3.38H24V12.94Z"/><path class="cls-2" d="M44.11,12.94A1.13,1.13,0,0,0,43,11.82H40.45a1.12,1.12,0,0,0-1.12,1.12v3.38h4.78Z"/><path class="cls-4" d="M44.11,12.94A1.11,1.11,0,0,0,43,11.82H41.81a1.1,1.1,0,0,1,1.08,1.12v3.38h1.22V12.94Z"/><path class="cls-4" d="M13.27,12.94a1.1,1.1,0,0,0-1.08-1.12H11a1.1,1.1,0,0,1,1.08,1.12v3.38h1.22Z"/><path class="cls-4" d="M8.58,12.94A1.1,1.1,0,0,0,7.5,11.82H6.28a1.1,1.1,0,0,1,1.08,1.12v3.38H8.58Z"/><path class="cls-5" d="M37.55,30.48V18.38H35.48v12.1a.74.74,0,0,1-.74.74h2A.75.75,0,0,0,37.55,30.48Z"/><path class="cls-5" d="M32.11,30.48V18.38H30.05V33.29a.75.75,0,0,1-.75.74h2.06a.75.75,0,0,0,.75-.74V30.48Z"/><path class="cls-5" d="M26.77,33.38V18.47H24.61V36.39a.77.77,0,0,1-.78.74h2.11s.74-.38.73-.78v-3Z"/><path class="cls-5" d="M21.23,36.33V18.38H19.17V38.82a.74.74,0,0,1-.74.74h2.05a.74.74,0,0,0,.75-.74V36.33Z"/><path class="cls-5" d="M15.8,38.79V18.38H13.74V41.54a.75.75,0,0,1-.75.74h2.06a.75.75,0,0,0,.75-.74V38.79Z"/><path class="cls-6" d="M47.2,19V15.81a.43.43,0,0,0-.44-.43H1.23a.43.43,0,0,0-.43.43V19a.43.43,0,0,0,.43.43H46.76A.43.43,0,0,0,47.2,19Z"/><path class="cls-7" d="M47.2,19V15.81a.43.43,0,0,0-.43-.43h-3a.43.43,0,0,1,.43.43V19a.43.43,0,0,1-.43.43h3A.43.43,0,0,0,47.2,19Z"/><path class="cls-8" d="M29.75,6.83a.68.68,0,0,1-.36-.1l-9-5.4A.72.72,0,0,1,21.1.1l9,5.4c.34.21.81.87.61,1.21s-.74.12-1,.12Z"/><path class="cls-8" d="M18.18,6.83c-.25,0-1.29.06-1.42-.16s.71-1,1-1.17l9-5.4a.72.72,0,0,1,1,.25.71.71,0,0,1-.24,1l-9,5.4A.68.68,0,0,1,18.18,6.83Z"/><path class="cls-6" d="M17.58,8.48a1.71,1.71,0,0,0,.59-2.36,1.72,1.72,0,1,0-.59,2.36Z"/><path class="cls-6" d="M32.72,7.89a1.73,1.73,0,0,0-.59-2.37,1.75,1.75,0,0,0-2.38.59,1.73,1.73,0,0,0,3,1.78Z"/></svg>