<svg id="Acoustic_Grand_Keyboard" data-name="Acoustic Grand Keyboard" xmlns="http://www.w3.org/2000/svg" viewBox="0 0 48 48"><defs><style>.cls-1{fill:#704c55;}.cls-2{fill:#5a344b;}.cls-3{fill:#e63950;}.cls-4{fill:#efe2dd;}.cls-5{fill:#ff435b;}.cls-6{fill:#fff5f5;}.cls-7{fill:#9b786f;}</style></defs><path class="cls-1" d="M24,6.42A35.69,35.69,0,0,0,8.57,9.7L17,40.55c.51-1.2,3.31-2.49,7-2.49s6.26,1.22,6.9,2.37l10-30c-4.48-2.58-10.54-4-16.9-4Z"/><path class="cls-2" d="M30.9,40.43l10-30c-4.48-2.58-10.54-4-16.9-4V38.06C27.63,38.06,30.26,39.28,30.9,40.43Z"/><path class="cls-3" d="M48,9.24a1.41,1.41,0,0,0-1.15-1.62L37,6a1.41,1.41,0,0,0-1.62,1.16l-5.6,33.27A1.41,1.41,0,0,0,30.94,42l9.8,1.63a1.41,1.41,0,0,0,1.62-1.15Z"/><g id="Accordion"><circle class="cls-4" cx="40.68" cy="13.74" r="1.41"/><circle class="cls-4" cx="39.75" cy="19.29" r="1.41"/><circle class="cls-4" cx="38.82" cy="24.83" r="1.41"/><circle class="cls-4" cx="37.89" cy="30.38" r="1.41"/><circle class="cls-4" cx="36.96" cy="35.93" r="1.41"/></g><path class="cls-5" d="M18.22,40.42,12.62,7.15A1.41,1.41,0,0,0,11,6L1.17,7.62A1.41,1.41,0,0,0,0,9.24l.24,1.39L12.62,24.1l-7.21,17,.23,1.39a1.41,1.41,0,0,0,1.62,1.15L17.06,42a1.42,1.42,0,0,0,1.16-1.62Z"/><path class="cls-6" d="M10.08,9,.26,10.63l.48,2.76L2.3,15,1.21,16.17l.47,2.77,1.55,1.63L2.14,21.71l.47,2.78,1.55,1.62L3.08,27.26,3.54,30l1.55,1.63L4,32.81l.47,2.77L6,37.21,4.94,38.36l.47,2.77,9.8-1.63Z"/><path class="cls-7" d="M19.09,39.62,15.57,5.87a1.41,1.41,0,1,1,2.8-.3l3.51,33.75a1.4,1.4,0,1,1-2.79.3Z"/><path class="cls-1" d="M27.37,40.87a1.41,1.41,0,0,1-1.25-1.55L29.63,5.57a1.41,1.41,0,0,1,2.8.3L28.91,39.62A1.4,1.4,0,0,1,27.37,40.87Z"/><path class="cls-1" d="M11.65,35.8A1.41,1.41,0,0,0,10,34.65l-5.55.93.46,2.78,5.55-.94A1.41,1.41,0,0,0,11.65,35.8Z"/><path class="cls-1" d="M7.92,13.61A1.41,1.41,0,0,0,6.3,12.46l-5.56.93.47,2.78,5.56-.94A1.4,1.4,0,0,0,7.92,13.61Z"/><path class="cls-1" d="M8.85,19.16A1.4,1.4,0,0,0,7.23,18l-5.55.93.46,2.77,5.56-.93A1.41,1.41,0,0,0,8.85,19.16Z"/><path class="cls-1" d="M9.78,24.71a1.4,1.4,0,0,0-1.62-1.16l-5.55.94.47,2.77,5.55-.93A1.4,1.4,0,0,0,9.78,24.71Z"/><path class="cls-1" d="M10.72,30.26A1.41,1.41,0,0,0,9.1,29.1L3.54,30,4,32.81l5.55-.93a1.42,1.42,0,0,0,1.16-1.62Z"/><path class="cls-7" d="M24,4.31a1.41,1.41,0,0,0-1.41,1.41V39.47a1.41,1.41,0,0,0,2.82,0V5.72A1.41,1.41,0,0,0,24,4.31Z"/><path class="cls-1" d="M25.41,39.47V5.72A1.41,1.41,0,0,0,24,4.31V40.88A1.41,1.41,0,0,0,25.41,39.47Z"/></svg>