<svg id="Acoustic_Grand_Keyboard" data-name="Acoustic Grand Keyboard" xmlns="http://www.w3.org/2000/svg" viewBox="0 0 48 48"><defs><style>.cls-1{fill:#bf7d5a;}.cls-2{fill:#aa6256;}.cls-3{fill:#894e46;}.cls-4{fill:#dba660;}</style></defs><g id="_12" data-name="12"><path class="cls-1" d="M9.79,27.79l1.76-1c1.25-.34,2.49-.72,3.7-1.15.59-.21,1.11-.4,1.58-.6a20.52,20.52,0,0,0,2.66-1.3,14,14,0,0,0,4.87-4.38h0l1.16-.69a9.66,9.66,0,0,1-.52.94,14.48,14.48,0,0,1-5.08,4.58,20.62,20.62,0,0,1-2.75,1.34c-.52.22-1.05.42-1.62.61A56.85,56.85,0,0,1,9.79,27.79Z"/><path class="cls-2" d="M47.88,10.41v5.45l-35,20.36,0-5.45Z"/><path class="cls-3" d="M45,14.44l0,1.42L16.87,32.19l0-1.42Z"/><path class="cls-1" d="M12.86,30.77l0,5.45L0,28.8l0-5.44Z"/><path class="cls-4" d="M47.89,10.42,35.22,17.78l-1.76,1L20.65,26.24a0,0,0,0,1,0,0l-1.16.68-6.62,3.84-.48-.28-.57-.33L0,23.36,1,22.81l.77-.44,20.64-12,4.48-2.6h0L35,3l3.83,2.22h0l1.21.69,1,.61.65.39,1.5.85h0l1.1.64,1.8,1,.6.34Z"/><path class="cls-1" d="M41.79,6.91c-.41.15-.85.27-1.28.4l0,0-.92.29a30.59,30.59,0,0,0-5.85,2.6,43.51,43.51,0,0,0-9.36,7.65l-.91.92-.1-.11h0l.09.14c-3,3.11-6.15,6.32-10.53,8.84-.85.49-1.74.95-2.62,1.35l-.09,0-.54-.4.24-.11c.87-.39,1.74-.84,2.58-1.32,4.28-2.48,7.38-5.67,10.38-8.74l.92-.95a43.67,43.67,0,0,1,9.5-7.74,30.58,30.58,0,0,1,6-2.67l.08,0,.83-.26,1-.31Z"/><path class="cls-1" d="M35.22,17.78l-1.76,1c-1.26.34-2.49.73-3.7,1.15-.6.22-1.11.41-1.58.6a22.79,22.79,0,0,0-2.67,1.3,14,14,0,0,0-4.86,4.39,0,0,0,0,1,0,0l-1.16.68A9.66,9.66,0,0,1,20,26a14.55,14.55,0,0,1,5.08-4.57,20.66,20.66,0,0,1,2.75-1.35c.52-.21,1-.41,1.62-.61A56.83,56.83,0,0,1,35.22,17.78Z"/><path class="cls-1" d="M9.79,17.68l1.76-1c1.25-.34,2.49-.73,3.7-1.15.59-.22,1.11-.41,1.58-.6a20.52,20.52,0,0,0,2.66-1.3,14,14,0,0,0,4.87-4.39h0l1.16-.68a9.66,9.66,0,0,1-.52.94,14.67,14.67,0,0,1-5.08,4.58,21.92,21.92,0,0,1-2.75,1.34c-.52.21-1.05.42-1.62.61A56.83,56.83,0,0,1,9.79,17.68Z"/><path class="cls-1" d="M46.8,9.79l-.4.24L43,12l-3.59,2.06A35.79,35.79,0,0,1,33,17.15a1.5,1.5,0,0,1-.53.11,1,1,0,0,1-.56-.16.69.69,0,0,1-.29-.72,3.41,3.41,0,0,1,1.71-1.63l.45-.26c.77-.42,1.6-.89,2.6-1.47l1.15-.67A14.06,14.06,0,0,0,40,10.68c.19-.17.36-.35.51-.5a8.51,8.51,0,0,1,.81-.76,7.62,7.62,0,0,1,.89-.59l.12-.07.6-.33a31,31,0,0,0-7.51,3c-.58.34-1.15.7-1.67,1.07-.83.59-1.6,1.23-2.35,1.85l-.12.1-10.68,9c-2.72,2.29-5.53,4.65-8.16,7l0,0,0,0-.67-.25.14-.12,0-.05c2.75-2.49,5.69-5,8.52-7.35l10.34-8.68c.75-.62,1.59-1.34,2.51-2,.53-.37,1.12-.75,1.73-1.1a31.64,31.64,0,0,1,8.33-3.23h0l1.1.64a13.42,13.42,0,0,0-1.66.8l-.11.06a7,7,0,0,0-.81.55,5.76,5.76,0,0,0-.72.66l-.08.09c-.16.16-.31.33-.5.49A15.11,15.11,0,0,1,38,12.76l-1.2.71-2.59,1.46-.06,0-.41.24c-.63.36-1.29.8-1.43,1.3a.19.19,0,0,0,.06.18.32.32,0,0,0,.09,0,1.55,1.55,0,0,0,.22-.06,33.94,33.94,0,0,0,6.3-3l3.58-2.06,3.55-2.05.12-.07Z"/><path class="cls-1" d="M15.35,21.26a1.14,1.14,0,0,0-.61-.17h0a1.88,1.88,0,0,0-.68.14l-.66.26L9.94,22.82,6.82,24.05l-.35.14-.11,0a7.44,7.44,0,0,0-1.22.52,1.41,1.41,0,0,0-.54.46.67.67,0,0,0,.26.92,1.82,1.82,0,0,0,1,.28h.25a14.14,14.14,0,0,0,3.23-.8,20,20,0,0,0,3.28-1.52c.88-.51,1.69-1.05,2.38-1.52.23-.16.55-.39.61-.69A.56.56,0,0,0,15.35,21.26Zm-.83.88c-.72.48-1.5,1-2.34,1.49A19.6,19.6,0,0,1,9,25.1a13.48,13.48,0,0,1-3,.74,1.11,1.11,0,0,1-.66-.12c-.19-.13-.12-.24-.09-.28a.83.83,0,0,1,.32-.26,6.13,6.13,0,0,1,1-.44l0,0c.2-.06.36-.13.51-.18l3.1-1.24.07,0L13.73,22l.65-.24a1,1,0,0,1,.33-.1l.17.05a.14.14,0,0,1,0,.09C14.89,21.87,14.66,22,14.52,22.14Z"/><path class="cls-1" d="M40.09,5.91l0,0L40,5.88a3.1,3.1,0,0,0-2.22.19,25.88,25.88,0,0,0-3.57,1.72,52.93,52.93,0,0,0-5.38,3.71l-.1.08c-.76.58-1.55,1.17-2.36,1.74-1.45,1-3.07,2.07-4.77,3.05A99.43,99.43,0,0,1,5.74,23.53a8.14,8.14,0,0,1-2.64.54,3,3,0,0,1-1.3-.24,1.36,1.36,0,0,1-.85-1l.77-.44,0,.05a.74.74,0,0,0,.48.94A4.62,4.62,0,0,0,5.4,23a97.37,97.37,0,0,0,15.74-7.12c1.69-1,3.28-2,4.72-3,.81-.57,1.61-1.18,2.37-1.77l.07,0a50.14,50.14,0,0,1,5.43-3.74,24.45,24.45,0,0,1,3.69-1.78,7,7,0,0,1,1.45-.37h0Z"/></g><path class="cls-4" d="M40.13,29.28l-25,15.3a1,1,0,0,1-1.09-1.77l25-15.3a1,1,0,0,1,1.08,1.77Z"/><path class="cls-1" d="M15.15,44.58l25-15.3a1,1,0,0,0,.34-1.43L13.72,44.23A1,1,0,0,0,15.15,44.58Z"/><path class="cls-2" d="M39.73,24.79a3,3,0,1,0,4.16,1A3,3,0,0,0,39.73,24.79Z"/><path class="cls-3" d="M42.86,29.91a3,3,0,0,0,1-4.15L38.7,28.93A3,3,0,0,0,42.86,29.91Z"/></svg>