<svg id="Acoustic_Grand_Keyboard" data-name="Acoustic Grand Keyboard" xmlns="http://www.w3.org/2000/svg" viewBox="0 0 48 48"><defs><style>.cls-1{fill:#c6805d;}.cls-2{fill:#a46a5a;}.cls-3{fill:#77cc7d;}.cls-4{fill:#52bd7e;}.cls-5{fill:#98db7c;}.cls-6{fill:#d48c64;}.cls-7{fill:#ffd18d;}.cls-8{fill:#fbbd80;}</style></defs><path class="cls-1" d="M35.24,23l-1.15-1.37a7.15,7.15,0,0,1-1.65-4.56V11.56L28,8v9.07a7.14,7.14,0,0,1-1.64,4.56L25.16,23a7.1,7.1,0,0,0-1.65,4.56l-.84,17.77A2.66,2.66,0,0,0,25.33,48h8.89a2.66,2.66,0,0,0,2.67-2.67V41.78l-1.7-3.14V31.2l1.7-1.87V27.56A7.1,7.1,0,0,0,35.24,23Z"/><path class="cls-2" d="M27.11,8.89v8.18a7.1,7.1,0,0,1-1.65,4.56L24.31,23a7.14,7.14,0,0,0-1.64,4.56h1.77a5.34,5.34,0,0,1,1.24-3.42l1.15-1.38a8.9,8.9,0,0,0,2.06-5.69V13.33a1.77,1.77,0,0,1,1.78-1.77h1.77V8.89Z"/><path class="cls-3" d="M23.69,18.56l-1.15-1.38a7.09,7.09,0,0,1-1.65-4.55V5.33l-4.3-2.66v10a7.09,7.09,0,0,1-1.65,4.55L13.8,18.56a7.09,7.09,0,0,0-1.65,4.55V45.33l.74,2.52a2.64,2.64,0,0,0,.89.15h8.89a2.66,2.66,0,0,0,2.66-2.67V23.11a7.14,7.14,0,0,0-1.64-4.55Z"/><path class="cls-4" d="M13.91,17.18l-1.15,1.38a7.09,7.09,0,0,0-1.65,4.55v2.67L12,27.07V40l-.86,1.74v3.55a2.69,2.69,0,0,0,1.78,2.52V23.12a5.34,5.34,0,0,1,1.24-3.42l1.14-1.38a8.92,8.92,0,0,0,2.06-5.7V7.11a1.78,1.78,0,0,1,1.78-1.78h1.78V2.67H15.56v10a7.15,7.15,0,0,1-1.65,4.55Z"/><path class="cls-5" d="M20.89,2.67H15.56V.89A.88.88,0,0,1,16.44,0h4.45a.89.89,0,0,1,.89.89v.89A.89.89,0,0,1,20.89,2.67Z"/><path class="cls-6" d="M32.44,8.89H28V7.11a.89.89,0,0,1,.89-.89h3.55a.89.89,0,0,1,.89.89V8A.89.89,0,0,1,32.44,8.89Z"/><path class="cls-5" d="M31.56,29.33a1.78,1.78,0,0,0-1.78,1.78V40a1.78,1.78,0,0,0,1.78,1.78h5.33V29.33Z"/><path class="cls-7" d="M18.22,25.78H12.89l-1.06,1.78v12.9l1.06,1.32h5.33A1.78,1.78,0,0,0,20,40V27.56A1.78,1.78,0,0,0,18.22,25.78Z"/><path class="cls-3" d="M17.33,1.78a.89.89,0,0,1-.89-.89V0h-.88a.89.89,0,0,0-.89.89V2.67a.89.89,0,0,0,.89.89h5.33a.89.89,0,0,0,.89-.89V1.78Z"/><path class="cls-8" d="M11.11,25.78h1.78v16H11.11Z"/><path class="cls-1" d="M29.78,8a.89.89,0,0,1-.89-.89V6.22H27.11a.89.89,0,0,0-.89.89V8.89a.89.89,0,0,0,.89.89h5.33a.89.89,0,0,0,.89-.89V8Z"/></svg>