<svg id="Acoustic_Grand_Keyboard" data-name="Acoustic Grand Keyboard" xmlns="http://www.w3.org/2000/svg" viewBox="0 0 48 48"><defs><style>.cls-1{fill:#a66856;}.cls-2{fill:#735458;}.cls-3{fill:#ffdea9;}.cls-4{fill:#5c4346;}.cls-5{fill:#8f5040;}.cls-6{fill:#595959;}</style></defs><polygon class="cls-1" points="8.38 10.03 10.9 7.47 8.19 4.75 5.64 7.29 8.38 10.03"/><path class="cls-2" d="M43.86,44.68a.62.62,0,0,1-.19,0,.71.71,0,0,1-.48-.87l.13-.48a4.33,4.33,0,0,0-1.46-3.89L5.27,2.84a.71.71,0,0,1,1-1L42.85,38.43a5.65,5.65,0,0,1,1.82,5.27l-.13.47A.7.7,0,0,1,43.86,44.68Z"/><path class="cls-3" d="M5.78,5.9l38.7,38.69a.39.39,0,0,1,0,.53l-1.11,1.11a.37.37,0,0,1-.53,0L4.14,7.53a.37.37,0,0,1,0-.53L5.25,5.9A.37.37,0,0,1,5.78,5.9Z"/><path class="cls-4" d="M43,11.45l-2.54-3.9L36.57,5a1.45,1.45,0,0,1,0-2h0a1.45,1.45,0,0,1,2,0l2.55,3.89,3.9,2.56a1.44,1.44,0,0,1,0,2h0A1.45,1.45,0,0,1,43,11.45Z"/><path class="cls-4" d="M39.73,14.74,37.12,10.9,33.28,8.29a1.44,1.44,0,0,1,0-2h0a1.43,1.43,0,0,1,2,0L38,10l3.79,2.66a1.45,1.45,0,0,1,0,2h0A1.45,1.45,0,0,1,39.73,14.74Z"/><path class="cls-1" d="M4,43.79c-6.7-6.85-4.55-17.61,4-19.66a.33.33,0,0,1,.22,0c.67.24,4.36,1.47,6.35-.52a4.89,4.89,0,0,0,1.16-4.48.37.37,0,0,1,0-.27,9.58,9.58,0,0,1,1.79-2.43C25,8.15,40.45,23,31.39,30.73a10,10,0,0,1-2.23,1.59.37.37,0,0,1-.27,0,4.93,4.93,0,0,0-4.49,1.16c-1.53,1.52-1.66,4-.55,6.33a.37.37,0,0,1,0,.25C21.81,48.63,10.85,50.85,4,43.79Z"/><path class="cls-5" d="M28.57,15.86c3.43,3.65,4.78,9.07.39,12.82a9.18,9.18,0,0,1-2,1.47,1.07,1.07,0,0,1-.7.14A4.81,4.81,0,0,0,22,31.48c-1.48,1.48-1.65,3.87-.65,6.12a1.05,1.05,0,0,1,.06.72c-2,7.41-10.8,9.88-17.53,5.37l.1.1c6.9,7.06,17.86,4.84,19.93-3.68a.37.37,0,0,0,0-.25c-1.11-2.31-1-4.8.55-6.33a4.9,4.9,0,0,1,4.49-1.16.33.33,0,0,0,.27,0,10,10,0,0,0,2.23-1.59C36.72,26.18,33.59,19.18,28.57,15.86Z"/><path class="cls-6" d="M8.86,47.1A14.12,14.12,0,0,1,4,43.79c-5.39-5.52-5.05-13.57-.27-17.57h0a5.87,5.87,0,0,1,3.44,5.16c.26,4,1.17,5.37,3.57,8.21C12,41.13,10.81,43.54,8.86,47.1Z"/><path class="cls-6" d="M11.38,30.76h-.12a2.24,2.24,0,0,1-1.8-1,.7.7,0,0,1,1.21-.71,1,1,0,0,0,.7.29,2.07,2.07,0,0,0,1.54-1.06c1.74-2.42,3.24-1.51,3.3-1.47a.7.7,0,0,1,.22,1,.69.69,0,0,1-.93.24c-.15-.05-.7,0-1.44,1.08A3.32,3.32,0,0,1,11.38,30.76ZM15.51,28Zm0,0Zm0,0h0Z"/><path class="cls-6" d="M18.58,38.64a.78.78,0,0,1-.36-.1,2.29,2.29,0,0,1-1-1.8A3.24,3.24,0,0,1,18.89,34c1.18-.85,1.1-1.41,1.1-1.41a.7.7,0,0,1,1.19-.75c0,.06.94,1.56-1.47,3.3a2,2,0,0,0-1.06,1.54.93.93,0,0,0,.29.7.71.71,0,0,1-.36,1.31Z"/><path class="cls-6" d="M17.41,33.72a.74.74,0,0,1-.5-.2l-2.33-2.34a.71.71,0,0,1,0-1,.69.69,0,0,1,1,0l2.34,2.33a.72.72,0,0,1,0,1A.74.74,0,0,1,17.41,33.72Z"/><path class="cls-4" d="M5.72,42.27h0a.87.87,0,0,1-.06-1.17l5.56-6.78a.38.38,0,0,1,.56,0l1.92,1.92a.37.37,0,0,1,0,.55L6.9,42.33A.89.89,0,0,1,5.72,42.27Z"/><path class="cls-2" d="M42.26,8.69l-6.39,6.38-1,1L33,17.9l-1,1L30.2,20.74l-1,1-1.84,1.84-1,1-4.13,4.13a.39.39,0,0,1-.53,0l-2.4-2.4a.37.37,0,0,1,0-.53l4.11-4.1,1-1,1.84-1.84,1-1L29.1,16l1-1,1.84-1.84,1-1,6.4-6.4a.37.37,0,0,1,.53,0l2.4,2.4A.37.37,0,0,1,42.26,8.69Z"/><path class="cls-5" d="M38.3,13.22l-3.5-3.5c-.16-.16-.09-.48.14-.68l6.74-5.89a.46.46,0,0,1,.61-.07l2.63,2.63a.46.46,0,0,1-.07.61L39,13.07C38.78,13.31,38.46,13.38,38.3,13.22Z"/><path class="cls-1" d="M47.91,3.91,44,8.93a.42.42,0,0,1-.62,0l-2-2-2.21-2.2a.43.43,0,0,1,0-.62l5-4a.44.44,0,0,1,.57.08l1.18,1.18,2,2A.44.44,0,0,1,47.91,3.91Z"/><path class="cls-5" d="M47.91,4,44,9a.42.42,0,0,1-.62,0l-2-2h0A.41.41,0,0,0,42,7L45.9,2a.44.44,0,0,0-.07-.56l2,2A.44.44,0,0,1,47.91,4Z"/><polygon class="cls-4" points="35.87 15.07 34.88 16.06 31.93 13.16 32.93 12.17 35.87 15.07"/><polygon class="cls-4" points="33.04 17.9 32.05 18.9 29.1 15.99 30.09 15 33.04 17.9"/><polygon class="cls-4" points="30.2 20.73 29.21 21.73 26.26 18.83 27.26 17.83 30.2 20.73"/><polygon class="cls-4" points="27.37 23.57 26.38 24.56 23.43 21.66 24.42 20.67 27.37 23.57"/></svg>