<svg id="Acoustic_Grand_Keyboard" data-name="Acoustic Grand Keyboard" xmlns="http://www.w3.org/2000/svg" viewBox="0 0 48 48"><defs><style>.cls-1{fill:#6f6571;}.cls-2{fill:#ffe09f;}.cls-3{fill:#ecbd83;}.cls-4{fill:#f6d190;}.cls-5{fill:#4b3f4e;}.cls-6{fill:#5d5360;}.cls-7{fill:#ff8086;}.cls-8{fill:#e5646e;}.cls-9{fill:#857e87;}</style></defs><path class="cls-1" d="M42,28.14l-.75.77-.75-.77V16.89H42Z"/><path class="cls-2" d="M41.25,13.14A2.25,2.25,0,0,0,39,15.39h4.5A2.25,2.25,0,0,0,41.25,13.14Z"/><path class="cls-3" d="M39.75,15.39v2.25a.76.76,0,0,0,.75.75H42a.76.76,0,0,0,.75-.75V15.39Z"/><path class="cls-4" d="M47.25,16.14H39l-.53-.75.53-.75h8.25a.75.75,0,0,1,0,1.5Z"/><path class="cls-3" d="M35.25,16.14H39v-1.5H35.25a.75.75,0,0,0,0,1.5Z"/><path class="cls-1" d="M7.5,18.39l-.75,1.16L6,18.39V5.64H7.5Z"/><path class="cls-2" d="M7.62,4.51a2.25,2.25,0,0,0-3,1.13L8.76,7.48A2.26,2.26,0,0,0,7.62,4.51Z"/><path class="cls-4" d="M12.48,8.33,5,5l-.75.45.14.92L11.87,9.7a.75.75,0,1,0,.61-1.37Z"/><path class="cls-3" d="M.92,4.8,4.34,6.33,5,5,1.53,3.43A.75.75,0,1,0,.92,4.8Z"/><path class="cls-5" d="M42,41.64V28.14H40.5v13.5H36.75v1.5h9v-1.5Z"/><path class="cls-6" d="M47.25,44.64a.79.79,0,0,1-.53-.22L41.25,39l-5.47,5.47a.75.75,0,0,1-1.06-1.06l6-6a.74.74,0,0,1,1.06,0l6,6a.75.75,0,0,1,0,1.06A.79.79,0,0,1,47.25,44.64Z"/><path class="cls-6" d="M19.5,19.89H21v4.5H19.5Z"/><path class="cls-6" d="M26.25,18.39h1.5v6h-1.5Z"/><path class="cls-7" d="M32.25,18.39H26.69V15.67l5.56.47Z"/><path class="cls-8" d="M28.5,16.14h3.75V13.89h-7.5v4.5H27v-.75A1.5,1.5,0,0,1,28.5,16.14Z"/><path class="cls-7" d="M27.75,22.89h10.5v4.5H27.75Z"/><path class="cls-1" d="M33.75,28.14a.76.76,0,0,1-.75-.75v-1.5a.75.75,0,0,1,1.5,0v1.5A.76.76,0,0,1,33.75,28.14Z"/><path class="cls-8" d="M33.75,25.14h4.5V22.89H27.75v4.5H33v-1.5A.75.75,0,0,1,33.75,25.14Z"/><path class="cls-9" d="M38.25,23.64H27.75a.75.75,0,0,1,0-1.5h10.5a.75.75,0,0,1,0,1.5Z"/><path class="cls-9" d="M38.25,28.14H27.75a.75.75,0,0,1,0-1.5h10.5a.75.75,0,0,1,0,1.5Z"/><path class="cls-1" d="M27.75,26.64H33v1.5H27.75a.75.75,0,0,1,0-1.5Z"/><path class="cls-7" d="M15.75,34.89H8.27V24.19l7.48.95Z"/><path class="cls-8" d="M12,25.14h3.75V22.89h-12v12H9V28.14A3,3,0,0,1,12,25.14Z"/><path class="cls-9" d="M15.75,23.64H9l-.66-.75L9,22.14h6.75a.75.75,0,0,1,0,1.5Z"/><path class="cls-9" d="M15.75,35.64H9l-.56-.75L9,34.14h6.75a.75.75,0,0,1,0,1.5Z"/><path class="cls-6" d="M15.75,44.64a.74.74,0,0,1-.42-.13.75.75,0,0,1-.2-1L17,40.7a.76.76,0,0,1,1-.21.75.75,0,0,1,.21,1L16.37,44.3A.74.74,0,0,1,15.75,44.64Z"/><path class="cls-6" d="M32.27,44.63a.76.76,0,0,1-.62-.33l-1.9-2.75A.75.75,0,0,1,31,40.7l1.9,2.75a.75.75,0,0,1-.19,1A.76.76,0,0,1,32.27,44.63Z"/><path class="cls-7" d="M21.75,19.89H15.61V17.16l6.14.48Z"/><path class="cls-8" d="M18,16.14h3.75V13.89h-9v2.25l.64.75-.64.75v2.25H16.5V17.64A1.5,1.5,0,0,1,18,16.14Z"/><path class="cls-1" d="M9.75,32.64A.76.76,0,0,1,9,31.89v-3a.75.75,0,0,1,1.5,0v3A.76.76,0,0,1,9.75,32.64Z"/><path class="cls-9" d="M21.75,17.64H16.5L16,16.43a4.1,4.1,0,0,1,1.9-.29h3.83Z"/><path class="cls-1" d="M3.75,22.14H9v1.5H3.75a.75.75,0,0,1,0-1.5Z"/><path class="cls-1" d="M27.75,22.14H33v1.5H27.75a.75.75,0,0,1,0-1.5Z"/><path class="cls-1" d="M3.75,34.14H9v1.5H3.75a.75.75,0,0,1,0-1.5Z"/><path class="cls-5" d="M7.5,41.64V18.39H6V41.64H2.25v1.5h9v-1.5Z"/><path class="cls-6" d="M12.75,44.64a.79.79,0,0,1-.53-.22L6.75,39,1.28,44.42A.75.75,0,0,1,.22,43.36l6-6a.74.74,0,0,1,1.06,0l6,6a.75.75,0,0,1,0,1.06A.79.79,0,0,1,12.75,44.64Z"/><path class="cls-9" d="M21.75,14.64H16.5l-.73-.75.73-.75h5.25a.75.75,0,0,1,0,1.5Z"/><path class="cls-9" d="M21.75,20.64H16.5l-.75-.75.75-.75h5.25a.75.75,0,0,1,0,1.5Z"/><path class="cls-1" d="M12.75,13.14H16.5v1.5H12.75a.75.75,0,0,1,0-1.5Z"/><path class="cls-9" d="M32.25,14.64H28.5L28,13.89l.53-.75h3.75a.75.75,0,0,1,0,1.5Z"/><path class="cls-1" d="M24.75,13.14H28.5v1.5H24.75a.75.75,0,0,1,0-1.5Z"/><path class="cls-9" d="M32.25,19.14H28.5l-.64-.75.64-.75h3.75a.75.75,0,0,1,0,1.5Z"/><path class="cls-1" d="M24.75,17.64H28.5v1.5H24.75a.75.75,0,0,1,0-1.5Z"/><path class="cls-1" d="M12.75,19.14H16.5v1.5H12.75a.75.75,0,0,1,0-1.5Z"/><path class="cls-1" d="M18,16.14H12.75v1.5H16.5A1.5,1.5,0,0,1,18,16.14Z"/><path class="cls-9" d="M34.5,33.39A10.5,10.5,0,1,1,24,22.89,10.5,10.5,0,0,1,34.5,33.39Z"/><path class="cls-1" d="M32.72,33.39a8.75,8.75,0,0,1-2.94,6.9A9,9,0,0,1,17.1,27.61,8.69,8.69,0,0,1,24,24.75,8.46,8.46,0,0,1,32.72,33.39Z"/><path class="cls-6" d="M24,24.39a9,9,0,0,0-6.9,3.22A9,9,0,0,1,29.78,40.29,9,9,0,0,0,24,24.39Z"/></svg>