<svg id="Acoustic_Grand_Keyboard" data-name="Acoustic Grand Keyboard" xmlns="http://www.w3.org/2000/svg" viewBox="0 0 48 48"><defs><style>.cls-1{fill:#ff9f00;}.cls-2{fill:#ffd400;}.cls-3{fill:#fdbf00;}.cls-4{fill:#ffe666;}</style></defs><path class="cls-1" d="M20.58,31.71l2-2,5.75,5.75-2,2Z"/><path class="cls-1" d="M27,25.26l2-2L34.78,29l-2,2Z"/><path class="cls-2" d="M19.65,3.24l-.93,2.58-.28.81a51,51,0,0,1-2.21,5.68,14.29,14.29,0,0,0-.62,2.44l3.76,4.7s2.41-.73,3-1a49.57,49.57,0,0,1,5.71-2.2l.78-.28,2.6-.92Z"/><path class="cls-3" d="M17.55,17.18l1.82,2.27s2.41-.73,3-1a49.57,49.57,0,0,1,5.71-2.2l.78-.28,2.6-.92L25.57,9.16Z"/><path class="cls-1" d="M11.2,28.18l2-2,6.46,6.46-2,2Z"/><path class="cls-4" d="M16.23,12.31l-1,1.48a13.57,13.57,0,0,1-1.19,1.58l-3.93,4.27L2.54,27.26A8.67,8.67,0,0,0,1.16,37.72l1.06-.42L3.39,36,15,24.49l4.25-3.92a13.57,13.57,0,0,1,1.6-1.19l1.49-.95Z"/><path class="cls-2" d="M.09,34.64a8.77,8.77,0,0,0,1.07,3.08l1.06-.43L3.39,36,15,24.49l4.25-3.92a13.57,13.57,0,0,1,1.6-1.19l1.49-.95-3-3Z"/><path class="cls-3" d="M23.08,42.72l-2-2L44.4,17.4a2.67,2.67,0,0,0,0-3.75,2.66,2.66,0,0,0-3.75,0L14.79,39.51a8.65,8.65,0,0,1-12.25,0,8.82,8.82,0,0,1-1.38-1.79L3.39,36a9.42,9.42,0,0,0,1.15,1.53,5.83,5.83,0,0,0,8.25,0L38.65,11.65A5.48,5.48,0,0,1,46.4,19.4Z"/><path class="cls-1" d="M19,40.68l2-2,4.08,4.08-2,2Z"/></svg>