<svg id="Acoustic_Grand_Keyboard" data-name="Acoustic Grand Keyboard" xmlns="http://www.w3.org/2000/svg" viewBox="0 0 48 48"><defs><style>.cls-1{fill:#a79ba7;}.cls-2{fill:#7a6d79;}.cls-3{fill:#c4e2ff;}.cls-4{fill:#60b7ff;}.cls-5{fill:#b3dafe;}.cls-6{fill:#f3f0f3;}.cls-7{fill:#efedef;}.cls-8{fill:#cbc4cc;}.cls-9{fill:#26a6fe;}</style></defs><path class="cls-1" d="M5.39,16.52.16,15.76a.2.2,0,0,1-.07-.36L4,13.12l4.45-2.5L10,17.3Z"/><path class="cls-1" d="M30.79,34a.73.73,0,0,0-1,.17L28,36.61l0,0L23.92,43.2H22.21a.73.73,0,0,0,0,1.45h2.11a.75.75,0,0,0,.62-.34l.44-.72.53.75a.72.72,0,0,0,.59.31h1.59a.73.73,0,0,0,0-1.45H26.87l-.66-.94,3-4.83L31,35a.71.71,0,0,0-.18-1Z"/><path class="cls-1" d="M26.72,35.48a.72.72,0,1,0-1.19-.81L23.7,37.33v0l-1.42,2.26h0l-.8,1.28H19.75a.73.73,0,0,0-.73.73.73.73,0,0,0,.73.72h2.11a.72.72,0,0,0,.61-.34l.45-.71.52.74a.72.72,0,0,0,.59.31h1.59a.72.72,0,0,0,.72-.72.73.73,0,0,0-.72-.73H24.41L23.75,40l1.15-1.84Z"/><path class="cls-2" d="M39.45,28.68l3,2.16a6.79,6.79,0,0,1-3,2.8l-.36.17h0a13.61,13.61,0,0,1-1.52-.88l-2-1.32-3.65-1.87,4.12-3Z"/><path class="cls-3" d="M20.72,20.17,17,16.44a8.68,8.68,0,0,1-2.53-5.88l0-1.16a.4.4,0,0,1,0-.19l1-2.19a.12.12,0,0,0-.11-.17l-1.26.05a.14.14,0,0,1-.15-.17L14,6.47a2.42,2.42,0,0,0-.73-2.25l-.88-.83a.14.14,0,0,0-.24.11v.88a3.42,3.42,0,0,1-.86,2.27h0a.76.76,0,0,1-.39.24l-3.06.77A5,5,0,0,0,4,12.53l.78.19,3.81,2.94-2,3.43h0L7.27,24A15.87,15.87,0,0,0,24.08,37.69h.24A26.18,26.18,0,0,0,36.85,33.5l.76-.51Z"/><path class="cls-4" d="M40,28a.28.28,0,0,1-.09.2,20.6,20.6,0,0,1-14.66,6.13,20.76,20.76,0,0,1-6.06-.91,8.46,8.46,0,0,1-5.95-7.36,4.65,4.65,0,0,1,2.41-4.5,11.23,11.23,0,0,1,10.25-.23l12.18,5.9a1.33,1.33,0,0,0,.28.1l1.42.38A.3.3,0,0,1,40,28Z"/><path class="cls-4" d="M42.44,30.84l2.37,1.7a5,5,0,0,1-1.61,2.3l-.3.23a14.25,14.25,0,0,1-3.85-1.26l.36-.17a6.79,6.79,0,0,0,3-2.8Z"/><path class="cls-2" d="M47.89,34.77a.27.27,0,0,1-.15.48l-2,0a13.85,13.85,0,0,1-2.81-.22l.3-.23a5,5,0,0,0,1.61-2.3Z"/><path class="cls-5" d="M10.5,24.5l-.79-5.7a1,1,0,0,0-.18-.47L8.63,17a2.08,2.08,0,0,1-1.27-1.76l-.13-1.65V13A5,5,0,0,1,11,8.12l3.06-.76a.8.8,0,0,0,.39-.24h0c.06-.08.13-.15.18-.23l-.61,0a.14.14,0,0,1-.15-.17L14,6.47a2.42,2.42,0,0,0-.73-2.25l-.88-.83a.14.14,0,0,0-.24.11v.88a3.42,3.42,0,0,1-.86,2.27h0a.76.76,0,0,1-.39.24l-3.06.77A5,5,0,0,0,4,12.53l1.52-.13,1.91,4.47-.84,2.22h0L7.27,24A15.87,15.87,0,0,0,22.39,37.72,15.9,15.9,0,0,1,10.5,24.5Z"/><path class="cls-6" d="M11.91,11v3.34a4.07,4.07,0,0,1-2.73,3.84l-2.6.9-.1-.75a1.17,1.17,0,0,0-.18-.46l-.91-1.36,0-.8a2.68,2.68,0,0,0-.92-2.15L4,13.12v-.59l.28-.23a4.43,4.43,0,0,1,2.85-1H11l.61-.4a.18.18,0,0,1,.28.14Z"/><path class="cls-7" d="M9.39,18.11,9,17.52a3.09,3.09,0,0,0-.76-.77,2.07,2.07,0,0,1-.87-1.53l-.13-1.65V13a4.94,4.94,0,0,1,.3-1.72H7.12a4.43,4.43,0,0,0-2.85,1L4,12.53v.59l.51.45a2.71,2.71,0,0,1,.92,2.15l0,.8.91,1.36a1,1,0,0,1,.17.46l.11.75,2.6-.9Z"/><path class="cls-2" d="M8,14.85a.72.72,0,0,1-.72-.72v-.58a.72.72,0,1,1,1.44,0v.58A.72.72,0,0,1,8,14.85Z"/><path class="cls-8" d="M17.45,17l.06,0L17,16.44c-.17-.17-.33-.35-.48-.53A36.8,36.8,0,0,0,7.76,26.33a16.42,16.42,0,0,0,.67,1.86l.29-.58A34.79,34.79,0,0,1,17.45,17Z"/><path class="cls-9" d="M36.78,30.82l-.08.06c-.51.34-1,.66-1.58.95a56.45,56.45,0,0,1-21-2.85h0a8.5,8.5,0,0,1-.8-2.92,4.59,4.59,0,0,1,.17-1.74c7.84,3.51,15.73,6,23.34,6.5Z"/><path class="cls-1" d="M35.12,31.83a20.62,20.62,0,0,1-15.9,1.59,8.56,8.56,0,0,1-4.1-2.77,8.7,8.7,0,0,1-1-1.67,56.42,56.42,0,0,0,21,2.85Z"/><path class="cls-1" d="M10.5,24.5l-.28-2a28.59,28.59,0,0,0-2.46,3.85,16.42,16.42,0,0,0,.67,1.86l.29-.58a27.51,27.51,0,0,1,1.79-3.05V24.5Z"/></svg>