<svg id="Acoustic_Grand_Keyboard" data-name="Acoustic Grand Keyboard" xmlns="http://www.w3.org/2000/svg" viewBox="0 0 48 48"><defs><style>.cls-1{fill:#a44f3e;}.cls-2{fill:#bb5d4c;}.cls-3{fill:#465a61;}.cls-4{fill:#596c76;}.cls-5{fill:#d7d0d6;}.cls-6{fill:#e5e1e5;}.cls-7{fill:#7a8c98;}.cls-8{fill:#fedba6;}</style></defs><path class="cls-1" d="M40.93,1.18V45.3A2.69,2.69,0,0,1,38.24,48H9.76a2.69,2.69,0,0,1-2.69-2.7V1.18A1.17,1.17,0,0,1,8.24,0H39.76a1.17,1.17,0,0,1,1.17,1.18Z"/><path class="cls-2" d="M37.88,1.61V45.3a2.7,2.7,0,0,1-2.7,2.7H9.76a2.69,2.69,0,0,1-2.69-2.7V1.18A1.17,1.17,0,0,1,8.24,0h28a1.61,1.61,0,0,1,1.61,1.61Z"/><path class="cls-3" d="M31.71,31.2A7.72,7.72,0,1,1,24,23.49,7.71,7.71,0,0,1,31.71,31.2Z"/><path class="cls-4" d="M28.36,31.2a7.7,7.7,0,0,1-6,7.52,7.71,7.71,0,0,1,0-15A7.71,7.71,0,0,1,28.36,31.2Z"/><path class="cls-5" d="M13.21,3V19.62a1.54,1.54,0,0,1-1.54,1.55,1.61,1.61,0,0,1-.76-.22,1.54,1.54,0,0,1-.79-1.33V4.17A1.18,1.18,0,0,1,11.3,3Z"/><path class="cls-6" d="M11.67,3V19.62A1.54,1.54,0,0,1,10.91,21a1.54,1.54,0,0,1-.79-1.33V4.17A1.18,1.18,0,0,1,11.3,3Z"/><path class="cls-5" d="M16.29,3V21.56a1.54,1.54,0,0,1-1.54,1.54,1.66,1.66,0,0,1-.76-.21,1.55,1.55,0,0,1-.78-1.33V3Z"/><path class="cls-6" d="M14.75,3V21.56A1.54,1.54,0,0,1,14,22.89a1.55,1.55,0,0,1-.78-1.33V3Z"/><path class="cls-5" d="M19.37,3v20.5A1.54,1.54,0,0,1,17.83,25a1.59,1.59,0,0,1-.75-.21,1.54,1.54,0,0,1-.79-1.33V3Z"/><path class="cls-6" d="M17.83,3v20.5a1.55,1.55,0,0,1-.75,1.33,1.54,1.54,0,0,1-.79-1.33V3Z"/><path class="cls-5" d="M22.46,3V25.42A1.54,1.54,0,0,1,20.92,27a1.49,1.49,0,0,1-.76-.21,1.56,1.56,0,0,1-.79-1.33V3Z"/><path class="cls-6" d="M20.92,3V25.42a1.55,1.55,0,0,1-.76,1.33,1.56,1.56,0,0,1-.79-1.33V3Z"/><path class="cls-5" d="M36.7,3a1.18,1.18,0,0,1,1.18,1.18V19.62a1.58,1.58,0,0,1-1.55,1.55,1.5,1.5,0,0,1-.78-.22,1.54,1.54,0,0,1-.76-1.33V3Z"/><path class="cls-6" d="M36.33,3V19.62A1.53,1.53,0,0,1,35.55,21a1.54,1.54,0,0,1-.76-1.33V3Z"/><path class="cls-5" d="M34.79,3V21.56a1.54,1.54,0,0,1-2.32,1.33,1.54,1.54,0,0,1-.76-1.33V3Z"/><path class="cls-6" d="M33.25,3V21.56a1.55,1.55,0,0,1-.78,1.33,1.54,1.54,0,0,1-.76-1.33V3Z"/><path class="cls-5" d="M31.71,3v20.5A1.57,1.57,0,0,1,30.17,25a1.6,1.6,0,0,1-.79-.21,1.55,1.55,0,0,1-.75-1.33V3Z"/><path class="cls-6" d="M30.17,3v20.5a1.54,1.54,0,0,1-.79,1.33,1.55,1.55,0,0,1-.75-1.33V3Z"/><path class="cls-5" d="M28.63,3V25.42A1.57,1.57,0,0,1,27.08,27a1.6,1.6,0,0,1-.78-.21,1.55,1.55,0,0,1-.76-1.33V3Z"/><path class="cls-6" d="M27.08,3V25.42a1.55,1.55,0,0,1-.78,1.33h0a1.55,1.55,0,0,1-.76-1.33V3h1.54Z"/><path class="cls-5" d="M25.54,3V27.35a1.54,1.54,0,0,1-3.08,0V3Z"/><path class="cls-6" d="M24,3V27.35a1.53,1.53,0,0,1-.76,1.33,1.55,1.55,0,0,1-.78-1.33V3Z"/><path class="cls-4" d="M7.07,8.36H40.93V13H7.07Z"/><path class="cls-7" d="M7.07,8.36H37.88V13H7.07Z"/><circle class="cls-6" cx="24" cy="10.7" r="0.72"/><circle class="cls-6" cx="16.29" cy="10.7" r="0.72"/><circle class="cls-6" cx="31.71" cy="10.7" r="0.72"/><path class="cls-8" d="M28.32,44.23H19.68a.73.73,0,0,1-.73-.72.73.73,0,0,1,.73-.73h8.64a.73.73,0,0,1,.73.73A.73.73,0,0,1,28.32,44.23Z"/></svg>