<svg id="Acoustic_Grand_Keyboard" data-name="Acoustic Grand Keyboard" xmlns="http://www.w3.org/2000/svg" viewBox="0 0 48 48"><defs><style>.cls-1{fill:#ff9f00;}.cls-2{fill:#f77e00;}.cls-3{fill:#fff04a;}.cls-4{fill:#00ddc1;}.cls-5{fill:#a24603;}.cls-6{fill:#f2d813;}.cls-7{fill:#803602;}.cls-8{fill:#00ab94;}</style></defs><path class="cls-1" d="M41.16,36.79H1.41a1.41,1.41,0,0,1,0-2.82H41.16a1.41,1.41,0,0,1,0,2.82Z"/><path class="cls-2" d="M1.41,36.79H41.16a1.41,1.41,0,0,0,1.41-1.41H0A1.41,1.41,0,0,0,1.41,36.79Z"/><path class="cls-1" d="M4.72,22.51a4.68,4.68,0,1,1,4.72-4.68A4.71,4.71,0,0,1,4.72,22.51Zm0-6.74a2.06,2.06,0,0,0,0,4.11,2.06,2.06,0,0,0,0-4.11Z"/><path class="cls-2" d="M6.61,17.56a2.45,2.45,0,0,1,0,.27,2.06,2.06,0,0,1-1.91,2.05,2.06,2.06,0,0,1-1.91-2.05,2.45,2.45,0,0,1,0-.27H0a2.44,2.44,0,0,0,0,.27,4.72,4.72,0,0,0,9.44,0c0-.09,0-.18,0-.27Z"/><path class="cls-3" d="M22.12,22.6H4.81a4.78,4.78,0,1,1,0-9.55H17.94a1.41,1.41,0,1,1,0,2.82H4.81a2,2,0,1,0,0,3.92H22.12a1.41,1.41,0,1,1,0,2.81Z"/><path class="cls-4" d="M38.47,16.16V10a1.42,1.42,0,0,0-.46-1,1.38,1.38,0,0,0-1.08-.36L18.69,10.27a1.41,1.41,0,0,0-1.27,1.4v4.49a1.4,1.4,0,0,0,1.4,1.4H37.07A1.4,1.4,0,0,0,38.47,16.16Z"/><path class="cls-4" d="M46.59,18.24H22.75a1.41,1.41,0,0,0-1.41,1.41v5a1.41,1.41,0,0,0,1.31,1.4l23.84,1.72h.1a1.42,1.42,0,0,0,1-.38,1.4,1.4,0,0,0,.45-1V19.65A1.41,1.41,0,0,0,46.59,18.24Z"/><path class="cls-5" d="M43.88,31.31A4.08,4.08,0,1,0,48,35.38,4.1,4.1,0,0,0,43.88,31.31Z"/><path class="cls-6" d="M22.12,19.79H4.81a2,2,0,0,1-2-2,2.45,2.45,0,0,1,0-.27H0a2.44,2.44,0,0,0,0,.27A4.8,4.8,0,0,0,4.81,22.6H22.12a1.41,1.41,0,1,0,0-2.81Z"/><path class="cls-7" d="M43.88,39.46A4.11,4.11,0,0,0,48,35.38H39.75A4.11,4.11,0,0,0,43.88,39.46Z"/><path class="cls-8" d="M46.59,18.24H22.75a1.41,1.41,0,0,0-1.41,1.41v5a1.41,1.41,0,0,0,1.31,1.4l23.84,1.72h.1a1.42,1.42,0,0,0,1-.38,1.4,1.4,0,0,0,.45-1V19.65A1.41,1.41,0,0,0,46.59,18.24Z"/></svg>