<svg id="Acoustic_Grand_Keyboard" data-name="Acoustic Grand Keyboard" xmlns="http://www.w3.org/2000/svg" viewBox="0 0 48 48"><defs><style>.cls-1{fill:#eab14d;}.cls-2{fill:#e49542;}.cls-3{fill:#f9efda;}.cls-4{fill:#756e78;}.cls-5{fill:#665e66;}.cls-6{fill:#f9f6f9;}</style></defs><path class="cls-1" d="M29.59,38.07A79.67,79.67,0,0,1,2.06,23.73L13.56,1.66A79.67,79.67,0,0,1,41.09,16Z"/><path class="cls-2" d="M24.08,36.27c1.85.69,3.69,1.3,5.51,1.8L41.09,16q-2.19-1.8-4.64-3.48l-.08.15a3.68,3.68,0,0,0-.3,2.55,2.17,2.17,0,0,0,.07.24c.17.69.17.76,0,1s-.21.32-.87.57a5.51,5.51,0,0,0-3.66,7c.18.69.18.76,0,1s-.2.32-.87.57a5.5,5.5,0,0,0-3.65,7c.17.69.18.76,0,1s-.21.32-.87.57l-.24.09a3.65,3.65,0,0,0-1.92,1.71,1,1,0,0,1-.07.15Z"/><path class="cls-3" d="M16.4.72a1.36,1.36,0,0,1-.15,2.47A3.5,3.5,0,0,0,14,4.92c-1.13,2.16.81,3.17-.32,5.33s-3.06,1.14-4.18,3.3.81,3.16-.31,5.32S6.08,20,5,22.18a3.47,3.47,0,0,0-.1,2.88,1.35,1.35,0,0,1-1.94,1.53l-.84-.43A2.49,2.49,0,0,1,1,22.8L12.2,1.34A2.49,2.49,0,0,1,15.56.28Z"/><path class="cls-3" d="M26.75,39a1.36,1.36,0,0,1,.14-2.47,3.49,3.49,0,0,0,2.31-1.73c1.13-2.16-.81-3.17.31-5.32s3.06-1.15,4.19-3.31S32.88,23,34,20.86s3.06-1.15,4.18-3.3a3.53,3.53,0,0,0,.1-2.89,1.35,1.35,0,0,1,1.94-1.53l.84.43a2.5,2.5,0,0,1,1.06,3.37L31,38.39a2.49,2.49,0,0,1-3.36,1.06Z"/><path class="cls-4" d="M25.57,23.2l-5.29,1.13a1.44,1.44,0,0,1-1.62-.85l-2.11-5a1.44,1.44,0,0,1,1-2l5.28-1.12a1.44,1.44,0,0,1,1.63.84l2.11,5a1.45,1.45,0,0,1-1,2Z"/><path class="cls-5" d="M22.37,15.51,24.28,20a1.44,1.44,0,0,1-1,2l-4.79,1,.2.46a1.44,1.44,0,0,0,1.62.85l5.29-1.13a1.45,1.45,0,0,0,1-2l-2.11-5a1.44,1.44,0,0,0-1.63-.84Z"/><circle class="cls-6" cx="21.57" cy="19.87" r="1.61"/><path class="cls-5" d="M6.37,18.56A.76.76,0,0,1,6,18.48a.72.72,0,0,1-.31-1L6,17a.72.72,0,1,1,1.28.67L7,18.17a.72.72,0,0,1-.64.39Z"/><path class="cls-5" d="M10.93,9.81a.68.68,0,0,1-.34-.08.72.72,0,0,1-.3-1l.27-.51a.72.72,0,1,1,1.28.66l-.27.52A.72.72,0,0,1,10.93,9.81Z"/><path class="cls-5" d="M32,31.89a.66.66,0,0,1-.33-.09.71.71,0,0,1-.31-1l.27-.52a.72.72,0,1,1,1.28.67l-.27.52a.74.74,0,0,1-.64.39Z"/><path class="cls-5" d="M36.51,23.14a.81.81,0,0,1-.34-.08.74.74,0,0,1-.31-1l.28-.52a.72.72,0,1,1,1.28.67l-.27.52a.72.72,0,0,1-.64.39Z"/><path class="cls-4" d="M19.46,41.35H12.94V29.5a1.38,1.38,0,0,1,1.38-1.38h.5A1.38,1.38,0,0,1,16.2,29.5a1.39,1.39,0,0,0,1.36,1.38h.54a1.39,1.39,0,0,1,1.36,1.38v9.09Z"/><path class="cls-5" d="M18.1,30.88h-.54A1.39,1.39,0,0,1,16.2,29.5a1.38,1.38,0,0,0-1.38-1.38h-.5a1.4,1.4,0,0,0-.79.25,1.38,1.38,0,0,1,.58,1.13,1.39,1.39,0,0,0,1.36,1.38H16a1.39,1.39,0,0,1,1.37,1.38v9.09h2.09V32.26A1.39,1.39,0,0,0,18.1,30.88Z"/><path class="cls-4" d="M36.76,41.35h6.52V29.5a1.38,1.38,0,0,0-1.38-1.38h-.5A1.38,1.38,0,0,0,40,29.5a1.39,1.39,0,0,1-1.36,1.38h-.53a1.39,1.39,0,0,0-1.37,1.38v9.09Z"/><path class="cls-5" d="M41.9,28.12h-.5a1.37,1.37,0,0,0-.75.22,1.38,1.38,0,0,1,.63,1.16V41.35h2V29.5a1.38,1.38,0,0,0-1.38-1.38Z"/><path class="cls-1" d="M47,45.53H9.19A.23.23,0,0,1,9,45.3V41.58a.23.23,0,0,1,.23-.23H47a.23.23,0,0,1,.23.23V45.3a.22.22,0,0,1-.22.23Z"/><path class="cls-2" d="M47,41.35H45a.22.22,0,0,1,.22.23V45.3a.22.22,0,0,1-.22.23H47a.22.22,0,0,0,.22-.23V41.58A.22.22,0,0,0,47,41.35Z"/><path class="cls-2" d="M21.94,48h-8a.51.51,0,0,1-.51-.51v-2h9.07v2A.51.51,0,0,1,21.94,48Z"/><path class="cls-2" d="M42.33,48h-8a.51.51,0,0,1-.51-.51v-2h9.07v2a.51.51,0,0,1-.51.51Z"/></svg>