<svg id="Acoustic_Grand_Keyboard" data-name="Acoustic Grand Keyboard" xmlns="http://www.w3.org/2000/svg" viewBox="0 0 48 48"><defs><style>.cls-1{fill:#607d8b;}.cls-2{fill:#9c27b0;}.cls-3{fill:#03a9f4;}.cls-4{fill:#8bc34a;}.cls-5{fill:#ffc107;}.cls-6{fill:#ff9800;}.cls-7{fill:#f44336;}.cls-8{fill:#d7ccc8;}.cls-9{fill:#f57c00;}</style></defs><path class="cls-1" d="M46.11,23.77,1.43,17.54a1.66,1.66,0,0,1,.46-3.29l44.68,6.24a1.66,1.66,0,1,1-.46,3.28Z"/><path class="cls-1" d="M1.89,42.75l44.68-6.24a1.66,1.66,0,1,0-.46-3.28L1.43,39.46a1.66,1.66,0,0,0,.46,3.29Z"/><path class="cls-2" d="M40,18.5v20h7v-20Z"/><path class="cls-3" d="M32,17.5v22h7v-22Z"/><path class="cls-4" d="M24,15.5v25h7v-25Z"/><path class="cls-5" d="M17,14.5v27h7v-27Z"/><path class="cls-6" d="M9,13.5v29h7v-29Z"/><path class="cls-7" d="M1,12.5v31H8v-31Z"/><circle class="cls-8" cx="4.47" cy="16.22" r="1.12"/><circle class="cls-8" cx="12.28" cy="17.34" r="1.12"/><circle class="cls-8" cx="20.09" cy="18.45" r="1.12"/><circle class="cls-8" cx="27.91" cy="19.57" r="1.12"/><circle class="cls-8" cx="35.72" cy="20.68" r="1.12"/><circle class="cls-8" cx="43.53" cy="21.8" r="1.12"/><circle class="cls-8" cx="4.47" cy="40.78" r="1.12"/><circle class="cls-8" cx="12.28" cy="39.66" r="1.12"/><circle class="cls-8" cx="20.09" cy="38.55" r="1.12"/><circle class="cls-8" cx="27.91" cy="37.43" r="1.12"/><circle class="cls-8" cx="35.72" cy="36.31" r="1.12"/><circle class="cls-8" cx="43.53" cy="35.2" r="1.12"/><path class="cls-9" d="M41.3,11.2h-.18L11,7.84a1.68,1.68,0,0,1,.37-3.33L41.49,7.86a1.68,1.68,0,0,1-.19,3.34Z"/><circle class="cls-6" cx="41.3" cy="9.52" r="3.35"/></svg>