<svg id="Acoustic_Grand_Keyboard" data-name="Acoustic Grand Keyboard" xmlns="http://www.w3.org/2000/svg" viewBox="0 0 48 48"><defs><style>.cls-1{fill:#b5b1b3;}.cls-2{fill:#fec93e;}.cls-3{fill:#efb533;}.cls-4{fill:#f7a738;}.cls-5{fill:#ea952f;}.cls-6{fill:#fd6e2e;}.cls-7{fill:#ea551b;}</style></defs><path class="cls-1" d="M18,47.16a.72.72,0,0,1-.72-.72V7A.73.73,0,0,1,18,6.23a.73.73,0,0,1,.73.73V46.44A.73.73,0,0,1,18,47.16Z"/><path class="cls-1" d="M21.94,39.91a.73.73,0,0,1-.73-.73V8a.73.73,0,0,1,.73-.72.72.72,0,0,1,.72.72V39.18A.73.73,0,0,1,21.94,39.91Z"/><path class="cls-1" d="M25.83,33.93a.73.73,0,0,1-.73-.73V10.91a.73.73,0,0,1,1.46,0V33.2A.73.73,0,0,1,25.83,33.93Z"/><path class="cls-1" d="M29.72,29.05a.73.73,0,0,1-.72-.73V15.46a.73.73,0,0,1,.72-.73.73.73,0,0,1,.73.73V28.32A.73.73,0,0,1,29.72,29.05Z"/><path class="cls-1" d="M33.62,23.16a.73.73,0,0,1-.73-.72V14.91a.73.73,0,0,1,.73-.73.73.73,0,0,1,.72.73v7.53A.72.72,0,0,1,33.62,23.16Z"/><path class="cls-2" d="M39.49,13.7A3.4,3.4,0,0,0,37,12.16a7.11,7.11,0,0,0-3.62.59c-1.8.72-2.9.94-3.37.68s-.93-1.38-1.5-2.77c-.3-.74-.64-1.59-1.08-2.54a8.65,8.65,0,0,0-5-4.94c-1.64-.55-5.89-.33-9.42-.3V9c3.53,0,10.52-1.26,12.91,3.76.89,1.85,2.33,5.51,8.4,2.6,1.51-.72,2.63-.91,3.15-.4s.52,1.49-1.13,3.41c-1.44,1.67-17.79,21.53-19,28.26h7c1-6,2.61-11,13.67-26.48C40.18,17.07,40.64,15.52,39.49,13.7Z"/><path class="cls-3" d="M38.5,14.24c-1.89-1.68-5,.67-8,.74a1.84,1.84,0,0,1-.94-.21A7.21,7.21,0,0,1,27,11.63a10,10,0,0,0-4.14-4.82c-4.3-2.22-9.76-1-9.85-.94V9c3.53,0,10.52-1.26,12.91,3.76.89,1.85,2.33,5.51,8.4,2.6,1.51-.72,2.63-.91,3.15-.4s.52,1.49-1.13,3.41c-1.44,1.67-17.79,21.53-19,28.26h3.12S24.41,33.4,37,19.45C38.85,17.35,39.58,15.2,38.5,14.24Z"/><rect class="cls-4" x="11.23" y="3.87" width="3.21" height="41.74"/><rect class="cls-5" x="12.84" y="3.87" width="1.6" height="41.74"/><path class="cls-6" d="M15.14,7.69h-4.6a.32.32,0,0,1-.32-.32V5.69a.32.32,0,0,1,.32-.32h4.6a.33.33,0,0,1,.32.32V7.37A.32.32,0,0,1,15.14,7.69Z"/><path class="cls-2" d="M14.56,5.37H11.11L10.28.13c0-.07,0-.13.08-.13h5a.1.1,0,0,1,.09.13Z"/><path class="cls-6" d="M15.14,37.22h-4.6a.32.32,0,0,0-.32.32v1.68a.32.32,0,0,0,.32.32h4.6a.33.33,0,0,0,.32-.32V37.54A.32.32,0,0,0,15.14,37.22Z"/><path class="cls-2" d="M14.56,39.54H11.11l-.83,5.24c0,.07,0,.13.08.13h5a.1.1,0,0,0,.09-.13Z"/><path class="cls-7" d="M15.14,5.37h-2.3V7.69h2.3a.32.32,0,0,0,.32-.32V5.69A.33.33,0,0,0,15.14,5.37Z"/><path class="cls-7" d="M15.14,37.22h-2.3v2.32h2.3a.33.33,0,0,0,.32-.32V37.54A.32.32,0,0,0,15.14,37.22Z"/><path class="cls-3" d="M15.31,0H12.84V5.37h1.72L15.4.13A.1.1,0,0,0,15.31,0Z"/><path class="cls-3" d="M14.56,39.54H12.84v5.37h2.47a.1.1,0,0,0,.09-.13Z"/><path class="cls-6" d="M25.84,48H8.77a.87.87,0,0,1-.87-.87V45.61a.87.87,0,0,1,.87-.87H25.84a.87.87,0,0,1,.87.87v1.52A.87.87,0,0,1,25.84,48Z"/><path class="cls-7" d="M26.71,45.58a.88.88,0,0,1-.87.85H8.77a.86.86,0,0,1-.86-.85v1.55a.87.87,0,0,0,.87.87H25.84a.87.87,0,0,0,.87-.87V45.58Z"/></svg>