<svg id="Acoustic_Grand_Keyboard" data-name="Acoustic Grand Keyboard" xmlns="http://www.w3.org/2000/svg" viewBox="0 0 48 48"><defs><style>.cls-1{fill:#792a47;}.cls-2{fill:#a62b38;}.cls-3{fill:#d22d28;}.cls-4{fill:#ff2f19;}.cls-5{fill:#fff;}.cls-6{fill:#202666;}.cls-7{fill:#fde6bb;}</style></defs><path class="cls-1" d="M28.36,30.62,42.84,35V47.28a.72.72,0,0,1-.72.72H40Z"/><path class="cls-2" d="M39.94,30.66H8.05L5.16,35V47.28a.72.72,0,0,0,.72.72H8.05L39.94,37.88Z"/><path class="cls-2" d="M28.36,17.58l14.48,4.35V35H40Z"/><path class="cls-3" d="M39.94,17.63H8.05L5.16,22V35H8.05L39.94,24.85Z"/><path class="cls-3" d="M42.29,16l-6.13-1.53A11.62,11.62,0,0,1,28.8,8.8L24.19.39V16.71l15.75,5.23h2.9V16.71a.72.72,0,0,0-.55-.7Z"/><path class="cls-4" d="M35.55,17.1a11.58,11.58,0,0,1-7.5-6.85L24.2.38A.7.7,0,0,0,23.57,0H5.88a.72.72,0,0,0-.72.72V21.94H39.94V18.4Z"/><path class="cls-5" d="M31.24,24.84,29.8,26.29l-1.45-1.45h-2.9L24,26.29l-1.45-1.45h-2.9L18.2,26.29l-1.44-1.45h-2.9l-1.45,1.45L11,24.84H8.06V35H39.94V24.84H37l-1.45,1.45-1.45-1.45Z"/><path class="cls-6" d="M11,24.84h2.91v7.22H11Z"/><path class="cls-6" d="M16.78,24.84h2.91v7.22H16.78Z"/><path class="cls-6" d="M22.59,24.84H25.5v7.22H22.59Z"/><path class="cls-6" d="M28.31,24.84h2.91v7.22H28.31Z"/><path class="cls-6" d="M34.12,24.84H37v7.22H34.12Z"/><path class="cls-7" d="M31.24,37.88,29.8,39.32l-1.45-1.44h-2.9L24,39.32l-1.45-1.44h-2.9L18.2,39.32l-1.44-1.44h-2.9l-1.45,1.44L11,37.88H8.06V48H39.94V37.88H37l-1.45,1.44-1.45-1.44Z"/><path class="cls-6" d="M11,37.88h2.91v7.21H11Z"/><path class="cls-6" d="M16.78,37.88h2.91v7.21H16.78Z"/><path class="cls-6" d="M22.59,37.88H25.5v7.21H22.59Z"/><path class="cls-6" d="M28.31,37.88h2.91v7.21H28.31Z"/><path class="cls-6" d="M34.12,37.88H37v7.21H34.12Z"/></svg>