<?xml version="1.0" encoding="utf-8"?>
<!-- Generator: Adobe Illustrator 25.0.0, SVG Export Plug-In . SVG Version: 6.00 Build 0)  -->
<svg version="1.1" xmlns="http://www.w3.org/2000/svg" xmlns:xlink="http://www.w3.org/1999/xlink" x="0px" y="0px"
	 viewBox="0 0 48 48" style="enable-background:new 0 0 48 48;" xml:space="preserve">
<style type="text/css">
	.st0{fill:#F5DAA7;}
	.st1{fill:#EDC472;}
	.st2{fill:#BC9B5B;}
	.st3{fill:#9A6A53;}
	.st4{fill:#855B47;}
	.st5{fill:#F4E2C1;}
	.st6{fill:#F7F7F7;}
	.st7{fill:#C8C3CA;}
	.st8{fill:#B78C7A;}
	.st9{fill:#7A5341;}
	.st10{fill:#704C3B;}
	.st11{fill:#CF9875;}
	.st12{fill:#C7865B;}
	.st13{clip-path:url(#SVGID_3_);}
	.st14{clip-path:url(#SVGID_4_);fill:#FFFFFF;stroke:#231F20;stroke-miterlimit:10;}
	.st15{fill:#FFFFFF;stroke:#231F20;stroke-miterlimit:10;}
	.st16{fill:none;stroke:#000000;stroke-width:4.5;stroke-miterlimit:10;}
	.st17{fill:#463C4B;}
	.st18{fill:#555A6E;}
	.st19{fill:#F06423;}
	.st20{fill:#FAA51E;}
	.st21{fill:#D7E6F0;}
	.st22{fill:#DADADA;}
	.st23{fill:#C4C6C6;}
	.st24{fill:#EDEEEF;}
	.st25{fill:#797981;}
	.st26{fill:#5A5A63;}
	.st27{fill:#494951;}
	.st28{fill:#29BAED;}
	.st29{fill:#DD9554;}
	.st30{fill:#CC8244;}
	.st31{fill:#805333;}
	.st32{fill:#A56A43;}
	.st33{fill:#CB8252;}
	.st34{fill:#ECF0F1;}
	.st35{fill:#603E26;}
	.st36{fill:#F9EAB0;}
	.st37{fill:#F5EFCA;}
	.st38{fill:#464F5D;}
	.st39{fill:#F3D55B;}
	.st40{fill:#6F6571;}
	.st41{fill:#4B3F4E;}
	.st42{fill:#5D5360;}
	.st43{fill:#857E87;}
	.st44{fill:#ECEAEC;}
	.st45{fill:#DAD8DB;}
	.st46{fill:#B3E59F;}
	.st47{fill:#CCF49F;}
	.st48{fill:#792A47;}
	.st49{fill:#A62B38;}
	.st50{fill:#D22D28;}
	.st51{fill:#FF2F19;}
	.st52{fill:#FFFFFF;}
	.st53{fill:#202666;}
	.st54{fill:#FDE6BB;}
	.st55{fill:#FE501F;}
	.st56{fill:#FD7226;}
	.st57{fill:#FCCD76;}
	.st58{fill:#FB932C;}
	.st59{fill:#4D2857;}
	.st60{fill:#B19046;}
	.st61{fill:#F0C419;}
	.st62{fill:#24AE5F;}
	.st63{fill:#E64C3C;}
	.st64{fill:#3B97D3;}
	.st65{fill:#E74444;}
	.st66{fill:#CE3536;}
	.st67{fill:#D9DBDD;}
	.st68{fill:#E8EDF1;}
	.st69{fill:#F3DB70;}
	.st70{fill:#D5DAF3;}
	.st71{fill:#A2AEE6;}
	.st72{fill:#FFC344;}
	.st73{fill:#FFE177;}
	.st74{fill:#BEC6ED;}
	.st75{fill:#8795DE;}
	.st76{fill-rule:evenodd;clip-rule:evenodd;fill:#A46A5A;}
	.st77{fill-rule:evenodd;clip-rule:evenodd;fill:#845252;}
	.st78{fill-rule:evenodd;clip-rule:evenodd;fill:#FFD05B;}
	.st79{fill-rule:evenodd;clip-rule:evenodd;fill:#704242;}
	.st80{fill-rule:evenodd;clip-rule:evenodd;fill:#FFC244;}
	.st81{fill-rule:evenodd;clip-rule:evenodd;fill:#596C76;}
	.st82{fill-rule:evenodd;clip-rule:evenodd;fill:#465A61;}
	.st83{fill:#A46A5A;}
	.st84{fill:#607D8B;}
	.st85{fill:#9C27B0;}
	.st86{fill:#03A9F4;}
	.st87{fill:#8BC34A;}
	.st88{fill:#FFC107;}
	.st89{fill:#FF9800;}
	.st90{fill:#F44336;}
	.st91{fill:#D7CCC8;}
	.st92{fill:#F57C00;}
	.st93{fill:#F9BB4B;}
	.st94{fill:#FCF05A;}
	.st95{fill:#66342E;}
	.st96{fill:#D3843D;}
	.st97{fill:#704C55;}
	.st98{fill:#5A344B;}
	.st99{fill:#E63950;}
	.st100{fill:#EFE2DD;}
	.st101{fill:#FF435B;}
	.st102{fill:#FFF5F5;}
	.st103{fill:#9B786F;}
	.st104{fill:#925CB4;}
	.st105{fill:#814BA2;}
	.st106{fill:#6F3F8A;}
	.st107{fill:#FFD185;}
	.st108{fill:#FFBA48;}
	.st109{fill:#FF5A35;}
	.st110{fill:#FF7A3C;}
	.st111{fill:#FFE8C2;}
	.st112{fill:#4F4F4F;}
	.st113{fill:#FF3A2F;}
	.st114{fill:#353535;}
	.st115{fill:#FB4A59;}
	.st116{fill:#F82F40;}
	.st117{fill:#3F5959;}
	.st118{fill:#384848;}
	.st119{fill:#EFF5F6;}
	.st120{fill:#CBE5E7;}
	.st121{fill:#FCC16D;}
	.st122{fill:#FCB44D;}
	.st123{fill:#A66856;}
	.st124{fill:#735458;}
	.st125{fill:#FFDEA9;}
	.st126{fill:#5C4346;}
	.st127{fill:#8F5040;}
	.st128{fill:#595959;}
	.st129{fill:#7F221C;}
	.st130{fill:#913122;}
	.st131{fill:#FFEFB0;}
	.st132{fill:#DB2116;}
	.st133{fill:#883F2E;}
	.st134{fill:#A44F3E;}
	.st135{fill:#D8AA5E;}
	.st136{fill:#E9B665;}
	.st137{fill:#E19974;}
	.st138{fill:#FFEFD2;}
	.st139{fill:#D7D0D6;}
	.st140{fill:#E8AD8C;}
	.st141{fill:#6D3326;}
	.st142{fill:#BA5D4F;}
	.st143{fill:#F5A871;}
	.st144{fill:#E89A5E;}
	.st145{fill:#A34F41;}
	.st146{fill:#D68A5A;}
	.st147{fill:#FFE5C4;}
	.st148{fill:#FDD1A7;}
	.st149{fill:#873F30;}
	.st150{fill:#C86F5C;}
	.st151{fill:#6C3328;}
	.st152{fill:#54231D;}
	.st153{fill:#B5B1B3;}
	.st154{fill:#FEC93E;}
	.st155{fill:#EFB533;}
	.st156{fill:#F7A738;}
	.st157{fill:#EA952F;}
	.st158{fill:#FD6E2E;}
	.st159{fill:#EA551B;}
	.st160{fill:#F5A257;}
	.st161{fill:#DB8F52;}
	.st162{fill:#75360D;}
	.st163{fill:#FFBF7B;}
	.st164{fill:#00CCB2;}
	.st165{fill:#00AB94;}
	.st166{fill:#FEA832;}
	.st167{fill:#FF8700;}
	.st168{fill:#00EED0;}
	.st169{fill:#FFD400;}
	.st170{fill:#FDBF00;}
	.st171{fill:#08B865;}
	.st172{fill:#E41F2D;}
	.st173{fill:#FD4755;}
	.st174{fill:#FB2B3A;}
	.st175{fill:#FED2A4;}
	.st176{fill:#FFE5C2;}
	.st177{fill:#FFBD86;}
	.st178{fill:#FE99A0;}
	.st179{fill:#FD8087;}
	.st180{fill:#C57A44;}
	.st181{fill:#09A755;}
	.st182{fill:#FEDF30;}
	.st183{fill:#FED402;}
	.st184{fill:#FAC600;}
	.st185{fill:#46CC8D;}
	.st186{fill:#00C27A;}
	.st187{fill:#FE7701;}
	.st188{fill:#FE860A;}
	.st189{fill:#C41926;}
	.st190{fill:#E89C5D;}
	.st191{fill:#F4B37D;}
	.st192{fill:#E8626C;}
	.st193{fill:#40C6C2;}
	.st194{fill:#FFC999;}
	.st195{fill:#4A4A68;}
	.st196{fill:#333356;}
	.st197{fill:#EDEDED;}
	.st198{fill:#C9C9C9;}
	.st199{fill:#FF9900;}
	.st200{fill:#FFCE00;}
	.st201{fill:#FBBD00;}
	.st202{fill:#ED8100;}
	.st203{fill:#FFE431;}
	.st204{fill:#FF9F00;}
	.st205{fill:#FFE666;}
	.st206{fill:#FFBF00;}
	.st207{fill:#FCCD31;}
	.st208{fill:#F2B016;}
	.st209{fill:#4A4D4F;}
	.st210{fill:#D3CBC2;}
	.st211{fill:#6D7072;}
	.st212{fill:#BAAFA6;}
	.st213{fill:#888C8E;}
	.st214{fill:#B4B4B4;}
	.st215{fill:#FFE999;}
	.st216{fill:#FFCF3B;}
	.st217{fill:#C1C1C1;}
	.st218{fill:#FFBC19;}
	.st219{fill:#94E6FF;}
	.st220{fill:#315F83;}
	.st221{fill:#267EA8;}
	.st222{fill:#3B3F5F;}
	.st223{fill:#D8F2FB;}
	.st224{fill:#35495E;}
	.st225{fill:#556080;}
	.st226{fill:#E4C05C;}
	.st227{fill:#E4C05C;stroke:#E4C05C;stroke-width:2;stroke-linecap:round;stroke-linejoin:round;stroke-miterlimit:10;}
	.st228{fill:#B57F5F;}
	.st229{fill:#966A5B;}
	.st230{fill:#FFD15B;}
	.st231{fill:#A5C3DC;}
	.st232{fill:#8697CB;}
	.st233{fill:#E0E0E0;}
	.st234{fill:#CCCCCC;}
	.st235{fill:#8E8E8E;}
	.st236{fill:#A0A0A0;}
	.st237{fill:#E13732;}
	.st238{fill:#F05055;}
	.st239{fill:#D24605;}
	.st240{fill:#FFCE53;}
	.st241{fill:#FFB833;}
	.st242{fill:#4999D1;}
	.st243{fill:#43AAF0;}
	.st244{fill:#FF2E23;}
	.st245{fill:#FF4A26;}
	.st246{fill:#C6805D;}
	.st247{fill:#77CC7D;}
	.st248{fill:#52BD7E;}
	.st249{fill:#98DB7C;}
	.st250{fill:#D48C64;}
	.st251{fill:#FFD18D;}
	.st252{fill:#FBBD80;}
	.st253{fill:#F3B573;}
	.st254{fill:#434A54;}
	.st255{fill:#DA4453;}
	.st256{fill:#FFCE54;}
	.st257{fill:#ED5564;}
	.st258{fill-rule:evenodd;clip-rule:evenodd;fill:#4BC3EF;}
	.st259{fill-rule:evenodd;clip-rule:evenodd;fill:#1BADDE;}
	.st260{fill-rule:evenodd;clip-rule:evenodd;fill:#DBD8DB;}
	.st261{fill-rule:evenodd;clip-rule:evenodd;fill:#C9BFC8;}
	.st262{fill:#421815;}
	.st263{fill:#FCB982;}
	.st264{fill:#FDDBBF;}
	.st265{fill:#FCCA9F;}
	.st266{fill:#C6865C;}
	.st267{fill:#B16E3D;}
	.st268{fill:#454545;}
	.st269{fill:#EFECEF;}
	.st270{fill:#E2DFE2;}
	.st271{fill:#3F3736;}
	.st272{fill:#C4755B;}
	.st273{fill:#FFE3A1;}
	.st274{fill-rule:evenodd;clip-rule:evenodd;fill:#D48C64;}
	.st275{fill:#DBD8DB;}
	.st276{fill:#BB5D4C;}
	.st277{fill:#465A61;}
	.st278{fill:#596C76;}
	.st279{fill:#E5E1E5;}
	.st280{fill:#7A8C98;}
	.st281{fill:#FEDBA6;}
	.st282{fill:#EAB14D;}
	.st283{fill:#617881;}
	.st284{fill:#E28086;}
	.st285{fill:#DD636E;}
	.st286{fill:#FFE07D;}
	.st287{fill:#ECBE6B;}
	.st288{fill:#E9EDF5;}
	.st289{fill:#CDD2E1;}
	.st290{fill:#FFAA00;}
	.st291{fill:#FF9500;}
	.st292{fill:#555A65;}
	.st293{fill:#333940;}
	.st294{fill:#E6A373;}
	.st295{fill:#CC8552;}
	.st296{fill:#FFDF40;}
	.st297{fill:#FFBE40;}
	.st298{fill:#FF9F40;}
	.st299{fill:#F77E00;}
	.st300{fill:#FFF04A;}
	.st301{fill:#00DDC1;}
	.st302{fill:#A24603;}
	.st303{fill:#F2D813;}
	.st304{fill:#803602;}
	.st305{fill:#3A3A3A;}
	.st306{fill:#AFAFAF;}
	.st307{fill:#686868;}
	.st308{fill:#925A15;}
	.st309{fill:#F3F2F6;}
	.st310{fill:#BF7D5A;}
	.st311{fill:#AA6256;}
	.st312{fill:#894E46;}
	.st313{fill:#DBA660;}
	.st314{fill:#E49542;}
	.st315{fill:#F9EFDA;}
	.st316{fill:#756E78;}
	.st317{fill:#665E66;}
	.st318{fill:#F9F6F9;}
	.st319{fill:#BC6C59;}
	.st320{fill:#994B39;}
	.st321{fill:#FEEC96;}
	.st322{fill:#F5DB64;}
	.st323{fill:#5D5E69;}
	.st324{fill:#FFE09F;}
	.st325{fill:#ECBD83;}
	.st326{fill:#F6D190;}
	.st327{fill:#FF8086;}
	.st328{fill:#E5646E;}
	.st329{fill:#357DA3;}
	.st330{fill:#F48A3B;}
	.st331{fill:#FFC233;}
	.st332{fill:#CDDEE0;}
	.st333{fill:#C8C5C9;}
	.st334{fill:#785353;}
	.st335{fill:#6E4848;}
	.st336{fill:#B7E4F8;}
	.st337{fill:#93D6F4;}
	.st338{fill:#DBF1FB;}
	.st339{fill:#8DCAFC;}
	.st340{fill:#64B9FC;}
	.st341{fill:#C4E1FF;}
	.st342{fill:#B5DBFD;}
	.st343{fill:#FEE7C9;}
	.st344{fill:#FFD496;}
	.st345{fill:#A3E440;}
	.st346{fill:#99D53B;}
	.st347{fill:#BCEA73;}
	.st348{fill:#C76D3D;}
	.st349{fill:#AA5E33;}
	.st350{fill:#D67F4F;}
	.st351{fill:#8DC637;}
	.st352{fill:#A79BA7;}
	.st353{fill:#7A6D79;}
	.st354{fill:#C4E2FF;}
	.st355{fill:#60B7FF;}
	.st356{fill:#B3DAFE;}
	.st357{fill:#F3F0F3;}
	.st358{fill:#EFEDEF;}
	.st359{fill:#CBC4CC;}
	.st360{fill:#26A6FE;}
	.st361{fill:#D2555A;}
	.st362{fill:#FF6464;}
	.st363{fill:#D7DEED;}
	.st364{fill:#B8BFD4;}
	.st365{fill:#959CB3;}
	.st366{fill:#F8C460;}
	.st367{fill:#FAAF42;}
	.st368{fill:#7A838B;}
	.st369{fill:#5D6972;}
	.st370{fill:#A7D0E1;}
	.st371{fill:#80BBCE;}
	.st372{fill:#FFD8CA;}
	.st373{fill:#FFBFAE;}
	.st374{fill:#FFE5D8;}
	.st375{fill:#E5EEF9;}
	.st376{fill:#56595E;}
	.st377{fill:#7F8284;}
	.st378{fill:#A5A5A4;}
	.st379{fill:#95A5A5;}
	.st380{fill:#BDC3C7;}
	.st381{fill:#7F8C8D;}
</style>
<g id="Acoustic_Grand_Keyboard">
	<g>
		<g>
			<g>
				<g>
					<g>
						<path class="st115" d="M21.12,35.77c1.23-1.23,3.98-1.77,5.41-3.19c0.04-0.04,0.08-0.08,0.11-0.11
							c0.78-0.85-0.21-2.14-1.24-1.63c-3.32,1.65-4.84-2.31-4.84-2.31l-2.67-2.67l3.71-3.71c-3.11-3.11-1.64-5.43-0.1-6.73
							c0.76-0.64,0.25-1.9-0.75-1.83c-1.05,0.07-2.32,0.53-3.64,1.86c-3.31,3.31-2.17,8.05-7.07,9.04
							c-4.43,0.89-6.29,2.28-7.78,3.85c-3.35,3.51-2.72,9.7,1.58,14s10.57,5.01,14,1.58C21.03,40.73,19.85,37.04,21.12,35.77
							L21.12,35.77z"/>
						<g>
							<path class="st116" d="M16.83,26.18l-2.7,2.6c-0.21,0.2-0.21,0.54-0.01,0.74l2.53,2.53c0.21,0.21,0.54,0.2,0.74-0.01l2.6-2.7
								L16.83,26.18z"/>
							<path class="st116" d="M17.84,43.92c-3.43,3.43-9.7,2.72-14-1.59c-0.39-0.39-0.75-0.8-1.08-1.21
								c4.2,3.31,9.66,3.62,12.78,0.5c3.19-3.19,2.02-6.88,3.29-8.15c0.95-0.95,2.81-1.49,4.26-2.34c0.64,0.19,1.41,0.15,2.31-0.3
								c1.03-0.51,2.02,0.78,1.24,1.63c-0.04,0.04-0.07,0.08-0.11,0.11c-1.43,1.43-4.18,1.97-5.41,3.19
								C19.85,37.04,21.03,40.73,17.84,43.92L17.84,43.92z"/>
						</g>
					</g>
					<g>
						<path class="st117" d="M18.84,30.6L39.13,9.52l-2.47-2.47L15.58,27.33c-0.21,0.2-0.21,0.54-0.01,0.74l2.53,2.53
							C18.31,30.81,18.64,30.81,18.84,30.6L18.84,30.6z"/>
						<path class="st118" d="M39.13,9.52l-2.47-2.47l-1.71,1.65l0.2,0.2c0.39,0.39,0.4,1.02,0.01,1.42L17.21,28.96
							c-0.2,0.21-0.54,0.21-0.74,0.01l1.63,1.63c0.21,0.21,0.54,0.2,0.74-0.01L39.13,9.52z"/>
					</g>
					<g>
						<path class="st119" d="M8.87,40.43L5.74,37.3c-0.41-0.41-0.41-1.06,0-1.47l0.58-0.58c0.41-0.41,1.06-0.41,1.47,0l3.13,3.13
							c0.41,0.41,0.41,1.06,0,1.47l-0.58,0.58C9.93,40.83,9.27,40.83,8.87,40.43z"/>
						<path class="st120" d="M10.92,39.85l-0.58,0.58c-0.41,0.41-1.06,0.41-1.47,0l-1.52-1.52c0.41,0.41,1.06,0.41,1.47,0l0.58-0.58
							c0.41-0.41,0.41-1.06,0-1.47l1.52,1.52C11.32,38.78,11.32,39.44,10.92,39.85z"/>
					</g>
					<g>
						<path class="st119" d="M13.24,36.05l-3.13-3.12c-0.41-0.41-0.41-1.06,0-1.47l0.58-0.58c0.41-0.41,1.06-0.41,1.47,0L15.29,34
							c0.41,0.41,0.41,1.06,0,1.47l-0.58,0.58C14.31,36.46,13.65,36.46,13.24,36.05z"/>
						<path class="st120" d="M15.29,35.47l-0.58,0.58c-0.41,0.41-1.06,0.41-1.47,0l-1.52-1.52c0.41,0.41,1.06,0.41,1.47,0l0.58-0.58
							c0.41-0.41,0.41-1.06,0-1.47L15.29,34C15.7,34.41,15.7,35.07,15.29,35.47z"/>
					</g>
					<g>
						<path class="st119" d="M16.27,39.37c-0.17,0-0.35-0.06-0.49-0.19c-0.29-0.27-0.31-0.72-0.04-1.02l0.02-0.02
							c0.27-0.29,0.72-0.31,1.02-0.04c0.29,0.27,0.31,0.72,0.04,1.02l-0.02,0.02C16.66,39.29,16.46,39.37,16.27,39.37z"/>
						<path class="st119" d="M13.02,42.6c-0.17,0-0.35-0.06-0.49-0.19c-0.29-0.27-0.31-0.72-0.04-1.02l0.02-0.02
							c0.27-0.29,0.72-0.31,1.02-0.04c0.29,0.27,0.31,0.72,0.04,1.02l-0.02,0.02C13.41,42.52,13.22,42.6,13.02,42.6L13.02,42.6z"/>
						<path class="st119" d="M15.35,41.67c-0.17,0-0.35-0.06-0.48-0.19l-0.02-0.02c-0.29-0.27-0.32-0.72-0.05-1.02
							c0.27-0.29,0.72-0.32,1.02-0.05l0.02,0.02c0.29,0.27,0.32,0.72,0.05,1.02C15.74,41.59,15.55,41.67,15.35,41.67L15.35,41.67z"
							/>
					</g>
					<g>
						<path class="st115" d="M36.37,6.71l1.09-2.29c0.06-0.13,0.18-0.23,0.33-0.28l7.77-2.22c0.18-0.05,0.38,0,0.51,0.13l1.65,1.65
							c0.25,0.25,0.19,0.66-0.12,0.82l-1.97,1.08c-0.4,0.22-0.75,0.52-1.03,0.88l-2.06,2.65c-0.16,0.2-0.44,0.26-0.66,0.14
							c-0.47-0.26-1.35-0.51-2.43,0.36c-0.2,0.17-0.5,0.15-0.69-0.04l-2.3-2.3C36.32,7.15,36.28,6.91,36.37,6.71L36.37,6.71z"/>
						<path class="st116" d="M45.64,5.62c-0.4,0.22-0.75,0.52-1.03,0.87l-2.06,2.66c-0.16,0.2-0.44,0.26-0.66,0.14
							c-0.47-0.26-1.35-0.51-2.43,0.35c-0.21,0.17-0.51,0.15-0.69-0.04l-1.64-1.64c1.23-1.23,2.26-0.95,2.77-0.67
							c0.22,0.12,0.5,0.06,0.66-0.14l2.06-2.65c0.28-0.36,0.63-0.66,1.03-0.88l1.97-1.08c0.23-0.12,0.32-0.39,0.24-0.62
							c0.08,0.02,0.15,0.07,0.21,0.13l1.65,1.65c0.24,0.24,0.19,0.66-0.12,0.82L45.64,5.62z"/>
					</g>
					<g>
						<path class="st121" d="M36.48,12.79c-0.18,0-0.37-0.07-0.51-0.21l-2.38-2.38c-0.28-0.28-0.28-0.74,0-1.02
							c0.28-0.28,0.74-0.28,1.02,0l2.38,2.38c0.28,0.28,0.28,0.74,0,1.02C36.85,12.72,36.67,12.79,36.48,12.79z"/>
						<path class="st121" d="M34.2,15.07c-0.18,0-0.37-0.07-0.51-0.21l-2.38-2.38c-0.28-0.28-0.28-0.74,0-1.02
							c0.28-0.28,0.74-0.28,1.02,0l2.38,2.38c0.28,0.28,0.28,0.74,0,1.02C34.57,15,34.39,15.07,34.2,15.07z"/>
						<path class="st121" d="M31.93,17.35c-0.18,0-0.37-0.07-0.51-0.21l-2.38-2.38c-0.28-0.28-0.28-0.74,0-1.02
							c0.28-0.28,0.74-0.28,1.02,0l2.38,2.38c0.28,0.28,0.28,0.74,0,1.02C32.3,17.28,32.11,17.35,31.93,17.35z"/>
						<path class="st121" d="M29.65,19.63c-0.18,0-0.37-0.07-0.51-0.21l-2.38-2.38c-0.28-0.28-0.28-0.74,0-1.02
							c0.28-0.28,0.74-0.28,1.02,0l2.38,2.38c0.28,0.28,0.28,0.74,0,1.02C30.02,19.56,29.83,19.63,29.65,19.63z"/>
						<path class="st121" d="M27.45,21.98c-0.18,0-0.37-0.07-0.51-0.21l-2.54-2.54c-0.28-0.28-0.28-0.74,0-1.02
							c0.28-0.28,0.74-0.28,1.02,0l2.54,2.54c0.28,0.28,0.28,0.74,0,1.02C27.82,21.91,27.64,21.98,27.45,21.98z"/>
						<path class="st121" d="M25.31,24.4c-0.18,0-0.37-0.07-0.51-0.21l-2.82-2.82c-0.28-0.28-0.28-0.74,0-1.02
							c0.28-0.28,0.74-0.28,1.02,0l2.82,2.82c0.28,0.28,0.28,0.74,0,1.02C25.68,24.33,25.5,24.4,25.31,24.4z"/>
						<path class="st121" d="M23.04,26.68c-0.18,0-0.37-0.07-0.51-0.21l-2.82-2.82c-0.28-0.28-0.28-0.74,0-1.02
							c0.28-0.28,0.74-0.28,1.02,0l2.82,2.82c0.28,0.28,0.28,0.74,0,1.02C23.41,26.61,23.22,26.68,23.04,26.68z"/>
						<path class="st121" d="M20.76,28.96c-0.18,0-0.37-0.07-0.51-0.21l-2.82-2.82c-0.28-0.28-0.28-0.74,0-1.02
							c0.28-0.28,0.74-0.28,1.02,0l2.82,2.82c0.28,0.28,0.28,0.74,0,1.02C21.13,28.89,20.94,28.96,20.76,28.96z"/>
					</g>
				</g>
			</g>
			<g>
				<path class="st122" d="M21.27,27.73c0.28,0.28,0.28,0.74,0,1.02c-0.14,0.14-0.32,0.21-0.51,0.21s-0.37-0.07-0.51-0.21
					l-1.44-1.44l1-1.04L21.27,27.73z"/>
				<path class="st122" d="M23.55,25.45c0.28,0.28,0.28,0.74,0,1.02c-0.14,0.14-0.32,0.21-0.51,0.21c-0.18,0-0.37-0.07-0.51-0.21
					l-1.49-1.49l1-1.04L23.55,25.45z"/>
				<path class="st122" d="M25.82,23.17c0.28,0.28,0.28,0.74,0,1.02c-0.14,0.14-0.32,0.21-0.51,0.21s-0.37-0.07-0.51-0.21
					l-1.53-1.53l1-1.04L25.82,23.17z"/>
				<path class="st122" d="M27.96,20.75c0.28,0.28,0.28,0.74,0,1.02c-0.14,0.14-0.32,0.21-0.51,0.21s-0.37-0.07-0.51-0.21
					l-1.43-1.43l1-1.04L27.96,20.75z"/>
				<path class="st122" d="M30.16,18.4c0.28,0.28,0.28,0.74,0,1.02c-0.14,0.14-0.32,0.21-0.51,0.21s-0.37-0.07-0.51-0.21l-1.4-1.4
					l1-1.04L30.16,18.4z"/>
				<path class="st122" d="M32.44,16.12c0.28,0.28,0.28,0.74,0,1.02c-0.14,0.14-0.32,0.21-0.51,0.21c-0.18,0-0.37-0.07-0.51-0.21
					l-1.44-1.44l1-1.04L32.44,16.12z"/>
				<path class="st122" d="M34.71,13.84c0.28,0.28,0.28,0.74,0,1.02c-0.14,0.14-0.33,0.21-0.51,0.21S33.84,15,33.7,14.86l-1.49-1.49
					l1-1.04L34.71,13.84z"/>
				<path class="st122" d="M36.99,12.58c-0.14,0.14-0.33,0.21-0.51,0.21s-0.37-0.07-0.51-0.21l-1.53-1.53l0.71-0.74
					c0.1-0.11,0.18-0.23,0.22-0.36l1.61,1.61C37.27,11.84,37.27,12.3,36.99,12.58z"/>
				<g>
					<path class="st122" d="M36.99,12.58c-0.14,0.14-0.33,0.21-0.51,0.21s-0.37-0.07-0.51-0.21l-1.53-1.53l0.71-0.74
						c0.1-0.11,0.18-0.23,0.22-0.36l1.61,1.61C37.27,11.84,37.27,12.3,36.99,12.58z"/>
					<path class="st122" d="M34.71,14.86c-0.14,0.14-0.33,0.21-0.51,0.21S33.84,15,33.7,14.86l-1.49-1.49l1-1.04l1.51,1.51
						C35,14.12,35,14.58,34.71,14.86z"/>
					<path class="st122" d="M32.44,17.14c-0.14,0.14-0.32,0.21-0.51,0.21c-0.18,0-0.37-0.07-0.51-0.21l-1.44-1.44l1-1.04l1.46,1.46
						C32.72,16.4,32.72,16.86,32.44,17.14z"/>
					<path class="st122" d="M30.16,19.41c-0.14,0.14-0.32,0.21-0.51,0.21s-0.37-0.07-0.51-0.21l-1.4-1.4l1-1.04l1.42,1.42
						C30.44,18.68,30.44,19.13,30.16,19.41z"/>
					<path class="st122" d="M27.96,21.77c-0.14,0.14-0.32,0.21-0.51,0.21s-0.37-0.07-0.51-0.21l-1.43-1.43l1-1.04l1.45,1.45
						C28.24,21.03,28.24,21.49,27.96,21.77L27.96,21.77z"/>
					<path class="st122" d="M25.82,24.19c-0.14,0.14-0.32,0.21-0.51,0.21s-0.37-0.07-0.51-0.21l-1.53-1.53l1-1.04l1.55,1.55
						C26.11,23.45,26.11,23.91,25.82,24.19L25.82,24.19z"/>
					<path class="st122" d="M23.55,26.47c-0.14,0.14-0.32,0.21-0.51,0.21c-0.18,0-0.37-0.07-0.51-0.21l-1.49-1.49l1-1.04l1.51,1.51
						C23.83,25.73,23.83,26.19,23.55,26.47L23.55,26.47z"/>
					<path class="st122" d="M21.27,28.75c-0.14,0.14-0.32,0.21-0.51,0.21s-0.37-0.07-0.51-0.21l-1.44-1.44l1-1.04l1.46,1.46
						C21.55,28.01,21.55,28.46,21.27,28.75z"/>
				</g>
			</g>
		</g>
	</g>
</g>
<g id="Layer_2">
</g>
</svg>
