<svg id="Acoustic_Grand_Keyboard" data-name="Acoustic Grand Keyboard" xmlns="http://www.w3.org/2000/svg" viewBox="0 0 48 48"><defs><style>.cls-1{fill:#f5daa7;}.cls-2{fill:#edc472;}.cls-3{fill:#bc9b5b;}.cls-4{fill:#9a6a53;}.cls-5{fill:#855b47;}.cls-6{fill:#f4e2c1;}.cls-7{fill:#f7f7f7;}.cls-8{fill:#c8c3ca;}.cls-9{fill:#b78c7a;}.cls-10{fill:#7a5341;}.cls-11{fill:#704c3b;}.cls-12{fill:#cf9875;}.cls-13{fill:#c7865b;}</style></defs><path class="cls-1" d="M24.82,17H23.18c-.4.26-.73-.06-.73-.46s.33-.73.73-.54h1.64c.4-.19.73.14.73.54S25.22,17.26,24.82,17Z"/><path class="cls-1" d="M25.91,19H22.09c-.4.66-.73.34-.73-.06a1.17,1.17,0,0,1,.73-.94h3.82a1.17,1.17,0,0,1,.73.94C26.64,19.34,26.31,19.66,25.91,19Z"/><path class="cls-2" d="M5.52,2h0A1.48,1.48,0,0,0,4,3.48V21H7V3.48A1.48,1.48,0,0,0,5.52,2Z"/><path class="cls-3" d="M9.52,3h0A1.48,1.48,0,0,0,8,4.48V21h3V4.48A1.48,1.48,0,0,0,9.52,3Z"/><path class="cls-3" d="M15.52,3h0A1.48,1.48,0,0,0,14,4.48V21h3V4.48A1.48,1.48,0,0,0,15.52,3Z"/><path class="cls-2" d="M19.52,2h0A1.48,1.48,0,0,0,18,3.48V21h3V3.48A1.48,1.48,0,0,0,19.52,2Z"/><path class="cls-2" d="M25.52,2h0A1.48,1.48,0,0,0,24,3.48V21h3V3.48A1.48,1.48,0,0,0,25.52,2Z"/><path class="cls-3" d="M28.66,3h-.18A1.48,1.48,0,0,0,27,4.48V21h3V4.49A1.42,1.42,0,0,0,28.66,3Z"/><path class="cls-3" d="M35.52,5h0A1.48,1.48,0,0,0,34,6.48V21h3V6.48A1.48,1.48,0,0,0,35.52,5Z"/><path class="cls-2" d="M38.52,3h0A1.48,1.48,0,0,0,37,4.48V21h3V4.48A1.48,1.48,0,0,0,38.52,3Z"/><path class="cls-3" d="M42.66,2h-.18A1.48,1.48,0,0,0,41,3.48V21h3V3.45A1.4,1.4,0,0,0,42.66,2Z"/><path class="cls-2" d="M12.52,0h0A1.48,1.48,0,0,0,11,1.48V21h3V1.48A1.48,1.48,0,0,0,12.52,0Z"/><path class="cls-3" d="M22.52,0h0A1.48,1.48,0,0,0,21,1.48V21h3V1.48A1.48,1.48,0,0,0,22.52,0Z"/><path class="cls-2" d="M32.52,1h0A1.48,1.48,0,0,0,31,2.48V21h3V2.48A1.48,1.48,0,0,0,32.52,1Z"/><path class="cls-4" d="M48,28H0V20.58A1.58,1.58,0,0,1,1.58,19H46.42A1.58,1.58,0,0,1,48,20.58V28Z"/><path class="cls-5" d="M46.42,19H43.37A1.62,1.62,0,0,1,45,20.61V28h3V20.58A1.58,1.58,0,0,0,46.42,19Z"/><path class="cls-6" d="M26.54,24l-3,1-3-1A1.44,1.44,0,0,1,19,22.58V14.42A1.43,1.43,0,0,1,20.42,13h6.16A1.43,1.43,0,0,1,28,14.42v8.16A1.44,1.44,0,0,1,26.54,24Z"/><path class="cls-1" d="M25.91,22H22.09a.64.64,0,0,1-.73-.66c0-.4.33-.73.73-.34h3.82c.4-.39.73-.06.73.34A.64.64,0,0,1,25.91,22Z"/><path class="cls-7" d="M42,28H6V25.94A.94.94,0,0,1,6.94,25H9.11l.72.26.72-.26H12.7l.81.18.62-.18h2.16l.63.18.8-.18h2.16l.72.18.71-.18h2.16l.72.18L24.9,25h2.16l.72.18.71-.18h2.16l.61.18.82-.18h2.16l.71.18.72-.18h2.16l.71.26.72-.26h1.8a.94.94,0,0,1,.94.94V28Z"/><path class="cls-8" d="M16,25h1v3H16Z"/><path class="cls-8" d="M20,25h1v3H20Z"/><path class="cls-8" d="M9,25h1v3H9Z"/><path class="cls-8" d="M13,25h1v3H13Z"/><path class="cls-8" d="M39,25H38v3h1V25Z"/><path class="cls-8" d="M35,25h1v3H35Z"/><path class="cls-8" d="M24,25h1v3H24Z"/><path class="cls-8" d="M31,25h1v3H31Z"/><path class="cls-8" d="M27,25h1v3H27Z"/><path class="cls-9" d="M46.71,46H1.29A1.29,1.29,0,0,1,0,44.71V28H48V44.74A1.28,1.28,0,0,1,46.71,46Z"/><path class="cls-10" d="M3,28H44V46H3Z"/><path class="cls-11" d="M41,28h3V46H41Z"/><path class="cls-4" d="M14,41H32v5H14Z"/><path class="cls-5" d="M29,41h3v5H29Z"/><path class="cls-12" d="M32,41H14a1,1,0,0,1-1-1.07v-.46A2.48,2.48,0,0,1,15.47,37H30.53A2.48,2.48,0,0,1,33,39.47v.46A1,1,0,0,1,32,41Z"/><path class="cls-13" d="M30.44,37h-3A2.58,2.58,0,0,1,30,39.59v.34A1.06,1.06,0,0,1,28.94,41h3A1.06,1.06,0,0,0,33,39.93v-.34A2.58,2.58,0,0,0,30.44,37Z"/></svg>