<svg id="Acoustic_Grand_Keyboard" data-name="Acoustic Grand Keyboard" xmlns="http://www.w3.org/2000/svg" viewBox="0 0 48 48"><defs><style>.cls-1{fill:#e0e0e0;}.cls-2{fill:#ccc;}.cls-3{fill:#8e8e8e;}.cls-4{fill:#a0a0a0;}</style></defs><path class="cls-1" d="M3,47.87.2,45.07a.67.67,0,0,1,0-1L30.87,13.44l3.76,3.76L4,47.87A.67.67,0,0,1,3,47.87Z"/><path class="cls-2" d="M34.63,17.2,33.4,16,2.73,46.64a.69.69,0,0,1-1,0L3,47.87a.67.67,0,0,0,1,0Z"/><path class="cls-1" d="M44.6.16l3.31,3.31a.34.34,0,0,1,0,.46l-8,8L36.1,8.21l8-8A.34.34,0,0,1,44.6.16Z"/><path class="cls-3" d="M39.45,7.14,38.31,6l3.9-3.9,1.14,1.15a1.38,1.38,0,0,1,0,1.94l-2,1.95A1.38,1.38,0,0,1,39.45,7.14Z"/><path class="cls-4" d="M39.17,13.68l.93-.93a.36.36,0,0,0,0-.51L35.65,7.76a.36.36,0,0,0-.51,0l-.94.93a.36.36,0,0,0,0,.51.36.36,0,0,1,0,.51L32.4,11.49a.36.36,0,0,1-.51,0,.36.36,0,0,0-.51,0l-.94.93a.36.36,0,0,0,0,.51l4.48,4.48a.36.36,0,0,0,.51,0l.93-.93a.36.36,0,0,0,0-.51.36.36,0,0,1,0-.51l1.75-1.75a.36.36,0,0,1,.51,0,.36.36,0,0,0,.51,0Z"/><path class="cls-2" d="M47.91,3.47,46.67,2.24a.31.31,0,0,1,0,.45l-8,8.05L39.86,12l8-8A.34.34,0,0,0,47.91,3.47Z"/><path class="cls-3" d="M38.66,13.71a.36.36,0,0,0,.51,0l.93-.93a.36.36,0,0,0,0-.51L38.9,11a.36.36,0,0,1,0,.51l-.94.93a.36.36,0,0,1-.51,0,.36.36,0,0,0-.51,0l-1.74,1.75a.35.35,0,0,0,0,.51.36.36,0,0,1,0,.51l-.94.93a.36.36,0,0,1-.51,0l1.24,1.23a.36.36,0,0,0,.51,0l.93-.93a.36.36,0,0,0,0-.51.36.36,0,0,1,0-.51l1.75-1.75a.36.36,0,0,1,.51,0Z"/><path class="cls-3" d="M28.16,19.87a1.49,1.49,0,0,0-1.5-.38L24.57,17.4l1.87-1.87a.73.73,0,0,0-1-1l-22,22a.71.71,0,0,0,0,1,.7.7,0,0,0,1,0l1.65-1.64L8.17,38a1.49,1.49,0,0,0,.38,1.5,1.52,1.52,0,1,0,2.15-2.15A1.55,1.55,0,0,0,9.19,37L7.1,34.86l3.34-3.34,2.09,2.09a1.51,1.51,0,1,0,1-1L11.47,30.5l3.34-3.34,2.09,2.08a1.55,1.55,0,0,0,.38,1.51,1.52,1.52,0,1,0,.65-2.53l-2.09-2.09,3.34-3.34,2.09,2.09a1.49,1.49,0,0,0,.38,1.5,1.52,1.52,0,1,0,.64-2.53L20.2,21.76l3.34-3.34,2.09,2.09a1.52,1.52,0,1,0,2.53-.64Z"/></svg>