<svg id="Acoustic_Grand_Keyboard" data-name="Acoustic Grand Keyboard" xmlns="http://www.w3.org/2000/svg" viewBox="0 0 48 48"><defs><style>.cls-1{fill:#a66856;}.cls-2{fill:#735458;}.cls-3{fill:#ffdea9;}.cls-4{fill:#5c4346;}.cls-5{fill:#8f5040;}.cls-6{fill:#595959;}</style></defs><polygon class="cls-1" points="8.38 10.01 10.9 7.45 8.19 4.74 5.65 7.28 8.38 10.01"/><path class="cls-2" d="M43.88,44.68l-.19,0a.71.71,0,0,1-.49-.87l.14-.48a4.36,4.36,0,0,0-1.46-3.89L5.27,2.82a.71.71,0,0,1,1-1l36.6,36.61a5.66,5.66,0,0,1,1.82,5.27l-.14.47A.68.68,0,0,1,43.88,44.68Z"/><path class="cls-3" d="M5.78,5.88,44.49,44.59a.37.37,0,0,1,0,.53l-1.11,1.11a.37.37,0,0,1-.53,0L4.14,7.52a.37.37,0,0,1,0-.53L5.25,5.88A.37.37,0,0,1,5.78,5.88Z"/><path class="cls-4" d="M43,11.44l-2.55-3.9L36.58,5a1.44,1.44,0,0,1,0-2h0a1.43,1.43,0,0,1,2,0l2.56,3.89L45.07,9.4a1.43,1.43,0,0,1,0,2h0A1.44,1.44,0,0,1,43,11.44Z"/><path class="cls-4" d="M39.75,14.72l-2.62-3.83L33.29,8.28a1.45,1.45,0,0,1,0-2h0a1.45,1.45,0,0,1,2,0L38,10l3.78,2.66a1.42,1.42,0,0,1,0,2h0A1.42,1.42,0,0,1,39.75,14.72Z"/><path class="cls-1" d="M4,43.79c-6.7-6.85-4.55-17.62,4-19.67a.41.41,0,0,1,.22,0c.67.25,4.36,1.47,6.36-.52a4.91,4.91,0,0,0,1.16-4.48.36.36,0,0,1,0-.27,10.14,10.14,0,0,1,1.79-2.43c7.58-8.29,23,6.56,13.93,14.29a10.56,10.56,0,0,1-2.23,1.6.37.37,0,0,1-.27,0,4.9,4.9,0,0,0-4.5,1.16c-1.52,1.52-1.65,4-.54,6.33a.37.37,0,0,1,0,.25C21.82,48.63,10.85,50.85,4,43.79Z"/><path class="cls-5" d="M28.58,15.85C32,19.5,33.37,24.92,29,28.67a9.79,9.79,0,0,1-2,1.48,1.07,1.07,0,0,1-.7.13A4.84,4.84,0,0,0,22,31.48c-1.47,1.47-1.64,3.87-.64,6.12a1,1,0,0,1,.06.72c-2,7.41-10.81,9.88-17.54,5.37l.1.1c6.9,7.06,17.87,4.84,19.94-3.68a.37.37,0,0,0,0-.25c-1.11-2.31-1-4.81.54-6.33a4.9,4.9,0,0,1,4.5-1.16.37.37,0,0,0,.27,0,10.56,10.56,0,0,0,2.23-1.6C36.73,26.17,33.6,19.17,28.58,15.85Z"/><path class="cls-6" d="M8.87,47.1A14.15,14.15,0,0,1,4,43.79c-5.39-5.52-5.05-13.58-.27-17.58h0a5.87,5.87,0,0,1,3.44,5.17c.26,4,1.17,5.36,3.58,8.21C12,41.12,10.81,43.54,8.87,47.1Z"/><path class="cls-6" d="M11.38,30.76h-.11a2.28,2.28,0,0,1-1.81-1,.71.71,0,0,1,1.22-.71,1,1,0,0,0,.69.28,2.08,2.08,0,0,0,1.55-1.06c1.74-2.41,3.24-1.51,3.3-1.47A.7.7,0,0,1,15.51,28c-.16-.05-.7,0-1.45,1.08A3.32,3.32,0,0,1,11.38,30.76ZM15.51,28Zm0,0Zm0,0Z"/><path class="cls-6" d="M18.58,38.63a.73.73,0,0,1-.35-.09,2.29,2.29,0,0,1-1-1.81,3.27,3.27,0,0,1,1.64-2.79c1.18-.85,1.11-1.4,1.11-1.41a.7.7,0,1,1,1.18-.75c0,.07.95,1.57-1.47,3.3a2.08,2.08,0,0,0-1.06,1.55,1,1,0,0,0,.29.69.69.69,0,0,1,.25,1A.68.68,0,0,1,18.58,38.63Z"/><path class="cls-6" d="M17.42,33.72a.7.7,0,0,1-.5-.21l-2.33-2.33a.7.7,0,0,1,1-1l2.33,2.34a.69.69,0,0,1,0,1A.67.67,0,0,1,17.42,33.72Z"/><path class="cls-4" d="M5.72,42.27h0a.87.87,0,0,1,0-1.17l5.56-6.78a.37.37,0,0,1,.55,0l1.93,1.93a.38.38,0,0,1,0,.55L6.9,42.33A.89.89,0,0,1,5.72,42.27Z"/><path class="cls-2" d="M42.27,8.68l-6.38,6.38-1,1-1.84,1.84-1,1-1.84,1.84-1,1-1.84,1.84-1,1-4.13,4.13a.38.38,0,0,1-.54,0l-2.39-2.4a.37.37,0,0,1,0-.53l4.11-4.1,1-1,1.84-1.84,1-1L29.11,16l1-1,1.84-1.84,1-1,6.4-6.39a.37.37,0,0,1,.53,0l2.4,2.39A.37.37,0,0,1,42.27,8.68Z"/><path class="cls-5" d="M38.32,13.2l-3.5-3.49A.5.5,0,0,1,35,9l6.73-5.88a.47.47,0,0,1,.62-.07L44.94,5.7a.46.46,0,0,1-.07.61L39,13.06C38.8,13.3,38.48,13.37,38.32,13.2Z"/><path class="cls-1" d="M47.93,3.9,44,8.91a.42.42,0,0,1-.62,0l-2-2L39.14,4.66a.42.42,0,0,1,0-.62l5-4a.44.44,0,0,1,.57.09l1.17,1.17,2,2A.44.44,0,0,1,47.93,3.9Z"/><path class="cls-5" d="M47.93,4,44,9.06a.42.42,0,0,1-.62,0l-2-2h0a.42.42,0,0,0,.62,0l3.94-5a.44.44,0,0,0-.08-.56l2,2A.44.44,0,0,1,47.93,4Z"/><polygon class="cls-4" points="35.89 15.06 34.89 16.05 31.94 13.15 32.94 12.15 35.89 15.06"/><polygon class="cls-4" points="33.05 17.89 32.06 18.89 29.11 15.98 30.1 14.99 33.05 17.89"/><polygon class="cls-4" points="30.22 20.73 29.22 21.72 26.27 18.82 27.27 17.82 30.22 20.73"/><polygon class="cls-4" points="27.38 23.56 26.39 24.55 23.44 21.65 24.43 20.66 27.38 23.56"/></svg>