<?xml version="1.0" encoding="utf-8"?>
<!-- Generator: Adobe Illustrator 25.0.0, SVG Export Plug-In . SVG Version: 6.00 Build 0)  -->
<svg version="1.1" xmlns="http://www.w3.org/2000/svg" xmlns:xlink="http://www.w3.org/1999/xlink" x="0px" y="0px"
	 viewBox="0 0 48 48" style="enable-background:new 0 0 48 48;" xml:space="preserve">
<style type="text/css">
	.st0{fill:#F5DAA7;}
	.st1{fill:#EDC472;}
	.st2{fill:#BC9B5B;}
	.st3{fill:#9A6A53;}
	.st4{fill:#855B47;}
	.st5{fill:#F4E2C1;}
	.st6{fill:#F7F7F7;}
	.st7{fill:#C8C3CA;}
	.st8{fill:#B78C7A;}
	.st9{fill:#7A5341;}
	.st10{fill:#704C3B;}
	.st11{fill:#CF9875;}
	.st12{fill:#C7865B;}
	.st13{clip-path:url(#SVGID_3_);}
	.st14{clip-path:url(#SVGID_4_);fill:#FFFFFF;stroke:#231F20;stroke-miterlimit:10;}
	.st15{fill:#FFFFFF;stroke:#231F20;stroke-miterlimit:10;}
	.st16{fill:none;stroke:#000000;stroke-width:4.5;stroke-miterlimit:10;}
	.st17{fill:#463C4B;}
	.st18{fill:#555A6E;}
	.st19{fill:#F06423;}
	.st20{fill:#FAA51E;}
	.st21{fill:#D7E6F0;}
	.st22{fill:#DADADA;}
	.st23{fill:#C4C6C6;}
	.st24{fill:#EDEEEF;}
	.st25{fill:#797981;}
	.st26{fill:#5A5A63;}
	.st27{fill:#494951;}
	.st28{fill:#29BAED;}
	.st29{fill:#DD9554;}
	.st30{fill:#CC8244;}
	.st31{fill:#805333;}
	.st32{fill:#A56A43;}
	.st33{fill:#CB8252;}
	.st34{fill:#ECF0F1;}
	.st35{fill:#603E26;}
	.st36{fill:#F9EAB0;}
	.st37{fill:#F5EFCA;}
	.st38{fill:#464F5D;}
	.st39{fill:#F3D55B;}
	.st40{fill:#6F6571;}
	.st41{fill:#4B3F4E;}
	.st42{fill:#5D5360;}
	.st43{fill:#857E87;}
	.st44{fill:#ECEAEC;}
	.st45{fill:#DAD8DB;}
	.st46{fill:#B3E59F;}
	.st47{fill:#CCF49F;}
	.st48{fill:#792A47;}
	.st49{fill:#A62B38;}
	.st50{fill:#D22D28;}
	.st51{fill:#FF2F19;}
	.st52{fill:#FFFFFF;}
	.st53{fill:#202666;}
	.st54{fill:#FDE6BB;}
	.st55{fill:#FE501F;}
	.st56{fill:#FD7226;}
	.st57{fill:#FCCD76;}
	.st58{fill:#FB932C;}
	.st59{fill:#4D2857;}
	.st60{fill:#B19046;}
	.st61{fill:#F0C419;}
	.st62{fill:#24AE5F;}
	.st63{fill:#E64C3C;}
	.st64{fill:#3B97D3;}
	.st65{fill:#E74444;}
	.st66{fill:#CE3536;}
	.st67{fill:#D9DBDD;}
	.st68{fill:#E8EDF1;}
	.st69{fill:#F3DB70;}
	.st70{fill:#D5DAF3;}
	.st71{fill:#A2AEE6;}
	.st72{fill:#FFC344;}
	.st73{fill:#FFE177;}
	.st74{fill:#BEC6ED;}
	.st75{fill:#8795DE;}
	.st76{fill-rule:evenodd;clip-rule:evenodd;fill:#A46A5A;}
	.st77{fill-rule:evenodd;clip-rule:evenodd;fill:#845252;}
	.st78{fill-rule:evenodd;clip-rule:evenodd;fill:#FFD05B;}
	.st79{fill-rule:evenodd;clip-rule:evenodd;fill:#704242;}
	.st80{fill-rule:evenodd;clip-rule:evenodd;fill:#FFC244;}
	.st81{fill-rule:evenodd;clip-rule:evenodd;fill:#596C76;}
	.st82{fill-rule:evenodd;clip-rule:evenodd;fill:#465A61;}
	.st83{fill:#A46A5A;}
	.st84{fill:#607D8B;}
	.st85{fill:#9C27B0;}
	.st86{fill:#03A9F4;}
	.st87{fill:#8BC34A;}
	.st88{fill:#FFC107;}
	.st89{fill:#FF9800;}
	.st90{fill:#F44336;}
	.st91{fill:#D7CCC8;}
	.st92{fill:#F57C00;}
	.st93{fill:#F9BB4B;}
	.st94{fill:#FCF05A;}
	.st95{fill:#66342E;}
	.st96{fill:#D3843D;}
	.st97{fill:#704C55;}
	.st98{fill:#5A344B;}
	.st99{fill:#E63950;}
	.st100{fill:#EFE2DD;}
	.st101{fill:#FF435B;}
	.st102{fill:#FFF5F5;}
	.st103{fill:#9B786F;}
	.st104{fill:#925CB4;}
	.st105{fill:#814BA2;}
	.st106{fill:#6F3F8A;}
	.st107{fill:#FFD185;}
	.st108{fill:#FFBA48;}
	.st109{fill:#FF5A35;}
	.st110{fill:#FF7A3C;}
	.st111{fill:#FFE8C2;}
	.st112{fill:#4F4F4F;}
	.st113{fill:#FF3A2F;}
	.st114{fill:#353535;}
	.st115{fill:#FB4A59;}
	.st116{fill:#F82F40;}
	.st117{fill:#3F5959;}
	.st118{fill:#384848;}
	.st119{fill:#EFF5F6;}
	.st120{fill:#CBE5E7;}
	.st121{fill:#FCC16D;}
	.st122{fill:#FCB44D;}
	.st123{fill:#A66856;}
	.st124{fill:#735458;}
	.st125{fill:#FFDEA9;}
	.st126{fill:#5C4346;}
	.st127{fill:#8F5040;}
	.st128{fill:#595959;}
	.st129{fill:#7F221C;}
	.st130{fill:#913122;}
	.st131{fill:#FFEFB0;}
	.st132{fill:#DB2116;}
	.st133{fill:#883F2E;}
	.st134{fill:#A44F3E;}
	.st135{fill:#D8AA5E;}
	.st136{fill:#E9B665;}
	.st137{fill:#E19974;}
	.st138{fill:#FFEFD2;}
	.st139{fill:#D7D0D6;}
	.st140{fill:#E8AD8C;}
	.st141{fill:#6D3326;}
	.st142{fill:#BA5D4F;}
	.st143{fill:#F5A871;}
	.st144{fill:#E89A5E;}
	.st145{fill:#A34F41;}
	.st146{fill:#D68A5A;}
	.st147{fill:#FFE5C4;}
	.st148{fill:#FDD1A7;}
	.st149{fill:#873F30;}
	.st150{fill:#C86F5C;}
	.st151{fill:#6C3328;}
	.st152{fill:#54231D;}
	.st153{fill:#B5B1B3;}
	.st154{fill:#FEC93E;}
	.st155{fill:#EFB533;}
	.st156{fill:#F7A738;}
	.st157{fill:#EA952F;}
	.st158{fill:#FD6E2E;}
	.st159{fill:#EA551B;}
	.st160{fill:#F5A257;}
	.st161{fill:#DB8F52;}
	.st162{fill:#75360D;}
	.st163{fill:#FFBF7B;}
	.st164{fill:#00CCB2;}
	.st165{fill:#00AB94;}
	.st166{fill:#FEA832;}
	.st167{fill:#FF8700;}
	.st168{fill:#00EED0;}
	.st169{fill:#FFD400;}
	.st170{fill:#FDBF00;}
	.st171{fill:#08B865;}
	.st172{fill:#E41F2D;}
	.st173{fill:#FD4755;}
	.st174{fill:#FB2B3A;}
	.st175{fill:#FED2A4;}
	.st176{fill:#FFE5C2;}
	.st177{fill:#FFBD86;}
	.st178{fill:#FE99A0;}
	.st179{fill:#FD8087;}
	.st180{fill:#C57A44;}
	.st181{fill:#09A755;}
	.st182{fill:#FEDF30;}
	.st183{fill:#FED402;}
	.st184{fill:#FAC600;}
	.st185{fill:#46CC8D;}
	.st186{fill:#00C27A;}
	.st187{fill:#FE7701;}
	.st188{fill:#FE860A;}
	.st189{fill:#C41926;}
	.st190{fill:#E89C5D;}
	.st191{fill:#F4B37D;}
	.st192{fill:#E8626C;}
	.st193{fill:#40C6C2;}
	.st194{fill:#FFC999;}
	.st195{fill:#4A4A68;}
	.st196{fill:#333356;}
	.st197{fill:#EDEDED;}
	.st198{fill:#C9C9C9;}
	.st199{fill:#FF9900;}
	.st200{fill:#FFCE00;}
	.st201{fill:#FBBD00;}
	.st202{fill:#ED8100;}
	.st203{fill:#FFE431;}
	.st204{fill:#FF9F00;}
	.st205{fill:#FFE666;}
	.st206{fill:#FFBF00;}
	.st207{fill:#FCCD31;}
	.st208{fill:#F2B016;}
	.st209{fill:#4A4D4F;}
	.st210{fill:#D3CBC2;}
	.st211{fill:#6D7072;}
	.st212{fill:#BAAFA6;}
	.st213{fill:#888C8E;}
	.st214{fill:#B4B4B4;}
	.st215{fill:#FFE999;}
	.st216{fill:#FFCF3B;}
	.st217{fill:#C1C1C1;}
	.st218{fill:#FFBC19;}
	.st219{fill:#94E6FF;}
	.st220{fill:#315F83;}
	.st221{fill:#267EA8;}
	.st222{fill:#3B3F5F;}
	.st223{fill:#D8F2FB;}
	.st224{fill:#35495E;}
	.st225{fill:#556080;}
	.st226{fill:#E4C05C;}
	.st227{fill:#E4C05C;stroke:#E4C05C;stroke-width:2;stroke-linecap:round;stroke-linejoin:round;stroke-miterlimit:10;}
	.st228{fill:#B57F5F;}
	.st229{fill:#966A5B;}
	.st230{fill:#FFD15B;}
	.st231{fill:#A5C3DC;}
	.st232{fill:#8697CB;}
	.st233{fill:#E0E0E0;}
	.st234{fill:#CCCCCC;}
	.st235{fill:#8E8E8E;}
	.st236{fill:#A0A0A0;}
	.st237{fill:#E13732;}
	.st238{fill:#F05055;}
	.st239{fill:#D24605;}
	.st240{fill:#FFCE53;}
	.st241{fill:#FFB833;}
	.st242{fill:#4999D1;}
	.st243{fill:#43AAF0;}
	.st244{fill:#FF2E23;}
	.st245{fill:#FF4A26;}
	.st246{fill:#C6805D;}
	.st247{fill:#77CC7D;}
	.st248{fill:#52BD7E;}
	.st249{fill:#98DB7C;}
	.st250{fill:#D48C64;}
	.st251{fill:#FFD18D;}
	.st252{fill:#FBBD80;}
	.st253{fill:#F3B573;}
	.st254{fill:#434A54;}
	.st255{fill:#DA4453;}
	.st256{fill:#FFCE54;}
	.st257{fill:#ED5564;}
	.st258{fill-rule:evenodd;clip-rule:evenodd;fill:#4BC3EF;}
	.st259{fill-rule:evenodd;clip-rule:evenodd;fill:#1BADDE;}
	.st260{fill-rule:evenodd;clip-rule:evenodd;fill:#DBD8DB;}
	.st261{fill-rule:evenodd;clip-rule:evenodd;fill:#C9BFC8;}
	.st262{fill:#421815;}
	.st263{fill:#FCB982;}
	.st264{fill:#FDDBBF;}
	.st265{fill:#FCCA9F;}
	.st266{fill:#C6865C;}
	.st267{fill:#B16E3D;}
	.st268{fill:#454545;}
	.st269{fill:#EFECEF;}
	.st270{fill:#E2DFE2;}
	.st271{fill:#3F3736;}
	.st272{fill:#C4755B;}
	.st273{fill:#FFE3A1;}
	.st274{fill-rule:evenodd;clip-rule:evenodd;fill:#D48C64;}
	.st275{fill:#DBD8DB;}
	.st276{fill:#BB5D4C;}
	.st277{fill:#465A61;}
	.st278{fill:#596C76;}
	.st279{fill:#E5E1E5;}
	.st280{fill:#7A8C98;}
	.st281{fill:#FEDBA6;}
	.st282{fill:#EAB14D;}
	.st283{fill:#617881;}
	.st284{fill:#E28086;}
	.st285{fill:#DD636E;}
	.st286{fill:#FFE07D;}
	.st287{fill:#ECBE6B;}
	.st288{fill:#E9EDF5;}
	.st289{fill:#CDD2E1;}
	.st290{fill:#FFAA00;}
	.st291{fill:#FF9500;}
	.st292{fill:#555A65;}
	.st293{fill:#333940;}
	.st294{fill:#E6A373;}
	.st295{fill:#CC8552;}
	.st296{fill:#FFDF40;}
	.st297{fill:#FFBE40;}
	.st298{fill:#FF9F40;}
	.st299{fill:#F77E00;}
	.st300{fill:#FFF04A;}
	.st301{fill:#00DDC1;}
	.st302{fill:#A24603;}
	.st303{fill:#F2D813;}
	.st304{fill:#803602;}
	.st305{fill:#3A3A3A;}
	.st306{fill:#AFAFAF;}
	.st307{fill:#686868;}
	.st308{fill:#925A15;}
	.st309{fill:#F3F2F6;}
	.st310{fill:#BF7D5A;}
	.st311{fill:#AA6256;}
	.st312{fill:#894E46;}
	.st313{fill:#DBA660;}
	.st314{fill:#E49542;}
	.st315{fill:#F9EFDA;}
	.st316{fill:#756E78;}
	.st317{fill:#665E66;}
	.st318{fill:#F9F6F9;}
	.st319{fill:#BC6C59;}
	.st320{fill:#994B39;}
	.st321{fill:#FEEC96;}
	.st322{fill:#F5DB64;}
	.st323{fill:#5D5E69;}
	.st324{fill:#FFE09F;}
	.st325{fill:#ECBD83;}
	.st326{fill:#F6D190;}
	.st327{fill:#FF8086;}
	.st328{fill:#E5646E;}
	.st329{fill:#357DA3;}
	.st330{fill:#F48A3B;}
	.st331{fill:#FFC233;}
	.st332{fill:#CDDEE0;}
	.st333{fill:#C8C5C9;}
	.st334{fill:#785353;}
	.st335{fill:#6E4848;}
	.st336{fill:#B7E4F8;}
	.st337{fill:#93D6F4;}
	.st338{fill:#DBF1FB;}
	.st339{fill:#8DCAFC;}
	.st340{fill:#64B9FC;}
	.st341{fill:#C4E1FF;}
	.st342{fill:#B5DBFD;}
	.st343{fill:#FEE7C9;}
	.st344{fill:#FFD496;}
	.st345{fill:#A3E440;}
	.st346{fill:#99D53B;}
	.st347{fill:#BCEA73;}
	.st348{fill:#C76D3D;}
	.st349{fill:#AA5E33;}
	.st350{fill:#D67F4F;}
	.st351{fill:#8DC637;}
	.st352{fill:#A79BA7;}
	.st353{fill:#7A6D79;}
	.st354{fill:#C4E2FF;}
	.st355{fill:#60B7FF;}
	.st356{fill:#B3DAFE;}
	.st357{fill:#F3F0F3;}
	.st358{fill:#EFEDEF;}
	.st359{fill:#CBC4CC;}
	.st360{fill:#26A6FE;}
	.st361{fill:#D2555A;}
	.st362{fill:#FF6464;}
	.st363{fill:#D7DEED;}
	.st364{fill:#B8BFD4;}
	.st365{fill:#959CB3;}
	.st366{fill:#F8C460;}
	.st367{fill:#FAAF42;}
	.st368{fill:#7A838B;}
	.st369{fill:#5D6972;}
	.st370{fill:#A7D0E1;}
	.st371{fill:#80BBCE;}
	.st372{fill:#FFD8CA;}
	.st373{fill:#FFBFAE;}
	.st374{fill:#FFE5D8;}
	.st375{fill:#E5EEF9;}
	.st376{fill:#56595E;}
	.st377{fill:#7F8284;}
	.st378{fill:#A5A5A4;}
	.st379{fill:#95A5A5;}
	.st380{fill:#BDC3C7;}
	.st381{fill:#7F8C8D;}
</style>
<g id="Acoustic_Grand_Keyboard">
	<g>
		<g>
			<path class="st352" d="M5.39,16.52l-5.23-0.76c-0.18-0.03-0.22-0.26-0.07-0.35l3.9-2.29l4.45-2.5l1.57,6.68L5.39,16.52z"/>
			<path class="st352" d="M30.79,33.95c-0.33-0.23-0.78-0.15-1.01,0.17l-1.75,2.49c-0.01,0.01-0.02,0.02-0.02,0.03l-4.09,6.56h-1.71
				c-0.4,0-0.72,0.32-0.72,0.72s0.32,0.72,0.72,0.72h2.11c0.25,0,0.48-0.13,0.61-0.34l0.44-0.71l0.53,0.75
				c0.14,0.19,0.36,0.3,0.59,0.3h1.59c0.4,0,0.72-0.32,0.72-0.72c0-0.4-0.32-0.72-0.72-0.72h-1.21l-0.66-0.94l3.01-4.84l1.74-2.47
				C31.2,34.63,31.12,34.18,30.79,33.95L30.79,33.95z"/>
			<path class="st352" d="M26.72,35.48c0.23-0.33,0.14-0.78-0.19-1c-0.33-0.23-0.78-0.14-1,0.19l-1.83,2.66
				c-0.01,0.01-0.01,0.02-0.02,0.02l-1.42,2.26c0,0,0,0,0,0.01l-0.81,1.28h-1.71c-0.4,0-0.72,0.32-0.72,0.72s0.32,0.72,0.72,0.72
				h2.11c0.25,0,0.48-0.13,0.61-0.34l0.45-0.71l0.53,0.75c0.14,0.19,0.36,0.3,0.59,0.3h1.59c0.4,0,0.72-0.32,0.72-0.72
				s-0.32-0.72-0.72-0.72h-1.21l-0.66-0.93l1.15-1.84L26.72,35.48z"/>
		</g>
		<path class="st353" d="M39.45,28.68l2.99,2.16c-0.69,1.23-1.75,2.2-3.03,2.8l-0.36,0.17h0c-0.53-0.26-1.03-0.55-1.53-0.88
			l-2.01-1.32l-3.65-1.87l4.12-2.96L39.45,28.68z"/>
		<g>
			<path class="st354" d="M20.72,20.17l-3.73-3.73c-1.56-1.57-2.47-3.67-2.53-5.88L14.43,9.4c0-0.06,0.01-0.13,0.04-0.19l0.97-2.19
				c0.04-0.08-0.03-0.18-0.12-0.17L14.06,6.9c-0.09,0-0.16-0.08-0.15-0.17l0.05-0.27c0.16-0.83-0.12-1.68-0.73-2.25l-0.88-0.82
				c-0.09-0.09-0.25-0.02-0.25,0.11l0,0.87c0,0.84-0.3,1.65-0.86,2.28l-0.01,0.01C11.14,6.78,11,6.86,10.85,6.9
				c-0.5,0.13-1.76,0.44-3.06,0.76c-2.23,0.56-3.8,2.56-3.8,4.86l0.78,0.19l3.8,2.94l-2,3.44l0,0l0.69,4.95
				c1.15,8.26,8.49,14.22,16.81,13.65l0.25-0.02c4.51-0.31,8.8-1.74,12.53-4.18c0.12-0.08,0.76-0.51,0.76-0.51L20.72,20.17z"/>
			<g id="XMLID_400_">
				<g>
					<path class="st355" d="M40.03,28c0,0.07-0.03,0.15-0.08,0.2c-3.93,3.98-9.23,6.13-14.66,6.13c-2.02,0-4.07-0.3-6.06-0.91
						c-1.65-0.51-3.06-1.49-4.1-2.77c-1.04-1.28-1.7-2.87-1.86-4.59c-0.16-1.85,0.78-3.61,2.41-4.5c3.18-1.72,7-1.81,10.25-0.24
						l12.18,5.9c0.09,0.04,0.18,0.08,0.28,0.1l1.42,0.38C39.95,27.75,40.03,27.87,40.03,28L40.03,28z"/>
				</g>
			</g>
			<g id="XMLID_404_">
				<g>
					<path class="st355" d="M42.44,30.84l2.36,1.71c-0.3,0.9-0.86,1.7-1.61,2.3l-0.3,0.24c-1.34-0.24-2.63-0.66-3.85-1.27l0.36-0.17
						C40.69,33.04,41.75,32.06,42.44,30.84L42.44,30.84z"/>
					<path class="st353" d="M47.89,34.77c0.21,0.15,0.11,0.48-0.15,0.48l-2.03,0.04c-0.94,0.02-1.88-0.05-2.8-0.22l0.3-0.24
						c0.75-0.59,1.3-1.39,1.61-2.3L47.89,34.77z"/>
				</g>
			</g>
			<path class="st356" d="M10.5,24.5l-0.79-5.7c-0.02-0.17-0.08-0.33-0.18-0.47l-0.9-1.36c-0.72-0.3-1.21-0.98-1.27-1.76l-0.13-1.65
				v-0.59c0-2.3,1.57-4.3,3.8-4.86c1.3-0.32,2.56-0.64,3.06-0.76c0.15-0.04,0.29-0.12,0.39-0.24l0.01-0.01
				c0.07-0.07,0.13-0.15,0.19-0.23L14.06,6.9c-0.09,0-0.16-0.08-0.15-0.17l0.05-0.27c0.16-0.83-0.12-1.68-0.73-2.25l-0.88-0.82
				c-0.09-0.09-0.25-0.02-0.25,0.11l0,0.87c0,0.84-0.3,1.65-0.86,2.28l-0.01,0.01C11.14,6.78,11,6.86,10.85,6.9
				c-0.5,0.13-1.76,0.44-3.06,0.76c-2.23,0.56-3.8,2.56-3.8,4.86l1.51-0.13l1.92,4.47l-0.84,2.22l0,0l0.69,4.95
				c1.07,7.69,7.52,13.39,15.12,13.68C16.26,36.19,11.42,31.07,10.5,24.5L10.5,24.5z"/>
			<g id="XMLID_397_">
				<g>
					<g>
						<path class="st357" d="M11.91,11.01v3.34c0,1.73-1.1,3.27-2.73,3.84l-2.6,0.9l-0.11-0.75c-0.02-0.17-0.08-0.33-0.18-0.47
							l-0.9-1.36l0.03-0.8c0.03-0.82-0.31-1.61-0.92-2.15l-0.51-0.45v-0.59l0.28-0.23c0.8-0.67,1.81-1.03,2.85-1.03h3.9l0.61-0.4
							C11.75,10.79,11.91,10.87,11.91,11.01L11.91,11.01z"/>
					</g>
				</g>
			</g>
			<path class="st358" d="M9.39,18.11l-0.39-0.59c-0.2-0.3-0.47-0.55-0.76-0.77c-0.5-0.35-0.82-0.91-0.87-1.53l-0.13-1.65v-0.59
				c0-0.6,0.11-1.18,0.3-1.72H7.12c-1.04,0-2.05,0.37-2.85,1.03l-0.28,0.23l0,0.59l0.51,0.45c0.61,0.54,0.95,1.33,0.92,2.15
				l-0.03,0.8l0.9,1.36c0.09,0.14,0.15,0.3,0.18,0.47l0.11,0.75l2.6-0.9C9.25,18.17,9.32,18.14,9.39,18.11z"/>
			<g>
				<path class="st353" d="M7.95,14.85c-0.4,0-0.72-0.32-0.72-0.72v-0.58c0-0.4,0.32-0.72,0.72-0.72s0.72,0.32,0.72,0.72v0.58
					C8.67,14.53,8.35,14.85,7.95,14.85z"/>
			</g>
			<path class="st359" d="M17.45,17l0.06-0.05l-0.52-0.52c-0.17-0.17-0.33-0.35-0.49-0.53c-4,3.46-6.87,6.88-8.75,10.42
				c0.19,0.64,0.41,1.26,0.67,1.86l0.29-0.58C10.5,24.02,13.36,20.54,17.45,17z"/>
			<g id="XMLID_402_">
				<g>
					<path class="st360" d="M36.78,30.82l-0.08,0.05c-0.52,0.34-1.04,0.66-1.58,0.96c-6.82,0.52-13.86-0.61-21.04-2.85l0,0
						c-0.43-0.9-0.71-1.89-0.8-2.92c-0.05-0.6,0.01-1.19,0.17-1.74C21.28,27.83,29.17,30.32,36.78,30.82L36.78,30.82z"/>
					<path class="st352" d="M35.12,31.83c-3.02,1.64-6.4,2.5-9.83,2.5c-2.02,0-4.07-0.3-6.06-0.91c-1.65-0.51-3.06-1.49-4.1-2.77
						c-0.41-0.51-0.77-1.07-1.05-1.67C21.25,31.22,28.29,32.35,35.12,31.83L35.12,31.83z"/>
				</g>
			</g>
		</g>
		<path class="st352" d="M10.5,24.5l-0.28-2.02c-0.96,1.27-1.78,2.55-2.47,3.85c0.19,0.64,0.41,1.26,0.68,1.86l0.29-0.58
			c0.51-1.03,1.1-2.04,1.79-3.06C10.51,24.54,10.51,24.52,10.5,24.5L10.5,24.5z"/>
	</g>
</g>
<g id="Layer_2">
</g>
</svg>
