<svg id="Acoustic_Grand_Keyboard" data-name="Acoustic Grand Keyboard" xmlns="http://www.w3.org/2000/svg" viewBox="0 0 48 48"><defs><style>.cls-1{fill:#a66856;}.cls-2{fill:#735458;}.cls-3{fill:#ffdea9;}.cls-4{fill:#5c4346;}.cls-5{fill:#8f5040;}.cls-6{fill:#595959;}.cls-7{fill:#00ccb2;}.cls-8{fill:#00ab94;}.cls-9{fill:#fea832;}.cls-10{fill:#ff8700;}.cls-11{fill:#00eed0;}.cls-12{fill:#ffd400;}.cls-13{fill:#fdbf00;}</style></defs><polygon class="cls-1" points="8.54 10.16 11.05 7.61 8.35 4.91 5.82 7.44 8.54 10.16"/><path class="cls-2" d="M43.9,44.7a.69.69,0,0,1-.2,0,.71.71,0,0,1-.48-.87l.14-.47a4.34,4.34,0,0,0-1.46-3.88L5.44,3a.7.7,0,0,1,1-1L42.89,38.46a5.67,5.67,0,0,1,1.81,5.25l-.13.48A.7.7,0,0,1,43.9,44.7Z"/><path class="cls-3" d="M6,6.05,44.51,44.61a.39.39,0,0,1,0,.53l-1.11,1.1a.37.37,0,0,1-.53,0L4.31,7.68a.39.39,0,0,1,0-.53l1.11-1.1A.37.37,0,0,1,6,6.05Z"/><path class="cls-4" d="M43.06,11.58,40.52,7.7,36.63,5.16a1.44,1.44,0,0,1,0-2h0a1.44,1.44,0,0,1,2,0L41.21,7l3.88,2.55a1.42,1.42,0,0,1,0,2h0A1.44,1.44,0,0,1,43.06,11.58Z"/><path class="cls-4" d="M39.78,14.86,37.18,11l-3.83-2.6a1.44,1.44,0,0,1,0-2h0a1.44,1.44,0,0,1,2,0L38,10.18l3.77,2.65a1.44,1.44,0,0,1,0,2h0A1.44,1.44,0,0,1,39.78,14.86Z"/><path class="cls-1" d="M4.13,43.81C-2.55,37-.4,26.26,8.06,24.21a.42.42,0,0,1,.22,0c.66.24,4.34,1.46,6.33-.53a4.89,4.89,0,0,0,1.16-4.46.34.34,0,0,1,0-.26,9.42,9.42,0,0,1,1.79-2.42c7.54-8.27,22.9,6.53,13.86,14.23a9.94,9.94,0,0,1-2.21,1.59.37.37,0,0,1-.27,0,4.9,4.9,0,0,0-4.48,1.15c-1.52,1.52-1.65,4-.54,6.31a.43.43,0,0,1,0,.25C21.92,48.63,11,50.84,4.13,43.81Z"/><path class="cls-5" d="M28.66,16c3.41,3.63,4.76,9,.38,12.77a9.68,9.68,0,0,1-2,1.47,1.09,1.09,0,0,1-.71.13,4.85,4.85,0,0,0-4.24,1.19c-1.48,1.47-1.64,3.86-.64,6.1a1.11,1.11,0,0,1,.06.72C19.52,45.74,10.73,48.2,4,43.7l.1.11c6.87,7,17.79,4.82,19.85-3.67a.43.43,0,0,0,0-.25c-1.11-2.3-1-4.79.54-6.31A4.9,4.9,0,0,1,29,32.43a.37.37,0,0,0,.27,0,10.19,10.19,0,0,0,2.21-1.59C36.77,26.26,33.66,19.29,28.66,16Z"/><path class="cls-6" d="M9,47.1a14.12,14.12,0,0,1-4.89-3.29c-5.38-5.5-5-13.53-.27-17.51h0A5.82,5.82,0,0,1,7.3,31.44c.26,4,1.17,5.35,3.57,8.18C12.16,41.15,11,43.56,9,47.1Z"/><path class="cls-6" d="M11.53,30.06h-.12a2.25,2.25,0,0,1-1.79-1,.69.69,0,0,1,1.2-.7,1.07,1.07,0,0,0,.7.28,2.08,2.08,0,0,0,1.54-1.06c1.73-2.4,3.22-1.5,3.29-1.46a.7.7,0,0,1-.71,1.21c-.16-.06-.7,0-1.44,1.07A3.3,3.3,0,0,1,11.53,30.06Zm4.11-1.94Zm0,0Zm0,0Z"/><path class="cls-6" d="M18.7,38.67a.64.64,0,0,1-.35-.1,2.25,2.25,0,0,1-1-1.79A3.25,3.25,0,0,1,19,34c1.18-.85,1.1-1.4,1.1-1.41a.7.7,0,1,1,1.18-.74c0,.06.95,1.56-1.46,3.28a2.08,2.08,0,0,0-1.06,1.54,1,1,0,0,0,.29.7.7.7,0,0,1-.36,1.3Z"/><path class="cls-6" d="M17.54,33.77a.69.69,0,0,1-.5-.2l-2.32-2.33a.69.69,0,0,1,0-1,.71.71,0,0,1,1,0L18,32.58a.69.69,0,0,1,0,1A.66.66,0,0,1,17.54,33.77Z"/><path class="cls-4" d="M5.89,42.29h0a.88.88,0,0,1-.06-1.17l5.54-6.75a.38.38,0,0,1,.56,0l1.91,1.91a.38.38,0,0,1,0,.56L7.06,42.35A.87.87,0,0,1,5.89,42.29Z"/><path class="cls-2" d="M42.29,8.84l-6.35,6.35-1,1L33.11,18l-1,1-1.83,1.83-1,1-1.84,1.84-1,1-4.11,4.11a.39.39,0,0,1-.53,0l-2.39-2.39a.39.39,0,0,1,0-.53l4.09-4.09,1-1,1.84-1.83,1-1,1.83-1.83,1-1L32,13.29l1-1,6.38-6.38a.39.39,0,0,1,.53,0l2.38,2.39A.37.37,0,0,1,42.29,8.84Z"/><path class="cls-5" d="M38.36,13.34,34.87,9.86A.49.49,0,0,1,35,9.18l6.71-5.86a.45.45,0,0,1,.61-.07L45,5.86a.46.46,0,0,1-.07.61L39,13.2C38.83,13.44,38.52,13.5,38.36,13.34Z"/><path class="cls-1" d="M47.93,4.07,44,9.07a.42.42,0,0,1-.62,0l-2-2-2.2-2.2a.41.41,0,0,1,0-.61l5-4a.44.44,0,0,1,.57.09l1.17,1.16,2,2A.43.43,0,0,1,47.93,4.07Z"/><path class="cls-5" d="M47.93,4.07,44,9.07a.42.42,0,0,1-.62,0l-2-2h0a.42.42,0,0,0,.62,0l3.93-5a.44.44,0,0,0-.08-.56l2,2A.43.43,0,0,1,47.93,4.07Z"/><polygon class="cls-4" points="35.94 15.19 34.95 16.18 32.01 13.29 33 12.3 35.94 15.19"/><polygon class="cls-4" points="33.11 18.01 32.12 19 29.18 16.11 30.17 15.12 33.11 18.01"/><polygon class="cls-4" points="30.29 20.83 29.3 21.82 26.36 18.93 27.35 17.94 30.29 20.83"/><polygon class="cls-4" points="27.46 23.66 26.47 24.65 23.53 21.75 24.52 20.77 27.46 23.66"/><path class="cls-7" d="M25.36,10.22a.35.35,0,0,0,.38.34.36.36,0,0,0,.31-.35V6.35l-.32-.6-.37.79Z"/><path class="cls-8" d="M30.18,8.84a.34.34,0,0,0,.38.34.35.35,0,0,0,.31-.35V5l-.33-.59-.36.79Z"/><path class="cls-9" d="M24.67,4A1.71,1.71,0,0,1,23,5.74a.35.35,0,0,1-.35-.32A.34.34,0,0,1,23,5.05a1,1,0,0,0,.61-1.86A8.67,8.67,0,0,1,21.9,1.67V7.11a.35.35,0,0,1-.32.35.34.34,0,0,1-.37-.34V.54A.35.35,0,0,1,21.45.2h.1a.38.38,0,0,1,.29.15l.39.6A7.14,7.14,0,0,0,24,2.63,1.75,1.75,0,0,1,24.67,4Z"/><path class="cls-10" d="M24.67,4A1.71,1.71,0,0,1,23,5.74a.35.35,0,0,1-.35-.32A.34.34,0,0,1,23,5.05a1,1,0,0,0,.61-1.86A8.67,8.67,0,0,1,21.9,1.67V7.12a.34.34,0,0,1-.35.34V.19a.38.38,0,0,1,.29.15l.39.6A7.14,7.14,0,0,0,24,2.63,1.75,1.75,0,0,1,24.67,4Z"/><path class="cls-11" d="M24.67,11.94a1.38,1.38,0,1,1,1.38-1.38A1.37,1.37,0,0,1,24.67,11.94Z"/><path class="cls-12" d="M21.55,6.22a1.35,1.35,0,0,0-1-.48,1.38,1.38,0,1,0,0,2.76,1.35,1.35,0,0,0,1-.48,1.33,1.33,0,0,0,.35-.9A1.31,1.31,0,0,0,21.55,6.22Z"/><path class="cls-7" d="M29.49,10.56a1.38,1.38,0,1,1,1.38-1.38A1.38,1.38,0,0,1,29.49,10.56Z"/><path class="cls-13" d="M21.9,7.12a1.33,1.33,0,0,1-.35.9V6.22A1.31,1.31,0,0,1,21.9,7.12Z"/><path class="cls-11" d="M30.73,3.06a.39.39,0,0,0-.3-.06l-2.32.66-2.5.72a.34.34,0,0,0-.25.33V6.54l.69-.19,2.06-.59,2.07-.6L30.87,5V3.33A.33.33,0,0,0,30.73,3.06Z"/><path class="cls-7" d="M30.87,3.33V5l-.69.19-2.07.6V3.66L30.43,3a.39.39,0,0,1,.3.06A.33.33,0,0,1,30.87,3.33Z"/><path class="cls-7" d="M41.63,26.61a.29.29,0,0,0,.33.29.3.3,0,0,0,.26-.3V23.3L42,22.79l-.32.68Z"/><path class="cls-8" d="M45.75,25.43a.3.3,0,1,0,.59,0V22.13l-.28-.51-.31.67Z"/><path class="cls-9" d="M41,21.31a1.48,1.48,0,0,1-1.46,1.48.3.3,0,0,1-.3-.28.29.29,0,0,1,.29-.31.88.88,0,0,0,.88-.89.9.9,0,0,0-.35-.71,7.2,7.2,0,0,1-1.43-1.3V24a.3.3,0,0,1-.59,0V18.33a.3.3,0,0,1,.21-.28h.09a.31.31,0,0,1,.24.13l.34.51a6.17,6.17,0,0,0,1.48,1.45A1.45,1.45,0,0,1,41,21.31Z"/><path class="cls-10" d="M41,21.31a1.48,1.48,0,0,1-1.46,1.48.3.3,0,0,1-.3-.28.29.29,0,0,1,.29-.31.88.88,0,0,0,.88-.89.9.9,0,0,0-.35-.71,7.2,7.2,0,0,1-1.43-1.3V24a.29.29,0,0,1-.29.3V18a.31.31,0,0,1,.24.13l.34.51a6.17,6.17,0,0,0,1.48,1.45A1.45,1.45,0,0,1,41,21.31Z"/><path class="cls-11" d="M41,28.08a1.18,1.18,0,1,1,1.18-1.18A1.17,1.17,0,0,1,41,28.08Z"/><path class="cls-12" d="M38.38,23.19a1.15,1.15,0,0,0-.89-.4,1.18,1.18,0,1,0,0,2.35,1.16,1.16,0,0,0,.89-.41,1.1,1.1,0,0,0,.29-.77A1.13,1.13,0,0,0,38.38,23.19Z"/><path class="cls-7" d="M45.16,26.9a1.18,1.18,0,1,1,1.18-1.17A1.17,1.17,0,0,1,45.16,26.9Z"/><path class="cls-13" d="M38.67,24a1.15,1.15,0,0,1-.29.77V23.19A1.18,1.18,0,0,1,38.67,24Z"/><path class="cls-11" d="M46.22,20.49a.34.34,0,0,0-.26,0L44,21l-2.14.61a.3.3,0,0,0-.21.28v1.57l.59-.17L44,22.8l1.77-.51.59-.16v-1.4A.29.29,0,0,0,46.22,20.49Z"/><path class="cls-7" d="M46.34,20.73v1.4l-.59.16L44,22.8V21l2-.57a.34.34,0,0,1,.26,0A.29.29,0,0,1,46.34,20.73Z"/></svg>