<svg id="Acoustic_Grand_Keyboard" data-name="Acoustic Grand Keyboard" xmlns="http://www.w3.org/2000/svg" viewBox="0 0 48 48"><defs><style>.cls-1{fill:#b7e4f8;}.cls-2{fill:#93d6f4;}.cls-3{fill:#dbf1fb;}</style></defs><path class="cls-1" d="M13.89,5.66a4.7,4.7,0,0,0-3.06,1.13h0a2.3,2.3,0,1,0,3.72,1.8,1.93,1.93,0,0,1-.66,3.74H0v2.81H13.89a4.74,4.74,0,0,0,0-9.48Z"/><polygon class="cls-2" points="37.54 39.38 36.77 40.15 35.99 39.38 34.01 41.36 34.78 42.14 34.01 42.91 35.99 44.9 36.77 44.13 37.54 44.9 39.53 42.91 38.76 42.14 39.53 41.36 37.54 39.38"/><polygon class="cls-2" points="47.99 30.9 46.01 28.91 45.23 29.68 44.46 28.91 42.47 30.9 43.24 31.67 42.47 32.45 44.46 34.44 45.23 33.66 46.01 34.44 47.99 32.45 47.22 31.67 47.99 30.9"/><polygon class="cls-1" points="9.54 33.91 8.77 34.69 7.99 33.91 6.01 35.9 6.78 36.67 6.01 37.45 7.99 39.44 8.77 38.66 9.54 39.44 11.53 37.45 10.76 36.67 11.53 35.9 9.54 33.91"/><polygon class="cls-1" points="24.53 2.36 22.54 0.38 21.77 1.15 20.99 0.38 19.01 2.36 19.78 3.14 19.01 3.91 20.99 5.9 21.77 5.13 22.54 5.9 24.53 3.91 23.76 3.14 24.53 2.36"/><path class="cls-3" d="M45.19,15.24A10.69,10.69,0,0,0,34.52,4.57a8.17,8.17,0,0,0-8.16,8.16,6.18,6.18,0,0,0,6.17,6.18,4.61,4.61,0,0,0,4.6-4.6,3.31,3.31,0,0,0-.7-2,2.91,2.91,0,1,1-2.65-4.12h0a6.16,6.16,0,0,1,6.16,6.16,7.41,7.41,0,0,1-7.41,7.41,9,9,0,0,1-7-3.4H0v1.41H0v8H0v1.33H31.35A13.86,13.86,0,0,0,45.19,15.24Z"/><path class="cls-1" d="M25.34,30.46V29.08H0V32H20.32a7.36,7.36,0,0,1,7.36,7.34,5.53,5.53,0,0,1-5.5,5.52,3.63,3.63,0,0,1-3.58-3.63,2.58,2.58,0,0,1,2.58-2.58,1.66,1.66,0,0,1,.7.15,2.3,2.3,0,1,0,3.87,1.65c0-.12,0-.25,0-.36a4.58,4.58,0,0,0-4.55-4.25,5.4,5.4,0,0,0-5.4,5.39,6.45,6.45,0,0,0,6.37,6.44h.07a8.34,8.34,0,0,0,8.27-8.33A10.17,10.17,0,0,0,25.34,30.46Z"/><path class="cls-1" d="M34.52,4.57a8.17,8.17,0,0,0-8.16,8.16,6.18,6.18,0,0,0,6.17,6.18,4.61,4.61,0,0,0,4.6-4.6,3.31,3.31,0,0,0-.7-2,2.91,2.91,0,1,1-2.65-4.12h0a6.16,6.16,0,0,1,6.16,6.16,7.41,7.41,0,0,1-7.41,7.41,9,9,0,0,1-7-3.4H24V29.08h7.39A13.86,13.86,0,0,0,45.19,15.24,10.69,10.69,0,0,0,34.52,4.57Z"/><path class="cls-1" d="M25.75,40.4c0-.12,0-.25,0-.36A4.62,4.62,0,0,0,24,36.74v5.93A2.3,2.3,0,0,0,25.75,40.4Z"/><path class="cls-2" d="M34.52,1.76a11,11,0,0,0-11,11,9,9,0,0,0,9,9,7.41,7.41,0,0,0,7.41-7.41,6.16,6.16,0,0,0-6.16-6.16h0a2.92,2.92,0,1,0,2.65,4.12,3.31,3.31,0,0,1,.7,2,4.61,4.61,0,0,1-4.6,4.6,6.18,6.18,0,0,1-6.17-6.18,8.17,8.17,0,0,1,8.16-8.16A10.69,10.69,0,0,1,45.19,15.24,13.86,13.86,0,0,1,31.35,29.08H24v3.84a7.32,7.32,0,0,1,3.72,6.37A5.53,5.53,0,0,1,24,44.5v2.92a8.35,8.35,0,0,0,6.53-8.13,10.12,10.12,0,0,0-3.21-7.4h4.07A16.67,16.67,0,0,0,48,15.24,13.5,13.5,0,0,0,34.52,1.76Z"/><rect class="cls-1" y="22.5" width="20" height="2.81"/></svg>