<svg id="Acoustic_Grand_Keyboard" data-name="Acoustic Grand Keyboard" xmlns="http://www.w3.org/2000/svg" viewBox="0 0 48 48"><defs><style>.cls-1{fill:#556080;}.cls-2{fill:#35495e;}.cls-3{fill:#8697cb;}.cls-4{fill:#e4c05c;}</style></defs><rect class="cls-1" x="5.31" y="35.99" width="6.7" height="6.7" transform="translate(-25.28 17.64) rotate(-45)"/><rect class="cls-2" x="0.84" y="41.46" width="6.38" height="5.02" transform="translate(-29.91 15.73) rotate(-45)"/><path class="cls-2" d="M20.92,29.59V27.91l.84-.83h1.68l.52.52,1.67-1.68-.52-.52V23.73l.84-.84h1.67l.52.52,1.67-1.67-.52-.52V19.54l.84-.83h1.68l.52.52L34,17.55,33.48,17V15.36l.84-.84H36l.52.52,1.67-1.67-.52-.52V11.17l.84-.83h1.68l.52.52,6.91-6.92a1.3,1.3,0,0,0,0-1.86L45.92.39a1.3,1.3,0,0,0-1.86,0L9.25,35.2l3.55,3.55,8.64-8.64Z"/><path class="cls-1" d="M17.16,37.54a.79.79,0,0,1-.59-.25l-5.86-5.86a.83.83,0,0,1,1.18-1.18l5.86,5.86a.83.83,0,0,1,0,1.18A.81.81,0,0,1,17.16,37.54Z"/><path class="cls-1" d="M19.67,35a.85.85,0,0,1-.59-.25l-5.86-5.86a.83.83,0,1,1,1.18-1.18l5.86,5.86a.83.83,0,0,1,0,1.18A.85.85,0,0,1,19.67,35Z"/><path class="cls-1" d="M45.2,10.34a2.52,2.52,0,0,1-1.78-.74L41.06,7.24a.84.84,0,0,1,0-1.19.83.83,0,0,1,1.18,0l2.37,2.37a.84.84,0,0,0,1.18,0,.83.83,0,0,0,0-1.18L43.42,4.87a.84.84,0,0,1,1.19-1.19L47,6.05a2.52,2.52,0,0,1-1.78,4.29Z"/><path class="cls-3" d="M35.75,11.42,32.4,8.07a.84.84,0,0,0-1.19,0L18.66,20.63a.83.83,0,0,0,0,1.18L22,25.16a.82.82,0,0,0,.59.24A.84.84,0,0,0,23.19,24l-2.76-2.75L31.81,9.85l2.75,2.75a.83.83,0,0,0,1.19,0A.85.85,0,0,0,35.75,11.42Z"/><polygon class="cls-4" points="40.18 13.68 41.01 12.85 41.01 11.17 40.18 10.34 38.5 10.34 37.66 11.17 37.66 12.85 38.5 13.68 40.18 13.68"/><polygon class="cls-4" points="35.99 17.87 36.83 17.03 36.83 15.36 35.99 14.52 34.32 14.52 33.48 15.36 33.48 17.03 34.32 17.87 35.99 17.87"/><polygon class="cls-4" points="31.81 22.05 32.64 21.22 32.64 19.54 31.81 18.71 30.13 18.71 29.3 19.54 29.3 21.22 30.13 22.05 31.81 22.05"/><polygon class="cls-4" points="27.62 26.24 28.46 25.4 28.46 23.73 27.62 22.89 25.95 22.89 25.11 23.73 25.11 25.4 25.95 26.24 27.62 26.24"/><polygon class="cls-4" points="23.44 30.42 24.27 29.59 24.27 27.91 23.44 27.08 21.76 27.08 20.93 27.91 20.93 29.59 21.76 30.42 23.44 30.42"/></svg>