<svg id="Acoustic_Grand_Keyboard" data-name="Acoustic Grand Keyboard" xmlns="http://www.w3.org/2000/svg" viewBox="0 0 48 48"><defs><style>.cls-1{fill:#fccd31;}.cls-2{fill:#f2b016;}.cls-3{fill:#4a4d4f;}.cls-4{fill:#d3cbc2;}.cls-5{fill:#6d7072;}.cls-6{fill:#baafa6;}.cls-7{fill:#888c8e;}</style></defs><path class="cls-1" d="M17,8H14V9.28A4.72,4.72,0,0,0,18.72,14H34V11H18.89A2.11,2.11,0,0,1,17,9.44Z"/><path class="cls-1" d="M23,21H35V18H23.23a4.65,4.65,0,0,0-4.71,4.1A4.5,4.5,0,0,0,23,27H35V24H23a1.5,1.5,0,0,1,0-3Z"/><path class="cls-1" d="M17,36H14V34.72A4.72,4.72,0,0,1,18.72,30H34v3H18.89A2.28,2.28,0,0,0,17,34.62Z"/><path class="cls-2" d="M17.56,13.92a5.12,5.12,0,0,0,.87.08H20V10.85A3.15,3.15,0,0,1,17.56,13.92Z"/><path class="cls-2" d="M22,20.46V17.31a4.66,4.66,0,0,0-2.31.61,11.89,11.89,0,0,1,0,8.23,4.66,4.66,0,0,0,2.31.6V23.61a1.58,1.58,0,0,1,0-3.15Z"/><path class="cls-2" d="M20.4,30a3.1,3.1,0,0,1-3.2,3,3.34,3.34,0,0,1-2.39-1A4.29,4.29,0,0,0,14,34.5V35h3v-.38c.31-.87,1.89-1.62,1.89-1.62H22V30Z"/><path class="cls-1" d="M28,4.53V2a8,8,0,0,0-8,8V34a8,8,0,0,0,8,8v-2.5a5,5,0,0,1-5-5v-25A5,5,0,0,1,28,4.53Z"/><path class="cls-2" d="M26.55,38.33a11,11,0,0,1-6.4-3.95A7.87,7.87,0,0,0,28,41.7V38.56a4.78,4.78,0,0,1-1.45-.23Z"/><path class="cls-3" d="M35,17h4v2H35Z"/><path class="cls-3" d="M35,25h4v2H35Z"/><path class="cls-2" d="M33,23.85A3.15,3.15,0,0,1,29.85,27H33Z"/><path class="cls-2" d="M33,29.85A3.15,3.15,0,0,1,29.85,33H33Z"/><path class="cls-2" d="M33,16.85A3.15,3.15,0,0,1,29.85,20H33Z"/><path class="cls-2" d="M33,10.85A3.15,3.15,0,0,1,29.85,14H33Z"/><path class="cls-1" d="M28,4.53V2a8,8,0,0,1,8,8V34a8,8,0,0,1-8,8v-2.5a5,5,0,0,0,5-5v-25A5,5,0,0,0,28,4.53Z"/><path class="cls-2" d="M31.06,37.48A4.69,4.69,0,0,1,28,38.58v3.2a8,8,0,0,0,8-8V32.19a10.4,10.4,0,0,1-4.94,5.29Z"/><path class="cls-1" d="M45,6h3V22H45Z"/><path class="cls-2" d="M45,9.41V22h3V11A3.69,3.69,0,0,1,45,9.41Z"/><path class="cls-1" d="M28.33,2.36A19.67,19.67,0,1,0,48,22,19.67,19.67,0,0,0,28.33,2.36Zm0,36.2A16.53,16.53,0,1,1,44.85,22,16.53,16.53,0,0,1,28.33,38.56Z"/><path class="cls-2" d="M28,38.56a16.44,16.44,0,0,1-7.53-1.82,16.48,16.48,0,0,1-10.09-6A19.64,19.64,0,0,0,28,41.7Z"/><path class="cls-2" d="M28,41.7A19.67,19.67,0,0,0,47.67,22v-.4c-.22,10.25-8.94,18.5-19.67,18.5Z"/><path class="cls-4" d="M40,14h6a1.5,1.5,0,0,1,0,3H40Z"/><path class="cls-4" d="M40,21h6a1.5,1.5,0,0,1,0,3H40Z"/><path class="cls-4" d="M40,27h6a1.5,1.5,0,0,1,0,3H40Z"/><path class="cls-5" d="M39,13h3V32H39Z"/><path class="cls-1" d="M2,29.41V48.3A28.77,28.77,0,0,1,20,42h8V38.85L15.79,37A23,23,0,0,1,2,29.41Z"/><path class="cls-2" d="M21.39,40C14.48,40.13,7.76,43.14,2,47.21V48a28.4,28.4,0,0,1,18.31-6H28V40Z"/><path class="cls-2" d="M14.37,13.19a16.53,16.53,0,0,1,27.92,0,15.73,15.73,0,0,0-27.92,0Z"/><path class="cls-6" d="M42,13.85A3.15,3.15,0,0,0,45.15,17H42Z"/><path class="cls-6" d="M42,20.85A3.15,3.15,0,0,0,45.15,24H42Z"/><path class="cls-6" d="M42,26.85A3.15,3.15,0,0,0,45.15,30H42Z"/><path class="cls-2" d="M24,10.85A3.15,3.15,0,0,0,27.15,14H24Z"/><path class="cls-2" d="M24,16.85A3.15,3.15,0,0,0,27.15,20H24Z"/><path class="cls-2" d="M24,23.85A3.15,3.15,0,0,0,27.15,27H24Z"/><path class="cls-2" d="M24,29.85A3.15,3.15,0,0,0,27.15,33H24Z"/><circle class="cls-7" cx="34.62" cy="14.95" r="2.36"/><path class="cls-5" d="M35.85,12.94a2.36,2.36,0,0,1-3.24,3.24,2.36,2.36,0,1,0,3.24-3.24Z"/><circle class="cls-7" cx="34.62" cy="22.03" r="2.36"/><path class="cls-5" d="M35.85,20a2.36,2.36,0,0,1-3.24,3.24A2.36,2.36,0,1,0,35.85,20Z"/><circle class="cls-7" cx="34.62" cy="29.11" r="2.36"/><path class="cls-5" d="M35.85,27.1a2.36,2.36,0,0,1-3.24,3.24,2.36,2.36,0,1,0,3.24-3.24Z"/><path class="cls-4" d="M45,2h3V7H45Z"/><path class="cls-6" d="M44.85,2A3.15,3.15,0,0,1,48,5.15V2Z"/></svg>