<svg id="Acoustic_Grand_Keyboard" data-name="Acoustic Grand Keyboard" xmlns="http://www.w3.org/2000/svg" viewBox="0 0 48 48"><defs><style>.cls-1{fill:#f90;}.cls-2{fill:#ed8100;}.cls-3{fill:#ffe431;}.cls-4{fill:#ffbf00;}.cls-5{fill:#ffce00;}.cls-6{fill:#fbbd00;}</style></defs><path class="cls-1" d="M11.51,24.92,9.48,26H7.86a6.93,6.93,0,0,1-1.35-.85V21.73c.62-.4,1-.73,1.35-.73H9.48l2,.94Z"/><path class="cls-2" d="M7.86,24c-.4.14-.73-.19-1.35-.6v1.74A6.61,6.61,0,0,0,7.86,26H9.48l2-1.08V23.18l-2,.82Z"/><path class="cls-3" d="M33,43.82a5,5,0,0,1-8.5-3.53V33h1V16.09c-.85-4,7-11.09,10.92-14.35A1,1,0,0,0,35.8,0H7.48a1,1,0,0,0-.64,1.73C10.71,5,18.51,12.05,18.51,16.09v20A11.76,11.76,0,0,0,29,48,11.55,11.55,0,0,0,41.51,36.37v-1a8.51,8.51,0,0,1-8.5,8.5Z"/><path class="cls-4" d="M19.35,20h-.84v6h.84a5,5,0,0,1,5.16,4.78V21.72A8.51,8.51,0,0,0,19.35,20Z"/><path class="cls-4" d="M25.51,33V31h-1v2Z"/><path class="cls-4" d="M30,46.2a11.5,11.5,0,0,1-11.5-11.5V36A11.78,11.78,0,0,0,29.82,47.93a11.51,11.51,0,0,0,11.69-11.5V35.32a8.56,8.56,0,0,1-.79,3.58A11.5,11.5,0,0,1,30,46.2Z"/><path class="cls-5" d="M33,43.66a8.51,8.51,0,0,1-8.5-8.5V23.26a8.5,8.5,0,0,1,9-8.48,8.73,8.73,0,0,1,8,8.82V35.16a8.51,8.51,0,0,1-8.5,8.5Zm0-25.83a5.51,5.51,0,0,0-5.5,5.5V34.81a5.7,5.7,0,0,0,5,5.76,5.5,5.5,0,0,0,6-5.47V23.33a5.51,5.51,0,0,0-5.5-5.5Z"/><path class="cls-6" d="M32.5,15.9a5.7,5.7,0,0,0-5,5.77v1.41a5.5,5.5,0,0,1,11,0v-1.7A5.51,5.51,0,0,0,32.5,15.9Z"/><path class="cls-6" d="M33,42.09a8.51,8.51,0,0,1-8.5-8.42V35a8.72,8.72,0,0,0,8,8.83,8.52,8.52,0,0,0,9-8.49V33.59a8.51,8.51,0,0,1-8.5,8.5Z"/><path class="cls-4" d="M36,29H34.51V26.89a.57.57,0,0,0-.59-.73c-.4,0-.73.33-.41.73V29h-1V26.89a.72.72,0,0,0-.72-.73c-.4,0-.72.33-.28.73V29h-1V26.89a.94.94,0,0,0-.84-.73c-.4,0-.73.33-.16.73V29H27.63c-.4-.41-.73-.09-.73.31a.68.68,0,0,0,.73.69h1.88v1.48c-.57.4-.24.73.16.73a.94.94,0,0,0,.84-.73V30h1v1.48c-.44.4-.12.73.28.73a.72.72,0,0,0,.72-.73V30h1v1.48c-.32.4,0,.73.41.73a.57.57,0,0,0,.59-.73V30H36a.67.67,0,0,0,.72-.69C36.68,28.91,36.36,28.59,36,29Z"/><path class="cls-3" d="M24.51,32V26.9a7.14,7.14,0,0,1,5.43-7,7,7,0,0,1,8.57,6.83V32a7,7,0,0,1-7,7h0A7,7,0,0,1,24.51,32Zm7-9.21a4,4,0,0,0-4,4v4.93a4.14,4.14,0,0,0,3.63,4.2,4,4,0,0,0,4.37-4V26.75a4,4,0,0,0-4-4Z"/><path class="cls-4" d="M31.51,20.85a4,4,0,0,0-4,4v1.68a4,4,0,1,1,8,0V24.85a4,4,0,0,0-4-4Z"/><path class="cls-4" d="M31.51,37.35a7,7,0,0,1-7-7v1.41A7.21,7.21,0,0,0,30.64,39a7,7,0,0,0,7.87-6.95V30.35a7,7,0,0,1-7,7Z"/><path class="cls-3" d="M27.58,30.19A8.19,8.19,0,0,0,19.39,22H11.51v3h7.88a5.21,5.21,0,0,1,5.2,5.19"/></svg>