<svg id="Acoustic_Grand_Keyboard" data-name="Acoustic Grand Keyboard" xmlns="http://www.w3.org/2000/svg" viewBox="0 0 48 48"><defs><style>.cls-1{fill:#ffd8ca;}.cls-2{fill:#ffbfae;}.cls-3{fill:#ffe5d8;}.cls-4{fill:#e5eef9;}</style></defs><path class="cls-1" d="M9,31.55a6.57,6.57,0,0,0,8.75,2.23l.23-.14,14.62-9h0a2,2,0,0,0,.93-2.23,2.11,2.11,0,0,0-3.15-1.26l6.93-4.26A2,2,0,0,0,38,14h0a2.13,2.13,0,0,0-2.89-.65l1-.64a2,2,0,0,0,.66-2.84,2.11,2.11,0,0,0-2.88-.65l-1,.64a2,2,0,0,0,.67-2.84,2.11,2.11,0,0,0-2.88-.65l-10,6.15-6.48,4A.84.84,0,0,1,13,15.26l5.23-5.78a2,2,0,0,0-.21-2.84,2.11,2.11,0,0,0-3,.17L7.33,15.12a11.9,11.9,0,0,0-3,6.21,6.27,6.27,0,0,0,.93,4.36Z"/><path class="cls-2" d="M33.45,9.52a.71.71,0,0,0-1-.23l-11.4,7a.72.72,0,0,0-.23,1,.69.69,0,0,0,.6.34.76.76,0,0,0,.38-.11l11.4-7a.72.72,0,0,0,.23-1Z"/><path class="cls-2" d="M35.67,13a.71.71,0,0,0-1-.23L24.22,19.21a.71.71,0,0,0,.37,1.32.7.7,0,0,0,.37-.11L35.43,14a.72.72,0,0,0,.24-1Z"/><path class="cls-3" d="M30.34,21.14,22.6,25.89"/><path class="cls-3" d="M14,46.33a6.63,6.63,0,0,0,9-.23l.18-.2L34.73,33.27h0A2,2,0,0,0,35,30.88a2.11,2.11,0,0,0-3.38-.36l5.47-6a2,2,0,0,0-.15-2.91h0a2.12,2.12,0,0,0-3,.15l.83-.9A2,2,0,0,0,34.65,18a2.12,2.12,0,0,0-3,.16l-.82.9a2,2,0,0,0-.15-2.91,2.13,2.13,0,0,0-3,.15l-7.91,8.63-5.11,5.58a.85.85,0,0,1-1.41-.93l3.41-7a2.05,2.05,0,0,0-1-2.68,2.12,2.12,0,0,0-2.8,1L7.81,31a11.86,11.86,0,0,0-1.16,6.77,6.37,6.37,0,0,0,2.12,4Z"/><path class="cls-1" d="M30.92,32.32,19.41,45l-.19.19A6.36,6.36,0,0,1,15,47,6.59,6.59,0,0,0,23,46.1l.18-.2L34.73,33.27h0A2,2,0,0,0,35,30.88a2.12,2.12,0,0,0-3.19-.55,4.21,4.21,0,0,1-.89,2Z"/><path class="cls-2" d="M31.35,18.51a.71.71,0,0,0-1,0l-9,9.82a.71.71,0,0,0,.53,1.19.68.68,0,0,0,.52-.23l9-9.81a.72.72,0,0,0,0-1Z"/><path class="cls-2" d="M34.46,21.26a.71.71,0,0,0-1,0L24.58,31a.72.72,0,0,0,.05,1,.68.68,0,0,0,.48.19.71.71,0,0,0,.52-.23l8.88-9.69a.72.72,0,0,0,0-1Z"/><path class="cls-2" d="M31.09,30,25,36.7a.71.71,0,0,0,0,1,.75.75,0,0,0,.48.19.71.71,0,0,0,.53-.24L32.15,31a.72.72,0,0,0,0-1,.71.71,0,0,0-1,0Z"/><path class="cls-4" d="M39.36,20.09a.67.67,0,0,0,.28-.06l2.42-1a.71.71,0,0,0,.39-.93.72.72,0,0,0-.94-.39l-2.42,1a.71.71,0,0,0-.39.93.73.73,0,0,0,.66.44Z"/><path class="cls-4" d="M43.05,22.45H40.47a.72.72,0,1,0,0,1.43h2.58a.72.72,0,1,0,0-1.43Z"/><path class="cls-4" d="M42,27.58l-2.45-1.26a.71.71,0,0,0-.66,1.26l2.45,1.27a.76.76,0,0,0,.33.08A.72.72,0,0,0,42,27.58Z"/><path class="cls-4" d="M27.35,1.7A.72.72,0,0,0,26,2.25l1,2.43a.72.72,0,0,0,.66.44A.66.66,0,0,0,28,5.06a.71.71,0,0,0,.38-.93Z"/><path class="cls-4" d="M31.49,0a.71.71,0,0,0-.71.71V3.3a.72.72,0,1,0,1.43,0V.71A.71.71,0,0,0,31.49,0Z"/><path class="cls-4" d="M36.87,1.45a.7.7,0,0,0-1,.3L34.65,4.2a.71.71,0,0,0,.3,1,.8.8,0,0,0,.33.08.69.69,0,0,0,.63-.39l1.27-2.44A.71.71,0,0,0,36.87,1.45Z"/></svg>