<?xml version="1.0" encoding="utf-8"?>
<!-- Generator: Adobe Illustrator 25.0.0, SVG Export Plug-In . SVG Version: 6.00 Build 0)  -->
<svg version="1.1" xmlns="http://www.w3.org/2000/svg" xmlns:xlink="http://www.w3.org/1999/xlink" x="0px" y="0px"
	 viewBox="0 0 48 48" style="enable-background:new 0 0 48 48;" xml:space="preserve">
<style type="text/css">
	.st0{fill:#F5DAA7;}
	.st1{fill:#EDC472;}
	.st2{fill:#BC9B5B;}
	.st3{fill:#9A6A53;}
	.st4{fill:#855B47;}
	.st5{fill:#F4E2C1;}
	.st6{fill:#F7F7F7;}
	.st7{fill:#C8C3CA;}
	.st8{fill:#B78C7A;}
	.st9{fill:#7A5341;}
	.st10{fill:#704C3B;}
	.st11{fill:#CF9875;}
	.st12{fill:#C7865B;}
	.st13{clip-path:url(#SVGID_3_);}
	.st14{clip-path:url(#SVGID_4_);fill:#FFFFFF;stroke:#231F20;stroke-miterlimit:10;}
	.st15{fill:#FFFFFF;stroke:#231F20;stroke-miterlimit:10;}
	.st16{fill:none;stroke:#000000;stroke-width:4.5;stroke-miterlimit:10;}
	.st17{fill:#463C4B;}
	.st18{fill:#555A6E;}
	.st19{fill:#F06423;}
	.st20{fill:#FAA51E;}
	.st21{fill:#D7E6F0;}
	.st22{fill:#DADADA;}
	.st23{fill:#C4C6C6;}
	.st24{fill:#EDEEEF;}
	.st25{fill:#797981;}
	.st26{fill:#5A5A63;}
	.st27{fill:#494951;}
	.st28{fill:#29BAED;}
	.st29{fill:#DD9554;}
	.st30{fill:#CC8244;}
	.st31{fill:#805333;}
	.st32{fill:#A56A43;}
	.st33{fill:#CB8252;}
	.st34{fill:#ECF0F1;}
	.st35{fill:#603E26;}
	.st36{fill:#F9EAB0;}
	.st37{fill:#F5EFCA;}
	.st38{fill:#464F5D;}
	.st39{fill:#F3D55B;}
	.st40{fill:#6F6571;}
	.st41{fill:#4B3F4E;}
	.st42{fill:#5D5360;}
	.st43{fill:#857E87;}
	.st44{fill:#ECEAEC;}
	.st45{fill:#DAD8DB;}
	.st46{fill:#B3E59F;}
	.st47{fill:#CCF49F;}
	.st48{fill:#792A47;}
	.st49{fill:#A62B38;}
	.st50{fill:#D22D28;}
	.st51{fill:#FF2F19;}
	.st52{fill:#FFFFFF;}
	.st53{fill:#202666;}
	.st54{fill:#FDE6BB;}
	.st55{fill:#FE501F;}
	.st56{fill:#FD7226;}
	.st57{fill:#FCCD76;}
	.st58{fill:#FB932C;}
	.st59{fill:#4D2857;}
	.st60{fill:#B19046;}
	.st61{fill:#F0C419;}
	.st62{fill:#24AE5F;}
	.st63{fill:#E64C3C;}
	.st64{fill:#3B97D3;}
	.st65{fill:#E74444;}
	.st66{fill:#CE3536;}
	.st67{fill:#D9DBDD;}
	.st68{fill:#E8EDF1;}
	.st69{fill:#F3DB70;}
	.st70{fill:#D5DAF3;}
	.st71{fill:#A2AEE6;}
	.st72{fill:#FFC344;}
	.st73{fill:#FFE177;}
	.st74{fill:#BEC6ED;}
	.st75{fill:#8795DE;}
	.st76{fill-rule:evenodd;clip-rule:evenodd;fill:#A46A5A;}
	.st77{fill-rule:evenodd;clip-rule:evenodd;fill:#845252;}
	.st78{fill-rule:evenodd;clip-rule:evenodd;fill:#FFD05B;}
	.st79{fill-rule:evenodd;clip-rule:evenodd;fill:#704242;}
	.st80{fill-rule:evenodd;clip-rule:evenodd;fill:#FFC244;}
	.st81{fill-rule:evenodd;clip-rule:evenodd;fill:#596C76;}
	.st82{fill-rule:evenodd;clip-rule:evenodd;fill:#465A61;}
	.st83{fill:#A46A5A;}
	.st84{fill:#607D8B;}
	.st85{fill:#9C27B0;}
	.st86{fill:#03A9F4;}
	.st87{fill:#8BC34A;}
	.st88{fill:#FFC107;}
	.st89{fill:#FF9800;}
	.st90{fill:#F44336;}
	.st91{fill:#D7CCC8;}
	.st92{fill:#F57C00;}
	.st93{fill:#F9BB4B;}
	.st94{fill:#FCF05A;}
	.st95{fill:#66342E;}
	.st96{fill:#D3843D;}
	.st97{fill:#704C55;}
	.st98{fill:#5A344B;}
	.st99{fill:#E63950;}
	.st100{fill:#EFE2DD;}
	.st101{fill:#FF435B;}
	.st102{fill:#FFF5F5;}
	.st103{fill:#9B786F;}
	.st104{fill:#925CB4;}
	.st105{fill:#814BA2;}
	.st106{fill:#6F3F8A;}
	.st107{fill:#FFD185;}
	.st108{fill:#FFBA48;}
	.st109{fill:#FF5A35;}
	.st110{fill:#FF7A3C;}
	.st111{fill:#FFE8C2;}
	.st112{fill:#4F4F4F;}
	.st113{fill:#FF3A2F;}
	.st114{fill:#353535;}
	.st115{fill:#FB4A59;}
	.st116{fill:#F82F40;}
	.st117{fill:#3F5959;}
	.st118{fill:#384848;}
	.st119{fill:#EFF5F6;}
	.st120{fill:#CBE5E7;}
	.st121{fill:#FCC16D;}
	.st122{fill:#FCB44D;}
	.st123{fill:#A66856;}
	.st124{fill:#735458;}
	.st125{fill:#FFDEA9;}
	.st126{fill:#5C4346;}
	.st127{fill:#8F5040;}
	.st128{fill:#595959;}
	.st129{fill:#7F221C;}
	.st130{fill:#913122;}
	.st131{fill:#FFEFB0;}
	.st132{fill:#DB2116;}
	.st133{fill:#883F2E;}
	.st134{fill:#A44F3E;}
	.st135{fill:#D8AA5E;}
	.st136{fill:#E9B665;}
	.st137{fill:#E19974;}
	.st138{fill:#FFEFD2;}
	.st139{fill:#D7D0D6;}
	.st140{fill:#E8AD8C;}
	.st141{fill:#6D3326;}
	.st142{fill:#BA5D4F;}
	.st143{fill:#F5A871;}
	.st144{fill:#E89A5E;}
	.st145{fill:#A34F41;}
	.st146{fill:#D68A5A;}
	.st147{fill:#FFE5C4;}
	.st148{fill:#FDD1A7;}
	.st149{fill:#873F30;}
	.st150{fill:#C86F5C;}
	.st151{fill:#6C3328;}
	.st152{fill:#54231D;}
	.st153{fill:#B5B1B3;}
	.st154{fill:#FEC93E;}
	.st155{fill:#EFB533;}
	.st156{fill:#F7A738;}
	.st157{fill:#EA952F;}
	.st158{fill:#FD6E2E;}
	.st159{fill:#EA551B;}
	.st160{fill:#F5A257;}
	.st161{fill:#DB8F52;}
	.st162{fill:#75360D;}
	.st163{fill:#FFBF7B;}
	.st164{fill:#00CCB2;}
	.st165{fill:#00AB94;}
	.st166{fill:#FEA832;}
	.st167{fill:#FF8700;}
	.st168{fill:#00EED0;}
	.st169{fill:#FFD400;}
	.st170{fill:#FDBF00;}
	.st171{fill:#08B865;}
	.st172{fill:#E41F2D;}
	.st173{fill:#FD4755;}
	.st174{fill:#FB2B3A;}
	.st175{fill:#FED2A4;}
	.st176{fill:#FFE5C2;}
	.st177{fill:#FFBD86;}
	.st178{fill:#FE99A0;}
	.st179{fill:#FD8087;}
	.st180{fill:#C57A44;}
	.st181{fill:#09A755;}
	.st182{fill:#FEDF30;}
	.st183{fill:#FED402;}
	.st184{fill:#FAC600;}
	.st185{fill:#46CC8D;}
	.st186{fill:#00C27A;}
	.st187{fill:#FE7701;}
	.st188{fill:#FE860A;}
	.st189{fill:#C41926;}
	.st190{fill:#E89C5D;}
	.st191{fill:#F4B37D;}
	.st192{fill:#E8626C;}
	.st193{fill:#40C6C2;}
	.st194{fill:#FFC999;}
	.st195{fill:#4A4A68;}
	.st196{fill:#333356;}
	.st197{fill:#EDEDED;}
	.st198{fill:#C9C9C9;}
	.st199{fill:#FF9900;}
	.st200{fill:#FFCE00;}
	.st201{fill:#FBBD00;}
	.st202{fill:#ED8100;}
	.st203{fill:#FFE431;}
	.st204{fill:#FF9F00;}
	.st205{fill:#FFE666;}
	.st206{fill:#FFBF00;}
	.st207{fill:#FCCD31;}
	.st208{fill:#F2B016;}
	.st209{fill:#4A4D4F;}
	.st210{fill:#D3CBC2;}
	.st211{fill:#6D7072;}
	.st212{fill:#BAAFA6;}
	.st213{fill:#888C8E;}
	.st214{fill:#B4B4B4;}
	.st215{fill:#FFE999;}
	.st216{fill:#FFCF3B;}
	.st217{fill:#C1C1C1;}
	.st218{fill:#FFBC19;}
	.st219{fill:#94E6FF;}
	.st220{fill:#315F83;}
	.st221{fill:#267EA8;}
	.st222{fill:#3B3F5F;}
	.st223{fill:#D8F2FB;}
	.st224{fill:#35495E;}
	.st225{fill:#556080;}
	.st226{fill:#E4C05C;}
	.st227{fill:#E4C05C;stroke:#E4C05C;stroke-width:2;stroke-linecap:round;stroke-linejoin:round;stroke-miterlimit:10;}
	.st228{fill:#B57F5F;}
	.st229{fill:#966A5B;}
	.st230{fill:#FFD15B;}
	.st231{fill:#A5C3DC;}
	.st232{fill:#8697CB;}
	.st233{fill:#E0E0E0;}
	.st234{fill:#CCCCCC;}
	.st235{fill:#8E8E8E;}
	.st236{fill:#A0A0A0;}
	.st237{fill:#E13732;}
	.st238{fill:#F05055;}
	.st239{fill:#D24605;}
	.st240{fill:#FFCE53;}
	.st241{fill:#FFB833;}
	.st242{fill:#4999D1;}
	.st243{fill:#43AAF0;}
	.st244{fill:#FF2E23;}
	.st245{fill:#FF4A26;}
	.st246{fill:#C6805D;}
	.st247{fill:#77CC7D;}
	.st248{fill:#52BD7E;}
	.st249{fill:#98DB7C;}
	.st250{fill:#D48C64;}
	.st251{fill:#FFD18D;}
	.st252{fill:#FBBD80;}
	.st253{fill:#F3B573;}
	.st254{fill:#434A54;}
	.st255{fill:#DA4453;}
	.st256{fill:#FFCE54;}
	.st257{fill:#ED5564;}
	.st258{fill-rule:evenodd;clip-rule:evenodd;fill:#4BC3EF;}
	.st259{fill-rule:evenodd;clip-rule:evenodd;fill:#1BADDE;}
	.st260{fill-rule:evenodd;clip-rule:evenodd;fill:#DBD8DB;}
	.st261{fill-rule:evenodd;clip-rule:evenodd;fill:#C9BFC8;}
	.st262{fill:#421815;}
	.st263{fill:#FCB982;}
	.st264{fill:#FDDBBF;}
	.st265{fill:#FCCA9F;}
	.st266{fill:#C6865C;}
	.st267{fill:#B16E3D;}
	.st268{fill:#454545;}
	.st269{fill:#EFECEF;}
	.st270{fill:#E2DFE2;}
	.st271{fill:#3F3736;}
	.st272{fill:#C4755B;}
	.st273{fill:#FFE3A1;}
	.st274{fill-rule:evenodd;clip-rule:evenodd;fill:#D48C64;}
	.st275{fill:#DBD8DB;}
	.st276{fill:#BB5D4C;}
	.st277{fill:#465A61;}
	.st278{fill:#596C76;}
	.st279{fill:#E5E1E5;}
	.st280{fill:#7A8C98;}
	.st281{fill:#FEDBA6;}
	.st282{fill:#EAB14D;}
	.st283{fill:#617881;}
	.st284{fill:#E28086;}
	.st285{fill:#DD636E;}
	.st286{fill:#FFE07D;}
	.st287{fill:#ECBE6B;}
	.st288{fill:#E9EDF5;}
	.st289{fill:#CDD2E1;}
	.st290{fill:#FFAA00;}
	.st291{fill:#FF9500;}
	.st292{fill:#555A65;}
	.st293{fill:#333940;}
	.st294{fill:#E6A373;}
	.st295{fill:#CC8552;}
	.st296{fill:#FFDF40;}
	.st297{fill:#FFBE40;}
	.st298{fill:#FF9F40;}
	.st299{fill:#F77E00;}
	.st300{fill:#FFF04A;}
	.st301{fill:#00DDC1;}
	.st302{fill:#A24603;}
	.st303{fill:#F2D813;}
	.st304{fill:#803602;}
	.st305{fill:#3A3A3A;}
	.st306{fill:#AFAFAF;}
	.st307{fill:#686868;}
	.st308{fill:#925A15;}
	.st309{fill:#F3F2F6;}
	.st310{fill:#BF7D5A;}
	.st311{fill:#AA6256;}
	.st312{fill:#894E46;}
	.st313{fill:#DBA660;}
	.st314{fill:#E49542;}
	.st315{fill:#F9EFDA;}
	.st316{fill:#756E78;}
	.st317{fill:#665E66;}
	.st318{fill:#F9F6F9;}
	.st319{fill:#BC6C59;}
	.st320{fill:#994B39;}
	.st321{fill:#FEEC96;}
	.st322{fill:#F5DB64;}
	.st323{fill:#5D5E69;}
	.st324{fill:#FFE09F;}
	.st325{fill:#ECBD83;}
	.st326{fill:#F6D190;}
	.st327{fill:#FF8086;}
	.st328{fill:#E5646E;}
	.st329{fill:#357DA3;}
	.st330{fill:#F48A3B;}
	.st331{fill:#FFC233;}
	.st332{fill:#CDDEE0;}
	.st333{fill:#C8C5C9;}
	.st334{fill:#785353;}
	.st335{fill:#6E4848;}
	.st336{fill:#B7E4F8;}
	.st337{fill:#93D6F4;}
	.st338{fill:#DBF1FB;}
	.st339{fill:#8DCAFC;}
	.st340{fill:#64B9FC;}
	.st341{fill:#C4E1FF;}
	.st342{fill:#B5DBFD;}
	.st343{fill:#FEE7C9;}
	.st344{fill:#FFD496;}
	.st345{fill:#A3E440;}
	.st346{fill:#99D53B;}
	.st347{fill:#BCEA73;}
	.st348{fill:#C76D3D;}
	.st349{fill:#AA5E33;}
	.st350{fill:#D67F4F;}
	.st351{fill:#8DC637;}
	.st352{fill:#A79BA7;}
	.st353{fill:#7A6D79;}
	.st354{fill:#C4E2FF;}
	.st355{fill:#60B7FF;}
	.st356{fill:#B3DAFE;}
	.st357{fill:#F3F0F3;}
	.st358{fill:#EFEDEF;}
	.st359{fill:#CBC4CC;}
	.st360{fill:#26A6FE;}
	.st361{fill:#D2555A;}
	.st362{fill:#FF6464;}
	.st363{fill:#D7DEED;}
	.st364{fill:#B8BFD4;}
	.st365{fill:#959CB3;}
	.st366{fill:#F8C460;}
	.st367{fill:#FAAF42;}
	.st368{fill:#7A838B;}
	.st369{fill:#5D6972;}
	.st370{fill:#A7D0E1;}
	.st371{fill:#80BBCE;}
	.st372{fill:#FFD8CA;}
	.st373{fill:#FFBFAE;}
	.st374{fill:#FFE5D8;}
	.st375{fill:#E5EEF9;}
	.st376{fill:#56595E;}
	.st377{fill:#7F8284;}
	.st378{fill:#A5A5A4;}
	.st379{fill:#95A5A5;}
	.st380{fill:#BDC3C7;}
	.st381{fill:#7F8C8D;}
</style>
<g id="Acoustic_Grand_Keyboard">
	<g>
		<g>
			<g>
				<path class="st231" d="M7.84,47.88L0.26,40.3c-0.35-0.35-0.35-0.91,0-1.26c0.35-0.35,0.91-0.35,1.26,0l7.58,7.58
					c0.35,0.35,0.35,0.91,0,1.26C8.75,48.23,8.19,48.23,7.84,47.88L7.84,47.88z"/>
			</g>
			<g>
				<path class="st21" d="M4.05,44.09L0.26,40.3c-0.35-0.35-0.35-0.91,0-1.26c0.35-0.35,0.91-0.35,1.26,0l3.79,3.79
					c0.35,0.35,0.35,0.91,0,1.26C4.96,44.44,4.4,44.44,4.05,44.09z"/>
			</g>
			<g>
				<path class="st18" d="M10.89,42.3l31.38-31.38c0.62-0.62,1.18-1.31,1.67-2.04l3.91-5.87c0.24-0.35,0.19-0.83-0.11-1.13
					L46.25,0.4c-0.3-0.3-0.77-0.35-1.13-0.11L39.26,4.2c-0.73,0.49-1.42,1.05-2.04,1.67L5.84,37.25c-1.14,1.14-2.69,1.79-4.31,1.79
					l7.58,7.58C9.1,45,9.75,43.45,10.89,42.3L10.89,42.3z"/>
			</g>
			<g>
				<path class="st17" d="M42.57,8.09c-0.7-0.7-1.83-0.7-2.53,0L5.31,42.82l3.79,3.79c0-1.62,0.64-3.17,1.79-4.31l31.68-31.68
					C43.27,9.92,43.27,8.79,42.57,8.09L42.57,8.09z"/>
			</g>
			<g>
				<path class="st231" d="M6.79,36.29l5.05,5.05L11,42.19l-5.05-5.05L6.79,36.29z"/>
			</g>
			<g>
				<path class="st231" d="M33.94,9.14l5.05,5.05l-0.84,0.84L33.1,9.98L33.94,9.14z"/>
			</g>
			<g>
				<path class="st231" d="M36.47,6.61l5.05,5.05l-0.84,0.84l-5.05-5.05L36.47,6.61z"/>
			</g>
			<g>
				<path class="st21" d="M6.79,36.29l2.53,2.53l-0.84,0.84l-2.53-2.53L6.79,36.29z"/>
			</g>
			<g>
				<path class="st21" d="M33.94,9.14l2.53,2.53l-0.84,0.84L33.1,9.98L33.94,9.14z"/>
			</g>
			<g>
				<path class="st21" d="M36.47,6.61l2.53,2.53l-0.84,0.84l-2.53-2.53L36.47,6.61z"/>
			</g>
			<g>
				<path class="st231" d="M39.67,3.92l4.55,4.55l2.02-3.03L42.7,1.9L39.67,3.92z"/>
			</g>
			<g>
				<path class="st21" d="M44.47,3.67L42.7,1.9l-3.03,2.02l2.27,2.27L44.47,3.67z"/>
			</g>
			<g>
				<circle class="st17" cx="43.2" cy="4.93" r="0.89"/>
			</g>
			<g>
				<g>
					<path class="st17" d="M31.84,17.64c-0.36,0-0.69-0.14-0.95-0.39C30.64,17,30.5,16.66,30.5,16.3c0-0.36,0.14-0.69,0.39-0.95
						c0.25-0.25,0.59-0.39,0.95-0.39s0.69,0.14,0.95,0.39c0.25,0.25,0.39,0.59,0.39,0.95c0,0.36-0.14,0.69-0.39,0.95
						C32.53,17.5,32.19,17.64,31.84,17.64z"/>
				</g>
				<g>
					<path class="st231" d="M31.84,15.41c0.24,0,0.46,0.09,0.63,0.26c0.35,0.35,0.35,0.91,0,1.26c-0.17,0.17-0.39,0.26-0.63,0.26
						c-0.24,0-0.46-0.09-0.63-0.26c-0.35-0.35-0.35-0.91,0-1.26C31.37,15.5,31.6,15.41,31.84,15.41 M31.84,14.52
						c-0.46,0-0.91,0.17-1.26,0.52c-0.7,0.7-0.7,1.83,0,2.53c0.35,0.35,0.81,0.52,1.26,0.52c0.46,0,0.91-0.17,1.26-0.52
						c0.7-0.7,0.7-1.83,0-2.53C32.75,14.69,32.29,14.52,31.84,14.52z"/>
				</g>
			</g>
			<g>
				<g>
					<path class="st17" d="M28.05,21.43c-0.36,0-0.69-0.14-0.95-0.39c-0.52-0.52-0.52-1.37,0-1.89c0.25-0.25,0.59-0.39,0.95-0.39
						c0.36,0,0.69,0.14,0.95,0.39c0.52,0.52,0.52,1.37,0,1.89C28.74,21.29,28.41,21.43,28.05,21.43L28.05,21.43z"/>
				</g>
				<g>
					<path class="st231" d="M28.05,19.2c0.24,0,0.46,0.09,0.63,0.26s0.26,0.39,0.26,0.63c0,0.24-0.09,0.46-0.26,0.63
						s-0.39,0.26-0.63,0.26c-0.24,0-0.46-0.09-0.63-0.26s-0.26-0.39-0.26-0.63s0.09-0.46,0.26-0.63
						C27.59,19.29,27.81,19.2,28.05,19.2 M28.05,18.3c-0.46,0-0.91,0.17-1.26,0.52c-0.7,0.7-0.7,1.83,0,2.53
						c0.35,0.35,0.81,0.52,1.26,0.52s0.91-0.17,1.26-0.52c0.7-0.7,0.7-1.83,0-2.53C28.96,18.48,28.5,18.3,28.05,18.3z"/>
				</g>
			</g>
			<g>
				<g>
					<path class="st17" d="M24.26,25.22c-0.36,0-0.69-0.14-0.95-0.39c-0.25-0.25-0.39-0.59-0.39-0.95s0.14-0.69,0.39-0.95
						c0.25-0.25,0.59-0.39,0.95-0.39c0.36,0,0.69,0.14,0.95,0.39c0.52,0.52,0.52,1.37,0,1.89C24.95,25.08,24.62,25.22,24.26,25.22
						L24.26,25.22z"/>
				</g>
				<g>
					<path class="st231" d="M24.26,22.99c0.24,0,0.46,0.09,0.63,0.26c0.35,0.35,0.35,0.91,0,1.26c-0.17,0.17-0.39,0.26-0.63,0.26
						s-0.46-0.09-0.63-0.26c-0.35-0.35-0.35-0.91,0-1.26C23.8,23.08,24.02,22.99,24.26,22.99 M24.26,22.09
						c-0.46,0-0.91,0.17-1.26,0.52c-0.7,0.7-0.7,1.83,0,2.53c0.35,0.35,0.81,0.52,1.26,0.52s0.91-0.17,1.26-0.52
						c0.7-0.7,0.7-1.83,0-2.53C25.17,22.27,24.72,22.09,24.26,22.09z"/>
				</g>
			</g>
			<g>
				<g>
					<path class="st17" d="M20.47,29.01c-0.36,0-0.69-0.14-0.95-0.39c-0.25-0.25-0.39-0.59-0.39-0.95s0.14-0.69,0.39-0.95
						c0.25-0.25,0.59-0.39,0.95-0.39c0.36,0,0.69,0.14,0.95,0.39c0.52,0.52,0.52,1.37,0,1.89C21.16,28.87,20.83,29.01,20.47,29.01
						L20.47,29.01z"/>
				</g>
				<g>
					<path class="st231" d="M20.47,26.78c0.24,0,0.46,0.09,0.63,0.26s0.26,0.39,0.26,0.63s-0.09,0.46-0.26,0.63
						s-0.39,0.26-0.63,0.26s-0.46-0.09-0.63-0.26c-0.35-0.35-0.35-0.91,0-1.26C20.01,26.87,20.23,26.78,20.47,26.78 M20.47,25.88
						c-0.46,0-0.91,0.17-1.26,0.52c-0.7,0.7-0.7,1.83,0,2.53c0.35,0.35,0.81,0.52,1.26,0.52s0.91-0.17,1.26-0.52
						c0.7-0.7,0.7-1.83,0-2.53C21.38,26.06,20.93,25.88,20.47,25.88z"/>
				</g>
			</g>
			<g>
				<g>
					<path class="st17" d="M16.68,32.8c-0.36,0-0.69-0.14-0.95-0.39c-0.25-0.25-0.39-0.59-0.39-0.95c0-0.36,0.14-0.69,0.39-0.95
						s0.59-0.39,0.95-0.39c0.36,0,0.69,0.14,0.95,0.39c0.52,0.52,0.52,1.37,0,1.89C17.37,32.66,17.04,32.8,16.68,32.8L16.68,32.8z"
						/>
				</g>
				<g>
					<path class="st231" d="M16.68,30.56c0.24,0,0.46,0.09,0.63,0.26c0.35,0.35,0.35,0.91,0,1.26c-0.17,0.17-0.39,0.26-0.63,0.26
						s-0.46-0.09-0.63-0.26c-0.35-0.35-0.35-0.91,0-1.26C16.22,30.66,16.44,30.56,16.68,30.56 M16.68,29.67
						c-0.46,0-0.91,0.17-1.26,0.52c-0.7,0.7-0.7,1.83,0,2.53c0.35,0.35,0.81,0.52,1.26,0.52c0.46,0,0.91-0.17,1.26-0.52
						c0.7-0.7,0.7-1.83,0-2.53C17.6,29.85,17.14,29.67,16.68,29.67z"/>
				</g>
			</g>
			<g>
				<g>
					<path class="st17" d="M12.89,36.59c-0.36,0-0.69-0.14-0.95-0.39c-0.25-0.25-0.39-0.59-0.39-0.95c0-0.36,0.14-0.69,0.39-0.95
						c0.25-0.25,0.59-0.39,0.95-0.39c0.36,0,0.69,0.14,0.95,0.39c0.52,0.52,0.52,1.37,0,1.89C13.59,36.45,13.25,36.59,12.89,36.59
						L12.89,36.59z"/>
				</g>
				<g>
					<path class="st231" d="M12.89,34.35c0.24,0,0.46,0.09,0.63,0.26c0.17,0.17,0.26,0.39,0.26,0.63c0,0.24-0.09,0.46-0.26,0.63
						c-0.17,0.17-0.39,0.26-0.63,0.26c-0.24,0-0.46-0.09-0.63-0.26C12.09,35.71,12,35.49,12,35.25c0-0.24,0.09-0.46,0.26-0.63
						S12.65,34.35,12.89,34.35 M12.89,33.46c-0.46,0-0.91,0.17-1.26,0.52c-0.7,0.7-0.7,1.83,0,2.53c0.35,0.35,0.81,0.52,1.26,0.52
						c0.46,0,0.91-0.17,1.26-0.52c0.7-0.7,0.7-1.83,0-2.53C13.81,33.63,13.35,33.46,12.89,33.46z"/>
				</g>
			</g>
			<g>
				<path class="st21" d="M30.57,15.49c-0.11,0-0.23-0.04-0.32-0.13L29,14.09c-0.17-0.17-0.17-0.46,0-0.63
					c0.17-0.17,0.46-0.17,0.63,0l1.26,1.26c0.17,0.17,0.17,0.46,0,0.63C30.8,15.44,30.69,15.49,30.57,15.49z"/>
			</g>
			<g>
				<path class="st21" d="M26.78,19.27c-0.11,0-0.23-0.04-0.32-0.13l-1.26-1.26c-0.17-0.17-0.17-0.46,0-0.63
					c0.17-0.17,0.46-0.17,0.63,0l1.26,1.26c0.17,0.17,0.17,0.46,0,0.63C27.01,19.23,26.9,19.27,26.78,19.27z"/>
			</g>
			<g>
				<path class="st21" d="M23,23.06c-0.11,0-0.23-0.04-0.32-0.13l-1.26-1.26c-0.17-0.17-0.17-0.46,0-0.63
					c0.17-0.17,0.46-0.17,0.63,0l1.26,1.26c0.17,0.17,0.17,0.46,0,0.63C23.22,23.02,23.11,23.06,23,23.06z"/>
			</g>
			<g>
				<path class="st21" d="M19.21,26.85c-0.11,0-0.23-0.04-0.32-0.13l-1.26-1.26c-0.17-0.17-0.17-0.46,0-0.63
					c0.17-0.17,0.46-0.17,0.63,0l1.26,1.26c0.17,0.17,0.17,0.46,0,0.63C19.44,26.81,19.32,26.85,19.21,26.85z"/>
			</g>
			<g>
				<path class="st21" d="M15.42,30.64c-0.11,0-0.23-0.04-0.32-0.13l-1.26-1.26c-0.17-0.17-0.17-0.46,0-0.63
					c0.17-0.17,0.46-0.17,0.63,0l1.26,1.26c0.17,0.17,0.17,0.46,0,0.63C15.65,30.6,15.53,30.64,15.42,30.64z"/>
			</g>
			<g>
				<path class="st21" d="M11.63,34.43c-0.11,0-0.23-0.04-0.32-0.13l-1.26-1.26c-0.17-0.17-0.17-0.46,0-0.63
					c0.17-0.17,0.46-0.17,0.63,0l1.26,1.26c0.17,0.17,0.17,0.46,0,0.63C11.86,34.39,11.74,34.43,11.63,34.43z"/>
			</g>
			<g>
				<path class="st231" d="M14.15,39.04c-0.23-0.23-0.23-0.61,0-0.84l9.26-9.26c0.23-0.23,0.61-0.23,0.84,0
					c0.23,0.23,0.23,0.61,0,0.84L15,39.04C14.76,39.27,14.39,39.27,14.15,39.04z"/>
			</g>
			<g>
				<path class="st231" d="M25.52,27.67c-0.23-0.23-0.23-0.61,0-0.84l9.26-9.26c0.23-0.23,0.61-0.23,0.84,0
					c0.23,0.23,0.23,0.61,0,0.84l-9.26,9.26C26.13,27.9,25.75,27.9,25.52,27.67z"/>
			</g>
		</g>
	</g>
</g>
<g id="Layer_2">
</g>
</svg>
