<svg id="Acoustic_Grand_Keyboard" data-name="Acoustic Grand Keyboard" xmlns="http://www.w3.org/2000/svg" viewBox="0 0 48 48"><defs><style>.cls-1{fill:#b4b4b4;}.cls-2{fill:#ffe999;}.cls-3{fill:#ffcf3b;}.cls-4{fill:#c1c1c1;}.cls-5{fill:#ffbc19;}</style></defs><path class="cls-1" d="M23.86,10.45H22.07a.66.66,0,0,1-.66-.65.67.67,0,0,1,.66-.66h1.79a.66.66,0,0,1,.65.66A.65.65,0,0,1,23.86,10.45Z"/><path class="cls-1" d="M24.27,11.51a.65.65,0,0,1-.65-.65V9.07a.65.65,0,0,1,.65-.65.66.66,0,0,1,.66.65v1.79A.66.66,0,0,1,24.27,11.51Z"/><path class="cls-1" d="M23.86,14.37H22.07a.66.66,0,1,1,0-1.31h1.79a.66.66,0,0,1,0,1.31Z"/><path class="cls-1" d="M24.27,15.67a.66.66,0,0,1-.65-.66V13.22a.65.65,0,0,1,.65-.65.66.66,0,0,1,.66.65V15A.67.67,0,0,1,24.27,15.67Z"/><path class="cls-1" d="M23.86,19.59H22.07a.65.65,0,1,1,0-1.3h1.79a.65.65,0,1,1,0,1.3Z"/><path class="cls-1" d="M24.27,19.93a.65.65,0,0,1-.65-.65V17.49a.65.65,0,0,1,.65-.65.66.66,0,0,1,.66.65v1.79A.66.66,0,0,1,24.27,19.93Z"/><path class="cls-2" d="M30.4,20.74c-2.95,4.52-1,10.88-1,14.48,0,2.44-1.45,3-3.13,3.09-2.28.15-3.13-1.44-3.13-3.13L22.53,4.46c-.1-1.79-3.37-3.15-3.37-3.15h-6V5.22h4.61L16.87,38c0,6.22,5.35,11.16,11.33,9.73a9.7,9.7,0,0,0,7.18-9.56V36.57h1.3V29.25a1.59,1.59,0,0,1,.26-2Z"/><path class="cls-3" d="M31.22,21.11A9.61,9.61,0,0,0,30.35,23l4.4,4.67a3.27,3.27,0,0,0-.68,2v6.94h0V37a9.48,9.48,0,0,1-7.73,9.52,8.65,8.65,0,0,0,4.17-.39,9.53,9.53,0,0,0,6.17-9.11v-.49h0V29.63a3.27,3.27,0,0,1,.68-2Z"/><path class="cls-3" d="M19.74,4.49l.66,30.72c0,1.7.85,3.28,3.13,3.13a5.71,5.71,0,0,0,1.27-.21,2.94,2.94,0,0,1-1.62-2.92L22.53,4.49a3.38,3.38,0,0,0-3.37-3.18H16.38A3.36,3.36,0,0,1,19.74,4.49Z"/><path class="cls-4" d="M8.69.8c-.39.7-.77,1.42-1.13,2.14A1.57,1.57,0,0,0,9,5.22h6.82V0H10.06A1.55,1.55,0,0,0,8.69.8Z"/><path class="cls-1" d="M13.17,0h2.61V5.22H13.17Z"/><path class="cls-5" d="M20.35,35a.66.66,0,0,1-.65-.66V30.1a.66.66,0,0,1,1.31,0v4.23A.66.66,0,0,1,20.35,35Z"/><path class="cls-5" d="M36.1,32.65H32.64a.65.65,0,1,1,0-1.3H36.1a.65.65,0,1,1,0,1.3Z"/><path class="cls-5" d="M36.1,35.27H32.64a.66.66,0,0,1-.65-.66.65.65,0,0,1,.65-.65H36.1a.66.66,0,0,1,.66.65A.67.67,0,0,1,36.1,35.27Z"/><path class="cls-5" d="M26.25,41.11a1.29,1.29,0,0,0-1.52,1,1.28,1.28,0,0,0,2.51.53A1.29,1.29,0,0,0,26.25,41.11Z"/><path class="cls-5" d="M29.42,40.46a1.29,1.29,0,1,0,1,1.52A1.29,1.29,0,0,0,29.42,40.46Z"/><path class="cls-3" d="M37.85,29.05,29,20.16a.57.57,0,0,1,0-.79l1.82-1.81a.56.56,0,0,1,.79,0l8.88,8.88a.56.56,0,0,1,0,.79l-1.81,1.82A.57.57,0,0,1,37.85,29.05Z"/></svg>