<svg xmlns="http://www.w3.org/2000/svg" viewBox="0 0 48 48"><defs><style>.cls-1{fill:#7d8f9e;}.cls-2{fill:#dc1c4a;}.cls-3{fill:#aabfcf;}.cls-4{fill:#b31e48;}.cls-5{fill:#d0e2ed;}.cls-6{fill:#fdbe40;}.cls-7{fill:#ffa912;}</style></defs><g id="Layer_2" data-name="Layer 2"><path class="cls-1" d="M6.3,23.75A.71.71,0,0,1,5.59,23V16.45a.72.72,0,1,1,1.43,0V23A.71.71,0,0,1,6.3,23.75Z"/><path class="cls-1" d="M41,21.75a.71.71,0,0,0-.71.72v5.3a.72.72,0,0,0,1.43,0v-5.3A.72.72,0,0,0,41,21.75Z"/><path class="cls-1" d="M6.3,36.51a.71.71,0,0,0-.71.71v6.31a.72.72,0,0,0,1.43,0V37.22A.71.71,0,0,0,6.3,36.51Z"/><path class="cls-2" d="M12.61,26.29V23.61A.57.57,0,0,0,12,23H.57a.57.57,0,0,0-.57.57v13a.57.57,0,0,0,.57.57H11.85Z"/><path class="cls-1" d="M41,44.24a.71.71,0,0,1-.71-.71V35.65a.72.72,0,1,1,1.43,0v7.88A.71.71,0,0,1,41,44.24Z"/><path class="cls-3" d="M45.71,45.82a.66.66,0,0,1-.23,0L41,44.28l-4.5,1.5A.71.71,0,1,1,36,44.43l4.73-1.58a.69.69,0,0,1,.45,0l4.73,1.58a.71.71,0,0,1-.23,1.39Z"/><path class="cls-2" d="M35,35.65H46.72a.58.58,0,0,0,.57-.57V28.34a.57.57,0,0,0-.57-.57H34.32Z"/><path class="cls-4" d="M46.72,27.77H44.81a.56.56,0,0,1,.57.57v6.74a.57.57,0,0,1-.57.57h1.91a.58.58,0,0,0,.57-.57V28.34A.57.57,0,0,0,46.72,27.77Z"/><path class="cls-5" d="M47.29,29.42H34.8a.72.72,0,0,0-.33.07l.13,1.32a.64.64,0,0,0,.2,0H47.29V29.42Z"/><rect class="cls-3" x="45.38" y="29.42" width="1.9" height="1.43"/><path class="cls-4" d="M36.25,32.49a13.15,13.15,0,0,1-.39,3.16h1.8A14.3,14.3,0,0,0,38,32.49a14.48,14.48,0,0,0-.8-4.72H35.34A12.55,12.55,0,0,1,36.25,32.49Z"/><path class="cls-3" d="M37.67,29.42h-1.8a11.12,11.12,0,0,1,.27,1.42h1.77A11.07,11.07,0,0,0,37.67,29.42Z"/><path class="cls-6" d="M38.62,36.36a.71.71,0,0,1-.72-.71V34.07a.72.72,0,0,1,1.43,0v1.58A.71.71,0,0,1,38.62,36.36Z"/><path class="cls-6" d="M43.35,36.36a.71.71,0,0,1-.72-.71V34.07a.72.72,0,0,1,1.43,0v1.58A.71.71,0,0,1,43.35,36.36Z"/><path class="cls-6" d="M15.85,41.52a.72.72,0,0,0-.95.34L13.54,44.8a.71.71,0,0,0,.35,1,.6.6,0,0,0,.3.07.72.72,0,0,0,.64-.42l1.37-2.94A.71.71,0,0,0,15.85,41.52Z"/><path class="cls-6" d="M33.75,44.8l-1.37-2.94a.71.71,0,0,0-1.29.6l1.36,2.94a.72.72,0,0,0,.65.42.66.66,0,0,0,.3-.07A.72.72,0,0,0,33.75,44.8Z"/><circle class="cls-2" cx="23.64" cy="32.49" r="12.61"/><circle class="cls-5" cx="23.64" cy="32.49" r="10.25"/><path class="cls-6" d="M3.94,34.93a.71.71,0,0,0-.71.72v1.57a.71.71,0,1,0,1.42,0V35.65A.71.71,0,0,0,3.94,34.93Z"/><path class="cls-6" d="M8.67,34.93a.71.71,0,0,0-.71.72v1.57a.71.71,0,1,0,1.42,0V35.65A.71.71,0,0,0,8.67,34.93Z"/><path class="cls-3" d="M11.26,44.43,6.53,42.85a.69.69,0,0,0-.45,0L1.35,44.43a.71.71,0,0,0-.45.9.72.72,0,0,0,.68.49.57.57,0,0,0,.22,0l4.5-1.5,4.51,1.5a.71.71,0,1,0,.45-1.35Z"/><path class="cls-1" d="M41,14.44a.71.71,0,0,0-.71.72V17.3a.72.72,0,1,0,1.43,0V15.16A.72.72,0,0,0,41,14.44Z"/><path class="cls-6" d="M36.33,20.38l4.37,2.49a.52.52,0,0,0,.56,0l4.37-2.49a.57.57,0,0,0,0-1l-4.37-2.5a.56.56,0,0,0-.56,0l-4.37,2.5A.57.57,0,0,0,36.33,20.38Z"/><path class="cls-1" d="M15.73,5.73a.73.73,0,0,0-1,0L12,8.47a.71.71,0,0,0,0,1,.71.71,0,0,0,1,0l2.74-2.74A.73.73,0,0,0,15.73,5.73Z"/><path class="cls-1" d="M7.42,14.75a.72.72,0,0,1-.51-.2.73.73,0,0,1,0-1l4.46-4.46a.71.71,0,0,1,1,1L7.92,14.55A.69.69,0,0,1,7.42,14.75Z"/><path class="cls-6" d="M8.68,4.82l5.24,2.45a.51.51,0,0,1,.27.27l2.45,5.24a.57.57,0,0,1-.92.64L8,5.74A.57.57,0,0,1,8.68,4.82Z"/><path class="cls-7" d="M19.07,15.77,5.7,2.39a.71.71,0,0,0-1,1L18.06,16.77a.71.71,0,0,0,1,0A.7.7,0,0,0,19.07,15.77Z"/><circle class="cls-6" cx="6.31" cy="15.16" r="1.58"/><path class="cls-3" d="M23.64,41.31a10.24,10.24,0,0,1-10.22-9.53c0,.24,0,.47,0,.71a10.25,10.25,0,1,0,20.49,0c0-.24,0-.47,0-.71A10.23,10.23,0,0,1,23.64,41.31Z"/><path class="cls-4" d="M23.64,43.68a12.62,12.62,0,0,1-12.59-11.9c0,.24,0,.47,0,.71a12.61,12.61,0,1,0,25.22,0c0-.24,0-.47,0-.71A12.61,12.61,0,0,1,23.64,43.68Z"/><path class="cls-4" d="M11,32.49A12.54,12.54,0,0,1,12.6,26.4V23.61a.54.54,0,0,0-.06-.25,14.38,14.38,0,0,0-2.47,13.86h1.77l0-.21A12.52,12.52,0,0,1,11,32.49Z"/><rect class="cls-5" y="24.69" width="12.61" height="1.43"/><path class="cls-3" d="M10.77,26.11h1.84V24.69h-1A15.38,15.38,0,0,0,10.77,26.11Z"/><path class="cls-7" d="M47.29,19.17H34.68a.72.72,0,1,0,0,1.43H47.29a.72.72,0,0,0,0-1.43Z"/></g></svg>