<svg id="Acoustic_Grand_Keyboard" data-name="Acoustic Grand Keyboard" xmlns="http://www.w3.org/2000/svg" viewBox="0 0 48 48"><defs><style>.cls-1{fill:#ba5d4f;}.cls-2{fill:#f5a871;}.cls-3{fill:#e89a5e;}.cls-4{fill:#a34f41;}.cls-5{fill:#d68a5a;}.cls-6{fill:#ffe5c4;}.cls-7{fill:#fdd1a7;}.cls-8{fill:#873f30;}.cls-9{fill:#c86f5c;}.cls-10{fill:#6c3328;}.cls-11{fill:#54231d;}</style></defs><path class="cls-1" d="M2.55,46.17A.72.72,0,0,1,2,44.94L4.94,42a.73.73,0,0,1,1,1L3.06,46A.71.71,0,0,1,2.55,46.17Z"/><path class="cls-2" d="M25.58,37.38a.57.57,0,0,0-.27-.63c-2.39-1.43-1.77-4-.12-5.66A2,2,0,0,1,28,30.66a.58.58,0,0,0,.81-.13,7.23,7.23,0,0,0,1.24-5.07c-.25-2.13,1.51-6.29,1.51-6.29l-2.75-2.75s-4.16,1.76-6.29,1.51a7.23,7.23,0,0,0-5.07,1.24.58.58,0,0,0-.13.81,2,2,0,0,1-.43,2.83c-1.66,1.65-4.23,2.27-5.66-.12a.57.57,0,0,0-.63-.27C9.45,22.68,6,23.77,2.42,28c-4.31,5-2.4,11.31,2.14,15.48C8.73,48,15.06,49.89,20,45.58c4.19-3.62,5.28-7,5.54-8.2Z"/><path class="cls-3" d="M30.07,25.46a7.23,7.23,0,0,1-1.24,5.07.59.59,0,0,1-.81.14,2,2,0,0,0-2.83.42c-1.65,1.66-2.26,4.23.12,5.67a.55.55,0,0,1,.27.62c-.26,1.17-1.35,4.58-5.54,8.2-4.43,3.83-9.93,2.75-14-.73A10.66,10.66,0,0,0,17.9,43.44c4.19-3.63,5.27-7,5.54-8.21a.59.59,0,0,0-.27-.62c-2.39-1.44-1.78-4-.13-5.66a2,2,0,0,1,2.83-.43.59.59,0,0,0,.81-.14,7.18,7.18,0,0,0,1.24-5.07C27.68,21.18,29.43,17,29.43,17l2.15,2.15s-1.76,4.15-1.51,6.28Z"/><path class="cls-1" d="M44.94,5,28.07,22.89l-3-3L43,3.06Z"/><path class="cls-4" d="M44.94,5,28.07,22.89l-1.44-1.44L43.5,3.6Z"/><path class="cls-4" d="M41.73,8.43,44.94,5l-2-2-3.4,3.21Z"/><path class="cls-5" d="M13.07,34.13a.75.75,0,0,1-.52-.21.74.74,0,0,1,0-1l9.09-9.09a.73.73,0,1,1,1,1l-9.09,9.09A.73.73,0,0,1,13.07,34.13Z"/><path class="cls-5" d="M14.6,35.66a.75.75,0,0,1-.52-.21.74.74,0,0,1,0-1l9-9a.72.72,0,0,1,1,1l-9,9a.73.73,0,0,1-.51.21Z"/><path class="cls-6" d="M25.11,19.93l-3.88,3.68a.56.56,0,0,0,0,.8l2.38,2.38a.56.56,0,0,0,.8,0l3.68-3.88Z"/><path class="cls-7" d="M28.07,22.89l-1.44-1.44L23,25.34a.56.56,0,0,1-.8,0l1.43,1.44a.56.56,0,0,0,.8,0Z"/><path class="cls-4" d="M8.75,41.38l5.61-4.89a.7.7,0,0,0,0-1l-1.86-1.86a.7.7,0,0,0-1,0L6.62,39.25a.7.7,0,0,0,0,1L7.8,41.35a.7.7,0,0,0,1,0Z"/><path class="cls-8" d="M9.45,36,12,38.55l2.36-2.06a.7.7,0,0,0,0-1l-1.85-1.86a.71.71,0,0,0-1,0Z"/><path class="cls-9" d="M14.8,38,10,33.2a.57.57,0,0,1,0-.82l1-1a.57.57,0,0,1,.82,0l4.81,4.81a.57.57,0,0,1,0,.82l-1,1A.57.57,0,0,1,14.8,38Z"/><path class="cls-1" d="M16.64,37l-1,1a.57.57,0,0,1-.82,0l-1.29-1.28a.59.59,0,0,0,.83,0l1-1a.59.59,0,0,0,0-.82l1.28,1.28A.57.57,0,0,1,16.64,37Z"/><path class="cls-4" d="M20.31,40a1.48,1.48,0,0,1-1.39-2l1.63-4.41s0,0,0,0,0,0,0,0a.72.72,0,1,1-1.36-.5,1.48,1.48,0,1,1,2.77,1l-1.63,4.41s0,0,0,0,0,0,0,0a.72.72,0,0,1,1.35.51,1.47,1.47,0,0,1-1.38,1Z"/><path class="cls-4" d="M9.5,29.17A1.47,1.47,0,0,1,9,26.31a.72.72,0,0,1,.51,1.35s0,0,0,0,0,0,0,0l4.41-1.63a1.48,1.48,0,0,1,1.13,0,1.48,1.48,0,0,1-.1,2.73.72.72,0,0,1-.5-1.36s0,0,0,0a0,0,0,0,0,0,0h0L10,29.08a1.52,1.52,0,0,1-.51.09Z"/><path class="cls-10" d="M47.16.06,41,3.29a.57.57,0,0,0-.14.91l3,3A.57.57,0,0,0,44.71,7L47.94.84a.57.57,0,0,0-.11-.67A.57.57,0,0,0,47.16.06Z"/><path class="cls-11" d="M47.94.84,44.71,7a.57.57,0,0,1-.91.14L42.24,5.62a.56.56,0,0,0,.91-.14L45.53.91,47.16.06A.66.66,0,0,1,47.43,0a.56.56,0,0,1,.4.17.57.57,0,0,1,.11.67Z"/></svg>