<svg id="Acoustic_Grand_Keyboard" data-name="Acoustic Grand Keyboard" xmlns="http://www.w3.org/2000/svg" viewBox="0 0 48 48"><defs><style>.cls-1{fill:#dadada;}.cls-2{fill:#c4c6c6;}.cls-3{fill:#edeeef;}.cls-4{fill:#797981;}.cls-5{fill:#5a5a63;}.cls-6{fill:#494951;}.cls-7{fill:#29baed;}.cls-8{fill:#dd9554;}.cls-9{fill:#cc8244;}</style></defs><path class="cls-1" d="M3.83,39.27A1.08,1.08,0,0,1,3.16,39V45.6a19.56,19.56,0,0,1,2.39,0l.21,0V39C5.28,39.41,4.86,39.22,3.83,39.27Z"/><path class="cls-2" d="M4.46,39.27q-.27,0-.63,0A1.08,1.08,0,0,1,3.16,39V45.6a7,7,0,0,1,1.3,0V39.27Z"/><path class="cls-3" d="M2.67,31.67v6.72a1.16,1.16,0,0,0,1.16,1.16H5.09a1.16,1.16,0,0,0,1.16-1.16V31.67Z"/><path class="cls-1" d="M4.46,38.39V31.67H2.67v6.72a1.16,1.16,0,0,0,1.16,1.16H5.09a1.09,1.09,0,0,0,.26,0A1.16,1.16,0,0,1,4.46,38.39Z"/><path class="cls-1" d="M42.91,39.27a1.08,1.08,0,0,1-.67-.24V45.6a19.56,19.56,0,0,1,2.39,0l.21,0V39C44.36,39.41,43.94,39.22,42.91,39.27Z"/><path class="cls-2" d="M43.54,39.27q-.27,0-.63,0a1.08,1.08,0,0,1-.67-.24V45.6a7,7,0,0,1,1.3,0V39.27Z"/><path class="cls-1" d="M30,42a1.06,1.06,0,0,1-.68-.25V45.6l.22,0a19.56,19.56,0,0,1,2.39,0V41.74C31.41,42.14,31,41.93,30,42Z"/><path class="cls-2" d="M30.6,42H30a1.06,1.06,0,0,1-.68-.25V45.6a7.16,7.16,0,0,1,1.31,0V42Z"/><path class="cls-3" d="M28.81,37.08v4A1.17,1.17,0,0,0,30,42.26h1.25a1.17,1.17,0,0,0,1.16-1.16v-4Z"/><path class="cls-4" d="M6.85,46.7a1.31,1.31,0,0,0-1.3-1.31H3.37a1.31,1.31,0,0,0,0,2.61H5.55A1.3,1.3,0,0,0,6.85,46.7Z"/><path class="cls-5" d="M4.37,46.7a1.3,1.3,0,0,1,1.24-1.3H3.37a1.31,1.31,0,0,0,0,2.61H5.61A1.31,1.31,0,0,1,4.37,46.7Z"/><path class="cls-4" d="M45.93,46.7a1.31,1.31,0,0,0-1.3-1.31H42.45a1.31,1.31,0,0,0,0,2.61h2.18A1.3,1.3,0,0,0,45.93,46.7Z"/><path class="cls-3" d="M41.75,31.67v6.72a1.16,1.16,0,0,0,1.16,1.16h1.26a1.16,1.16,0,0,0,1.16-1.16V31.67Z"/><path class="cls-1" d="M43.54,38.39V31.67H41.75v6.72a1.16,1.16,0,0,0,1.16,1.16h1.26a1.09,1.09,0,0,0,.26,0A1.16,1.16,0,0,1,43.54,38.39Z"/><path class="cls-5" d="M40.89.77A1.29,1.29,0,0,0,39.17.12L.93,17.47H7.25l33-15A1.29,1.29,0,0,0,40.89.77Z"/><polygon class="cls-6" points="6.46 14.96 0.93 17.47 7.25 17.47 12.78 14.96 6.46 14.96"/><path class="cls-3" d="M45.05,18.1a.72.72,0,0,1-.61-.34L36.08,4.49a.73.73,0,0,1,.23-1,.72.72,0,0,1,1,.22L45.67,17A.73.73,0,0,1,45.05,18.1Z"/><path class="cls-1" d="M16.78,42a1,1,0,0,1-.68-.25V45.6a19.56,19.56,0,0,1,2.39,0l.22,0V41.74C18.22,42.14,17.8,41.93,16.78,42Z"/><path class="cls-2" d="M17.4,42h-.62a1,1,0,0,1-.68-.25V45.6a7,7,0,0,1,1.3,0V42Z"/><path class="cls-4" d="M19.79,46.7a1.31,1.31,0,0,0-1.3-1.31H16.32a1.31,1.31,0,1,0,0,2.61h2.17A1.3,1.3,0,0,0,19.79,46.7Z"/><path class="cls-4" d="M33,46.7a1.31,1.31,0,0,0-1.31-1.31H29.51a1.31,1.31,0,0,0,0,2.61h2.17A1.31,1.31,0,0,0,33,46.7Z"/><path class="cls-3" d="M15.62,37.08v4a1.17,1.17,0,0,0,1.16,1.16H18a1.17,1.17,0,0,0,1.16-1.16v-4Z"/><path class="cls-1" d="M17.4,41.1v-4H15.62v4a1.17,1.17,0,0,0,1.16,1.16H18a1.26,1.26,0,0,0,.27,0A1.17,1.17,0,0,1,17.4,41.1Z"/><path class="cls-1" d="M30.6,41.1v-4H28.81v4A1.17,1.17,0,0,0,30,42.26h1.25a1.17,1.17,0,0,0,.27,0A1.16,1.16,0,0,1,30.6,41.1Z"/><path class="cls-4" d="M46.84,31.86H1.16A1.16,1.16,0,0,1,0,30.71V18.54a1.16,1.16,0,0,1,1.16-1.16H46.84A1.16,1.16,0,0,1,48,18.54V30.71A1.16,1.16,0,0,1,46.84,31.86Z"/><path class="cls-5" d="M3,30.71V18.54A1.16,1.16,0,0,1,4.1,17.38H1.16A1.16,1.16,0,0,0,0,18.54V30.71a1.16,1.16,0,0,0,1.16,1.15H4.1A1.16,1.16,0,0,1,3,30.71Z"/><path class="cls-1" d="M43.9,24.62H4.1A1.16,1.16,0,0,0,3,25.78v1.55h42.1V25.78A1.16,1.16,0,0,0,43.9,24.62Z"/><path class="cls-5" d="M0,27.33v3.38a1.16,1.16,0,0,0,1.16,1.15H46.84A1.16,1.16,0,0,0,48,30.71V27.33Z"/><path class="cls-6" d="M1.16,31.86H4.1A1.16,1.16,0,0,1,3,30.71V27.33H0v3.38A1.16,1.16,0,0,0,1.16,31.86Z"/><path class="cls-1" d="M13.47,24.62H4.1A1.16,1.16,0,0,0,3,25.78v1.55H13.47Z"/><path class="cls-3" d="M8.21,24.62H4.1A1.16,1.16,0,0,0,3,25.78v1.55H8.21V24.62Z"/><path class="cls-1" d="M6.74,24.62H4.1A1.16,1.16,0,0,0,3,25.78v1.55H5.58V25.78A1.16,1.16,0,0,1,6.74,24.62Z"/><rect class="cls-3" x="13.47" y="24.62" width="5.56" height="2.71"/><path class="cls-3" d="M24,24.62H43.9a1.16,1.16,0,0,1,1.15,1.16v1.55H24Z"/><path class="cls-3" d="M34.53,24.62H43.9a1.16,1.16,0,0,1,1.15,1.16v1.55H34.53Z"/><path class="cls-1" d="M39.79,24.62H43.9a1.16,1.16,0,0,1,1.15,1.16v1.55H39.79Z"/><rect class="cls-1" x="28.97" y="24.62" width="5.56" height="2.71"/><path class="cls-7" d="M45.33,21.78H39.79a.72.72,0,0,1-.72-.72.73.73,0,0,1,.72-.73h5.54a.73.73,0,0,1,.72.73A.72.72,0,0,1,45.33,21.78Z"/><path class="cls-8" d="M33.41,37.27H14.59A1.31,1.31,0,0,1,13.28,36h0a1.31,1.31,0,0,1,1.31-1.3H33.41A1.31,1.31,0,0,1,34.72,36h0A1.31,1.31,0,0,1,33.41,37.27Z"/><path class="cls-9" d="M16.25,36a1.31,1.31,0,0,1,1.31-1.3h-3a1.3,1.3,0,1,0,0,2.6h3A1.31,1.31,0,0,1,16.25,36Z"/><path class="cls-5" d="M17.31,46.7a1.3,1.3,0,0,1,1.24-1.3H16.32a1.31,1.31,0,1,0,0,2.61h2.23A1.31,1.31,0,0,1,17.31,46.7Z"/><path class="cls-5" d="M30.51,46.7a1.3,1.3,0,0,1,1.24-1.3H29.51a1.31,1.31,0,0,0,0,2.61h2.24A1.31,1.31,0,0,1,30.51,46.7Z"/><path class="cls-5" d="M43.45,46.7a1.3,1.3,0,0,1,1.24-1.3H42.45a1.31,1.31,0,0,0,0,2.61h2.24A1.31,1.31,0,0,1,43.45,46.7Z"/></svg>