<svg id="Acoustic_Grand_Keyboard" data-name="Acoustic Grand Keyboard" xmlns="http://www.w3.org/2000/svg" viewBox="0 0 48 48"><defs><style>.cls-1{fill:#fb4a59;}.cls-2{fill:#f82f40;}.cls-3{fill:#3f5959;}.cls-4{fill:#384848;}.cls-5{fill:#eff5f6;}.cls-6{fill:#cbe5e7;}.cls-7{fill:#fcc16d;}.cls-8{fill:#fcb44d;}</style></defs><path class="cls-1" d="M21.12,35.77c1.23-1.23,4-1.77,5.41-3.2l.11-.11a1,1,0,0,0-1.23-1.63c-3.33,1.66-4.84-2.3-4.84-2.3l-2.68-2.68,3.71-3.71C18.49,19,20,16.72,21.5,15.42a1,1,0,0,0-.74-1.83,5.69,5.69,0,0,0-3.65,1.86c-3.31,3.3-2.17,8.05-7.07,9-4.43.89-6.28,2.28-7.78,3.86-3.35,3.5-2.72,9.69,1.58,14s10.57,5,14,1.59c3.19-3.19,2-6.88,3.28-8.15Z"/><path class="cls-2" d="M16.83,26.18l-2.71,2.6a.52.52,0,0,0,0,.74l2.54,2.54a.52.52,0,0,0,.74,0l2.6-2.7Z"/><path class="cls-2" d="M17.84,43.92c-3.43,3.43-9.7,2.72-14-1.59a13.56,13.56,0,0,1-1.08-1.21c4.2,3.31,9.66,3.62,12.78.5s2-6.88,3.29-8.15c.94-.95,2.81-1.49,4.26-2.34a3.12,3.12,0,0,0,2.32-.3,1,1,0,0,1,1.23,1.63l-.11.11c-1.42,1.43-4.18,2-5.41,3.2s-.09,5-3.28,8.15Z"/><path class="cls-3" d="M18.84,30.6,39.13,9.52,36.66,7,15.58,27.33a.51.51,0,0,0,0,.74L18.1,30.6a.51.51,0,0,0,.74,0Z"/><path class="cls-4" d="M39.13,9.52,36.66,7,34.94,8.69l.2.2a1,1,0,0,1,0,1.42L17.21,29a.52.52,0,0,1-.74,0L18.1,30.6a.51.51,0,0,0,.74,0Z"/><path class="cls-5" d="M8.87,40.43,5.74,37.3a1.05,1.05,0,0,1,0-1.47l.58-.58a1.05,1.05,0,0,1,1.47,0l3.13,3.13a1.05,1.05,0,0,1,0,1.47l-.58.58A1.05,1.05,0,0,1,8.87,40.43Z"/><path class="cls-6" d="M10.92,39.85l-.58.58a1.05,1.05,0,0,1-1.47,0L7.35,38.91a1,1,0,0,0,1.47,0l.58-.58a1,1,0,0,0,0-1.47l1.52,1.52A1.05,1.05,0,0,1,10.92,39.85Z"/><path class="cls-5" d="M13.24,36.05l-3.12-3.12a1,1,0,0,1,0-1.47l.58-.58a1,1,0,0,1,1.47,0L15.29,34a1,1,0,0,1,0,1.47l-.58.58A1,1,0,0,1,13.24,36.05Z"/><path class="cls-6" d="M15.29,35.47l-.58.58a1,1,0,0,1-1.47,0l-1.51-1.52a1,1,0,0,0,1.47,0l.58-.57a1.05,1.05,0,0,0,0-1.47L15.29,34A1,1,0,0,1,15.29,35.47Z"/><path class="cls-5" d="M16.27,39.37a.7.7,0,0,1-.49-.19.72.72,0,0,1,0-1l0,0a.71.71,0,0,1,1,0,.7.7,0,0,1,.05,1l0,0A.74.74,0,0,1,16.27,39.37Z"/><path class="cls-5" d="M13,42.6a.68.68,0,0,1-.48-.19.72.72,0,0,1,0-1l0,0a.72.72,0,0,1,1,0,.73.73,0,0,1,.05,1l0,0a.72.72,0,0,1-.53.23Z"/><path class="cls-5" d="M15.35,41.67a.76.76,0,0,1-.49-.18l0,0a.73.73,0,0,1-.05-1,.73.73,0,0,1,1-.05l0,0a.72.72,0,0,1-.48,1.25Z"/><path class="cls-1" d="M36.37,6.71l1.1-2.28a.5.5,0,0,1,.32-.28l7.77-2.22a.52.52,0,0,1,.51.13l1.66,1.66a.52.52,0,0,1-.12.82l-2,1.08a3.35,3.35,0,0,0-1,.88l-2,2.65a.53.53,0,0,1-.66.14,2.06,2.06,0,0,0-2.43.36.53.53,0,0,1-.69,0L36.47,7.3a.53.53,0,0,1-.1-.59Z"/><path class="cls-2" d="M45.64,5.62a3.35,3.35,0,0,0-1,.88l-2,2.65a.53.53,0,0,1-.66.14,2.06,2.06,0,0,0-2.43.36.52.52,0,0,1-.69,0L37.14,8c1.23-1.23,2.26-1,2.77-.67a.51.51,0,0,0,.66-.14l2.06-2.65a3.43,3.43,0,0,1,1-.88l2-1.08a.52.52,0,0,0,.25-.61.41.41,0,0,1,.2.12l1.66,1.66a.52.52,0,0,1-.12.82Z"/><path class="cls-7" d="M36.48,12.79a.73.73,0,0,1-.51-.21L33.59,10.2a.72.72,0,0,1,1-1L37,11.56a.72.72,0,0,1,0,1A.71.71,0,0,1,36.48,12.79Z"/><path class="cls-7" d="M34.2,15.07a.7.7,0,0,1-.5-.21l-2.39-2.38a.72.72,0,0,1,1-1l2.38,2.38a.72.72,0,0,1-.51,1.23Z"/><path class="cls-7" d="M31.93,17.35a.71.71,0,0,1-.51-.21L29,14.75a.72.72,0,1,1,1-1l2.39,2.39a.72.72,0,0,1-.51,1.23Z"/><path class="cls-7" d="M29.65,19.63a.68.68,0,0,1-.51-.22L26.76,17a.72.72,0,0,1,1-1l2.38,2.39a.71.71,0,0,1,0,1A.7.7,0,0,1,29.65,19.63Z"/><path class="cls-7" d="M27.45,22a.73.73,0,0,1-.51-.21L24.4,19.23a.72.72,0,1,1,1-1L28,20.75a.72.72,0,0,1,0,1A.71.71,0,0,1,27.45,22Z"/><path class="cls-7" d="M25.31,24.4a.7.7,0,0,1-.5-.21L22,21.37a.72.72,0,0,1,1-1l2.82,2.82a.72.72,0,0,1-.51,1.23Z"/><path class="cls-7" d="M23,26.68a.71.71,0,0,1-.51-.21L19.7,23.64a.72.72,0,0,1,1-1l2.83,2.83A.72.72,0,0,1,23,26.68Z"/><path class="cls-7" d="M20.76,29a.73.73,0,0,1-.51-.21l-2.82-2.83a.71.71,0,0,1,0-1,.72.72,0,0,1,1,0l2.82,2.83A.72.72,0,0,1,20.76,29Z"/><path class="cls-8" d="M21.27,27.73a.72.72,0,0,1-1,1L18.81,27.3l1-1Z"/><path class="cls-8" d="M23.55,25.45A.72.72,0,0,1,23,26.68a.71.71,0,0,1-.51-.21L21,25l1-1Z"/><path class="cls-8" d="M25.82,23.17a.72.72,0,1,1-1,1l-1.54-1.53,1-1Z"/><path class="cls-8" d="M28,20.75a.72.72,0,0,1,0,1,.71.71,0,0,1-.51.21.73.73,0,0,1-.51-.21l-1.43-1.43,1-1Z"/><path class="cls-8" d="M30.16,18.4a.71.71,0,0,1,0,1,.7.7,0,0,1-.51.22.68.68,0,0,1-.51-.22L27.74,18l1-1Z"/><path class="cls-8" d="M32.44,16.12a.72.72,0,0,1-.51,1.23.71.71,0,0,1-.51-.21L30,15.69l1-1Z"/><path class="cls-8" d="M34.71,13.84a.72.72,0,1,1-1,1l-1.49-1.49,1-1Z"/><path class="cls-8" d="M37,12.58a.71.71,0,0,1-.51.21.73.73,0,0,1-.51-.21l-1.53-1.53.71-.74a1,1,0,0,0,.23-.36L37,11.56A.72.72,0,0,1,37,12.58Z"/><path class="cls-8" d="M37,12.58a.71.71,0,0,1-.51.21.73.73,0,0,1-.51-.21l-1.53-1.53.71-.74a1,1,0,0,0,.23-.36L37,11.56A.72.72,0,0,1,37,12.58Z"/><path class="cls-8" d="M34.71,14.86a.71.71,0,0,1-1,0l-1.49-1.49,1-1,1.5,1.51A.71.71,0,0,1,34.71,14.86Z"/><path class="cls-8" d="M32.44,17.14a.73.73,0,0,1-.51.21.71.71,0,0,1-.51-.21L30,15.69l1-1,1.47,1.46A.72.72,0,0,1,32.44,17.14Z"/><path class="cls-8" d="M30.16,19.41a.7.7,0,0,1-.51.22.68.68,0,0,1-.51-.22L27.74,18l1-1,1.42,1.42A.71.71,0,0,1,30.16,19.41Z"/><path class="cls-8" d="M28,21.77a.71.71,0,0,1-.51.21.73.73,0,0,1-.51-.21l-1.43-1.43,1-1L28,20.75a.72.72,0,0,1,0,1Z"/><path class="cls-8" d="M25.82,24.19a.71.71,0,0,1-1,0l-1.54-1.53,1-1,1.55,1.55a.71.71,0,0,1,0,1Z"/><path class="cls-8" d="M23.55,26.47a.73.73,0,0,1-.51.21.71.71,0,0,1-.51-.21L21,25l1-1,1.51,1.51a.72.72,0,0,1,0,1Z"/><path class="cls-8" d="M21.27,28.75a.72.72,0,0,1-1,0L18.81,27.3l1-1,1.46,1.47A.72.72,0,0,1,21.27,28.75Z"/></svg>