<svg id="Acoustic_Grand_Keyboard" data-name="Acoustic Grand Keyboard" xmlns="http://www.w3.org/2000/svg" viewBox="0 0 48 48"><defs><style>.cls-1{fill:#fe501f;}.cls-2{fill:#fd7226;}.cls-3{fill:#fccd76;}.cls-4{fill:#fde6bb;}.cls-5{fill:#fff;}.cls-6{fill:#fb932c;}.cls-7{fill:#202666;}.cls-8{fill:#4d2857;}.cls-9{fill:#ff2f19;}</style></defs><path class="cls-1" d="M33.51,19.72,48,24.06V39.28a.72.72,0,0,1-.72.72H45.1Z"/><path class="cls-2" d="M45,20H2.89L0,24.29v15A.72.72,0,0,0,.72,40H16.09l13-7.14,13,7.14H45Z"/><path class="cls-3" d="M9.83,27,7.67,29l2.16,2H13V27Z"/><path class="cls-4" d="M6.83,27,4.67,29l2.16,2H10V27Z"/><path class="cls-5" d="M3,27H6v4H3Z"/><path class="cls-2" d="M45.09,8l-5.82,8,5.82,8H48V8.72A.72.72,0,0,0,47.28,8Z"/><path class="cls-6" d="M0,8.72V24H45V8H.72A.72.72,0,0,0,0,8.72Z"/><path class="cls-4" d="M33.33,27l-1.44,2.89L30.44,27H27.56l-1.45,2.89L24.67,27H21.78l-1.45,2.89L18.89,27H16V40H42V27H39.11l-1.44,2.89L36.22,27Z"/><path class="cls-7" d="M19,27h3v9H19Z"/><path class="cls-7" d="M25,27h3v9H25Z"/><path class="cls-7" d="M31,27h3v9H31Z"/><path class="cls-7" d="M36,27h3v9H36Z"/><circle class="cls-3" cx="8.06" cy="35.53" r="1.45"/><path class="cls-7" d="M41,18H38v3h3a1.5,1.5,0,0,0,0-3Z"/><path class="cls-8" d="M39.72,19.5a1.5,1.5,0,0,0-1.5-1.5h-21a1.5,1.5,0,1,0,0,3h21A1.5,1.5,0,0,0,39.72,19.5Z"/><path class="cls-9" d="M45.1,37.7c-.4,0-.72-.33-.1-.73V26.83c-.62-.4-.3-.72.1-.72a1.05,1.05,0,0,1,.9.72V37A1.07,1.07,0,0,1,45.1,37.7Z"/></svg>