<?xml version="1.0" encoding="utf-8"?>
<!-- Generator: Adobe Illustrator 25.0.0, SVG Export Plug-In . SVG Version: 6.00 Build 0)  -->
<svg version="1.1" xmlns="http://www.w3.org/2000/svg" xmlns:xlink="http://www.w3.org/1999/xlink" x="0px" y="0px"
	 viewBox="0 0 48 48" style="enable-background:new 0 0 48 48;" xml:space="preserve">
<style type="text/css">
	.st0{fill:#F5DAA7;}
	.st1{fill:#EDC472;}
	.st2{fill:#BC9B5B;}
	.st3{fill:#9A6A53;}
	.st4{fill:#855B47;}
	.st5{fill:#F4E2C1;}
	.st6{fill:#F7F7F7;}
	.st7{fill:#C8C3CA;}
	.st8{fill:#B78C7A;}
	.st9{fill:#7A5341;}
	.st10{fill:#704C3B;}
	.st11{fill:#CF9875;}
	.st12{fill:#C7865B;}
	.st13{clip-path:url(#SVGID_3_);}
	.st14{clip-path:url(#SVGID_4_);fill:#FFFFFF;stroke:#231F20;stroke-miterlimit:10;}
	.st15{fill:#FFFFFF;stroke:#231F20;stroke-miterlimit:10;}
	.st16{fill:none;stroke:#000000;stroke-width:4.5;stroke-miterlimit:10;}
	.st17{fill:#463C4B;}
	.st18{fill:#555A6E;}
	.st19{fill:#F06423;}
	.st20{fill:#FAA51E;}
	.st21{fill:#D7E6F0;}
	.st22{fill:#DADADA;}
	.st23{fill:#C4C6C6;}
	.st24{fill:#EDEEEF;}
	.st25{fill:#797981;}
	.st26{fill:#5A5A63;}
	.st27{fill:#494951;}
	.st28{fill:#29BAED;}
	.st29{fill:#DD9554;}
	.st30{fill:#CC8244;}
	.st31{fill:#805333;}
	.st32{fill:#A56A43;}
	.st33{fill:#CB8252;}
	.st34{fill:#ECF0F1;}
	.st35{fill:#603E26;}
	.st36{fill:#F9EAB0;}
	.st37{fill:#F5EFCA;}
	.st38{fill:#464F5D;}
	.st39{fill:#F3D55B;}
	.st40{fill:#6F6571;}
	.st41{fill:#4B3F4E;}
	.st42{fill:#5D5360;}
	.st43{fill:#857E87;}
	.st44{fill:#ECEAEC;}
	.st45{fill:#DAD8DB;}
	.st46{fill:#B3E59F;}
	.st47{fill:#CCF49F;}
	.st48{fill:#792A47;}
	.st49{fill:#A62B38;}
	.st50{fill:#D22D28;}
	.st51{fill:#FF2F19;}
	.st52{fill:#FFFFFF;}
	.st53{fill:#202666;}
	.st54{fill:#FDE6BB;}
	.st55{fill:#FE501F;}
	.st56{fill:#FD7226;}
	.st57{fill:#FCCD76;}
	.st58{fill:#FB932C;}
	.st59{fill:#4D2857;}
	.st60{fill:#B19046;}
	.st61{fill:#F0C419;}
	.st62{fill:#24AE5F;}
	.st63{fill:#E64C3C;}
	.st64{fill:#3B97D3;}
	.st65{fill:#E74444;}
	.st66{fill:#CE3536;}
	.st67{fill:#D9DBDD;}
	.st68{fill:#E8EDF1;}
	.st69{fill:#F3DB70;}
	.st70{fill:#D5DAF3;}
	.st71{fill:#A2AEE6;}
	.st72{fill:#FFC344;}
	.st73{fill:#FFE177;}
	.st74{fill:#BEC6ED;}
	.st75{fill:#8795DE;}
	.st76{fill-rule:evenodd;clip-rule:evenodd;fill:#A46A5A;}
	.st77{fill-rule:evenodd;clip-rule:evenodd;fill:#845252;}
	.st78{fill-rule:evenodd;clip-rule:evenodd;fill:#FFD05B;}
	.st79{fill-rule:evenodd;clip-rule:evenodd;fill:#704242;}
	.st80{fill-rule:evenodd;clip-rule:evenodd;fill:#FFC244;}
	.st81{fill-rule:evenodd;clip-rule:evenodd;fill:#596C76;}
	.st82{fill-rule:evenodd;clip-rule:evenodd;fill:#465A61;}
	.st83{fill:#A46A5A;}
	.st84{fill:#607D8B;}
	.st85{fill:#9C27B0;}
	.st86{fill:#03A9F4;}
	.st87{fill:#8BC34A;}
	.st88{fill:#FFC107;}
	.st89{fill:#FF9800;}
	.st90{fill:#F44336;}
	.st91{fill:#D7CCC8;}
	.st92{fill:#F57C00;}
	.st93{fill:#F9BB4B;}
	.st94{fill:#FCF05A;}
	.st95{fill:#66342E;}
	.st96{fill:#D3843D;}
	.st97{fill:#704C55;}
	.st98{fill:#5A344B;}
	.st99{fill:#E63950;}
	.st100{fill:#EFE2DD;}
	.st101{fill:#FF435B;}
	.st102{fill:#FFF5F5;}
	.st103{fill:#9B786F;}
	.st104{fill:#925CB4;}
	.st105{fill:#814BA2;}
	.st106{fill:#6F3F8A;}
	.st107{fill:#FFD185;}
	.st108{fill:#FFBA48;}
	.st109{fill:#FF5A35;}
	.st110{fill:#FF7A3C;}
	.st111{fill:#FFE8C2;}
	.st112{fill:#4F4F4F;}
	.st113{fill:#FF3A2F;}
	.st114{fill:#353535;}
	.st115{fill:#FB4A59;}
	.st116{fill:#F82F40;}
	.st117{fill:#3F5959;}
	.st118{fill:#384848;}
	.st119{fill:#EFF5F6;}
	.st120{fill:#CBE5E7;}
	.st121{fill:#FCC16D;}
	.st122{fill:#FCB44D;}
	.st123{fill:#A66856;}
	.st124{fill:#735458;}
	.st125{fill:#FFDEA9;}
	.st126{fill:#5C4346;}
	.st127{fill:#8F5040;}
	.st128{fill:#595959;}
	.st129{fill:#7F221C;}
	.st130{fill:#913122;}
	.st131{fill:#FFEFB0;}
	.st132{fill:#DB2116;}
	.st133{fill:#883F2E;}
	.st134{fill:#A44F3E;}
	.st135{fill:#D8AA5E;}
	.st136{fill:#E9B665;}
	.st137{fill:#E19974;}
	.st138{fill:#FFEFD2;}
	.st139{fill:#D7D0D6;}
	.st140{fill:#E8AD8C;}
	.st141{fill:#6D3326;}
	.st142{fill:#BA5D4F;}
	.st143{fill:#F5A871;}
	.st144{fill:#E89A5E;}
	.st145{fill:#A34F41;}
	.st146{fill:#D68A5A;}
	.st147{fill:#FFE5C4;}
	.st148{fill:#FDD1A7;}
	.st149{fill:#873F30;}
	.st150{fill:#C86F5C;}
	.st151{fill:#6C3328;}
	.st152{fill:#54231D;}
	.st153{fill:#B5B1B3;}
	.st154{fill:#FEC93E;}
	.st155{fill:#EFB533;}
	.st156{fill:#F7A738;}
	.st157{fill:#EA952F;}
	.st158{fill:#FD6E2E;}
	.st159{fill:#EA551B;}
	.st160{fill:#F5A257;}
	.st161{fill:#DB8F52;}
	.st162{fill:#75360D;}
	.st163{fill:#FFBF7B;}
	.st164{fill:#00CCB2;}
	.st165{fill:#00AB94;}
	.st166{fill:#FEA832;}
	.st167{fill:#FF8700;}
	.st168{fill:#00EED0;}
	.st169{fill:#FFD400;}
	.st170{fill:#FDBF00;}
	.st171{fill:#08B865;}
	.st172{fill:#E41F2D;}
	.st173{fill:#FD4755;}
	.st174{fill:#FB2B3A;}
	.st175{fill:#FED2A4;}
	.st176{fill:#FFE5C2;}
	.st177{fill:#FFBD86;}
	.st178{fill:#FE99A0;}
	.st179{fill:#FD8087;}
	.st180{fill:#C57A44;}
	.st181{fill:#09A755;}
	.st182{fill:#FEDF30;}
	.st183{fill:#FED402;}
	.st184{fill:#FAC600;}
	.st185{fill:#46CC8D;}
	.st186{fill:#00C27A;}
	.st187{fill:#FE7701;}
	.st188{fill:#FE860A;}
	.st189{fill:#C41926;}
	.st190{fill:#E89C5D;}
	.st191{fill:#F4B37D;}
	.st192{fill:#E8626C;}
	.st193{fill:#40C6C2;}
	.st194{fill:#FFC999;}
	.st195{fill:#4A4A68;}
	.st196{fill:#333356;}
	.st197{fill:#EDEDED;}
	.st198{fill:#C9C9C9;}
	.st199{fill:#FF9900;}
	.st200{fill:#FFCE00;}
	.st201{fill:#FBBD00;}
	.st202{fill:#ED8100;}
	.st203{fill:#FFE431;}
	.st204{fill:#FF9F00;}
	.st205{fill:#FFE666;}
	.st206{fill:#FFBF00;}
	.st207{fill:#FCCD31;}
	.st208{fill:#F2B016;}
	.st209{fill:#4A4D4F;}
	.st210{fill:#D3CBC2;}
	.st211{fill:#6D7072;}
	.st212{fill:#BAAFA6;}
	.st213{fill:#888C8E;}
	.st214{fill:#B4B4B4;}
	.st215{fill:#FFE999;}
	.st216{fill:#FFCF3B;}
	.st217{fill:#C1C1C1;}
	.st218{fill:#FFBC19;}
	.st219{fill:#94E6FF;}
	.st220{fill:#315F83;}
	.st221{fill:#267EA8;}
	.st222{fill:#3B3F5F;}
	.st223{fill:#D8F2FB;}
	.st224{fill:#35495E;}
	.st225{fill:#556080;}
	.st226{fill:#E4C05C;}
	.st227{fill:#E4C05C;stroke:#E4C05C;stroke-width:2;stroke-linecap:round;stroke-linejoin:round;stroke-miterlimit:10;}
	.st228{fill:#B57F5F;}
	.st229{fill:#966A5B;}
	.st230{fill:#FFD15B;}
	.st231{fill:#A5C3DC;}
	.st232{fill:#8697CB;}
	.st233{fill:#E0E0E0;}
	.st234{fill:#CCCCCC;}
	.st235{fill:#8E8E8E;}
	.st236{fill:#A0A0A0;}
	.st237{fill:#E13732;}
	.st238{fill:#F05055;}
	.st239{fill:#D24605;}
	.st240{fill:#FFCE53;}
	.st241{fill:#FFB833;}
	.st242{fill:#4999D1;}
	.st243{fill:#43AAF0;}
	.st244{fill:#FF2E23;}
	.st245{fill:#FF4A26;}
	.st246{fill:#C6805D;}
	.st247{fill:#77CC7D;}
	.st248{fill:#52BD7E;}
	.st249{fill:#98DB7C;}
	.st250{fill:#D48C64;}
	.st251{fill:#FFD18D;}
	.st252{fill:#FBBD80;}
	.st253{fill:#F3B573;}
	.st254{fill:#434A54;}
	.st255{fill:#DA4453;}
	.st256{fill:#FFCE54;}
	.st257{fill:#ED5564;}
	.st258{fill-rule:evenodd;clip-rule:evenodd;fill:#4BC3EF;}
	.st259{fill-rule:evenodd;clip-rule:evenodd;fill:#1BADDE;}
	.st260{fill-rule:evenodd;clip-rule:evenodd;fill:#DBD8DB;}
	.st261{fill-rule:evenodd;clip-rule:evenodd;fill:#C9BFC8;}
	.st262{fill:#421815;}
	.st263{fill:#FCB982;}
	.st264{fill:#FDDBBF;}
	.st265{fill:#FCCA9F;}
	.st266{fill:#C6865C;}
	.st267{fill:#B16E3D;}
	.st268{fill:#454545;}
	.st269{fill:#EFECEF;}
	.st270{fill:#E2DFE2;}
	.st271{fill:#3F3736;}
	.st272{fill:#C4755B;}
	.st273{fill:#FFE3A1;}
	.st274{fill-rule:evenodd;clip-rule:evenodd;fill:#D48C64;}
	.st275{fill:#DBD8DB;}
	.st276{fill:#BB5D4C;}
	.st277{fill:#465A61;}
	.st278{fill:#596C76;}
	.st279{fill:#E5E1E5;}
	.st280{fill:#7A8C98;}
	.st281{fill:#FEDBA6;}
	.st282{fill:#EAB14D;}
	.st283{fill:#617881;}
	.st284{fill:#E28086;}
	.st285{fill:#DD636E;}
	.st286{fill:#FFE07D;}
	.st287{fill:#ECBE6B;}
	.st288{fill:#E9EDF5;}
	.st289{fill:#CDD2E1;}
	.st290{fill:#FFAA00;}
	.st291{fill:#FF9500;}
	.st292{fill:#555A65;}
	.st293{fill:#333940;}
	.st294{fill:#E6A373;}
	.st295{fill:#CC8552;}
	.st296{fill:#FFDF40;}
	.st297{fill:#FFBE40;}
	.st298{fill:#FF9F40;}
	.st299{fill:#F77E00;}
	.st300{fill:#FFF04A;}
	.st301{fill:#00DDC1;}
	.st302{fill:#A24603;}
	.st303{fill:#F2D813;}
	.st304{fill:#803602;}
	.st305{fill:#3A3A3A;}
	.st306{fill:#AFAFAF;}
	.st307{fill:#686868;}
	.st308{fill:#925A15;}
	.st309{fill:#F3F2F6;}
	.st310{fill:#BF7D5A;}
	.st311{fill:#AA6256;}
	.st312{fill:#894E46;}
	.st313{fill:#DBA660;}
	.st314{fill:#E49542;}
	.st315{fill:#F9EFDA;}
	.st316{fill:#756E78;}
	.st317{fill:#665E66;}
	.st318{fill:#F9F6F9;}
	.st319{fill:#BC6C59;}
	.st320{fill:#994B39;}
	.st321{fill:#FEEC96;}
	.st322{fill:#F5DB64;}
	.st323{fill:#5D5E69;}
	.st324{fill:#FFE09F;}
	.st325{fill:#ECBD83;}
	.st326{fill:#F6D190;}
	.st327{fill:#FF8086;}
	.st328{fill:#E5646E;}
	.st329{fill:#357DA3;}
	.st330{fill:#F48A3B;}
	.st331{fill:#FFC233;}
	.st332{fill:#CDDEE0;}
	.st333{fill:#C8C5C9;}
	.st334{fill:#785353;}
	.st335{fill:#6E4848;}
	.st336{fill:#B7E4F8;}
	.st337{fill:#93D6F4;}
	.st338{fill:#DBF1FB;}
	.st339{fill:#8DCAFC;}
	.st340{fill:#64B9FC;}
	.st341{fill:#C4E1FF;}
	.st342{fill:#B5DBFD;}
	.st343{fill:#FEE7C9;}
	.st344{fill:#FFD496;}
	.st345{fill:#A3E440;}
	.st346{fill:#99D53B;}
	.st347{fill:#BCEA73;}
	.st348{fill:#C76D3D;}
	.st349{fill:#AA5E33;}
	.st350{fill:#D67F4F;}
	.st351{fill:#8DC637;}
	.st352{fill:#A79BA7;}
	.st353{fill:#7A6D79;}
	.st354{fill:#C4E2FF;}
	.st355{fill:#60B7FF;}
	.st356{fill:#B3DAFE;}
	.st357{fill:#F3F0F3;}
	.st358{fill:#EFEDEF;}
	.st359{fill:#CBC4CC;}
	.st360{fill:#26A6FE;}
	.st361{fill:#D2555A;}
	.st362{fill:#FF6464;}
	.st363{fill:#D7DEED;}
	.st364{fill:#B8BFD4;}
	.st365{fill:#959CB3;}
	.st366{fill:#F8C460;}
	.st367{fill:#FAAF42;}
	.st368{fill:#7A838B;}
	.st369{fill:#5D6972;}
	.st370{fill:#A7D0E1;}
	.st371{fill:#80BBCE;}
	.st372{fill:#FFD8CA;}
	.st373{fill:#FFBFAE;}
	.st374{fill:#FFE5D8;}
	.st375{fill:#E5EEF9;}
	.st376{fill:#56595E;}
	.st377{fill:#7F8284;}
	.st378{fill:#A5A5A4;}
	.st379{fill:#95A5A5;}
	.st380{fill:#BDC3C7;}
	.st381{fill:#7F8C8D;}
</style>
<g id="Acoustic_Grand_Keyboard">
	<g>
		<g>
			<path class="st145" d="M22.01,33.12c-0.47,1.41-0.6,2.93-0.37,4.43c0.49,3.21-0.36,6.44-2.39,8.47
				c-3.52,3.52-9.27,2.1-13.69-2.32c-4.42-4.42-5.84-10.17-2.32-13.69c2.03-2.03,5.25-2.88,8.47-2.39c1.51,0.23,3.03,0.1,4.43-0.37
				l3.76,1.6L22.01,33.12z"/>
			<g>
				<path class="st262" d="M21.41,23.45l-2.16-2.16c-0.28-0.28-0.28-0.73,0-1.01s0.73-0.28,1.01,0l2.16,2.16
					c0.28,0.28,0.28,0.73,0,1.01C22.15,23.73,21.69,23.73,21.41,23.45z"/>
			</g>
			<g>
				<path class="st263" d="M18.7,21.54c-0.28-0.28-0.28-0.73,0-1.01l0.81-0.81c0.28-0.28,0.73-0.28,1.01,0
					c0.28,0.28,0.28,0.73,0,1.01l-0.81,0.81C19.43,21.82,18.98,21.82,18.7,21.54z"/>
			</g>
			<g>
				<path class="st262" d="M23.99,21.15l-2.16-2.16c-0.28-0.28-0.28-0.73,0-1.01c0.28-0.28,0.73-0.28,1.01,0L25,20.14
					c0.28,0.28,0.28,0.73,0,1.01S24.27,21.43,23.99,21.15L23.99,21.15z"/>
			</g>
			<g>
				<path class="st263" d="M21.28,19.24c-0.28-0.28-0.28-0.73,0-1.01l0.81-0.81c0.28-0.28,0.73-0.28,1.01,0
					c0.28,0.28,0.28,0.73,0,1.01l-0.81,0.81C22.01,19.52,21.56,19.52,21.28,19.24L21.28,19.24z"/>
			</g>
			<g>
				<path class="st262" d="M26.57,18.85l-2.16-2.16c-0.28-0.28-0.28-0.73,0-1.01c0.28-0.28,0.73-0.28,1.01,0l2.16,2.16
					c0.28,0.28,0.28,0.73,0,1.01S26.85,19.12,26.57,18.85z"/>
			</g>
			<g>
				<path class="st263" d="M23.86,16.94c-0.28-0.28-0.28-0.73,0-1.01l0.81-0.81c0.28-0.28,0.73-0.28,1.01,0
					c0.28,0.28,0.28,0.73,0,1.01l-0.81,0.81C24.59,17.22,24.13,17.22,23.86,16.94L23.86,16.94z"/>
			</g>
			<g>
				<path class="st262" d="M29.15,16.54l-2.16-2.16c-0.28-0.28-0.28-0.73,0-1.01c0.28-0.28,0.73-0.28,1.01,0l2.16,2.16
					c0.28,0.28,0.28,0.73,0,1.01C29.88,16.82,29.43,16.82,29.15,16.54L29.15,16.54z"/>
			</g>
			<g>
				<path class="st263" d="M26.43,14.64c-0.28-0.28-0.28-0.73,0-1.01l0.81-0.81c0.28-0.28,0.73-0.28,1.01,0
					c0.28,0.28,0.28,0.73,0,1.01l-0.81,0.81C27.16,14.92,26.71,14.92,26.43,14.64L26.43,14.64z"/>
			</g>
			<g>
				<path class="st262" d="M35.96,10.01L33.8,7.86c-0.28-0.28-0.28-0.73,0-1.01c0.28-0.28,0.73-0.28,1.01,0L36.97,9
					c0.28,0.28,0.28,0.73,0,1.01C36.69,10.29,36.24,10.29,35.96,10.01z"/>
			</g>
			<g>
				<path class="st263" d="M33.24,8.11c-0.28-0.28-0.28-0.73,0-1.01l0.81-0.81c0.28-0.28,0.73-0.28,1.01,0s0.28,0.73,0,1.01
					l-0.81,0.81C33.97,8.38,33.52,8.38,33.24,8.11z"/>
			</g>
			<g>
				<path class="st262" d="M39.58,6.39l-2.16-2.16c-0.28-0.28-0.28-0.73,0-1.01c0.28-0.28,0.73-0.28,1.01,0l2.16,2.16
					c0.28,0.28,0.28,0.73,0,1.01C40.31,6.67,39.86,6.67,39.58,6.39z"/>
			</g>
			<g>
				<path class="st263" d="M36.87,4.48c-0.28-0.28-0.28-0.73,0-1.01l0.81-0.81c0.28-0.28,0.73-0.28,1.01,0s0.28,0.73,0,1.01
					l-0.81,0.81C37.6,4.76,37.14,4.76,36.87,4.48z"/>
			</g>
			<path class="st145" d="M43.42,9.02l-4.35,4.65l-2.77-1.23l-0.71-2.24l4.65-4.35c0.39-0.36,0.99-0.35,1.36,0.02l1.8,1.8
				C43.77,8.03,43.78,8.64,43.42,9.02z"/>
			<path class="st149" d="M22.01,33.12c-0.47,1.41-0.6,2.93-0.37,4.43c0.49,3.21-0.36,6.44-2.39,8.47
				c-3.52,3.52-9.27,2.1-13.69-2.32c-0.34-0.34-0.66-0.68-0.96-1.04c4.25,3.65,9.4,4.61,12.65,1.35c2.03-2.03,2.88-5.25,2.39-8.47
				c-0.23-1.51-0.1-3.03,0.37-4.43L22.01,33.12z"/>
			<g>
				<path class="st262" d="M7.54,40.78c-0.18,0-0.37-0.07-0.5-0.21c-0.28-0.28-0.28-0.73,0-1.01l9.16-9.16
					c0.28-0.28,0.73-0.28,1.01,0c0.28,0.28,0.28,0.73,0,1.01l-9.16,9.16C7.9,40.71,7.72,40.78,7.54,40.78z"/>
			</g>
			<g>
				<path class="st262" d="M9.2,42.44c-0.18,0-0.37-0.07-0.5-0.21c-0.28-0.28-0.28-0.73,0-1.01l9.16-9.16
					c0.28-0.28,0.73-0.28,1.01,0c0.28,0.28,0.28,0.73,0,1.01L9.7,42.23C9.57,42.37,9.38,42.44,9.2,42.44z"/>
			</g>
			<path class="st149" d="M43.42,9.02l-4.35,4.65l-2-2l4.35-4.65c0.33-0.35,0.35-0.88,0.07-1.25c0.04,0.03,0.07,0.06,0.11,0.09
				l1.79,1.79C43.77,8.03,43.78,8.64,43.42,9.02z"/>
			<g>
				<path class="st262" d="M14.89,46.78c-0.34,0-0.65-0.25-0.7-0.6c-0.06-0.39,0.2-0.75,0.59-0.82c0.76-0.12,1.4-0.45,1.96-1.01
					c1.04-1.04,1.62-2.71,1.6-4.58c-0.01-0.39,0.31-0.72,0.7-0.72c0.39-0.01,0.72,0.31,0.72,0.7c0.03,2.25-0.7,4.3-2.01,5.61
					c-0.77,0.77-1.69,1.24-2.74,1.41C14.96,46.78,14.92,46.78,14.89,46.78L14.89,46.78z"/>
			</g>
			<g>
				<path class="st262" d="M3.18,35.08c-0.03,0-0.06,0-0.1-0.01c-0.39-0.05-0.67-0.41-0.61-0.8c0.15-1.11,0.63-2.08,1.43-2.88
					c1.31-1.31,3.35-2.04,5.61-2.01c0.39,0.01,0.71,0.33,0.7,0.72c-0.01,0.39-0.32,0.7-0.71,0.7c0,0-0.01,0-0.01,0
					c-1.87-0.02-3.54,0.56-4.58,1.6C4.33,32.98,4,33.65,3.89,34.46C3.84,34.82,3.54,35.08,3.18,35.08z"/>
			</g>
			<path class="st264" d="M1.6,37.27c-0.4-1.47-0.45-2.92-0.1-4.25c1.17,0.2,2.62,1.08,2.62,2.14C4.12,36.18,2.75,37.04,1.6,37.27z"
				/>
			<path class="st265" d="M16.25,47.76c-1.33,0.35-2.78,0.3-4.25-0.1c0.23-1.15,1.09-2.52,2.12-2.52
				C15.17,45.14,16.05,46.6,16.25,47.76z"/>
			<path class="st264" d="M19.54,34.45c-0.33-0.09-0.64-0.26-0.9-0.53l-3.3-3.3c-1.07-1.07-0.63-2.89,0.81-3.37
				c1.24-0.41,2.38-1.08,3.36-2L35.59,10.2l3.48,3.48L24.01,29.76c-0.92,0.98-1.59,2.13-2,3.36C21.65,34.2,20.53,34.72,19.54,34.45
				L19.54,34.45z"/>
			<path class="st265" d="M19.54,34.45c-0.09-2.46,0.77-4.87,2.47-6.7l15.06-16.08l2,2L24.01,29.76c-0.92,0.98-1.59,2.13-2,3.36
				C21.65,34.2,20.53,34.72,19.54,34.45L19.54,34.45z"/>
			<path class="st151" d="M41.78,10.99l4.7-5.02c0.36-0.39,0.35-0.99-0.02-1.36l-1.8-1.8c-0.37-0.37-0.98-0.38-1.36-0.02l-5.02,4.7
				c-0.2,0.19-0.21,0.51-0.01,0.7L41.07,11C41.27,11.19,41.59,11.19,41.78,10.99z"/>
			<path class="st152" d="M41.78,10.99c-0.19,0.2-0.51,0.21-0.7,0.01l-1.64-1.64c0.2,0.2,0.51,0.19,0.7-0.01l4.7-5.02
				c0.36-0.39,0.35-0.99-0.02-1.36l1.64,1.64c0.37,0.37,0.38,0.98,0.02,1.36L41.78,10.99z"/>
			<g>
				<path class="st263" d="M35.24,17.76l-0.98,1.04l-3.8-3.8l1.04-0.98L35.24,17.76z"/>
			</g>
			<g>
				<path class="st263" d="M36.89,16l-0.98,1.04l-3.69-3.69l1.04-0.98L36.89,16z"/>
			</g>
			<g>
				<path class="st263" d="M23.47,30.39c-0.3,0.39-0.57,0.79-0.8,1.22l-5.02-5.02c0.43-0.23,0.83-0.5,1.22-0.8L23.47,30.39z"/>
			</g>
			<g>
				<path class="st263" d="M25.09,28.6l-0.98,1.04l-4.49-4.5l1.04-0.98L25.09,28.6z"/>
			</g>
			<g>
				<path class="st263" d="M31.24,22.03l-0.98,1.04L26.19,19l1.04-0.98L31.24,22.03z"/>
			</g>
			<g>
				<path class="st263" d="M32.89,20.27l-0.98,1.04l-3.96-3.96l1.04-0.98L32.89,20.27z"/>
			</g>
			<g>
				<path class="st263" d="M27.92,25.58l-0.98,1.04l-4.3-4.3l1.04-0.98L27.92,25.58z"/>
			</g>
			<g>
				<path class="st263" d="M29.57,23.82l-0.98,1.04l-4.19-4.19l1.04-0.98L29.57,23.82z"/>
			</g>
			<g>
				<path class="st262" d="M42.04,3.93l-2.16-2.16c-0.28-0.28-0.28-0.73,0-1.01c0.28-0.28,0.73-0.28,1.01,0l2.16,2.16
					c0.28,0.28,0.28,0.73,0,1.01C42.77,4.21,42.32,4.21,42.04,3.93z"/>
			</g>
			<g>
				<path class="st263" d="M39.33,2.03c-0.28-0.28-0.28-0.73,0-1.01l0.81-0.81c0.28-0.28,0.73-0.28,1.01,0
					c0.28,0.28,0.28,0.73,0,1.01l-0.81,0.81C40.06,2.31,39.61,2.31,39.33,2.03z"/>
			</g>
			<g>
				<path class="st262" d="M42.74,7.53l-2.57,2.57l-1.01-1.01l2.57-2.57c0.28-0.28,0.73-0.28,1.01,0
					C43.02,6.8,43.02,7.25,42.74,7.53z"/>
			</g>
			<path class="st264" d="M11.05,41.98l-3.72-3.72c-0.19-0.19-0.19-0.5,0-0.69l1.19-1.19c0.19-0.19,0.5-0.19,0.69,0l3.72,3.72
				c0.19,0.19,0.19,0.5,0,0.69l-1.19,1.19C11.55,42.17,11.24,42.17,11.05,41.98z"/>
			<path class="st265" d="M12.93,40.79l-1.19,1.19c-0.19,0.19-0.5,0.19-0.69,0l-1.49-1.49c0.19,0.19,0.5,0.19,0.69,0l1.19-1.19
				c0.19-0.19,0.19-0.5,0-0.69l1.49,1.49C13.12,40.29,13.12,40.6,12.93,40.79z"/>
		</g>
	</g>
</g>
<g id="Layer_2">
</g>
</svg>
