<svg id="Acoustic_Grand_Keyboard" data-name="Acoustic Grand Keyboard" xmlns="http://www.w3.org/2000/svg" viewBox="0 0 48 48"><defs><style>.cls-1{fill:#4bc3ef;}.cls-1,.cls-2,.cls-3,.cls-4,.cls-5,.cls-6{fill-rule:evenodd;}.cls-2{fill:#1badde;}.cls-3{fill:#dbd8db;}.cls-4{fill:#c9bfc8;}.cls-5{fill:#596c76;}.cls-6{fill:#465a61;}</style></defs><path class="cls-1" d="M9.91,39l.41,3.09c.31,2.24,1.86,4.12,4.13,4.12s3.83-1.88,4.14-4.12L19,39l.65-4.8-5.2-.75-5.19.75Z"/><path class="cls-2" d="M16.8,34.23,16.15,39l-.42,3.09A4.68,4.68,0,0,1,13,46a3.86,3.86,0,0,0,1.42.27c2.28,0,3.83-1.88,4.14-4.12L19,39l.65-4.8-2.79-.47Z"/><path class="cls-3" d="M20.23,30A25.48,25.48,0,0,0,8.42,28l.84,6.23H19.65Z"/><path class="cls-4" d="M8.42,28l.37,2.75A15.89,15.89,0,0,0,16,32.13c1.24,0,1.07.3.91,1.48l-.08.62h2.85L20.23,30A23.63,23.63,0,0,0,8.42,28Z"/><path class="cls-1" d="M44.51,10.93c-9-7.27-27.43-13-38.19-6A13,13,0,0,0,0,15.88a13,13,0,0,0,6.32,11A16.48,16.48,0,0,0,8.42,28,24.93,24.93,0,0,0,20.23,30a45.55,45.55,0,0,0,24.28-9.12c2.34-1.89,3.5-3.42,3.49-4.95S46.85,12.82,44.51,10.93Z"/><path class="cls-2" d="M42.48,18A45.43,45.43,0,0,1,18.2,27.1a24.81,24.81,0,0,1-11.81-2A16.48,16.48,0,0,1,4.29,24,14.76,14.76,0,0,1,1.42,21.6a14,14,0,0,0,4.9,5.24A16.48,16.48,0,0,0,8.42,28,24.93,24.93,0,0,0,20.23,30a45.55,45.55,0,0,0,24.28-9.12c2.34-1.89,3.5-3.42,3.49-4.95,0-1.21-.71-2.41-2.17-3.8A2.88,2.88,0,0,1,46,13c0,1.53-1.15,3.06-3.49,5Z"/><path class="cls-5" d="M8.92,18.91a2.49,2.49,0,1,0,2.49,2.49A2.48,2.48,0,0,0,8.92,18.91Z"/><path class="cls-5" d="M10.5,8a3.83,3.83,0,1,0,3.84,3.83A3.84,3.84,0,0,0,10.5,8Z"/><path class="cls-5" d="M16.1,17.85a2.19,2.19,0,1,0,2.18-2.18A2.18,2.18,0,0,0,16.1,17.85Z"/><path class="cls-5" d="M20.23,5.63a2.49,2.49,0,1,0,2.49,2.48A2.48,2.48,0,0,0,20.23,5.63Z"/><path class="cls-5" d="M26.11,19a2.49,2.49,0,1,0,2.49-2.49A2.49,2.49,0,0,0,26.11,19Z"/><path class="cls-5" d="M33.27,14.23a2.49,2.49,0,1,0,2.49-2.49,2.48,2.48,0,0,0-2.49,2.49Z"/><path class="cls-6" d="M10,8a3.83,3.83,0,0,1-1,7.32A3.83,3.83,0,1,0,10.5,8,4.19,4.19,0,0,0,10,8Z"/><path class="cls-6" d="M8.22,19a2.48,2.48,0,0,1-.63,4.49,2.52,2.52,0,0,0,1.33.38,2.49,2.49,0,1,0,0-5,2.32,2.32,0,0,0-.7.1Z"/><path class="cls-6" d="M17.54,15.8A2.17,2.17,0,0,1,17,19.61a2.19,2.19,0,0,0,3.46-1.76,2.19,2.19,0,0,0-2.19-2.18A2.26,2.26,0,0,0,17.54,15.8Z"/><path class="cls-6" d="M19.53,5.72a2.49,2.49,0,0,1-.62,4.5,2.46,2.46,0,0,0,1.32.38,2.49,2.49,0,1,0,0-5A2.63,2.63,0,0,0,19.53,5.72Z"/><path class="cls-6" d="M27.91,16.59a2.49,2.49,0,0,1-.63,4.49,2.49,2.49,0,1,0,1.32-4.59,2.21,2.21,0,0,0-.69.1Z"/><path class="cls-6" d="M35.06,11.84a2.48,2.48,0,0,1-.63,4.49,2.52,2.52,0,0,0,1.33.38,2.49,2.49,0,1,0,0-5,2.28,2.28,0,0,0-.7.1Z"/></svg>