<svg id="Acoustic_Grand_Keyboard" data-name="Acoustic Grand Keyboard" xmlns="http://www.w3.org/2000/svg" viewBox="0 0 48 48"><defs><style>.cls-1{fill:#357da3;}.cls-2{fill:#f48a3b;}.cls-3{fill:#ffc233;}.cls-4{fill:#cddee0;}</style></defs><path class="cls-1" d="M19.38,13.12a1.26,1.26,0,0,1-1.79-.19h0L9.27,2.61a1.27,1.27,0,1,1,2-1.6h0l8.32,10.32a1.26,1.26,0,0,1-.19,1.79Z"/><path class="cls-1" d="M21,17.73l2.66-2.15L37.44,32.64l-2.66,2.15Z"/><path class="cls-2" d="M22,12.18l-4,3.25L13.55,10a2.56,2.56,0,0,1,.39-3.61l0,0a2.56,2.56,0,0,1,3.6.38Z"/><ellipse class="cls-3" cx="19.72" cy="13.49" rx="6.69" ry="5.74" transform="translate(-4.1 15.38) rotate(-38.91)"/><path class="cls-1" d="M35,48l0-14.34h3.43l0,14.34Z"/><circle class="cls-4" cx="36.7" cy="34.44" r="4.22"/><circle class="cls-1" cx="36.7" cy="34.44" r="1.95"/><path class="cls-3" d="M46.66.55c1.92,2.39-9.1,12.82-19.95,21.57S3.32,39.43,1.39,37.05s6.7-15.8,17.55-24.55S44.73-1.83,46.66.55Z"/><path class="cls-2" d="M46.66.55c-.53-.65-2-.7-4.17-.26-1,3.5-9.9,11.77-18.69,18.86-8.47,6.83-18,13.52-22,14.22-.73,1.76-.92,3.07-.44,3.68,1.93,2.38,14.46-6.18,25.32-14.93S48.58,2.94,46.66.55Z"/></svg>