<svg id="Acoustic_Grand_Keyboard" data-name="Acoustic Grand Keyboard" xmlns="http://www.w3.org/2000/svg" viewBox="0 0 48 48"><defs><style>.cls-1{fill:#35495e;}.cls-2{fill:#556080;}.cls-3,.cls-4{fill:#e4c05c;}.cls-4{stroke:#e4c05c;stroke-linecap:round;stroke-linejoin:round;stroke-width:2px;}</style></defs><path class="cls-1" d="M7.79,46.79h0A1.26,1.26,0,0,1,6,46.8L1.13,42a1.25,1.25,0,0,1,0-1.78h0a1.25,1.25,0,0,1,1.77,0L7.78,45A1.24,1.24,0,0,1,7.79,46.79Z"/><path class="cls-2" d="M2.71,43.52.37,45.86a1.25,1.25,0,0,0,0,1.77h0a1.25,1.25,0,0,0,1.77,0l2.35-2.35Z"/><path class="cls-2" d="M46.49,1.84l-.33-.33A5.11,5.11,0,0,0,42.53,0a5.22,5.22,0,0,0-2.3.54l-.64.32a5.17,5.17,0,0,0-2.37,2.45L33.69,11l-2.4,2.39v.85l-.84.83h-.86l-2.48,2.47v.87l-.84.84h-.89l-2.45,2.44v.9l-.84.84h-.91l-2.43,2.41v.93l-.83.84H17L14.57,30v1l-.83.84h-1l-2.38,2.35v1l-.83.83h-1l-5,4.94L7.16,44.4,37.24,14.31l7.48-3.52a5.23,5.23,0,0,0,2.41-2.35l.33-.67A5.22,5.22,0,0,0,48,5.47,5.11,5.11,0,0,0,46.49,1.84Z"/><path class="cls-3" d="M17.28,39.05a.83.83,0,0,1-.59-.25l-3.54-3.54a.83.83,0,0,1,1.18-1.18l3,3,5.91-5.91-3-2.95A.83.83,0,1,1,21.42,27L25,30.53a.83.83,0,0,1,0,1.18L17.87,38.8A.79.79,0,0,1,17.28,39.05Z"/><path class="cls-3" d="M20.93,35.4h0a.87.87,0,0,1-.59-.24l-3.55-3.55A.84.84,0,1,1,18,30.43l2.95,3,5.91-5.91-3-3a.84.84,0,0,1,1.19-1.18l3.54,3.55a.83.83,0,0,1,0,1.18l-7.09,7.09A.87.87,0,0,1,20.93,35.4Z"/><polygon class="cls-4" points="30.45 15.04 31.29 14.21 31.29 12.54 30.45 11.7 28.78 11.7 27.94 12.54 27.94 14.21 28.78 15.04 30.45 15.04"/><polygon class="cls-4" points="26.27 19.22 27.11 18.39 27.11 16.71 26.27 15.88 24.6 15.88 23.77 16.71 23.77 18.39 24.6 19.22 26.27 19.22"/><polygon class="cls-4" points="22.09 23.4 22.93 22.56 22.93 20.89 22.09 20.06 20.42 20.06 19.59 20.89 19.59 22.56 20.42 23.4 22.09 23.4"/><polygon class="cls-4" points="17.92 27.58 18.75 26.74 18.75 25.07 17.92 24.23 16.24 24.23 15.41 25.07 15.41 26.74 16.24 27.58 17.92 27.58"/><polygon class="cls-4" points="13.74 31.76 14.57 30.92 14.57 29.25 13.74 28.41 12.07 28.41 11.23 29.25 11.23 30.92 12.07 31.76 13.74 31.76"/><polygon class="cls-4" points="9.56 35.93 10.39 35.1 10.39 33.43 9.56 32.59 7.89 32.59 7.05 33.43 7.05 35.1 7.89 35.93 9.56 35.93"/></svg>