<svg id="Acoustic_Grand_Keyboard" data-name="Acoustic Grand Keyboard" xmlns="http://www.w3.org/2000/svg" viewBox="0 0 48 48"><defs><style>.cls-1{fill:#e74444;}.cls-2{fill:#ce3536;}.cls-3{fill:#d9dbdd;}.cls-4{fill:#e8edf1;}.cls-5{fill:#f3db70;}</style></defs><path class="cls-1" d="M23.87,5.65l-10,17.28V44.34H39.68V22.93L48,5.65Z"/><path class="cls-1" d="M0,22.51H39.68V44.34H0Z"/><path class="cls-2" d="M26.78,22.51h12.9V44.34H26.78Z"/><path class="cls-3" d="M42.69,38.38H36.12a12.23,12.23,0,0,1-1.4-1.06V30.45H32.84c-.45.31-.82-.06-.82-.52s.37-.82.82-1.47h3.28a3.85,3.85,0,0,1,.58,1.47V36.4h6a1,1,0,0,1,.82.92A1.31,1.31,0,0,1,42.69,38.38Z"/><path class="cls-4" d="M44.41,35.41H45.9a1.49,1.49,0,0,1,1.49,1.49h0a1.49,1.49,0,0,1-1.49,1.48H44.41a1.49,1.49,0,0,1-1.49-1.48h0A1.49,1.49,0,0,1,44.41,35.41Z"/><path class="cls-2" d="M3,25.49H22.82V40.37H3Z"/><path class="cls-5" d="M32.84,9.62H26.27a4.44,4.44,0,0,0-1.47.61v4.25c-.63-.46-2,.22-2.49,1.5A2.46,2.46,0,0,0,27,17.62a.67.67,0,0,0-.17-.82V11.6h5v1.24a2.27,2.27,0,0,0-2.87,1.5A2.47,2.47,0,0,0,33.52,16c.09-.26.14-.54.21-.82V10.23C33.66,9.78,32.84,9.62,32.84,9.62Zm-8.21,8a.82.82,0,1,1,.82-.82A.82.82,0,0,1,24.63,17.62ZM31.2,16a.82.82,0,1,1,.82-.82A.82.82,0,0,1,31.2,16Z"/><path class="cls-5" d="M16,4.16a4.89,4.89,0,0,0-2-.5,1.31,1.31,0,0,0-1.06.82V9.55A2.31,2.31,0,0,0,10,11.05a2.47,2.47,0,1,0,4.65,1.64c.09-.26.14-.54.24-.82V5.45a2.15,2.15,0,0,0,.35.18,2.16,2.16,0,0,1,1.19,2.14.82.82,0,0,0,1.64,0A3.81,3.81,0,0,0,16,4.16Zm-3.66,8.53a.82.82,0,1,1,0-1.64.82.82,0,1,1,0,1.64Z"/></svg>