<?xml version="1.0" encoding="utf-8"?>
<!-- Generator: Adobe Illustrator 25.0.0, SVG Export Plug-In . SVG Version: 6.00 Build 0)  -->
<svg version="1.1" xmlns="http://www.w3.org/2000/svg" xmlns:xlink="http://www.w3.org/1999/xlink" x="0px" y="0px"
	 viewBox="0 0 48 48" style="enable-background:new 0 0 48 48;" xml:space="preserve">
<style type="text/css">
	.st0{fill:#F5DAA7;}
	.st1{fill:#EDC472;}
	.st2{fill:#BC9B5B;}
	.st3{fill:#9A6A53;}
	.st4{fill:#855B47;}
	.st5{fill:#F4E2C1;}
	.st6{fill:#F7F7F7;}
	.st7{fill:#C8C3CA;}
	.st8{fill:#B78C7A;}
	.st9{fill:#7A5341;}
	.st10{fill:#704C3B;}
	.st11{fill:#CF9875;}
	.st12{fill:#C7865B;}
	.st13{clip-path:url(#SVGID_3_);}
	.st14{clip-path:url(#SVGID_4_);fill:#FFFFFF;stroke:#231F20;stroke-miterlimit:10;}
	.st15{fill:#FFFFFF;stroke:#231F20;stroke-miterlimit:10;}
	.st16{fill:none;stroke:#000000;stroke-width:4.5;stroke-miterlimit:10;}
	.st17{fill:#463C4B;}
	.st18{fill:#555A6E;}
	.st19{fill:#F06423;}
	.st20{fill:#FAA51E;}
	.st21{fill:#D7E6F0;}
	.st22{fill:#DADADA;}
	.st23{fill:#C4C6C6;}
	.st24{fill:#EDEEEF;}
	.st25{fill:#797981;}
	.st26{fill:#5A5A63;}
	.st27{fill:#494951;}
	.st28{fill:#29BAED;}
	.st29{fill:#DD9554;}
	.st30{fill:#CC8244;}
	.st31{fill:#805333;}
	.st32{fill:#A56A43;}
	.st33{fill:#CB8252;}
	.st34{fill:#ECF0F1;}
	.st35{fill:#603E26;}
	.st36{fill:#F9EAB0;}
	.st37{fill:#F5EFCA;}
	.st38{fill:#464F5D;}
	.st39{fill:#F3D55B;}
	.st40{fill:#6F6571;}
	.st41{fill:#4B3F4E;}
	.st42{fill:#5D5360;}
	.st43{fill:#857E87;}
	.st44{fill:#ECEAEC;}
	.st45{fill:#DAD8DB;}
	.st46{fill:#B3E59F;}
	.st47{fill:#CCF49F;}
	.st48{fill:#792A47;}
	.st49{fill:#A62B38;}
	.st50{fill:#D22D28;}
	.st51{fill:#FF2F19;}
	.st52{fill:#FFFFFF;}
	.st53{fill:#202666;}
	.st54{fill:#FDE6BB;}
	.st55{fill:#FE501F;}
	.st56{fill:#FD7226;}
	.st57{fill:#FCCD76;}
	.st58{fill:#FB932C;}
	.st59{fill:#4D2857;}
	.st60{fill:#B19046;}
	.st61{fill:#F0C419;}
	.st62{fill:#24AE5F;}
	.st63{fill:#E64C3C;}
	.st64{fill:#3B97D3;}
	.st65{fill:#E74444;}
	.st66{fill:#CE3536;}
	.st67{fill:#D9DBDD;}
	.st68{fill:#E8EDF1;}
	.st69{fill:#F3DB70;}
	.st70{fill:#D5DAF3;}
	.st71{fill:#A2AEE6;}
	.st72{fill:#FFC344;}
	.st73{fill:#FFE177;}
	.st74{fill:#BEC6ED;}
	.st75{fill:#8795DE;}
	.st76{fill-rule:evenodd;clip-rule:evenodd;fill:#A46A5A;}
	.st77{fill-rule:evenodd;clip-rule:evenodd;fill:#845252;}
	.st78{fill-rule:evenodd;clip-rule:evenodd;fill:#FFD05B;}
	.st79{fill-rule:evenodd;clip-rule:evenodd;fill:#704242;}
	.st80{fill-rule:evenodd;clip-rule:evenodd;fill:#FFC244;}
	.st81{fill-rule:evenodd;clip-rule:evenodd;fill:#596C76;}
	.st82{fill-rule:evenodd;clip-rule:evenodd;fill:#465A61;}
	.st83{fill:#A46A5A;}
	.st84{fill:#607D8B;}
	.st85{fill:#9C27B0;}
	.st86{fill:#03A9F4;}
	.st87{fill:#8BC34A;}
	.st88{fill:#FFC107;}
	.st89{fill:#FF9800;}
	.st90{fill:#F44336;}
	.st91{fill:#D7CCC8;}
	.st92{fill:#F57C00;}
	.st93{fill:#F9BB4B;}
	.st94{fill:#FCF05A;}
	.st95{fill:#66342E;}
	.st96{fill:#D3843D;}
	.st97{fill:#704C55;}
	.st98{fill:#5A344B;}
	.st99{fill:#E63950;}
	.st100{fill:#EFE2DD;}
	.st101{fill:#FF435B;}
	.st102{fill:#FFF5F5;}
	.st103{fill:#9B786F;}
	.st104{fill:#925CB4;}
	.st105{fill:#814BA2;}
	.st106{fill:#6F3F8A;}
	.st107{fill:#FFD185;}
	.st108{fill:#FFBA48;}
	.st109{fill:#FF5A35;}
	.st110{fill:#FF7A3C;}
	.st111{fill:#FFE8C2;}
	.st112{fill:#4F4F4F;}
	.st113{fill:#FF3A2F;}
	.st114{fill:#353535;}
	.st115{fill:#FB4A59;}
	.st116{fill:#F82F40;}
	.st117{fill:#3F5959;}
	.st118{fill:#384848;}
	.st119{fill:#EFF5F6;}
	.st120{fill:#CBE5E7;}
	.st121{fill:#FCC16D;}
	.st122{fill:#FCB44D;}
	.st123{fill:#A66856;}
	.st124{fill:#735458;}
	.st125{fill:#FFDEA9;}
	.st126{fill:#5C4346;}
	.st127{fill:#8F5040;}
	.st128{fill:#595959;}
	.st129{fill:#7F221C;}
	.st130{fill:#913122;}
	.st131{fill:#FFEFB0;}
	.st132{fill:#DB2116;}
	.st133{fill:#883F2E;}
	.st134{fill:#A44F3E;}
	.st135{fill:#D8AA5E;}
	.st136{fill:#E9B665;}
	.st137{fill:#E19974;}
	.st138{fill:#FFEFD2;}
	.st139{fill:#D7D0D6;}
	.st140{fill:#E8AD8C;}
	.st141{fill:#6D3326;}
	.st142{fill:#BA5D4F;}
	.st143{fill:#F5A871;}
	.st144{fill:#E89A5E;}
	.st145{fill:#A34F41;}
	.st146{fill:#D68A5A;}
	.st147{fill:#FFE5C4;}
	.st148{fill:#FDD1A7;}
	.st149{fill:#873F30;}
	.st150{fill:#C86F5C;}
	.st151{fill:#6C3328;}
	.st152{fill:#54231D;}
	.st153{fill:#B5B1B3;}
	.st154{fill:#FEC93E;}
	.st155{fill:#EFB533;}
	.st156{fill:#F7A738;}
	.st157{fill:#EA952F;}
	.st158{fill:#FD6E2E;}
	.st159{fill:#EA551B;}
	.st160{fill:#F5A257;}
	.st161{fill:#DB8F52;}
	.st162{fill:#75360D;}
	.st163{fill:#FFBF7B;}
	.st164{fill:#00CCB2;}
	.st165{fill:#00AB94;}
	.st166{fill:#FEA832;}
	.st167{fill:#FF8700;}
	.st168{fill:#00EED0;}
	.st169{fill:#FFD400;}
	.st170{fill:#FDBF00;}
	.st171{fill:#08B865;}
	.st172{fill:#E41F2D;}
	.st173{fill:#FD4755;}
	.st174{fill:#FB2B3A;}
	.st175{fill:#FED2A4;}
	.st176{fill:#FFE5C2;}
	.st177{fill:#FFBD86;}
	.st178{fill:#FE99A0;}
	.st179{fill:#FD8087;}
	.st180{fill:#C57A44;}
	.st181{fill:#09A755;}
	.st182{fill:#FEDF30;}
	.st183{fill:#FED402;}
	.st184{fill:#FAC600;}
	.st185{fill:#46CC8D;}
	.st186{fill:#00C27A;}
	.st187{fill:#FE7701;}
	.st188{fill:#FE860A;}
	.st189{fill:#C41926;}
	.st190{fill:#E89C5D;}
	.st191{fill:#F4B37D;}
	.st192{fill:#E8626C;}
	.st193{fill:#40C6C2;}
	.st194{fill:#FFC999;}
	.st195{fill:#4A4A68;}
	.st196{fill:#333356;}
	.st197{fill:#EDEDED;}
	.st198{fill:#C9C9C9;}
	.st199{fill:#FF9900;}
	.st200{fill:#FFCE00;}
	.st201{fill:#FBBD00;}
	.st202{fill:#ED8100;}
	.st203{fill:#FFE431;}
	.st204{fill:#FF9F00;}
	.st205{fill:#FFE666;}
	.st206{fill:#FFBF00;}
	.st207{fill:#FCCD31;}
	.st208{fill:#F2B016;}
	.st209{fill:#4A4D4F;}
	.st210{fill:#D3CBC2;}
	.st211{fill:#6D7072;}
	.st212{fill:#BAAFA6;}
	.st213{fill:#888C8E;}
	.st214{fill:#B4B4B4;}
	.st215{fill:#FFE999;}
	.st216{fill:#FFCF3B;}
	.st217{fill:#C1C1C1;}
	.st218{fill:#FFBC19;}
	.st219{fill:#94E6FF;}
	.st220{fill:#315F83;}
	.st221{fill:#267EA8;}
	.st222{fill:#3B3F5F;}
	.st223{fill:#D8F2FB;}
	.st224{fill:#35495E;}
	.st225{fill:#556080;}
	.st226{fill:#E4C05C;}
	.st227{fill:#E4C05C;stroke:#E4C05C;stroke-width:2;stroke-linecap:round;stroke-linejoin:round;stroke-miterlimit:10;}
	.st228{fill:#B57F5F;}
	.st229{fill:#966A5B;}
	.st230{fill:#FFD15B;}
	.st231{fill:#A5C3DC;}
	.st232{fill:#8697CB;}
	.st233{fill:#E0E0E0;}
	.st234{fill:#CCCCCC;}
	.st235{fill:#8E8E8E;}
	.st236{fill:#A0A0A0;}
	.st237{fill:#E13732;}
	.st238{fill:#F05055;}
	.st239{fill:#D24605;}
	.st240{fill:#FFCE53;}
	.st241{fill:#FFB833;}
	.st242{fill:#4999D1;}
	.st243{fill:#43AAF0;}
	.st244{fill:#FF2E23;}
	.st245{fill:#FF4A26;}
	.st246{fill:#C6805D;}
	.st247{fill:#77CC7D;}
	.st248{fill:#52BD7E;}
	.st249{fill:#98DB7C;}
	.st250{fill:#D48C64;}
	.st251{fill:#FFD18D;}
	.st252{fill:#FBBD80;}
	.st253{fill:#F3B573;}
	.st254{fill:#434A54;}
	.st255{fill:#DA4453;}
	.st256{fill:#FFCE54;}
	.st257{fill:#ED5564;}
	.st258{fill-rule:evenodd;clip-rule:evenodd;fill:#4BC3EF;}
	.st259{fill-rule:evenodd;clip-rule:evenodd;fill:#1BADDE;}
	.st260{fill-rule:evenodd;clip-rule:evenodd;fill:#DBD8DB;}
	.st261{fill-rule:evenodd;clip-rule:evenodd;fill:#C9BFC8;}
	.st262{fill:#421815;}
	.st263{fill:#FCB982;}
	.st264{fill:#FDDBBF;}
	.st265{fill:#FCCA9F;}
	.st266{fill:#C6865C;}
	.st267{fill:#B16E3D;}
	.st268{fill:#454545;}
	.st269{fill:#EFECEF;}
	.st270{fill:#E2DFE2;}
	.st271{fill:#3F3736;}
	.st272{fill:#C4755B;}
	.st273{fill:#FFE3A1;}
	.st274{fill-rule:evenodd;clip-rule:evenodd;fill:#D48C64;}
	.st275{fill:#DBD8DB;}
	.st276{fill:#BB5D4C;}
	.st277{fill:#465A61;}
	.st278{fill:#596C76;}
	.st279{fill:#E5E1E5;}
	.st280{fill:#7A8C98;}
	.st281{fill:#FEDBA6;}
	.st282{fill:#EAB14D;}
	.st283{fill:#617881;}
	.st284{fill:#E28086;}
	.st285{fill:#DD636E;}
	.st286{fill:#FFE07D;}
	.st287{fill:#ECBE6B;}
	.st288{fill:#E9EDF5;}
	.st289{fill:#CDD2E1;}
	.st290{fill:#FFAA00;}
	.st291{fill:#FF9500;}
	.st292{fill:#555A65;}
	.st293{fill:#333940;}
	.st294{fill:#E6A373;}
	.st295{fill:#CC8552;}
	.st296{fill:#FFDF40;}
	.st297{fill:#FFBE40;}
	.st298{fill:#FF9F40;}
	.st299{fill:#F77E00;}
	.st300{fill:#FFF04A;}
	.st301{fill:#00DDC1;}
	.st302{fill:#A24603;}
	.st303{fill:#F2D813;}
	.st304{fill:#803602;}
	.st305{fill:#3A3A3A;}
	.st306{fill:#AFAFAF;}
	.st307{fill:#686868;}
	.st308{fill:#925A15;}
	.st309{fill:#F3F2F6;}
	.st310{fill:#BF7D5A;}
	.st311{fill:#AA6256;}
	.st312{fill:#894E46;}
	.st313{fill:#DBA660;}
	.st314{fill:#E49542;}
	.st315{fill:#F9EFDA;}
	.st316{fill:#756E78;}
	.st317{fill:#665E66;}
	.st318{fill:#F9F6F9;}
	.st319{fill:#BC6C59;}
	.st320{fill:#994B39;}
	.st321{fill:#FEEC96;}
	.st322{fill:#F5DB64;}
	.st323{fill:#5D5E69;}
	.st324{fill:#FFE09F;}
	.st325{fill:#ECBD83;}
	.st326{fill:#F6D190;}
	.st327{fill:#FF8086;}
	.st328{fill:#E5646E;}
	.st329{fill:#357DA3;}
	.st330{fill:#F48A3B;}
	.st331{fill:#FFC233;}
	.st332{fill:#CDDEE0;}
	.st333{fill:#C8C5C9;}
	.st334{fill:#785353;}
	.st335{fill:#6E4848;}
	.st336{fill:#B7E4F8;}
	.st337{fill:#93D6F4;}
	.st338{fill:#DBF1FB;}
	.st339{fill:#8DCAFC;}
	.st340{fill:#64B9FC;}
	.st341{fill:#C4E1FF;}
	.st342{fill:#B5DBFD;}
	.st343{fill:#FEE7C9;}
	.st344{fill:#FFD496;}
	.st345{fill:#A3E440;}
	.st346{fill:#99D53B;}
	.st347{fill:#BCEA73;}
	.st348{fill:#C76D3D;}
	.st349{fill:#AA5E33;}
	.st350{fill:#D67F4F;}
	.st351{fill:#8DC637;}
	.st352{fill:#A79BA7;}
	.st353{fill:#7A6D79;}
	.st354{fill:#C4E2FF;}
	.st355{fill:#60B7FF;}
	.st356{fill:#B3DAFE;}
	.st357{fill:#F3F0F3;}
	.st358{fill:#EFEDEF;}
	.st359{fill:#CBC4CC;}
	.st360{fill:#26A6FE;}
	.st361{fill:#D2555A;}
	.st362{fill:#FF6464;}
	.st363{fill:#D7DEED;}
	.st364{fill:#B8BFD4;}
	.st365{fill:#959CB3;}
	.st366{fill:#F8C460;}
	.st367{fill:#FAAF42;}
	.st368{fill:#7A838B;}
	.st369{fill:#5D6972;}
	.st370{fill:#A7D0E1;}
	.st371{fill:#80BBCE;}
	.st372{fill:#FFD8CA;}
	.st373{fill:#FFBFAE;}
	.st374{fill:#FFE5D8;}
	.st375{fill:#E5EEF9;}
	.st376{fill:#56595E;}
	.st377{fill:#7F8284;}
	.st378{fill:#A5A5A4;}
	.st379{fill:#95A5A5;}
	.st380{fill:#BDC3C7;}
	.st381{fill:#7F8C8D;}
</style>
<g id="Acoustic_Grand_Keyboard">
	<g>
		<g>
			<g>
				<path class="st282" d="M10.1,8.49c-0.31,0-0.59-0.2-0.68-0.5C9.3,7.61,9.52,7.21,9.89,7.1l1.31-0.4
					c0.38-0.11,0.78,0.1,0.89,0.47c0.12,0.38-0.1,0.78-0.47,0.89l-1.31,0.4C10.24,8.48,10.17,8.49,10.1,8.49z"/>
			</g>
			<g>
				<path class="st282" d="M12.9,7.08c-0.31,0-0.59-0.2-0.68-0.5c-0.12-0.38,0.1-0.78,0.47-0.89l1.31-0.4
					c0.38-0.12,0.78,0.1,0.89,0.47c0.12,0.38-0.1,0.78-0.47,0.89l-1.31,0.4C13.04,7.07,12.97,7.08,12.9,7.08z"/>
			</g>
			<g>
				<path class="st282" d="M20.06,6.05c-0.36,0-0.66-0.27-0.71-0.63c-0.05-0.39,0.23-0.75,0.62-0.79l1.4-0.17
					c0.39-0.05,0.75,0.23,0.79,0.62c0.05,0.39-0.23,0.75-0.62,0.79l-1.4,0.17C20.12,6.05,20.09,6.05,20.06,6.05z"/>
			</g>
			<g>
				<path class="st282" d="M23.09,5.43c-0.36,0-0.66-0.27-0.71-0.63C22.33,4.41,22.61,4.06,23,4.01l1.4-0.17
					c0.39-0.05,0.75,0.23,0.79,0.62c0.05,0.39-0.23,0.75-0.62,0.79l-1.4,0.17C23.14,5.43,23.12,5.43,23.09,5.43L23.09,5.43z"/>
			</g>
			<g>
				<path class="st282" d="M31.73,13.35c-0.01,0-0.02,0-0.04,0l-1.47-0.07c-0.39-0.02-0.7-0.35-0.68-0.75
					c0.02-0.39,0.35-0.7,0.75-0.68l1.47,0.07c0.39,0.02,0.7,0.35,0.68,0.75C32.42,13.05,32.11,13.35,31.73,13.35z"/>
			</g>
			<g>
				<path class="st282" d="M34.75,13.35c-0.01,0-0.02,0-0.04,0l-1.47-0.07c-0.39-0.02-0.7-0.35-0.68-0.75
					c0.02-0.39,0.35-0.7,0.75-0.68l1.47,0.07c0.39,0.02,0.7,0.35,0.68,0.75C35.44,13.05,35.13,13.35,34.75,13.35z"/>
			</g>
			<g>
				<path class="st282" d="M43.28,12.16c-0.11,0-0.22-0.03-0.33-0.08l-1.38-0.71c-0.35-0.18-0.49-0.61-0.31-0.96
					c0.18-0.35,0.61-0.49,0.96-0.31l1.38,0.71c0.35,0.18,0.49,0.61,0.31,0.96C43.78,12.02,43.54,12.16,43.28,12.16z"/>
			</g>
			<g>
				<path class="st282" d="M45.92,13.48c-0.11,0-0.22-0.03-0.33-0.08l-1.67-0.87c-0.35-0.18-0.49-0.61-0.31-0.96
					c0.18-0.35,0.61-0.49,0.96-0.31l1.67,0.87c0.35,0.18,0.49,0.61,0.31,0.96C46.42,13.34,46.17,13.48,45.92,13.48z"/>
			</g>
			<path class="st283" d="M7.48,29.92c-0.38-0.09-0.77,0.15-0.86,0.54L3.05,45.98l-0.92-0.24c-0.38-0.1-0.77,0.13-0.87,0.51
				c-0.1,0.38,0.13,0.77,0.51,0.87L5,47.98C5.06,47.99,5.12,48,5.19,48c0.32,0,0.6-0.21,0.69-0.53c0.1-0.38-0.13-0.77-0.51-0.87
				l-0.94-0.25l3.58-15.57C8.11,30.39,7.87,30.01,7.48,29.92z"/>
			<path class="st284" d="M5.88,32.81c-0.55-0.14-0.89-0.69-0.78-1.25l1.76-8.83C7.35,20.23,9,18.11,11.3,17
				c7.21-3.5,15.6-5.15,23.45-4.88c4.66,0.16,8.58,3.54,9.47,8.12l1.18,6.04c0.89,4.54-2.35,8.85-6.96,9.26l-11.07,0.98
				c-3.65,0.32-7.04-1.94-8.13-5.44l-0.69-2.21c-0.54-1.72-2.11-2.9-3.91-2.94c-1.84-0.04-3.49,1.12-4.07,2.87l-1.28,3.86
				c-0.18,0.54-0.74,0.84-1.29,0.7L5.88,32.81z"/>
			<g>
				<path class="st285" d="M40.57,35.05c3.42-1.33,5.57-4.97,4.83-8.77l-1.18-6.04c-0.9-4.57-4.82-7.95-9.47-8.12
					C26.9,11.85,18.51,13.5,11.3,17c-0.62,0.3-1.19,0.68-1.71,1.11c7.08-3.3,15.22-4.86,22.85-4.6c4.66,0.16,8.58,3.54,9.47,8.12
					l1.18,6.04C43.65,30.53,42.58,33.29,40.57,35.05L40.57,35.05z"/>
			</g>
			<path class="st286" d="M17.53,15.72c0.04,0.14-0.04,0.29-0.18,0.33l-4.55,1.34c-0.14,0.04-0.29-0.04-0.33-0.18l-0.56-1.89
				c-0.08-0.27,0.08-0.56,0.35-0.64l4.09-1.21c0.27-0.08,0.56,0.08,0.64,0.35L17.53,15.72z"/>
			<path class="st287" d="M10.81,2.29c-0.51,0.15-0.82,0.68-0.69,1.2l2.76,11.01l2.82-0.83L12.03,2.93
				C11.86,2.42,11.32,2.14,10.81,2.29z"/>
			<path class="st286" d="M25.91,14.41c0.02,0.15-0.09,0.28-0.24,0.3l-4.72,0.52c-0.15,0.02-0.28-0.09-0.3-0.24l-0.21-1.96
				c-0.03-0.28,0.17-0.54,0.45-0.57l4.23-0.46c0.28-0.03,0.54,0.17,0.57,0.45L25.91,14.41z"/>
			<path class="st287" d="M21.67,0.01c-0.53,0.06-0.92,0.52-0.89,1.06l0.76,11.32l2.92-0.32l-1.7-11.22
				C22.69,0.32,22.2-0.05,21.67,0.01L21.67,0.01z"/>
			<path class="st286" d="M34.05,17.23c-0.02,0.15-0.15,0.26-0.3,0.24l-4.72-0.48c-0.15-0.02-0.26-0.15-0.24-0.3l0.2-1.96
				c0.03-0.28,0.28-0.49,0.56-0.46l4.24,0.43c0.28,0.03,0.49,0.28,0.46,0.56L34.05,17.23z"/>
			<path class="st287" d="M32.93,2.26c-0.53-0.05-1.01,0.32-1.09,0.85l-1.63,11.23l2.92,0.3l0.69-11.32
				C33.86,2.78,33.46,2.31,32.93,2.26z"/>
			<g>
				<path class="st287" d="M25.83,37.13c-0.21,0-0.42-0.09-0.56-0.27c-0.24-0.31-0.19-0.76,0.12-1c2.93-2.3,6.42-4.12,10.11-5.25
					c3.32-1.02,6.5-2.63,9.19-4.66c0.31-0.24,0.76-0.17,1,0.14c0.24,0.31,0.17,0.76-0.14,1c-2.83,2.13-6.16,3.82-9.63,4.88
					c-3.52,1.08-6.85,2.81-9.64,5.01C26.14,37.08,25.99,37.13,25.83,37.13L25.83,37.13z"/>
			</g>
			<g>
				<path class="st287" d="M21.1,34.87c-0.2,0-0.39-0.08-0.53-0.24c-0.26-0.29-0.24-0.74,0.06-1.01c3.13-2.81,7.2-5.07,11.45-6.37
					c4.38-1.34,8.48-3.71,11.54-6.66c0.28-0.27,0.74-0.26,1.01,0.02c0.27,0.28,0.26,0.74-0.02,1.01c-3.22,3.1-7.52,5.58-12.11,6.99
					c-4.06,1.25-7.93,3.4-10.91,6.07C21.44,34.81,21.27,34.87,21.1,34.87L21.1,34.87z"/>
			</g>
			<g>
				<g>
					<path class="st287" d="M18.83,30.51c-0.2,0-0.41-0.09-0.55-0.26c-0.25-0.3-0.21-0.75,0.09-1c3.04-2.53,6.74-4.51,10.68-5.72
						c3.41-1.05,6.66-2.71,9.41-4.82c0.31-0.24,0.76-0.18,1,0.13c0.24,0.31,0.18,0.76-0.13,1c-2.88,2.21-6.28,3.96-9.86,5.06
						c-3.77,1.16-7.29,3.04-10.19,5.45C19.16,30.46,18.99,30.51,18.83,30.51L18.83,30.51z"/>
				</g>
			</g>
			<path class="st286" d="M40.32,21.9c-0.08,0.12-0.25,0.16-0.37,0.07L36,19.35c-0.12-0.08-0.16-0.25-0.07-0.37l1.09-1.64
				c0.16-0.24,0.48-0.3,0.71-0.14l3.54,2.36c0.24,0.16,0.3,0.48,0.14,0.71L40.32,21.9z"/>
			<path class="st287" d="M46.62,9.49c0.28-0.46,0.15-1.05-0.3-1.35c-0.44-0.3-1.04-0.19-1.36,0.24l-6.68,9.17l2.44,1.63L46.62,9.49
				z"/>
		</g>
	</g>
</g>
<g id="Layer_2">
</g>
</svg>
