<?xml version="1.0" encoding="utf-8"?>
<!-- Generator: Adobe Illustrator 25.0.0, SVG Export Plug-In . SVG Version: 6.00 Build 0)  -->
<svg version="1.1" xmlns="http://www.w3.org/2000/svg" xmlns:xlink="http://www.w3.org/1999/xlink" x="0px" y="0px"
	 viewBox="0 0 48 48" style="enable-background:new 0 0 48 48;" xml:space="preserve">
<style type="text/css">
	.st0{fill:#F5DAA7;}
	.st1{fill:#EDC472;}
	.st2{fill:#BC9B5B;}
	.st3{fill:#9A6A53;}
	.st4{fill:#855B47;}
	.st5{fill:#F4E2C1;}
	.st6{fill:#F7F7F7;}
	.st7{fill:#C8C3CA;}
	.st8{fill:#B78C7A;}
	.st9{fill:#7A5341;}
	.st10{fill:#704C3B;}
	.st11{fill:#CF9875;}
	.st12{fill:#C7865B;}
	.st13{clip-path:url(#SVGID_3_);}
	.st14{clip-path:url(#SVGID_4_);fill:#FFFFFF;stroke:#231F20;stroke-miterlimit:10;}
	.st15{fill:#FFFFFF;stroke:#231F20;stroke-miterlimit:10;}
	.st16{fill:none;stroke:#000000;stroke-width:4.5;stroke-miterlimit:10;}
	.st17{fill:#463C4B;}
	.st18{fill:#555A6E;}
	.st19{fill:#F06423;}
	.st20{fill:#FAA51E;}
	.st21{fill:#D7E6F0;}
	.st22{fill:#DADADA;}
	.st23{fill:#C4C6C6;}
	.st24{fill:#EDEEEF;}
	.st25{fill:#797981;}
	.st26{fill:#5A5A63;}
	.st27{fill:#494951;}
	.st28{fill:#29BAED;}
	.st29{fill:#DD9554;}
	.st30{fill:#CC8244;}
	.st31{fill:#805333;}
	.st32{fill:#A56A43;}
	.st33{fill:#CB8252;}
	.st34{fill:#ECF0F1;}
	.st35{fill:#603E26;}
	.st36{fill:#F9EAB0;}
	.st37{fill:#F5EFCA;}
	.st38{fill:#464F5D;}
	.st39{fill:#F3D55B;}
	.st40{fill:#6F6571;}
	.st41{fill:#4B3F4E;}
	.st42{fill:#5D5360;}
	.st43{fill:#857E87;}
	.st44{fill:#ECEAEC;}
	.st45{fill:#DAD8DB;}
	.st46{fill:#B3E59F;}
	.st47{fill:#CCF49F;}
	.st48{fill:#792A47;}
	.st49{fill:#A62B38;}
	.st50{fill:#D22D28;}
	.st51{fill:#FF2F19;}
	.st52{fill:#FFFFFF;}
	.st53{fill:#202666;}
	.st54{fill:#FDE6BB;}
	.st55{fill:#FE501F;}
	.st56{fill:#FD7226;}
	.st57{fill:#FCCD76;}
	.st58{fill:#FB932C;}
	.st59{fill:#4D2857;}
	.st60{fill:#B19046;}
	.st61{fill:#F0C419;}
	.st62{fill:#24AE5F;}
	.st63{fill:#E64C3C;}
	.st64{fill:#3B97D3;}
	.st65{fill:#E74444;}
	.st66{fill:#CE3536;}
	.st67{fill:#D9DBDD;}
	.st68{fill:#E8EDF1;}
	.st69{fill:#F3DB70;}
	.st70{fill:#D5DAF3;}
	.st71{fill:#A2AEE6;}
	.st72{fill:#FFC344;}
	.st73{fill:#FFE177;}
	.st74{fill:#BEC6ED;}
	.st75{fill:#8795DE;}
	.st76{fill-rule:evenodd;clip-rule:evenodd;fill:#A46A5A;}
	.st77{fill-rule:evenodd;clip-rule:evenodd;fill:#845252;}
	.st78{fill-rule:evenodd;clip-rule:evenodd;fill:#FFD05B;}
	.st79{fill-rule:evenodd;clip-rule:evenodd;fill:#704242;}
	.st80{fill-rule:evenodd;clip-rule:evenodd;fill:#FFC244;}
	.st81{fill-rule:evenodd;clip-rule:evenodd;fill:#596C76;}
	.st82{fill-rule:evenodd;clip-rule:evenodd;fill:#465A61;}
	.st83{fill:#A46A5A;}
	.st84{fill:#607D8B;}
	.st85{fill:#9C27B0;}
	.st86{fill:#03A9F4;}
	.st87{fill:#8BC34A;}
	.st88{fill:#FFC107;}
	.st89{fill:#FF9800;}
	.st90{fill:#F44336;}
	.st91{fill:#D7CCC8;}
	.st92{fill:#F57C00;}
	.st93{fill:#F9BB4B;}
	.st94{fill:#FCF05A;}
	.st95{fill:#66342E;}
	.st96{fill:#D3843D;}
	.st97{fill:#704C55;}
	.st98{fill:#5A344B;}
	.st99{fill:#E63950;}
	.st100{fill:#EFE2DD;}
	.st101{fill:#FF435B;}
	.st102{fill:#FFF5F5;}
	.st103{fill:#9B786F;}
	.st104{fill:#925CB4;}
	.st105{fill:#814BA2;}
	.st106{fill:#6F3F8A;}
	.st107{fill:#FFD185;}
	.st108{fill:#FFBA48;}
	.st109{fill:#FF5A35;}
	.st110{fill:#FF7A3C;}
	.st111{fill:#FFE8C2;}
	.st112{fill:#4F4F4F;}
	.st113{fill:#FF3A2F;}
	.st114{fill:#353535;}
	.st115{fill:#FB4A59;}
	.st116{fill:#F82F40;}
	.st117{fill:#3F5959;}
	.st118{fill:#384848;}
	.st119{fill:#EFF5F6;}
	.st120{fill:#CBE5E7;}
	.st121{fill:#FCC16D;}
	.st122{fill:#FCB44D;}
	.st123{fill:#A66856;}
	.st124{fill:#735458;}
	.st125{fill:#FFDEA9;}
	.st126{fill:#5C4346;}
	.st127{fill:#8F5040;}
	.st128{fill:#595959;}
	.st129{fill:#7F221C;}
	.st130{fill:#913122;}
	.st131{fill:#FFEFB0;}
	.st132{fill:#DB2116;}
	.st133{fill:#883F2E;}
	.st134{fill:#A44F3E;}
	.st135{fill:#D8AA5E;}
	.st136{fill:#E9B665;}
	.st137{fill:#E19974;}
	.st138{fill:#FFEFD2;}
	.st139{fill:#D7D0D6;}
	.st140{fill:#E8AD8C;}
	.st141{fill:#6D3326;}
	.st142{fill:#BA5D4F;}
	.st143{fill:#F5A871;}
	.st144{fill:#E89A5E;}
	.st145{fill:#A34F41;}
	.st146{fill:#D68A5A;}
	.st147{fill:#FFE5C4;}
	.st148{fill:#FDD1A7;}
	.st149{fill:#873F30;}
	.st150{fill:#C86F5C;}
	.st151{fill:#6C3328;}
	.st152{fill:#54231D;}
	.st153{fill:#B5B1B3;}
	.st154{fill:#FEC93E;}
	.st155{fill:#EFB533;}
	.st156{fill:#F7A738;}
	.st157{fill:#EA952F;}
	.st158{fill:#FD6E2E;}
	.st159{fill:#EA551B;}
	.st160{fill:#F5A257;}
	.st161{fill:#DB8F52;}
	.st162{fill:#75360D;}
	.st163{fill:#FFBF7B;}
	.st164{fill:#00CCB2;}
	.st165{fill:#00AB94;}
	.st166{fill:#FEA832;}
	.st167{fill:#FF8700;}
	.st168{fill:#00EED0;}
	.st169{fill:#FFD400;}
	.st170{fill:#FDBF00;}
	.st171{fill:#08B865;}
	.st172{fill:#E41F2D;}
	.st173{fill:#FD4755;}
	.st174{fill:#FB2B3A;}
	.st175{fill:#FED2A4;}
	.st176{fill:#FFE5C2;}
	.st177{fill:#FFBD86;}
	.st178{fill:#FE99A0;}
	.st179{fill:#FD8087;}
	.st180{fill:#C57A44;}
	.st181{fill:#09A755;}
	.st182{fill:#FEDF30;}
	.st183{fill:#FED402;}
	.st184{fill:#FAC600;}
	.st185{fill:#46CC8D;}
	.st186{fill:#00C27A;}
	.st187{fill:#FE7701;}
	.st188{fill:#FE860A;}
	.st189{fill:#C41926;}
	.st190{fill:#E89C5D;}
	.st191{fill:#F4B37D;}
	.st192{fill:#E8626C;}
	.st193{fill:#40C6C2;}
	.st194{fill:#FFC999;}
	.st195{fill:#4A4A68;}
	.st196{fill:#333356;}
	.st197{fill:#EDEDED;}
	.st198{fill:#C9C9C9;}
	.st199{fill:#FF9900;}
	.st200{fill:#FFCE00;}
	.st201{fill:#FBBD00;}
	.st202{fill:#ED8100;}
	.st203{fill:#FFE431;}
	.st204{fill:#FF9F00;}
	.st205{fill:#FFE666;}
	.st206{fill:#FFBF00;}
	.st207{fill:#FCCD31;}
	.st208{fill:#F2B016;}
	.st209{fill:#4A4D4F;}
	.st210{fill:#D3CBC2;}
	.st211{fill:#6D7072;}
	.st212{fill:#BAAFA6;}
	.st213{fill:#888C8E;}
	.st214{fill:#B4B4B4;}
	.st215{fill:#FFE999;}
	.st216{fill:#FFCF3B;}
	.st217{fill:#C1C1C1;}
	.st218{fill:#FFBC19;}
	.st219{fill:#94E6FF;}
	.st220{fill:#315F83;}
	.st221{fill:#267EA8;}
	.st222{fill:#3B3F5F;}
	.st223{fill:#D8F2FB;}
	.st224{fill:#35495E;}
	.st225{fill:#556080;}
	.st226{fill:#E4C05C;}
	.st227{fill:#E4C05C;stroke:#E4C05C;stroke-width:2;stroke-linecap:round;stroke-linejoin:round;stroke-miterlimit:10;}
	.st228{fill:#B57F5F;}
	.st229{fill:#966A5B;}
	.st230{fill:#FFD15B;}
	.st231{fill:#A5C3DC;}
	.st232{fill:#8697CB;}
	.st233{fill:#E0E0E0;}
	.st234{fill:#CCCCCC;}
	.st235{fill:#8E8E8E;}
	.st236{fill:#A0A0A0;}
	.st237{fill:#E13732;}
	.st238{fill:#F05055;}
	.st239{fill:#D24605;}
	.st240{fill:#FFCE53;}
	.st241{fill:#FFB833;}
	.st242{fill:#4999D1;}
	.st243{fill:#43AAF0;}
	.st244{fill:#FF2E23;}
	.st245{fill:#FF4A26;}
	.st246{fill:#C6805D;}
	.st247{fill:#77CC7D;}
	.st248{fill:#52BD7E;}
	.st249{fill:#98DB7C;}
	.st250{fill:#D48C64;}
	.st251{fill:#FFD18D;}
	.st252{fill:#FBBD80;}
	.st253{fill:#F3B573;}
	.st254{fill:#434A54;}
	.st255{fill:#DA4453;}
	.st256{fill:#FFCE54;}
	.st257{fill:#ED5564;}
	.st258{fill-rule:evenodd;clip-rule:evenodd;fill:#4BC3EF;}
	.st259{fill-rule:evenodd;clip-rule:evenodd;fill:#1BADDE;}
	.st260{fill-rule:evenodd;clip-rule:evenodd;fill:#DBD8DB;}
	.st261{fill-rule:evenodd;clip-rule:evenodd;fill:#C9BFC8;}
	.st262{fill:#421815;}
	.st263{fill:#FCB982;}
	.st264{fill:#FDDBBF;}
	.st265{fill:#FCCA9F;}
	.st266{fill:#C6865C;}
	.st267{fill:#B16E3D;}
	.st268{fill:#454545;}
	.st269{fill:#EFECEF;}
	.st270{fill:#E2DFE2;}
	.st271{fill:#3F3736;}
	.st272{fill:#C4755B;}
	.st273{fill:#FFE3A1;}
	.st274{fill-rule:evenodd;clip-rule:evenodd;fill:#D48C64;}
	.st275{fill:#DBD8DB;}
	.st276{fill:#BB5D4C;}
	.st277{fill:#465A61;}
	.st278{fill:#596C76;}
	.st279{fill:#E5E1E5;}
	.st280{fill:#7A8C98;}
	.st281{fill:#FEDBA6;}
	.st282{fill:#EAB14D;}
	.st283{fill:#617881;}
	.st284{fill:#E28086;}
	.st285{fill:#DD636E;}
	.st286{fill:#FFE07D;}
	.st287{fill:#ECBE6B;}
	.st288{fill:#E9EDF5;}
	.st289{fill:#CDD2E1;}
	.st290{fill:#FFAA00;}
	.st291{fill:#FF9500;}
	.st292{fill:#555A65;}
	.st293{fill:#333940;}
	.st294{fill:#E6A373;}
	.st295{fill:#CC8552;}
	.st296{fill:#FFDF40;}
	.st297{fill:#FFBE40;}
	.st298{fill:#FF9F40;}
	.st299{fill:#F77E00;}
	.st300{fill:#FFF04A;}
	.st301{fill:#00DDC1;}
	.st302{fill:#A24603;}
	.st303{fill:#F2D813;}
	.st304{fill:#803602;}
	.st305{fill:#3A3A3A;}
	.st306{fill:#AFAFAF;}
	.st307{fill:#686868;}
	.st308{fill:#925A15;}
	.st309{fill:#F3F2F6;}
	.st310{fill:#BF7D5A;}
	.st311{fill:#AA6256;}
	.st312{fill:#894E46;}
	.st313{fill:#DBA660;}
	.st314{fill:#E49542;}
	.st315{fill:#F9EFDA;}
	.st316{fill:#756E78;}
	.st317{fill:#665E66;}
	.st318{fill:#F9F6F9;}
	.st319{fill:#BC6C59;}
	.st320{fill:#994B39;}
	.st321{fill:#FEEC96;}
	.st322{fill:#F5DB64;}
	.st323{fill:#5D5E69;}
	.st324{fill:#FFE09F;}
	.st325{fill:#ECBD83;}
	.st326{fill:#F6D190;}
	.st327{fill:#FF8086;}
	.st328{fill:#E5646E;}
	.st329{fill:#357DA3;}
	.st330{fill:#F48A3B;}
	.st331{fill:#FFC233;}
	.st332{fill:#CDDEE0;}
	.st333{fill:#C8C5C9;}
	.st334{fill:#785353;}
	.st335{fill:#6E4848;}
	.st336{fill:#B7E4F8;}
	.st337{fill:#93D6F4;}
	.st338{fill:#DBF1FB;}
	.st339{fill:#8DCAFC;}
	.st340{fill:#64B9FC;}
	.st341{fill:#C4E1FF;}
	.st342{fill:#B5DBFD;}
	.st343{fill:#FEE7C9;}
	.st344{fill:#FFD496;}
	.st345{fill:#A3E440;}
	.st346{fill:#99D53B;}
	.st347{fill:#BCEA73;}
	.st348{fill:#C76D3D;}
	.st349{fill:#AA5E33;}
	.st350{fill:#D67F4F;}
	.st351{fill:#8DC637;}
	.st352{fill:#A79BA7;}
	.st353{fill:#7A6D79;}
	.st354{fill:#C4E2FF;}
	.st355{fill:#60B7FF;}
	.st356{fill:#B3DAFE;}
	.st357{fill:#F3F0F3;}
	.st358{fill:#EFEDEF;}
	.st359{fill:#CBC4CC;}
	.st360{fill:#26A6FE;}
	.st361{fill:#D2555A;}
	.st362{fill:#FF6464;}
	.st363{fill:#D7DEED;}
	.st364{fill:#B8BFD4;}
	.st365{fill:#959CB3;}
	.st366{fill:#F8C460;}
	.st367{fill:#FAAF42;}
	.st368{fill:#7A838B;}
	.st369{fill:#5D6972;}
	.st370{fill:#A7D0E1;}
	.st371{fill:#80BBCE;}
	.st372{fill:#FFD8CA;}
	.st373{fill:#FFBFAE;}
	.st374{fill:#FFE5D8;}
	.st375{fill:#E5EEF9;}
	.st376{fill:#56595E;}
	.st377{fill:#7F8284;}
	.st378{fill:#A5A5A4;}
	.st379{fill:#95A5A5;}
	.st380{fill:#BDC3C7;}
	.st381{fill:#7F8C8D;}
</style>
<g id="Acoustic_Grand_Keyboard">
	<g>
		<g>
			<g>
				<g>
					<g>
						<g>
							<path class="st134" d="M22,25.75V13.32c0-4.62-3.75-8.37-8.37-8.37h-1.27C7.74,4.95,4,8.69,4,13.3v14.73
								c0.21-0.05,0.43-0.07,0.65-0.08c0.05,0,0.06,0,0.09,0H22v-0.86c0.24-0.49,0.38-0.94,0.61-1.34H22z"/>
						</g>
						<path class="st171" d="M32.53,33.26c0.26,0,0.47,0.2,0.47,0.45v5.14l0.56,0.09H43V24.76l-0.09-0.81H24.73
							c-1.51,0-2.73,1.22-2.73,2.73v9.06l1.59,0.59c0.09,0.04,0.19,0.07,0.29,0.07c0.1,0,0.2-0.02,0.29-0.07l8.13-3
							C32.39,33.28,32.46,33.26,32.53,33.26L32.53,33.26z"/>
						<path class="st133" d="M4.67,27.95c0.05,0,0.06,0,0.09,0H7V13.41c0-4.44,3.4-8.08,7.74-8.44c-0.23-0.02-0.46-0.03-0.7-0.03
							h-1.68C7.74,4.95,4,8.69,4,13.3v14.73C4.22,27.99,4.44,27.96,4.67,27.95z"/>
						<path class="st172" d="M21.57,26.95H5.24c-0.08,0-0.07,0-0.15,0L5,27.64v11.3h9.43l0.57-0.1v-5.19c0-0.26,0.2-0.47,0.45-0.47
							c0.07,0,0.14,0.02,0.2,0.05L22,35.77v-8.8C21.86,26.95,21.71,26.95,21.57,26.95L21.57,26.95z"/>
						<path class="st173" d="M17.09,24.34c-1.15,0.87-2.56,1.39-4.09,1.39s-2.95-0.52-4.09-1.39C8.36,24.67,8,25.28,8,25.97v1.08
							c0,1.05,0.85,1.89,1.89,1.89h6.21c1.05,0,1.89-0.85,1.89-1.89v-1.08C18,25.28,17.64,24.67,17.09,24.34L17.09,24.34z"/>
						<path class="st174" d="M11,27.05v-1.08c0-0.19,0.03-0.37,0.08-0.55c-0.78-0.24-1.51-0.61-2.15-1.09
							C8.37,24.67,8,25.28,8,25.97v1.08c0,1.05,0.85,1.89,1.89,1.89h2.98C11.84,28.95,11,28.1,11,27.05z"/>
						<g>
							<path class="st175" d="M6,18.59v-2.64H4.98C3.81,16.2,2.86,17.14,3,18.31v1.29c-0.14,1.17,0.81,2.12,1.98,2.35h1.99
								c-0.46-1.18-0.72-2.24-0.72-3.36H6z"/>
							<path class="st176" d="M21.93,15.95H21v2.64c-0.34,1.12-0.6,2.18-1.06,3.36h1.99c1.17-0.23,2.12-1.18,2.07-2.35v-1.29
								c0.04-1.17-0.91-2.12-2.07-2.12V15.95z"/>
						</g>
						<g>
							<path class="st175" d="M17.68,11.32L7.19,14.29C6.49,14.49,6,15.13,6,15.86l0,2.65c0,3.24,2.01,6.23,5.1,7.19
								c5.16,1.6,9.9-2.21,9.9-7.13v-4.29c0-1.55-1.15-2.82-2.65-3.02C18.13,11.24,17.9,11.26,17.68,11.32L17.68,11.32z"/>
						</g>
						<g>
							<g>
								<path class="st177" d="M9,18.6v-4.14c0-0.18,0.02-0.36,0.05-0.54l-1.86,0.53C6.49,14.65,6,15.29,6,16.03l0,2.28
									c0,3.71,2.67,7.03,6.35,7.47c0.82,0.1,1.62,0.05,2.37-0.1C11.45,24.97,9,22.07,9,18.6z"/>
							</g>
						</g>
						<g>
							<path class="st178" d="M13.52,23.95h-0.99c-0.85,0-1.53-0.69-1.53-1.53v-1c0-0.26,0.19-0.47,0.42-0.47h3.17
								c0.23,0,0.42,0.21,0.42,0.47v0.87C15,23.2,14.34,23.95,13.52,23.95L13.52,23.95z"/>
						</g>
						<g>
							<path class="st179" d="M13,22.29v-0.87c0-0.26,0.2-0.47,0.45-0.47h-2c-0.25,0-0.45,0.21-0.45,0.47v1
								c0,0.85,0.69,1.53,1.53,1.53h1.16c0.15,0,0.3-0.02,0.44-0.07C13.48,23.68,13,23.04,13,22.29L13,22.29z"/>
						</g>
						<g>
							<g>
								<path class="st180" d="M13.29,19.47c-0.16,0-0.32-0.05-0.45-0.16L12,18.61c-0.28-0.24-0.34-0.65-0.12-0.95l0.84-1.15
									c0.23-0.31,0.67-0.38,0.98-0.15c0.31,0.23,0.38,0.67,0.15,0.98l-0.46,0.62l0.34,0.28c0.3,0.25,0.34,0.69,0.09,0.99
									C13.69,19.39,13.49,19.47,13.29,19.47L13.29,19.47z"/>
							</g>
							<g>
								<g>
									<path class="st180" d="M8.71,17.17c-0.18,0-0.36-0.07-0.5-0.21c-0.27-0.27-0.27-0.72,0-0.99c0.48-0.48,1.11-0.74,1.78-0.74
										c0.67,0,1.31,0.26,1.78,0.74c0.27,0.27,0.27,0.72,0,0.99c-0.27,0.27-0.72,0.27-0.99,0c-0.21-0.21-0.49-0.33-0.79-0.33
										c-0.3,0-0.58,0.12-0.79,0.33C9.07,17.1,8.89,17.17,8.71,17.17L8.71,17.17z"/>
								</g>
								<g>
									<path class="st180" d="M18.19,17.17c-0.18,0-0.36-0.07-0.5-0.21c-0.21-0.21-0.49-0.33-0.79-0.33s-0.58,0.12-0.79,0.33
										c-0.27,0.27-0.72,0.27-0.99,0c-0.27-0.27-0.27-0.72,0-0.99c0.48-0.48,1.11-0.74,1.78-0.74s1.31,0.26,1.78,0.74
										c0.27,0.27,0.27,0.72,0,0.99C18.55,17.1,18.37,17.17,18.19,17.17L18.19,17.17z"/>
								</g>
							</g>
						</g>
						<path class="st181" d="M23.72,36.23c0.17,0.08,0.37,0.08,0.54,0L26,35.62v-8.95c0-1.51,1.34-2.73,2.98-2.73h-4.26
							c-1.51,0-2.73,1.22-2.73,2.73v8.96L23.72,36.23z"/>
						<g>
							<g>
								<path class="st182" d="M33,44.45V34.03c0-0.41-0.44-0.68-0.8-0.49l-7.95,3.05c-0.16,0.08-0.34,0.08-0.5,0l-7.95-3.05
									c-0.37-0.19-0.8,0.08-0.8,0.49v10.43c0,0.2,0.1,0.38,0.27,0.48l8.45,3.05c0.17,0.1,0.39,0.1,0.56,0l8.45-3.05
									C32.9,44.83,33,44.65,33,44.45z"/>
							</g>
							<path class="st175" d="M34,39.08l-0.1-0.13h-2.22c-0.93,0-1.68,0.75-1.68,1.68v2.64c0,0.93,0.75,1.68,1.68,1.68h2.22
								l0.1-0.17V39.08z"/>
							<path class="st183" d="M23.94,36.64c-0.06-0.01-0.13-0.03-0.19-0.06l-7.95-3.05c-0.37-0.19-0.8,0.08-0.8,0.49v10.43
								c0,0.2,0.1,0.38,0.27,0.48l8.45,3.05c0.07,0.04,0.14,0.06,0.21,0.07c0.02,0,0.05,0,0.07,0V36.64
								C23.98,36.64,23.96,36.64,23.94,36.64L23.94,36.64z"/>
							<path class="st184" d="M17,45.7V33.89c0-0.04,0-0.08,0.01-0.11l-1.18-0.45C15.45,33.13,15,33.41,15,33.84v10.83
								c0,0.2,0.11,0.39,0.28,0.5l1.72,0.62C17,45.75,17,45.73,17,45.7L17,45.7z"/>
							<path class="st175" d="M16.16,38.95H14.1L14,39.07v5.71l0.1,0.16h2.22c0.93,0,1.68-0.75,1.68-1.68v-2.49
								C18,39.76,17.18,38.95,16.16,38.95L16.16,38.95z"/>
						</g>
						<path class="st185" d="M37.62,21.47c-0.7,0.3-1.48,0.48-2.3,0.48h-2.65c-0.82,0-1.59-0.17-2.3-0.48
							C29.59,21.66,29,22.35,29,23.18v0.87c0,1.05,0.85,1.89,1.89,1.89h6.21c1.05,0,1.89-0.85,1.89-1.89v-0.87
							C39,22.35,38.41,21.66,37.62,21.47L37.62,21.47z"/>
						<path class="st186" d="M33,24.14v-1.02c0-0.45,0.17-0.86,0.46-1.17h-0.61c-0.91,0-1.77-0.19-2.55-0.54
							c-0.76,0.24-1.3,0.91-1.3,1.71v0.93c0,1.05,0.85,1.89,1.89,1.89h4.02C33.86,25.95,33,25.14,33,24.14z"/>
						<g>
							<g>
								<g>
									<path class="st187" d="M40.36,0.95h-3.35C37.63,1.59,38,2.45,38,3.38v3.56h1.13c1.58,0,2.87,1.29,2.87,2.87v1.13h0.95
										c0.38,0.48,0.74,0.59,1.05,0.78V5.04c-0.01-2.01-1.63-3.63-3.64-3.63L40.36,0.95z"/>
								</g>
								<path class="st188" d="M26.03,10.95H27V9.8c0-1.58,1.28-2.85,2.85-2.85H38V3.58c0-2.01-1.63-3.63-3.63-3.63h-8.52
									C25.38-0.05,25,0.32,25,0.79v10.44C25.3,11.05,25.66,10.95,26.03,10.95z"/>
								<path class="st187" d="M26.05,10.95H27v-0.88c0.17-0.77,1-1.98,1-1.98V0.78c0-0.46,0.38-0.83,0.85-0.83h-3
									C25.38-0.05,25,0.32,25,0.79v10.43C25.31,11.04,25.67,10.95,26.05,10.95z"/>
							</g>
							<g>
								<path class="st175" d="M27,15.63v-4.69h-1c-1.17,0.39-2.12,1.34-2,2.51v1.29c-0.12,1.17,0.83,2.12,2,2.21h1.4
									c-0.08-0.49-0.13-0.89-0.13-1.31L27,15.63z"/>
								<path class="st176" d="M42.95,10.95H42v4.69c-0.32,0.42-0.37,0.83-0.45,1.31h1.4c1.17-0.09,2.12-1.04,2.05-2.21v-1.29
									c0.06-1.17-0.88-2.12-2.05-2.12L42.95,10.95z"/>
							</g>
							<g>
								<path class="st175" d="M35.91,20.95h-2.99c-3.27,0-5.93-2.65-5.93-5.93V9.89c0-1.63,1.32-2.95,2.95-2.95h9.09
									c1.64,0,2.96,1.33,2.96,2.96v5.29C42,18.37,39.27,20.95,35.91,20.95L35.91,20.95z"/>
							</g>
							<g>
								<path class="st177" d="M30,15.2V9.8c0-1.59,1.32-2.86,2.96-2.86h-3C28.33,6.95,27,8.27,27,9.91v5.11
									c0,3.27,2.65,5.93,5.93,5.93h2.73c0.04,0,0.09,0,0.13,0C32.58,20.88,30,18.33,30,15.2L30,15.2z"/>
							</g>
							<g>
								<path class="st178" d="M35.15,18.95h-1.36c-1.06,0.55-1.91-0.31-1.79-1.37v-1.01c-0.12-0.3,0.12-0.54,0.42-0.63h4.1
									c0.3,0.09,0.54,0.33,0.48,0.63v1.01c0.06,1.06-0.79,1.91-1.85,1.91V18.95z"/>
							</g>
							<g>
								<path class="st179" d="M34,17.58v-1.01c-0.18-0.3,0.06-0.54,0.36-0.63h-1.94c-0.3,0.09-0.54,0.33-0.42,0.63v1.01
									c-0.12,1.06,0.74,1.91,1.79,1.37h1.36c0.1,0.55,0.2,0.54,0.29,0.52C34.53,19.33,33.82,18.54,34,17.58z"/>
							</g>
							<g>
								<path class="st180" d="M34.49,14.82c-0.18,0-0.36-0.07-0.5-0.21l-0.84-0.84c-0.23-0.23-0.27-0.58-0.1-0.86l0.84-1.39
									c0.2-0.33,0.63-0.44,0.96-0.23c0.33,0.2,0.44,0.63,0.23,0.96l-0.56,0.92l0.46,0.46c0.27,0.27,0.27,0.72,0,0.99
									C34.85,14.75,34.67,14.82,34.49,14.82L34.49,14.82z"/>
							</g>
							<g>
								<g>
									<path class="st180" d="M32.48,11.86c-0.18,0-0.36-0.07-0.5-0.21c-0.21-0.21-0.49-0.33-0.79-0.33
										c-0.3,0-0.58,0.12-0.79,0.33c-0.27,0.27-0.72,0.27-0.99,0c-0.27-0.27-0.27-0.72,0-0.99c0.48-0.48,1.11-0.74,1.78-0.74
										c0.67,0,1.31,0.26,1.78,0.74c0.27,0.27,0.27,0.72,0,0.99C32.84,11.79,32.66,11.86,32.48,11.86L32.48,11.86z"/>
								</g>
								<g>
									<path class="st180" d="M36.81,11.86c-0.18,0-0.36-0.07-0.5-0.21c-0.27-0.27-0.27-0.72,0-0.99
										c0.48-0.48,1.11-0.74,1.78-0.74s1.31,0.26,1.78,0.74c0.27,0.27,0.27,0.72,0,0.99c-0.27,0.27-0.72,0.27-0.99,0
										c-0.21-0.21-0.49-0.33-0.79-0.33c-0.3,0-0.58,0.12-0.79,0.33C37.17,11.79,36.99,11.86,36.81,11.86z"/>
								</g>
							</g>
						</g>
						<g>
							<path class="st185" d="M44.27,24.95H43v14h-9v6h11.36c0.9,0,1.64-0.73,1.64-1.64V27.67C47,26.17,45.78,24.95,44.27,24.95z"/>
						</g>
					</g>
				</g>
				<path class="st189" d="M2.71,44.95H14v-6H5V26.36c-2.22,0.08-4,1.98-4,4.32v12.49C1,44.15,1.77,44.95,2.71,44.95L2.71,44.95z"/>
				<g>
					<path class="st184" d="M8.44,1.82C8.24,1.64,7.96,1.55,7.7,1.58L3.73,1.99C3.24,2.04,2.87,2.45,3,2.94v3.1
						c0.61,0.11,1.17,0.91,1.17,0.91H4V3.34l3-0.32v2.56c1.09,0.11,1.66,1.37,1.66,1.37H9V2.53C8.75,2.26,8.64,2,8.44,1.82z"/>
					<g>
						<g>
							<circle class="st183" cx="7.12" cy="7.1" r="1.63"/>
						</g>
					</g>
					<g>
						<circle class="st183" cx="2.63" cy="7.56" r="1.63"/>
					</g>
				</g>
			</g>
			<g>
				<path class="st184" d="M44.49,26.78c-0.2-0.18-0.47-0.27-0.74-0.24l-3.97,0.41C39.29,27,38.92,27.41,39,27.9V31
					c0.66,0.11,1.22,0.94,1.22,0.94H40V28.3l3-0.32v2.56c1.14,0.11,1.71,1.41,1.71,1.41H45v-4.45
					C44.8,27.22,44.69,26.96,44.49,26.78L44.49,26.78z"/>
				<g>
					<g>
						<circle class="st183" cx="43.17" cy="32.06" r="1.63"/>
					</g>
				</g>
				<g>
					<circle class="st183" cx="38.68" cy="32.52" r="1.63"/>
				</g>
			</g>
		</g>
	</g>
</g>
<g id="Layer_2">
</g>
</svg>
