<?xml version="1.0" encoding="utf-8"?>
<!-- Generator: Adobe Illustrator 25.0.0, SVG Export Plug-In . SVG Version: 6.00 Build 0)  -->
<svg version="1.1" id="volume" xmlns="http://www.w3.org/2000/svg" xmlns:xlink="http://www.w3.org/1999/xlink" x="0px" y="0px"
	 viewBox="0 0 48 48" style="enable-background:new 0 0 48 48;" xml:space="preserve">
<g>
	<path d="M27.57,39.2c-0.77,0-1.41-0.55-1.51-1.32L22.65,12.2l-4.15,18.93c-0.15,0.68-0.72,1.16-1.41,1.19
		c-0.69,0.05-1.31-0.38-1.52-1.05l-2.66-8.11l-2.92,6.48c-0.22,0.49-0.69,0.83-1.23,0.89c-0.53,0.07-1.07-0.18-1.39-0.62l-3.41-4.72
		H0.98C0.44,25.19,0,24.75,0,24.21s0.44-0.98,0.98-0.98h3.2c0.49,0,0.95,0.24,1.24,0.63l3.1,4.29l3.07-6.82
		c0.26-0.58,0.84-0.93,1.47-0.9c0.63,0.03,1.17,0.44,1.37,1.04l2.51,7.66l4.34-19.79c0.16-0.74,0.8-1.24,1.55-1.2
		c0.75,0.03,1.35,0.57,1.45,1.32l3.3,24.81l1.9-14.89c0.1-0.77,0.73-1.33,1.51-1.33c0,0,0.01,0,0.01,0c0.78,0,1.41,0.57,1.5,1.35
		l0.73,6.23l0.77-5.47c0.1-0.75,0.7-1.28,1.46-1.31c0.73-0.03,1.39,0.47,1.54,1.21l1.16,5.45l1.27-5.63
		c0.15-0.66,0.71-1.14,1.38-1.18c0.69-0.05,1.29,0.35,1.53,0.99l1.32,3.54h3.38c0.54,0,0.98,0.44,0.98,0.98s-0.44,0.98-0.98,0.98
		h-3.68c-0.63,0-1.21-0.4-1.43-0.99L41,21.75l-1.39,6.15c-0.16,0.7-0.77,1.19-1.48,1.19c0,0-0.01,0-0.01,0
		c-0.72,0-1.33-0.5-1.48-1.21l-1.06-4.98l-0.9,6.38c-0.11,0.77-0.71,1.32-1.53,1.31c-0.78-0.01-1.4-0.58-1.49-1.35l-0.71-6.05
		l-1.87,14.67C28.99,38.63,28.35,39.19,27.57,39.2C27.58,39.2,27.58,39.2,27.57,39.2z M4.18,25.19L4.18,25.19L4.18,25.19z"/>
</g>
</svg>
