<?xml version="1.0" encoding="iso-8859-1"?>
<!-- Generator: Adobe Illustrator 25.0.0, SVG Export Plug-In . SVG Version: 6.00 Build 0)  -->
<svg version="1.1" xmlns="http://www.w3.org/2000/svg" xmlns:xlink="http://www.w3.org/1999/xlink" x="0px" y="0px"
	 viewBox="0 0 48 48" style="enable-background:new 0 0 48 48;" xml:space="preserve">
<symbol  id="E050-mpvf5d" viewBox="-230.4 -640.08 460.8 1280.16">
	<path d="M174.24,175.68c0-64.08-46.8-108-111.6-108c5.04,31.68,24.48,146.16,39.6,232.56C153.36,279.36,174.24,226.8,174.24,175.68
		z M72,308.88L30.24,72c-42.48,10.08-74.88,45.36-74.88,89.28c0,35.28,15.84,54,43.92,71.28c8.64,5.76,15.84,9.36,15.84,15.84
		s-6.48,9.36-12.24,9.36c-57.6,0-97.2-69.12-97.2-119.52C-94.32,70.56-49.68,1.44,15.84-18C10.8-47.52,5.76-81.36-0.72-120.24
		c-10.8,10.8-22.32,20.88-34.56,31.68c-63.36,54.72-125.28,133.2-125.28,221.04c0,108.72,87.84,180.72,190.8,180.72
		C43.92,313.2,57.6,311.76,72,308.88z M8.64-431.28c-5.76,22.32-7.92,46.8-7.92,73.44c0,30.24,3.6,58.32,7.92,87.12
		c49.68-48.96,105.12-105.12,105.12-180c0-49.68-17.28-84.96-28.08-84.96C48.24-535.68,15.12-460.08,8.64-431.28z M-142.56,529.92
		c0-47.52,32.4-88.56,82.8-88.56c54,0,83.52,41.04,83.52,79.92c0,46.08-33.84,74.88-67.68,79.92c-2.16,0.72-3.6,1.44-3.6,2.88
		c0,0.72,1.44,1.44,2.16,2.16c1.44,0,16.56,3.6,33.84,3.6c72.72,0,110.88-39.6,110.88-114.48c0-38.16-7.92-88.56-21.6-157.68
		c-16.56,2.88-36,5.04-56.88,5.04c-133.92,0-251.28-105.84-251.28-240.48c0-144,90.72-231.12,156.24-292.32
		c15.12-12.24,52.56-50.4,53.28-51.12C-33.12-321.84-36.72-357.12-36.72-396c0-60.48,12.96-152.64,59.04-207.36
		c23.76-28.08,46.08-36.72,51.12-36.72c12.96,0,33.84,25.2,51.12,61.92c11.52,25.92,31.68,79.2,31.68,144.72
		c0,114.48-52.56,204.48-128.88,284.4c6.48,40.32,13.68,82.8,20.88,126c105.12,0,182.16,73.44,182.16,182.16
		c0,74.16-52.56,147.6-123.12,170.64c4.32,28.08,8.64,49.68,10.8,64.08c7.2,41.04,11.52,73.44,11.52,101.52
		c0,45.36-10.08,92.88-48.96,120.24c-25.92,15.84-55.44,24.48-89.28,24.48C-105.84,640.08-142.56,577.44-142.56,529.92z"/>
</symbol>
<g id="treble.svg">
	
		<use xlink:href="#E050-mpvf5d"  width="460.8" height="1280.16" x="-230.4" y="-640.08" transform="matrix(0.0358 0 0 0.0375 24 24)" style="overflow:visible;"/>
</g>
<g id="bass.svg">
</g>
</svg>
