<?xml version="1.0" encoding="iso-8859-1"?>
<!-- Generator: Adobe Illustrator 25.0.0, SVG Export Plug-In . SVG Version: 6.00 Build 0)  -->
<svg version="1.1" xmlns="http://www.w3.org/2000/svg" xmlns:xlink="http://www.w3.org/1999/xlink" x="0px" y="0px"
	 viewBox="0 0 48 48" style="enable-background:new 0 0 48 48;" xml:space="preserve">
<g id="treble.svg">
</g>
<g id="bass.svg">
	<g transform="matrix(1 0 0 -1 0 0)">
		<path d="M38.394-24c0,1.803,1.43,3.233,3.233,3.233c1.803,0,3.233-1.43,3.233-3.233s-1.43-3.233-3.233-3.233
			C39.824-27.233,38.394-25.803,38.394-24z M38.394-8.456c0,1.803,1.43,3.233,3.233,3.233c1.803,0,3.233-1.43,3.233-3.233
			s-1.43-3.233-3.233-3.233C39.824-11.689,38.394-10.259,38.394-8.456z M18.311,0c10.632,0,18.155-5.347,18.155-15.42
			c0-16.352-16.415-25.803-32.145-32.394C4.197-47.938,4.01-48,3.824-48c-0.373,0-0.684,0.311-0.684,0.684
			c0,0.187,0.062,0.373,0.187,0.497C15.948-39.482,29.13-30.342,29.13-16.104c0,7.523-3.979,14.736-10.819,14.736
			c-4.912,0-8.58-3.544-10.197-8.269c0.87,0.497,1.741,0.808,2.674,0.808c3.42,0,6.218-2.798,6.218-6.218
			c0-3.606-2.736-6.653-6.218-6.653c-3.731,0-6.964,2.984-6.964,6.653C3.824-6.839,10.228,0,18.311,0z"/>
	</g>
</g>
</svg>
